<svg id="Layer_1" data-name="Layer 1" xmlns="http://www.w3.org/2000/svg" xmlns:xlink="http://www.w3.org/1999/xlink" viewBox="0 0 1920 1080"><defs><style>.cls-1,.cls-3{fill:none;}.cls-2{clip-path:url(#clip-path);}.cls-3{stroke:#cdcecd;stroke-miterlimit:10;}.cls-4{fill:#cdcecd;}.cls-5{fill:#fff;}.cls-6{isolation:isolate;fill:url(#Ncéntrica1_2);}</style><clipPath id="clip-path"><rect class="cls-1" width="437.22" height="513.26"/></clipPath><pattern id="Ncéntrica1_2" data-name="Ncéntrica1 2" width="437.22" height="513.26" patternTransform="matrix(1.16, 0, 0, -1.16, -201.33, -757.92)" patternUnits="userSpaceOnUse" viewBox="0 0 437.22 513.26"><rect class="cls-1" width="437.22" height="513.26"/><g class="cls-2"><path class="cls-3" d="M19.14,477.18c2.36.46,9.53-3.18,11.93-3.3,9.83-.49,8.62.48,14.51,1.66,5.15,1,8-2.06,12.5-4.78,3.1-1.88,8.6-3.32,9.69-6.78,1.15-3.67-.29-7.81-2.93-10.61-3.65-3.9-9-5.37-14-6.68-13.06-3.43-29.38-5.43-41.54,1.91C3.77,452-3.54,457.4-2.47,464.34c.88,5.69,16.84,11.92,21.61,12.84"/><path class="cls-4" d="M40.87,457.66c-3.92,0-7.9.16-11.95.33l-1.76.07c-8.6.34-20.38.82-28.51,7.72l.31.37c7.41-6.28,17.17-7.16,28.22-7.61l1.76-.07c13.38-.55,26-1.07,38.18,4.28l.2-.44C58.74,458.54,50,457.66,40.87,457.66Z"/><path class="cls-3" d="M125.92,488.54c-4.49,2.13-10,3.53-14.16-.08a15.1,15.1,0,0,1-4.12-6.62c-4.06-12.1-3.44-25.25-2-37.94.6-5.34,1.43-8,5-12.14a6.54,6.54,0,0,1,2.78-2c4.89-1.71,8.77,5.5,11.76,8.16a5.42,5.42,0,0,0,3,1.64,4.33,4.33,0,0,0,3.43-1.64c1.51-1.65,2.41-3.78,3.89-5.46,3.14-3.57,8.88-4.93,12.09-.74,3.92,5.11,5.06,9.51,6.06,15.69,1.34,8.32,2.21,17,.82,25.37-1.13,6.8-3.2,16.81-11.55,17.85-6,.75-11-4.87-17-2.07"/><path class="cls-4" d="M150.17,447a11.8,11.8,0,0,1,3.75.79h0a5.42,5.42,0,0,1,3.29,4.14c1.06,6.61,2.08,15.31.54,23.93-1,5.66-3.13,17.43-13.07,18.58-3,.33-5.72-.59-8.38-1.48-3.46-1.16-6.73-2.25-10.34-.67-6.82,3-12.21,2.94-16-.13a15.91,15.91,0,0,1-4.66-6.92c-4-11.12-4.19-20.33-3.19-30.75a5.4,5.4,0,0,1,5.32-4.9h.11a147.27,147.27,0,0,0,19.57-1.37,158,158,0,0,1,18.18-1.39C146.9,446.8,148.53,446.85,150.17,447Zm-42.66,3.18a4.8,4.8,0,0,0-4.83,4.36c-1,10.34-.84,19.48,3.16,30.5a15.26,15.26,0,0,0,4.47,6.67c3.62,2.92,8.81,2.93,15.41,0,3.82-1.67,7.35-.49,10.77.66,2.59.87,5.28,1.77,8.12,1.44,9.51-1.1,11.57-12.58,12.56-18.09,1.53-8.54.51-17.17-.54-23.74a4.81,4.81,0,0,0-2.93-3.68h0a11,11,0,0,0-3.57-.75c-7.76-.54-15.49.36-23,1.22A159.31,159.31,0,0,1,109,450.16Z"/><path class="cls-3" d="M233.09,485.82c13.09,1.46,24-2.11,36-3a.25.25,0,0,0,.23-.29.25.25,0,0,0-.12-.19l-7.12-4.1a.26.26,0,0,1-.1-.34.28.28,0,0,1,.16-.12,40.74,40.74,0,0,0,9.69-4.22.27.27,0,0,0,.09-.36.26.26,0,0,0-.18-.12,37.78,37.78,0,0,0-7.51-.56.26.26,0,0,1-.17-.45c1.91-1.59,3.28-3.73,5.18-5.33,1.08-.91.15-1.27-2.39-.12-5.58,2.54-18.73,5.18-24.91,5.7a34.08,34.08,0,0,1-9.3-.11"/><path class="cls-3" d="M224.82,467.21c-.17.38-.35.81-.54,1.23a23,23,0,0,1,6.25-1.73c1.49-.19,3.32-.06,3.8,1.58a2.64,2.64,0,0,1-.09,1.62,8.06,8.06,0,0,1-2.48,3.07,24.21,24.21,0,0,0-3.23,3.7c-.6.85-1.18,1.94-.81,2.89a3.05,3.05,0,0,0,1,1.14A24.32,24.32,0,0,1,233,485.6a1.62,1.62,0,0,1,.22,2,2.44,2.44,0,0,1-.9.69c-3.66,1.45-7.35-1.94-11.07-1.09-3.1.7-6.14,4.57-9.22,5.55a2.42,2.42,0,0,1-1.36.06c-1.7-.44-1.79-2.53-1.67-4.21.16-2.41.64-4.93-1.06-6.66-2-2.07-4-4.3-6.18-6.29-.9-.83-1.87-2-1.25-3.26a2.22,2.22,0,0,1,.67-.76c1.41-1,3.21-.6,4.79-.13l4.61.67a.39.39,0,0,0,.48-.28h0c1-3.87-.26-8.27.87-11.9a2,2,0,0,1,2.4-1.5,2,2,0,0,1,.65.28,8.19,8.19,0,0,1,2.23,2.6,36.93,36.93,0,0,1,2.12,5.46c.11.3.24.61.38.9.16-.51.45-1.07.71-1.69,2.1-5.12,4.65-10.12,6.93-15.17q3.92-8.64,7.82-17.29c.12-.28.29-.58.58-.65a1,1,0,0,1,.71.26,16.53,16.53,0,0,1,2.54,2.33q-7.11,15.84-14.2,31.7"/><path class="cls-3" d="M316.21,488.14c-8,3.78-16.46,3.48-19.63-6-3.87-11.52-3.28-24-1.94-36.11.53-4.75,1.26-9.72,4.09-13.56,1.19-1.6,2.91-3,4.9-3,2.26.06,4,1.95,5.42,3.69,2.56,3.11,6.22,5.46,8.84,10.31-.91-1.69,2.77-7.78,3.67-9.24,2.7-4.45,9.16-7.64,13-2.62,3.72,4.86,4.81,11.84,5.76,17.73,1.28,7.92,2.11,16.17.78,24.14-1.27,7.67-5.74,17.28-14.86,17.45-2.36.05-3.82-1.41-5.47-2.83-2.5-2.14-1.64-1.39-4.56,0"/><path class="cls-3" d="M377.94,489.79a1.77,1.77,0,0,0,.64-.16c.8-.45.5-1.67.09-2.49a1.18,1.18,0,0,0,1.51-.16,1.64,1.64,0,0,0,.32-1.56c-.11-.37-.33-.77-.17-1.12s.52-.42.81-.6a1.73,1.73,0,0,0,.71-1.9,1.17,1.17,0,0,1-.12-.69c.1-.35.55-.44.89-.59a1.77,1.77,0,0,0,.75-2.39,2,2,0,0,0-.24-.35,3.48,3.48,0,0,0,1.48-1,1.56,1.56,0,0,0,.24-1.68,2.49,2.49,0,0,0-1-.82l-3.74-2.22a.89.89,0,0,0-.35-.14c-.29,0-.49.3-.61.56-1.72,3.58-2.86,7.41-4.6,11-.55,1.12-2.68,3.58-2.23,4.74.58,1.52,4.31,1.7,5.57,1.56"/><path class="cls-3" d="M366.88,486.49a12.15,12.15,0,0,1,1-3.11c.54-1.57,1.1-3.13,1.7-4.67a60.05,60.05,0,0,1,4.24-9,3.52,3.52,0,0,1,1-1.2c1.24-.82,2.73-.65,4-1.65a17.39,17.39,0,0,0,3.14-3.44,53.25,53.25,0,0,0,4.4-7.51c4.5-9,6.35-13.12,10.86-22.08,1.14-2.27,2.88-4.9,5.41-4.67,1.95.18,3.34,2.17,3.51,4.12s-2.75,4.33-3.51,6.14c-4.37,10.47-7.51,15-12.83,25.07-1.21,2.28-2.56,4.71-4.88,5.83-1.44.69-3.14.82-4.43,1.77a8.33,8.33,0,0,0-2.38,3.57c-1,2.33-2,4.67-3,7-.73,1.66-.88,4-2.27,5.29a4.34,4.34,0,0,1-5,.27,1.91,1.91,0,0,1-.88-1.74"/><path class="cls-4" d="M389.49,494.77c.05.21.14.47.37.47a.49.49,0,0,0,.17-.06c.35-.24.59-.84,1-1s1,.05,1.43-.27a.27.27,0,0,0,.09-.12c0-.11,0-.18-.1-.24a3.39,3.39,0,0,0-.72-.46.36.36,0,0,1-.16-.11.44.44,0,0,1,0-.39,3.06,3.06,0,0,1,.27-.58,1,1,0,0,0,.2-.48.29.29,0,0,0-.05-.2c-.12-.19-.35-.14-.53-.06a3.2,3.2,0,0,0-.8.51.47.47,0,0,1-.24.15.48.48,0,0,1-.37-.24,5.39,5.39,0,0,0-.47-.6.94.94,0,0,0-.37-.25.27.27,0,0,0-.33.17.31.31,0,0,0,0,.1c0,.49.3,1,.33,1.52a.06.06,0,0,1-.05.06l-.61.08a.71.71,0,0,0-.59.19.34.34,0,0,0-.06.12.42.42,0,0,0,.28.37c.34.17.67.38,1,.56s.31.49.38.8"/><path class="cls-4" d="M389.81,488.33c0,.12.07.26.19.25h.09c.19-.12.32-.44.51-.55s.55,0,.76-.14l.05-.07a.13.13,0,0,0-.05-.13,1.52,1.52,0,0,0-.38-.24.18.18,0,0,1-.09-.06.2.2,0,0,1,0-.21,1.23,1.23,0,0,1,.14-.31.66.66,0,0,0,.11-.26.21.21,0,0,0,0-.11c-.06-.1-.19-.07-.28,0a1.52,1.52,0,0,0-.43.28.35.35,0,0,1-.13.08.27.27,0,0,1-.2-.13,2.51,2.51,0,0,0-.25-.32.39.39,0,0,0-.2-.13c-.08,0-.18,0-.18.14s.17.53.18.81h-.32c-.12,0-.25,0-.32.1s0,0,0,.06a.29.29,0,0,0,.15.2l.54.3c.14.08.16.26.2.42"/><path class="cls-5" d="M374,485.49v.39a8.75,8.75,0,0,1,4.64,1.67l.23-.31A9.12,9.12,0,0,0,374,485.49Z"/><path class="cls-5" d="M375.3,482v.39a5.2,5.2,0,0,1,1.11.22,11.22,11.22,0,0,1,2.45.89,4.53,4.53,0,0,1,1.22,1l.29-.26a4.65,4.65,0,0,0-1.33-1,10.79,10.79,0,0,0-2.53-.92A5.69,5.69,0,0,0,375.3,482Z"/><path class="cls-5" d="M376.74,479l-.1.37,2,.58a5.22,5.22,0,0,1,2.95,1.62l.32-.22a5.53,5.53,0,0,0-3.16-1.78Z"/><path class="cls-5" d="M378.53,475.26l-.15.36c.69.28,1.39.58,2.07.88a9.68,9.68,0,0,1,2.86,1.76l.27-.28a10,10,0,0,0-3-1.79A22.2,22.2,0,0,0,378.53,475.26Z"/><path class="cls-3" d="M379.7,491.68a7.46,7.46,0,0,0,2.62,2.9,1,1,0,0,0,1.37-.34.81.81,0,0,0,.12-.29,23.69,23.69,0,0,1,1.38-4.43,37.57,37.57,0,0,1,3.43-5.54c1.11-1.74,2.16-4.91,1.12-7a3.16,3.16,0,0,0-2.32-1.55c-1.63-.09-2.82,1.21-3.75,2.42-2.48,3.25-5.69,9.47-4,13.82"/><path class="cls-3" d="M456.36,477.18c2.36.46,9.52-3.18,11.93-3.3,9.83-.49,8.61.48,14.51,1.66,5.15,1,8-2.06,12.5-4.78,3.1-1.88,8.6-3.32,9.69-6.78,1.15-3.67-.3-7.81-2.93-10.61-3.66-3.9-9-5.37-14-6.68-13.06-3.43-29.38-5.43-41.54,1.91-5.53,3.35-12.85,8.8-11.77,15.74.88,5.69,16.84,11.92,21.61,12.84"/><path class="cls-4" d="M478.08,457.66c-3.92,0-7.89.16-11.94.33l-1.76.07c-8.6.34-20.38.82-28.51,7.72l.31.37c7.4-6.28,17.16-7.16,28.22-7.61l1.76-.07c13.37-.55,26-1.07,38.18,4.28l.2-.44C496,458.54,487.18,457.66,478.08,457.66Z"/><path class="cls-3" d="M-29.24,383.17c13.09,1.46,24-2.11,36-3A.27.27,0,0,0,7,379.9a.26.26,0,0,0-.14-.22l-7.15-4.12a.27.27,0,0,1-.09-.36.33.33,0,0,1,.15-.11,40.31,40.31,0,0,0,9.69-4.21.27.27,0,0,0,.08-.37.3.3,0,0,0-.17-.12,38.54,38.54,0,0,0-7.51-.55.26.26,0,0,1-.17-.45c1.91-1.59,3.28-3.73,5.18-5.33,1.08-.92.15-1.27-2.39-.12-5.58,2.54-18.73,5.18-24.91,5.7a34.08,34.08,0,0,1-9.3-.11"/><path class="cls-3" d="M53.88,385.49c-8,3.78-16.46,3.48-19.63-6-3.87-11.52-3.28-24-1.94-36.11.53-4.75,1.26-9.72,4.09-13.57,1.19-1.6,2.91-3,4.9-3,2.26.06,4,2,5.42,3.7,2.56,3.11,6.22,5.46,8.84,10.31-.91-1.69,2.77-7.78,3.67-9.24,2.7-4.45,9.16-7.64,13-2.63S77,340.85,78,346.73c1.28,7.92,2.11,16.18.78,24.15-1.28,7.67-5.78,17.28-14.87,17.45-2.36,0-3.82-1.41-5.47-2.83-2.5-2.14-1.64-1.39-4.56,0"/><path class="cls-3" d="M115.61,387.14a1.6,1.6,0,0,0,.64-.17c.8-.45.5-1.66.09-2.48a1.18,1.18,0,0,0,1.51-.16,1.64,1.64,0,0,0,.32-1.56c-.11-.37-.33-.77-.17-1.12s.52-.43.81-.61a1.71,1.71,0,0,0,.71-1.89,1.17,1.17,0,0,1-.12-.69c.1-.36.55-.45.89-.6a1.75,1.75,0,0,0,.51-2.73,3.48,3.48,0,0,0,1.48-1,1.56,1.56,0,0,0,.24-1.68,2.42,2.42,0,0,0-1-.82l-3.74-2.22a.72.72,0,0,0-.35-.14c-.29,0-.49.29-.61.56-1.72,3.58-2.86,7.41-4.6,11-.55,1.13-2.68,3.58-2.23,4.75.58,1.51,4.31,1.7,5.57,1.56"/><path class="cls-3" d="M104.55,383.84a12.22,12.22,0,0,1,1-3.12c.54-1.56,1.1-3.12,1.7-4.66a60.05,60.05,0,0,1,4.24-9,3.52,3.52,0,0,1,1-1.2c1.24-.83,2.73-.65,4-1.66a17.33,17.33,0,0,0,3.14-3.43,53.06,53.06,0,0,0,4.37-7.51c4.5-9,6.35-13.12,10.86-22.08,1.14-2.27,2.88-4.9,5.41-4.67,1.95.18,3.34,2.16,3.51,4.11s-2.75,4.34-3.51,6.14c-4.37,10.48-7.51,15.06-12.83,25.08-1.21,2.28-2.56,4.7-4.88,5.82-1.44.7-3.14.83-4.43,1.77a8.37,8.37,0,0,0-2.38,3.58q-1.53,3.48-3,7c-.73,1.65-.88,4-2.27,5.29a4.35,4.35,0,0,1-5,.27,1.91,1.91,0,0,1-.88-1.74"/><path class="cls-4" d="M127.16,392.11c0,.22.14.48.37.47a.27.27,0,0,0,.17-.06c.35-.23.59-.83,1-1s1,0,1.43-.27a.47.47,0,0,0,.09-.12c0-.11,0-.18-.1-.24a3,3,0,0,0-.72-.46.36.36,0,0,1-.16-.11.45.45,0,0,1,0-.39,3.06,3.06,0,0,1,.27-.58,1.07,1.07,0,0,0,.2-.48.31.31,0,0,0-.05-.21c-.12-.19-.35-.13-.53-.06a3.23,3.23,0,0,0-.8.52.52.52,0,0,1-.33.14.48.48,0,0,1-.37-.24,4.71,4.71,0,0,0-.47-.61.91.91,0,0,0-.37-.24.27.27,0,0,0-.33.17.28.28,0,0,0,0,.09c0,.5.3,1,.33,1.53h0l-.61.09a.71.71,0,0,0-.59.19.34.34,0,0,0-.06.12.41.41,0,0,0,.28.36c.34.17.67.38,1,.57s.31.49.38.79"/><path class="cls-4" d="M127.48,385.68c0,.12.07.26.19.25h.09c.19-.13.32-.44.51-.55s.55,0,.76-.15l.05-.06A.13.13,0,0,0,129,385a1.52,1.52,0,0,0-.38-.24.18.18,0,0,1-.09-.06.2.2,0,0,1,0-.21,1.23,1.23,0,0,1,.14-.31.66.66,0,0,0,.11-.26.21.21,0,0,0,0-.11c-.06-.1-.19-.07-.28,0a1.52,1.52,0,0,0-.43.28.35.35,0,0,1-.13.08.27.27,0,0,1-.2-.13,2,2,0,0,0-.25-.33.63.63,0,0,0-.2-.13.14.14,0,0,0-.17.09.09.09,0,0,0,0,.05c0,.27.17.54.18.82H127a.35.35,0,0,0-.32.11v.06a.25.25,0,0,0,.15.19l.54.31c.14.08.16.26.2.42"/><path class="cls-5" d="M111.64,382.84v.39a8.72,8.72,0,0,1,4.64,1.67l.23-.31A9.12,9.12,0,0,0,111.64,382.84Z"/><path class="cls-5" d="M113,379.34v.39a4.65,4.65,0,0,1,1.11.22,11.22,11.22,0,0,1,2.45.89,4.06,4.06,0,0,1,1.22,1l.29-.26a4.65,4.65,0,0,0-1.33-1,11.47,11.47,0,0,0-2.53-.93A5.66,5.66,0,0,0,113,379.34Z"/><path class="cls-5" d="M114.41,376.26l-.1.37,2,.57a5.25,5.25,0,0,1,3,1.63l.32-.22a5.53,5.53,0,0,0-3.16-1.78A18.26,18.26,0,0,1,114.41,376.26Z"/><path class="cls-5" d="M116.2,372.6l-.15.36,2.07.89a10,10,0,0,1,2.86,1.72l.27-.28a9.84,9.84,0,0,0-3-1.79C117.59,373.19,116.89,372.89,116.2,372.6Z"/><path class="cls-3" d="M117.37,389a7.37,7.37,0,0,0,2.62,2.89.93.93,0,0,0,1.31-.2.83.83,0,0,0,.18-.42,23.69,23.69,0,0,1,1.38-4.43,37.57,37.57,0,0,1,3.43-5.54c1.11-1.74,2.16-4.91,1.12-7a3.18,3.18,0,0,0-2.32-1.54c-1.63-.1-2.82,1.21-3.75,2.42-2.48,3.25-5.69,9.47-4,13.82"/><path class="cls-3" d="M194,374.53c2.36.45,9.52-3.18,11.93-3.3,9.83-.5,8.61.47,14.51,1.66,5.15,1,8-2.06,12.5-4.78,3.1-1.88,8.6-3.32,9.69-6.78,1.15-3.67-.3-7.81-2.93-10.62-3.66-3.9-9-5.37-14-6.67-13.08-3.41-29.4-5.47-41.56,1.91-5.53,3.35-12.85,8.79-11.77,15.74.88,5.68,16.84,11.92,21.61,12.84"/><path class="cls-4" d="M215.75,355c-3.92,0-7.89.17-11.94.33l-1.76.08c-8.6.34-20.38.81-28.51,7.72l.31.37c7.4-6.29,17.16-7.16,28.22-7.61l1.76-.07c13.37-.55,26-1.07,38.18,4.28l.2-.45C233.63,355.89,224.85,355,215.75,355Z"/><path class="cls-3" d="M300.81,385.89c-4.49,2.13-10,3.52-14.17-.08a15.08,15.08,0,0,1-4.11-6.62c-4.06-12.11-3.44-25.25-2-38,.59-5.34,1.42-8,5-12.14a6.61,6.61,0,0,1,2.78-2c4.89-1.7,8.76,5.5,11.75,8.17a5.48,5.48,0,0,0,3,1.64,4.41,4.41,0,0,0,3.43-1.64c1.5-1.66,2.41-3.79,3.88-5.46,3.15-3.58,8.88-4.94,12.1-.74,3.91,5.11,5,9.5,6,15.69,1.35,8.32,2.22,17,.83,25.37-1.13,6.79-3.21,16.81-11.56,17.85-6,.75-11-4.87-17-2.07"/><path class="cls-4" d="M325.05,344.26a11.8,11.8,0,0,1,3.76.79h0a5.37,5.37,0,0,1,3.28,4.14c1.07,6.61,2.09,15.31.54,23.93-1,5.66-3.12,17.42-13.07,18.57-3,.34-5.71-.58-8.37-1.47-3.47-1.16-6.74-2.26-10.35-.68-6.82,3-12.2,3-16-.12a15.84,15.84,0,0,1-4.65-6.93c-4-11.11-4.19-20.33-3.19-30.75a5.39,5.39,0,0,1,5.32-4.89h.11A145.56,145.56,0,0,0,302,345.53a158,158,0,0,1,18.18-1.38C321.79,344.15,323.42,344.2,325.05,344.26Zm-42.66,3.18a4.82,4.82,0,0,0-4.83,4.36c-1,10.34-.83,19.48,3.16,30.49a15.31,15.31,0,0,0,4.47,6.67c3.63,2.92,8.82,2.94,15.42,0,3.81-1.68,7.35-.49,10.76.65,2.6.87,5.29,1.78,8.13,1.45C329,390,331.07,378.48,332.06,373c1.53-8.54.51-17.17-.55-23.74a4.83,4.83,0,0,0-2.92-3.69h0a11.56,11.56,0,0,0-3.58-.75c-7.76-.53-15.49.37-23,1.23a159.07,159.07,0,0,1-18.11,1.38Z"/><path class="cls-3" d="M408,383.17c13.09,1.46,24-2.11,36-3a.27.27,0,0,0,.25-.27.26.26,0,0,0-.14-.22L437,375.59a.27.27,0,0,1-.09-.36.33.33,0,0,1,.15-.11,40.24,40.24,0,0,0,9.68-4.21.27.27,0,0,0,.08-.37.3.3,0,0,0-.17-.12,38.49,38.49,0,0,0-7.5-.55.25.25,0,0,1-.27-.23.24.24,0,0,1,.1-.22c1.91-1.59,3.28-3.73,5.18-5.33,1.08-.92.14-1.27-2.39-.12-5.59,2.54-18.74,5.18-24.92,5.7a34,34,0,0,1-9.29-.11"/><path class="cls-3" d="M399.7,364.56c-.17.38-.34.81-.53,1.23a23.43,23.43,0,0,1,6.25-1.74c1.49-.19,3.31-.06,3.79,1.59a2.69,2.69,0,0,1-.08,1.61,8.09,8.09,0,0,1-2.48,3.08,23.68,23.68,0,0,0-3.23,3.7,2.44,2.44,0,0,0-.48,3.42,2.67,2.67,0,0,0,.63.58,24.59,24.59,0,0,1,4.27,4.89,1.65,1.65,0,0,1,.22,2,2.28,2.28,0,0,1-.91.68c-3.65,1.46-7.34-1.93-11.07-1.09-3.09.7-6.13,4.58-9.21,5.55a2.34,2.34,0,0,1-1.36.07c-1.71-.44-1.79-2.53-1.68-4.21.17-2.42.65-4.93-1.06-6.66-2-2.07-4-4.3-6.17-6.29-.9-.83-1.87-2-1.25-3.26A1.94,1.94,0,0,1,376,369c1.42-1,3.22-.6,4.79-.13l4.62.66a.38.38,0,0,0,.47-.27h0c.95-3.87-.25-8.28.87-11.91a2,2,0,0,1,2.4-1.5,2.18,2.18,0,0,1,.66.29,7.94,7.94,0,0,1,2.22,2.6,35.9,35.9,0,0,1,2.13,5.46,9,9,0,0,0,.38.9c.16-.52.45-1.07.7-1.7,2.11-5.11,4.65-10.11,6.94-15.16q3.9-8.65,7.82-17.3c.12-.27.28-.58.58-.64a1,1,0,0,1,.71.25,18,18,0,0,1,2.6,2.33q-7.09,15.85-14.2,31.71"/><path class="cls-3" d="M38.48,283.26c-4.49,2.12-10,3.52-14.17-.09a15.14,15.14,0,0,1-4.11-6.61c-4.06-12.11-3.44-25.26-2-38,.59-5.34,1.42-8,5-12.14a6.54,6.54,0,0,1,2.78-2c4.89-1.7,8.76,5.5,11.75,8.17a5.54,5.54,0,0,0,3,1.64,4.41,4.41,0,0,0,3.43-1.64c1.5-1.66,2.41-3.79,3.88-5.47,3.15-3.57,8.88-4.93,12.1-.73,3.91,5.11,5,9.5,6,15.69,1.35,8.32,2.22,17,.83,25.36-1.11,6.82-3.19,16.82-11.54,17.82-6,.75-11-4.88-17-2.07"/><path class="cls-4" d="M62.72,241.65a11.81,11.81,0,0,1,3.76.8h0a5.39,5.39,0,0,1,3.28,4.13c1.07,6.62,2.09,15.31.54,23.94-1,5.65-3.12,17.42-13.07,18.57-3,.34-5.71-.58-8.37-1.47-3.47-1.16-6.74-2.26-10.35-.68-6.82,3-12.21,2.95-16-.12a15.84,15.84,0,0,1-4.65-6.93c-4-11.11-4.19-20.33-3.19-30.75A5.39,5.39,0,0,1,20,244.26h.11a145.61,145.61,0,0,0,19.57-1.37,160.31,160.31,0,0,1,18.18-1.39C59.46,241.49,61.09,241.54,62.72,241.65Zm-42.66,3.19a4.8,4.8,0,0,0-4.83,4.36c-1,10.34-.83,19.48,3.16,30.49a15.31,15.31,0,0,0,4.47,6.67c3.63,2.92,8.82,2.93,15.42,0,3.81-1.67,7.35-.48,10.76.66,2.6.87,5.29,1.78,8.13,1.45,9.51-1.1,11.57-12.58,12.56-18.1,1.53-8.53.51-17.17-.55-23.73A4.8,4.8,0,0,0,66.26,243h0a11.56,11.56,0,0,0-3.58-.75c-7.76-.53-15.49.36-23,1.23a159.07,159.07,0,0,1-18.11,1.38Z"/><path class="cls-3" d="M145.65,280.51c13.09,1.47,24-2.1,36-3a.25.25,0,0,0,.23-.29.25.25,0,0,0-.12-.19l-7.12-4.09a.27.27,0,0,1-.09-.36.33.33,0,0,1,.15-.11,39.88,39.88,0,0,0,9.68-4.22.27.27,0,0,0,.09-.36.26.26,0,0,0-.18-.12,37.73,37.73,0,0,0-7.5-.55.25.25,0,0,1-.27-.23.24.24,0,0,1,.1-.22c1.91-1.59,3.28-3.73,5.18-5.33,1.08-.92.14-1.28-2.39-.13-5.59,2.54-18.74,5.19-24.92,5.71a34.82,34.82,0,0,1-9.29-.11"/><path class="cls-3" d="M137.37,261.9c-.17.39-.34.81-.53,1.24a23,23,0,0,1,6.25-1.74c1.49-.19,3.31-.06,3.79,1.58a2.71,2.71,0,0,1-.08,1.62,8.09,8.09,0,0,1-2.48,3.08,23.67,23.67,0,0,0-3.23,3.69c-.61.85-1.18,1.95-.81,2.89a3.26,3.26,0,0,0,1,1.15,24.53,24.53,0,0,1,4.27,4.88,1.65,1.65,0,0,1,.22,2,2.3,2.3,0,0,1-.91.69c-3.65,1.46-7.34-1.93-11.07-1.09-3.09.7-6.13,4.58-9.21,5.55a2.52,2.52,0,0,1-1.36.07c-1.71-.45-1.79-2.53-1.68-4.22.17-2.41.65-4.92-1.06-6.65-2-2.08-4-4.3-6.17-6.3-.9-.82-1.87-2-1.25-3.26a2.19,2.19,0,0,1,.66-.76c1.42-1,3.22-.59,4.79-.13l4.62.67a.38.38,0,0,0,.47-.27h0c1-3.88-.25-8.28.87-11.91a2,2,0,0,1,2.4-1.5,2.18,2.18,0,0,1,.66.29,7.8,7.8,0,0,1,2.22,2.59,37,37,0,0,1,2.13,5.46,7.14,7.14,0,0,0,.38.9c.16-.51.45-1.06.7-1.69,2.11-5.12,4.65-10.12,6.94-15.16q3.9-8.66,7.82-17.3c.12-.27.28-.58.58-.64a1,1,0,0,1,.71.25,17.45,17.45,0,0,1,2.6,2.33q-7.1,15.86-14.2,31.7"/><path class="cls-3" d="M228.77,282.83c-8,3.79-16.46,3.49-19.64-6-3.87-11.53-3.28-24-1.93-36.12.53-4.75,1.25-9.71,4.09-13.56,1.18-1.6,2.91-3,4.9-3,2.26.06,4,1.95,5.42,3.7,2.56,3.1,6.22,5.46,8.83,10.3-.91-1.69,2.78-7.77,3.67-9.24,2.71-4.45,9.16-7.64,13-2.62s4.82,11.84,5.77,17.73c1.27,7.92,2.1,16.17.78,24.14-1.27,7.68-5.75,17.28-14.87,17.46-2.36,0-3.81-1.41-5.47-2.83-2.49-2.14-1.64-1.4-4.55,0"/><path class="cls-3" d="M290.5,284.49a1.79,1.79,0,0,0,.64-.17c.8-.45.49-1.66.08-2.49a1.16,1.16,0,0,0,1.51-.16,1.62,1.62,0,0,0,.33-1.55c-.11-.37-.33-.77-.17-1.13s.51-.42.8-.6a1.71,1.71,0,0,0,.72-1.89,1.26,1.26,0,0,1-.13-.69c.1-.36.55-.45.89-.6a1.77,1.77,0,0,0,.78-2.37,1.9,1.9,0,0,0-.26-.37,3.48,3.48,0,0,0,1.48-1,1.56,1.56,0,0,0,.24-1.68,2.49,2.49,0,0,0-1-.82l-3.74-2.22a.71.71,0,0,0-.35-.13c-.3,0-.49.29-.62.55-1.71,3.59-2.85,7.42-4.59,11-.55,1.13-2.69,3.58-2.24,4.75.59,1.51,4.31,1.69,5.58,1.56"/><path class="cls-3" d="M279.44,281.18a12.55,12.55,0,0,1,1-3.11c.54-1.56,1.09-3.12,1.69-4.66a60.05,60.05,0,0,1,4.24-9,3.52,3.52,0,0,1,1-1.2c1.24-.83,2.72-.65,4-1.66a17.7,17.7,0,0,0,3.14-3.44,53.14,53.14,0,0,0,4.4-7.5c4.5-9,6.35-13.12,10.85-22.09,1.14-2.27,2.89-4.9,5.42-4.66,1.95.18,3.33,2.16,3.51,4.11s-2.76,4.33-3.51,6.14c-4.37,10.47-7.51,15-12.83,25.08-1.21,2.28-2.57,4.7-4.89,5.82-1.43.69-3.14.83-4.42,1.77a8.37,8.37,0,0,0-2.38,3.58l-3.06,7c-.72,1.66-.87,4-2.26,5.3a4.37,4.37,0,0,1-5,.26,1.87,1.87,0,0,1-.87-1.74"/><path class="cls-4" d="M302.05,289.46c.05.22.13.48.36.47a.27.27,0,0,0,.17-.06c.35-.23.59-.83,1-1s1,0,1.43-.27a.25.25,0,0,0,.08-.12.21.21,0,0,0-.1-.25,3.54,3.54,0,0,0-.71-.45.36.36,0,0,1-.16-.11.39.39,0,0,1,0-.39,3.15,3.15,0,0,1,.27-.59.94.94,0,0,0,.2-.47.31.31,0,0,0,0-.21c-.12-.19-.35-.14-.53-.06a3.23,3.23,0,0,0-.8.52.64.64,0,0,1-.25.15.49.49,0,0,1-.36-.24,4.71,4.71,0,0,0-.47-.61.91.91,0,0,0-.37-.24.27.27,0,0,0-.33.17.28.28,0,0,0,0,.09c0,.5.3,1,.32,1.53m0,.05-.61.09a.67.67,0,0,0-.6.19.61.61,0,0,0,0,.12.41.41,0,0,0,.27.36c.35.17.68.38,1,.56s.31.49.38.8"/><path class="cls-4" d="M302.36,283c0,.11.08.25.2.25h.09c.19-.13.31-.45.51-.56s.55,0,.76-.14l.05-.06c0-.06,0-.1-.06-.13a1.67,1.67,0,0,0-.38-.25h-.08a.2.2,0,0,1,0-.21,1.87,1.87,0,0,1,.15-.32.46.46,0,0,0,.1-.25.21.21,0,0,0,0-.11c-.07-.1-.19-.07-.29,0a1.94,1.94,0,0,0-.43.27.2.2,0,0,1-.12.08.28.28,0,0,1-.2-.12,2,2,0,0,0-.25-.33.63.63,0,0,0-.2-.13.14.14,0,0,0-.17.09.09.09,0,0,0,0,.05c0,.27.16.54.17.82h-.32a.38.38,0,0,0-.32.1.09.09,0,0,0,0,.07.23.23,0,0,0,.14.19l.54.3c.18.1.17.26.2.43"/><path class="cls-5" d="M286.53,280.19v.39a8.72,8.72,0,0,1,4.63,1.67l.23-.32A9,9,0,0,0,286.53,280.19Z"/><path class="cls-5" d="M287.86,276.69v.39a4.38,4.38,0,0,1,1.14.18,11.74,11.74,0,0,1,2.45.88,4.74,4.74,0,0,1,1.23,1l.29-.25a4.65,4.65,0,0,0-1.33-1,12,12,0,0,0-2.53-.92A5.27,5.27,0,0,0,287.86,276.69Z"/><path class="cls-5" d="M289.3,273.64l-.11.38,2,.57a5.16,5.16,0,0,1,3,1.63l.32-.23a5.54,5.54,0,0,0-3.17-1.77Z"/><path class="cls-5" d="M291.08,270l-.14.36c.69.29,1.38.58,2.06.89a9.71,9.71,0,0,1,2.87,1.71l.27-.28a10.39,10.39,0,0,0-3-1.79Z"/><path class="cls-3" d="M292.26,286.38a7.42,7.42,0,0,0,2.61,2.89,1,1,0,0,0,1.38-.32,1.11,1.11,0,0,0,.12-.3,23.69,23.69,0,0,1,1.38-4.43,37.57,37.57,0,0,1,3.43-5.54c1.11-1.74,2.16-4.92,1.11-7a3.12,3.12,0,0,0-2.32-1.54c-1.62-.1-2.82,1.21-3.74,2.42-2.49,3.25-5.69,9.46-4,13.82"/><path class="cls-3" d="M368.92,271.88c2.36.45,9.52-3.19,11.92-3.31,9.83-.49,8.62.48,14.52,1.67,5.14,1,8-2.07,12.49-4.79,3.11-1.87,8.61-3.31,9.69-6.77,1.16-3.67-.29-7.81-2.92-10.62-3.66-3.9-9-5.37-14-6.67-13.08-3.41-29.41-5.47-41.57,1.91-5.53,3.35-12.84,8.79-11.77,15.73.89,5.69,16.85,11.93,21.62,12.85"/><path class="cls-4" d="M390.64,252.35c-3.92,0-7.9.17-11.94.33l-1.76.07c-8.6.35-20.38.82-28.52,7.73l.32.37c7.4-6.29,17.16-7.17,28.22-7.61l1.76-.07c13.37-.55,26-1.07,38.18,4.28l.19-.45C408.51,253.26,399.73,252.35,390.64,252.35Z"/><path class="cls-3" d="M28.17,181.83a1.59,1.59,0,0,0,.64-.16c.8-.45.49-1.66.08-2.49A1.17,1.17,0,0,0,30.4,179a1.62,1.62,0,0,0,.33-1.55c-.11-.38-.33-.78-.17-1.13s.51-.42.8-.6a1.72,1.72,0,0,0,.72-1.9,1.24,1.24,0,0,1-.13-.68c.1-.36.55-.45.89-.6a1.75,1.75,0,0,0,.76-2.37,1.51,1.51,0,0,0-.25-.37,3.45,3.45,0,0,0,1.49-1,1.56,1.56,0,0,0,.23-1.68,2.48,2.48,0,0,0-.94-.82l-3.74-2.22A.71.71,0,0,0,30,164c-.3,0-.49.29-.62.55-1.71,3.58-2.85,7.41-4.59,11-.55,1.12-2.69,3.58-2.24,4.74.59,1.52,4.31,1.7,5.58,1.56"/><path class="cls-3" d="M17.11,178.53a12.55,12.55,0,0,1,1-3.11c.54-1.57,1.09-3.12,1.69-4.67A59.05,59.05,0,0,1,24,161.8a3.52,3.52,0,0,1,1-1.2c1.24-.83,2.72-.66,4-1.66a18,18,0,0,0,3.14-3.44,53.25,53.25,0,0,0,4.4-7.51c4.5-9,6.35-13.11,10.85-22.08,1.14-2.27,2.89-4.9,5.42-4.67,1.95.18,3.33,2.17,3.51,4.12s-2.76,4.33-3.51,6.14C48.47,142,45.34,146.55,40,156.58c-1.21,2.27-2.57,4.7-4.89,5.82-1.43.69-3.14.82-4.42,1.77a8.33,8.33,0,0,0-2.38,3.57l-3.06,7c-.72,1.66-.87,4-2.26,5.29a4.35,4.35,0,0,1-5,.27,1.87,1.87,0,0,1-.87-1.74"/><path class="cls-4" d="M39.72,186.81c.05.21.13.47.36.47a.35.35,0,0,0,.17-.06c.35-.24.59-.83,1-1s1,.05,1.43-.27a.28.28,0,0,0,.08-.11.21.21,0,0,0-.1-.25,3.59,3.59,0,0,0-.71-.46.42.42,0,0,1-.17-.1.47.47,0,0,1,0-.4,3.06,3.06,0,0,1,.27-.58,1,1,0,0,0,.2-.48.35.35,0,0,0,0-.2c-.12-.19-.35-.14-.53-.06a3.2,3.2,0,0,0-.8.51.44.44,0,0,1-.25.15.48.48,0,0,1-.36-.23,4.71,4.71,0,0,0-.47-.61,1.05,1.05,0,0,0-.37-.25.27.27,0,0,0-.33.17.31.31,0,0,0,0,.1c0,.49.3,1,.32,1.52m0,.06-.61.08a.73.73,0,0,0-.6.19v.12a.41.41,0,0,0,.27.37c.35.17.68.38,1,.56s.31.49.38.8"/><path class="cls-4" d="M40,180.38c0,.11.08.25.2.25h.09c.19-.12.31-.44.51-.55s.55,0,.76-.14v-.07c0-.06,0-.09-.06-.13a1.52,1.52,0,0,0-.38-.24.16.16,0,0,1-.08-.06v-.21a1.77,1.77,0,0,1,.15-.31.55.55,0,0,0,.1-.25.21.21,0,0,0,0-.11c-.07-.1-.19-.08-.29,0a2,2,0,0,0-.43.28.2.2,0,0,1-.12.08.27.27,0,0,1-.2-.13,2.51,2.51,0,0,0-.25-.32.46.46,0,0,0-.2-.13.14.14,0,0,0-.17.09.09.09,0,0,0,0,0c0,.26.16.54.17.81h-.32c-.12,0-.25,0-.32.1a.06.06,0,0,0,0,.06.23.23,0,0,0,.14.2l.54.3c.18.1.17.26.2.43"/><path class="cls-5" d="M24.2,177.54v.38a8.72,8.72,0,0,1,4.63,1.67l.17-.33A9,9,0,0,0,24.2,177.54Z"/><path class="cls-5" d="M25.53,174v.38a5.2,5.2,0,0,1,1.11.22,11.22,11.22,0,0,1,2.45.89,4.58,4.58,0,0,1,1.23,1l.29-.25a4.82,4.82,0,0,0-1.33-1.05,12,12,0,0,0-2.53-.92A5,5,0,0,0,25.53,174Z"/><path class="cls-5" d="M27,171l-.11.37,2,.58a5.16,5.16,0,0,1,3,1.63l.31-.23a5.5,5.5,0,0,0-3.2-1.78Z"/><path class="cls-5" d="M28.75,167.26l-.14.36c.69.28,1.38.58,2.06.89a9.83,9.83,0,0,1,2.87,1.75l.27-.28a10.39,10.39,0,0,0-3-1.79Z"/><path class="cls-3" d="M29.93,183.72a7.44,7.44,0,0,0,2.61,2.9,1,1,0,0,0,1.38-.32A1.11,1.11,0,0,0,34,186a24.56,24.56,0,0,1,1.38-4.44A36.65,36.65,0,0,1,38.85,176C40,174.26,41,171.11,40,169a3.13,3.13,0,0,0-2.32-1.55c-1.62-.09-2.82,1.21-3.74,2.42-2.49,3.25-5.69,9.47-4,13.82"/><path class="cls-3" d="M106.59,169.26c2.36.46,9.52-3.18,11.92-3.3,9.83-.49,8.62.48,14.52,1.67,5.14,1,8-2.07,12.49-4.79,3.11-1.88,8.61-3.31,9.69-6.77,1.16-3.68-.29-7.82-2.92-10.62-3.66-3.9-9-5.37-14-6.67-13.08-3.41-29.41-5.47-41.57,1.9C91.19,144,83.88,149.48,85,156.42c.89,5.69,16.85,11.92,21.62,12.84"/><path class="cls-4" d="M128.31,149.7c-3.92,0-7.9.16-11.94.33l-1.76.07c-8.6.35-20.38.82-28.52,7.72l.32.37c7.4-6.28,17.16-7.16,28.22-7.6l1.76-.08c13.37-.55,26-1.07,38.18,4.28l.19-.44C146.18,150.58,137.4,149.7,128.31,149.7Z"/><path class="cls-3" d="M213.37,180.58c-4.5,2.13-10,3.53-14.17-.08a15.08,15.08,0,0,1-4.11-6.62c-4.07-12.1-3.45-25.25-2-37.94.59-5.34,1.42-8,4.95-12.14a6.54,6.54,0,0,1,2.78-2c4.89-1.71,8.77,5.5,11.76,8.17a5.54,5.54,0,0,0,3,1.64A4.41,4.41,0,0,0,219,130c1.51-1.66,2.41-3.79,3.89-5.47,3.15-3.57,8.88-4.93,12.1-.73,3.91,5.11,5.05,9.5,6.05,15.68,1.34,8.33,2.21,17,.82,25.37-1.12,6.8-3.2,16.81-11.55,17.85-6,.75-11-4.87-16.95-2.07"/><path class="cls-4" d="M237.61,139a11.8,11.8,0,0,1,3.76.79h0a5.42,5.42,0,0,1,3.28,4.14c1.06,6.61,2.09,15.31.54,23.93-1,5.66-3.12,17.43-13.07,18.58-3,.34-5.72-.58-8.38-1.47-3.46-1.17-6.73-2.26-10.34-.68-6.82,3-12.21,2.94-16-.13a15.81,15.81,0,0,1-4.65-6.92c-4-11.12-4.19-20.33-3.2-30.75a5.41,5.41,0,0,1,5.33-4.89h.1a145.28,145.28,0,0,0,19.55-1.34,158,158,0,0,1,18.18-1.39C234.34,138.84,236,138.89,237.61,139ZM195,142.18a4.83,4.83,0,0,0-4.83,4.37c-1,10.33-.83,19.48,3.16,30.49a15.26,15.26,0,0,0,4.47,6.67c3.63,2.92,8.81,2.93,15.41,0,3.82-1.67,7.35-.49,10.77.66,2.6.87,5.28,1.77,8.12,1.44,9.51-1.09,11.57-12.57,12.56-18.09,1.53-8.54.52-17.17-.54-23.74a4.84,4.84,0,0,0-2.92-3.68h0a11.22,11.22,0,0,0-3.58-.75c-7.76-.54-15.49.36-23,1.22a156.66,156.66,0,0,1-18.11,1.39Z"/><path class="cls-3" d="M320.53,177.86c13.1,1.47,24-2.11,36-3a.25.25,0,0,0,.23-.29.25.25,0,0,0-.12-.19l-7.13-4.1a.26.26,0,0,1-.1-.34.28.28,0,0,1,.16-.12,40.74,40.74,0,0,0,9.69-4.22.27.27,0,0,0,.09-.36.26.26,0,0,0-.18-.12,37.73,37.73,0,0,0-7.5-.55.26.26,0,0,1-.26-.26.24.24,0,0,1,.09-.2c1.9-1.58,3.28-3.72,5.17-5.33,1.09-.91.15-1.27-2.39-.12-5.58,2.54-18.73,5.18-24.91,5.7a34,34,0,0,1-9.29-.11"/><path class="cls-3" d="M312.26,159.26c-.17.38-.35.81-.54,1.23a23,23,0,0,1,6.25-1.73c1.5-.19,3.32-.06,3.8,1.58a2.71,2.71,0,0,1-.08,1.62A8.08,8.08,0,0,1,319.2,165a25.8,25.8,0,0,0-3.23,3.7c-.6.85-1.18,1.94-.8,2.89a3.23,3.23,0,0,0,1,1.14,24.54,24.54,0,0,1,4.26,4.89,1.62,1.62,0,0,1,.22,2,2.34,2.34,0,0,1-.9.69c-3.65,1.45-7.34-1.93-11.07-1.09-3.09.7-6.14,4.58-9.21,5.55a2.42,2.42,0,0,1-1.36.06c-1.71-.44-1.79-2.53-1.68-4.21.16-2.41.64-4.93-1.06-6.65-2.05-2.08-4-4.31-6.18-6.3-.9-.82-1.86-2-1.24-3.26a2.19,2.19,0,0,1,.66-.76c1.42-1,3.22-.6,4.79-.13l4.62.67a.4.4,0,0,0,.47-.27v0c.95-3.87-.25-8.27.87-11.9a2,2,0,0,1,3.06-1.22,8.16,8.16,0,0,1,2.22,2.6,36.93,36.93,0,0,1,2.12,5.46c.11.3.24.61.38.9.17-.51.45-1.07.71-1.69,2.1-5.12,4.65-10.12,6.93-15.17q3.92-8.64,7.82-17.29c.13-.28.29-.58.58-.64a.93.93,0,0,1,.71.25,16.05,16.05,0,0,1,2.61,2.33q-7.1,15.84-14.2,31.7"/><path class="cls-3" d="M403.66,180.18c-8,3.78-16.47,3.48-19.64-6-3.87-11.52-3.28-24-1.93-36.11.52-4.75,1.25-9.72,4.09-13.56,1.18-1.6,2.91-3,4.9-3,2.25.06,4,1.95,5.42,3.69,2.56,3.11,6.22,5.46,8.83,10.31-.91-1.69,2.78-7.78,3.67-9.24,2.7-4.45,9.16-7.64,13-2.62,3.73,4.86,4.81,11.84,5.76,17.73,1.28,7.92,2.11,16.17.79,24.14-1.28,7.67-5.75,17.28-14.87,17.45-2.36.05-3.81-1.4-5.47-2.82-2.5-2.15-1.64-1.4-4.55,0"/><path class="cls-3" d="M58.2,75.21c13.1,1.46,24-2.11,36-3a.27.27,0,0,0,.25-.27.26.26,0,0,0-.14-.22l-7.13-4.09a.27.27,0,0,1-.09-.36.33.33,0,0,1,.15-.11A40.31,40.31,0,0,0,96.93,63a.27.27,0,0,0,.09-.36.26.26,0,0,0-.18-.12,37.74,37.74,0,0,0-7.5-.56.25.25,0,0,1-.27-.23.24.24,0,0,1,.1-.22c1.9-1.59,3.28-3.73,5.17-5.33,1.09-.91.15-1.27-2.39-.12-5.58,2.54-18.73,5.18-24.91,5.7a34,34,0,0,1-9.29-.11"/><path class="cls-3" d="M49.93,56.6c-.17.38-.35.81-.54,1.23a23,23,0,0,1,6.25-1.73c1.5-.19,3.32-.06,3.8,1.58a2.69,2.69,0,0,1-.08,1.61,8,8,0,0,1-2.49,3.08,24.21,24.21,0,0,0-3.23,3.7c-.6.85-1.18,1.94-.8,2.89a3.05,3.05,0,0,0,1,1.14A24.54,24.54,0,0,1,58.1,75a1.62,1.62,0,0,1,.22,2,2.34,2.34,0,0,1-.9.69c-3.65,1.45-7.34-1.94-11.07-1.09-3.09.7-6.14,4.57-9.21,5.55a2.42,2.42,0,0,1-1.36.06C34.07,81.76,34,79.67,34.1,78c.16-2.41.64-4.93-1.06-6.66C31,69.26,29,67,26.86,65c-.9-.83-1.86-2-1.24-3.26a2.19,2.19,0,0,1,.66-.76c1.42-1,3.22-.6,4.79-.13l4.62.67a.4.4,0,0,0,.47-.27v0c1-3.87-.25-8.27.87-11.91a2,2,0,0,1,2.4-1.5,2.18,2.18,0,0,1,.66.29,8.16,8.16,0,0,1,2.22,2.6,36.93,36.93,0,0,1,2.12,5.46c.11.3.24.61.38.9.17-.52.45-1.07.71-1.7,2.06-5.15,4.61-10.15,6.89-15.15Q56.33,31.62,60.23,23c.13-.28.29-.59.58-.65a.94.94,0,0,1,.71.26,16.92,16.92,0,0,1,2.61,2.32Q57,40.74,49.93,56.6"/><path class="cls-3" d="M141.33,77.53c-8,3.78-16.47,3.48-19.64-6-3.87-11.52-3.28-24-1.93-36.11.52-4.75,1.25-9.72,4.09-13.56,1.18-1.6,2.91-3,4.9-3,2.25.06,4,2,5.42,3.69,2.56,3.11,6.22,5.46,8.83,10.31-.91-1.69,2.78-7.78,3.67-9.24,2.7-4.45,9.16-7.64,13-2.62,3.73,4.86,4.81,11.84,5.76,17.72,1.28,7.92,2.11,16.18.79,24.15-1.28,7.67-5.75,17.28-14.87,17.45-2.36.05-3.81-1.41-5.47-2.83-2.5-2.14-1.64-1.39-4.55,0"/><path class="cls-3" d="M203.06,79.18a1.72,1.72,0,0,0,.63-.16c.81-.45.5-1.67.09-2.49a1.18,1.18,0,0,0,1.51-.16,1.64,1.64,0,0,0,.32-1.56c-.11-.37-.33-.77-.16-1.12s.51-.43.8-.6a1.7,1.7,0,0,0,.71-1.9,1.37,1.37,0,0,1-.12-.69c.1-.35.55-.45.89-.59a1.75,1.75,0,0,0,.76-2.37,1.51,1.51,0,0,0-.25-.37,3.45,3.45,0,0,0,1.49-1,1.56,1.56,0,0,0,.23-1.68,2.42,2.42,0,0,0-1-.82l-3.74-2.22a.72.72,0,0,0-.35-.14c-.29,0-.48.29-.61.56-1.72,3.58-2.86,7.41-4.6,11-.55,1.13-2.68,3.59-2.23,4.75.59,1.52,4.31,1.7,5.58,1.56"/><path class="cls-3" d="M192,75.88a11.77,11.77,0,0,1,1-3.11c.54-1.57,1.1-3.13,1.7-4.67a60.05,60.05,0,0,1,4.24-9,3.52,3.52,0,0,1,1-1.2c1.24-.82,2.73-.65,4-1.65a18.38,18.38,0,0,0,3.15-3.44,53.18,53.18,0,0,0,4.39-7.51c4.51-9,6.36-13.12,10.86-22.08,1.14-2.27,2.89-4.9,5.42-4.67,2,.18,3.33,2.17,3.5,4.12s-2.75,4.33-3.51,6.13c-4.37,10.48-7.51,15.06-12.83,25.08-1.2,2.28-2.56,4.7-4.88,5.83-1.44.69-3.14.82-4.43,1.77a8.33,8.33,0,0,0-2.38,3.57q-1.5,3.48-3,7c-.73,1.65-.87,4-2.26,5.29a4.35,4.35,0,0,1-5,.27,1.87,1.87,0,0,1-.87-1.74"/><path class="cls-4" d="M214.61,84.16c0,.21.13.47.36.46a.34.34,0,0,0,.17-.05c.35-.24.59-.84,1-1s1,.05,1.43-.27a.27.27,0,0,0,.09-.12c0-.11,0-.18-.1-.24a3,3,0,0,0-.72-.46.36.36,0,0,1-.16-.11.39.39,0,0,1,0-.39,3.06,3.06,0,0,1,.27-.58,1.2,1.2,0,0,0,.2-.48.34.34,0,0,0,0-.2c-.12-.19-.36-.14-.54-.06a3.2,3.2,0,0,0-.8.51.47.47,0,0,1-.24.15.5.5,0,0,1-.37-.24,5.41,5.41,0,0,0-.46-.61,1.17,1.17,0,0,0-.38-.24.27.27,0,0,0-.33.19.17.17,0,0,0,0,.07c0,.5.31,1,.33,1.53m0,0-.6.09a.73.73,0,0,0-.6.19.18.18,0,0,0,0,.12.44.44,0,0,0,.27.37c.35.17.67.37,1,.56s.31.49.38.8"/><path class="cls-4" d="M214.92,77.72c0,.12.07.26.19.25a.17.17,0,0,0,.1,0c.18-.12.31-.44.5-.55s.55,0,.77-.14l.05-.07c0-.06,0-.1-.06-.13a1.36,1.36,0,0,0-.38-.24.1.1,0,0,1-.09-.06.26.26,0,0,1,0-.21,2.92,2.92,0,0,1,.14-.31.47.47,0,0,0,.11-.26.21.21,0,0,0,0-.11c-.06-.1-.18-.07-.28,0a1.52,1.52,0,0,0-.43.28.35.35,0,0,1-.13.08.25.25,0,0,1-.19-.13,3.92,3.92,0,0,0-.25-.32.66.66,0,0,0-.2-.14.16.16,0,0,0-.18.12v0c0,.26.16.53.17.81h0l-.32,0a.38.38,0,0,0-.32.1v.06a.23.23,0,0,0,.15.2l.54.3c.18.1.16.26.2.42"/><path class="cls-5" d="M199.09,74.88v.39a8.72,8.72,0,0,1,4.63,1.67l.23-.31A9.11,9.11,0,0,0,199.09,74.88Z"/><path class="cls-5" d="M200.41,71.38v.39a5.2,5.2,0,0,1,1.11.22,11.22,11.22,0,0,1,2.45.89,4.53,4.53,0,0,1,1.22,1l.3-.26a4.65,4.65,0,0,0-1.33-1,11,11,0,0,0-2.54-.92A5.69,5.69,0,0,0,200.41,71.38Z"/><path class="cls-5" d="M201.86,68.34l-.11.37,2,.57a5.31,5.31,0,0,1,3,1.63l.31-.22a5.53,5.53,0,0,0-3.16-1.78Z"/><path class="cls-5" d="M203.64,64.64l-.15.36,2.07.89a10,10,0,0,1,2.87,1.72l.26-.28a9.72,9.72,0,0,0-3-1.79C205,65.26,204.34,64.93,203.64,64.64Z"/><path class="cls-3" d="M204.81,81.07a7.46,7.46,0,0,0,2.62,2.9,1,1,0,0,0,1.37-.34.81.81,0,0,0,.12-.29,23.69,23.69,0,0,1,1.38-4.43c.85-2.06,2.27-3.69,3.44-5.54s2.16-4.91,1.11-7a3.18,3.18,0,0,0-2.32-1.54c-1.62-.1-2.82,1.21-3.75,2.42-2.48,3.25-5.68,9.47-4,13.82"/><path class="cls-3" d="M281.47,66.57c2.37.45,9.53-3.18,11.93-3.3,9.83-.49,8.62.47,14.51,1.66,5.15,1,8-2.06,12.5-4.78,3.1-1.88,8.6-3.32,9.69-6.78,1.15-3.67-.29-7.81-2.93-10.62-3.65-3.89-9-5.36-14-6.67-13.08-3.4-29.4-5.47-41.56,1.91-5.53,3.35-12.84,8.8-11.77,15.74.88,5.69,16.84,11.92,21.61,12.84"/><path class="cls-4" d="M303.2,47.05c-3.92,0-7.9.16-11.95.33l-1.76.07c-8.6.34-20.38.82-28.51,7.72l.32.37c7.4-6.28,17.16-7.16,28.21-7.61l1.76-.07c13.38-.55,26-1.07,38.18,4.28l.2-.44C321.07,47.93,312.29,47.05,303.2,47.05Z"/><path class="cls-3" d="M388.25,77.93c-4.49,2.13-10,3.52-14.16-.08A15.13,15.13,0,0,1,370,71.26c-4.06-12.11-3.44-25.25-2-37.94.6-5.34,1.43-8,5-12.14a6.61,6.61,0,0,1,2.78-2c4.89-1.7,8.77,5.5,11.76,8.17a5.42,5.42,0,0,0,3,1.64,4.33,4.33,0,0,0,3.36-1.73c1.51-1.66,2.41-3.79,3.89-5.46,3.14-3.57,8.88-4.94,12.09-.74,3.92,5.11,5.06,9.51,6.06,15.69,1.34,8.32,2.21,17,.82,25.37-1.13,6.8-3.2,16.81-11.55,17.85-6,.75-11-4.87-17-2.07"/><path class="cls-4" d="M412.5,36.35a11.8,11.8,0,0,1,3.75.79h0a5.42,5.42,0,0,1,3.29,4.14c1.06,6.61,2.08,15.31.54,23.93-1,5.66-3.13,17.43-13.07,18.57-3,.34-5.72-.58-8.38-1.47-3.46-1.16-6.73-2.26-10.34-.67-6.82,3-12.21,2.94-16-.13a15.91,15.91,0,0,1-4.66-6.92c-4-11.12-4.19-20.34-3.19-30.75a5.4,5.4,0,0,1,5.32-4.9h.11a145.6,145.6,0,0,0,19.57-1.36,158,158,0,0,1,18.18-1.39C409.23,36.19,410.86,36.26,412.5,36.35Zm-42.66,3.18A4.8,4.8,0,0,0,365,43.89c-1,10.34-.84,19.48,3.16,30.5a15.14,15.14,0,0,0,4.47,6.66c3.62,2.92,8.81,2.94,15.41,0,3.82-1.67,7.35-.49,10.77.66,2.59.87,5.28,1.77,8.12,1.44,9.51-1.1,11.57-12.58,12.56-18.09,1.53-8.54.51-17.17-.54-23.74A4.84,4.84,0,0,0,416,37.63h0a11.2,11.2,0,0,0-3.57-.74c-7.76-.54-15.49.36-23,1.22a159.26,159.26,0,0,1-18.12,1.39Z"/></g></pattern></defs><title>Artboard 1</title><polygon id="Pattern" class="cls-6" points="4.41 0 1920 0 1920 1080 1.95 1080 4.41 0"/></svg>