<?xml version="1.0" encoding="utf-8"?>
<!-- Generator: Adobe Illustrator 23.0.0, SVG Export Plug-In . SVG Version: 6.00 Build 0)  -->
<svg version="1.1" xmlns="http://www.w3.org/2000/svg" xmlns:xlink="http://www.w3.org/1999/xlink" x="0px" y="0px"
	 viewBox="0 0 1440 743" style="enable-background:new 0 0 1440 743;" xml:space="preserve">
<style type="text/css">
	.st0{fill:#FFF8F0;}
	.st1{clip-path:url(#SVGID_2_);}
	.st2{fill:#9AC0E6;}
	.st3{fill:#EAA9CB;}
	.st4{fill:#F7BE29;}
	.st5{fill:#F5BE29;}
	.st6{fill:#F05641;}
	.st7{opacity:0.58;clip-path:url(#SVGID_2_);}
	.st8{fill:#F98F8A;}
	.st9{fill:#F0553C;}
	.st10{opacity:0.7;fill:#F0553C;}
	.st11{clip-path:url(#SVGID_4_);}
	.st12{opacity:0.58;clip-path:url(#SVGID_4_);}
	.st13{opacity:0.62;clip-path:url(#SVGID_4_);}
	.st14{fill:#9ABEE4;}
	.st15{fill:#181818;}
	.st16{fill:#FFFCF8;}
	.st17{fill-rule:evenodd;clip-rule:evenodd;}
	.st18{fill:none;stroke:#FFFFFF;stroke-miterlimit:10;}
	.st19{opacity:0.25;fill:url(#);}
	.st20{opacity:0.25;fill:url(#);enable-background:new    ;}
	.st21{fill:#92D2C7;}
	.st22{fill:#F2CF80;}
	.st23{fill:#FABE15;}
	.st24{opacity:0.42;fill:url(#);}
	.st25{fill:#99BFE5;}
	.st26{fill:#4E4C49;}
	.st27{fill:#FFFFFF;}
	.st28{fill:#3B3937;}
	.st29{fill:#ECA7CA;}
	.st30{fill:#CDCECE;}
	.st31{clip-path:url(#SVGID_32_);}
	.st32{fill:none;stroke:#3B3937;stroke-width:0.25;stroke-miterlimit:10;}
	.st33{fill:#1A1A1A;}
	.st34{fill:#222221;}
	.st35{fill:none;stroke:#231F20;stroke-miterlimit:10;}
	.st36{opacity:0.8;fill:#FFF8F0;}
	.st37{display:none;}
	.st38{display:inline;fill:#FFF8F0;}
	.st39{display:inline;}
	.st40{fill:none;}
	.st41{font-family:'Poppins-Bold';}
	.st42{font-size:48px;}
	.st43{font-family:'OpenSans-Regular';}
	.st44{font-size:24px;}
	.st45{display:inline;fill:none;stroke:#231F20;stroke-miterlimit:10;}
</style>
<g id="Layer_4">
	<g>
		<defs>
			<rect id="SVGID_3_" x="-86.9" y="-99.5" width="1596.2" height="913.5"/>
		</defs>
		<clipPath id="SVGID_2_">
			<use xlink:href="#SVGID_3_"  style="overflow:visible;"/>
		</clipPath>
		<g class="st1">
			<g>
				<path class="st2" d="M444.7-15.9c-11.7-5.5-26-9.2-36.8,0.2c-5.1,4.4-8.5,10.8-10.7,17.2c-10.6,31.4-8.9,65.6-5.3,98.5
					c1.5,13.9,3.7,20.8,12.9,31.5c2,2.3,4.4,4.3,7.2,5.3c12.7,4.4,22.8-14.3,30.5-21.2c2.3-2,4.8-4,7.9-4.3c3.4-0.3,6.6,1.7,8.9,4.3
					c3.9,4.3,6.3,9.8,10.1,14.2c8.2,9.3,23.1,12.8,31.4,1.9C511,118.4,514,107,516.6,90.9c3.5-21.6,5.8-44.1,2.1-65.9
					c-2.9-17.7-8.3-43.7-30-46.4C473.1-23.3,460.1-8.7,444.7-15.9"/>
			</g>
			<g>
				<path d="M494.9,92.5c-16,0-31.8-1.8-47.2-3.6C431.1,87,414,85,396.9,85.3c-0.1,0-0.2,0-0.3,0c-7.1,0-13.1-5.5-13.8-12.7
					c-2.6-27.1-2.2-51,8.3-79.9c1.9-5.3,5.6-12.8,12.1-18c9.9-8,23.9-8.1,41.6-0.3c9.4,4.1,17.9,1.3,26.9-1.8
					c6.9-2.3,14.1-4.7,21.8-3.8c25.8,3,31.3,33.5,33.9,48.2c4,22.4,1.4,45-1.4,62.1c-0.8,4.8-4,8.9-8.5,10.7l0,0
					c-2.8,1.1-5.9,1.8-9.8,2.1C503.4,92.3,499.2,92.5,494.9,92.5z M400.8,83.8c15.9,0,31.7,1.8,47,3.6c19.4,2.2,39.5,4.6,59.7,3.2
					c3.7-0.3,6.6-0.9,9.3-1.9l0,0c4-1.6,6.9-5.3,7.6-9.6c2.7-17.1,5.4-39.5,1.4-61.6c-2.6-14.3-7.9-44.1-32.6-47
					c-7.4-0.9-14.3,1.5-21.1,3.8c-8.9,3-18,6.1-28,1.7c-17.1-7.5-30.6-7.5-40,0.1c-6.2,5-9.7,12.2-11.6,17.3
					c-10.4,28.6-10.8,52.3-8.2,79.2c0.6,6.5,6.1,11.5,12.5,11.3C398.2,83.8,399.5,83.8,400.8,83.8z"/>
			</g>
		</g>
		<g class="st1">
			<g>
				<path class="st3" d="M192.5,44.5c39.1-5.6,71.2,5.2,106.4,8c0.7,0.1,0.9,1,0.3,1.4L279,65.4c-0.6,0.3-0.5,1.1,0.2,1.3
					c9.6,2.7,18.8,6.8,27.4,11.9c0.6,0.3,0.4,1.2-0.3,1.4c-7,1.2-14.1,1.7-21.2,1.6c-0.7,0-1,0.8-0.5,1.3
					c5.4,4.5,9.3,10.5,14.6,15.1c3.1,2.6,0.4,3.6-6.7,0.3c-15.8-7.2-52.9-14.6-70.4-16.1c-28-2.3-29.8,1.3-56.5,9.7
					C165,92,164,80.2,164,79.6c0-12.2-0.7-16.4,1.2-20.3C169.5,50,183.5,45.8,192.5,44.5"/>
			</g>
			<g>
				<path class="st4" d="M173.8,96.5c-0.5-1.1-1-2.3-1.5-3.5c5.7,2.5,11.6,4.1,17.7,4.9c4.2,0.5,9.4,0.2,10.7-4.5
					c0.4-1.5,0.3-3.1-0.2-4.6c-1.3-3.8-4.3-6.1-7-8.7c-3.4-3.1-6.4-6.7-9.1-10.4c-1.7-2.4-3.3-5.5-2.3-8.2c0.5-1.4,1.7-2.3,2.7-3.2
					c4.6-4,8.6-8.7,12-13.8c1.1-1.6,2.1-3.5,0.6-5.7c-0.5-0.8-1.7-1.6-2.6-1.9c-10.3-4.1-20.7,5.5-31.3,3.1
					c-8.7-2-17.3-12.9-26-15.7c-1.3-0.4-2.6-0.5-3.8-0.2c-4.8,1.3-5.1,7.2-4.7,11.9c0.5,6.8,1.8,13.9-3,18.8
					c-5.8,5.9-11.3,12.2-17.5,17.8c-2.5,2.3-5.3,5.7-3.5,9.2c0.4,0.9,1.1,1.6,1.9,2.1c4,2.9,9.1,1.7,13.5,0.4l13-1.9
					c0.6-0.2,1.2,0.2,1.3,0.8c2.7,10.9-0.7,23.4,2.5,33.6c1.2,3.9,5.6,5.7,8.6,3.4c2.6-1.9,4.7-4.5,6.3-7.3c2.7-4.8,4.1-10.2,6-15.4
					c0.3-0.8,0.7-1.7,1.1-2.5c0.5,1.5,1.3,3,2,4.8c5.9,14.5,13.1,28.6,19.6,42.8c7.4,16.3,14.7,32.6,22.1,48.9
					c0.3,0.8,0.8,1.6,1.6,1.8c0.7,0.2,1.4-0.3,2-0.7c2.7-1.9,5.1-4.1,7.4-6.6C200.6,156.2,187.2,126.3,173.8,96.5"/>
			</g>
		</g>
		<g class="st1">
			<g>
				<path class="st3" d="M1238.4,55c0.6-0.6,1.3-1.2,2.1-1.6c3.4-1.4,6.4,2.7,8,6c0-2.2,2.1-4.1,4.3-4.3c2.2-0.2,4.4,1.1,5.7,2.9
					c0.9,1.3,1.6,3,3.1,3.4c1.3,0.3,2.6-0.5,3.9-1c2.8-0.9,6.1,0.2,7.7,2.6c0.5,0.8,1,1.7,1.8,2.1c1.4,0.6,2.8-0.6,4.1-1.3
					c3.9-2,9.4,1,9.8,5.4c2.1-1.2,4.4-2.2,6.8-2.1c2.4,0,4.9,1.3,5.8,3.5c0.6,1.6,0.4,3.3,0.1,5l-2.6,17.3c-0.1,0.5-0.2,1-0.5,1.4
					c-0.7,0.9-2.1,0.8-3.3,0.5c-15.5-3.8-30.3-9.9-45.8-13.6c-4.9-1.2-17.9-0.8-20.4-5.1C1225.9,70.6,1234.7,58.6,1238.4,55"/>
			</g>
			<g>
				<path class="st2" d="M1220.6,97.8c3.3,2.5,8.6,3.4,12.3,4.7c6.2,2.3,12.5,4.5,18.8,6.6c12.6,4.1,25.5,7.6,38.6,9.5
					c2.1,0.3,4.2,0.6,6.2,0c5.7-1.8,8.9-6.8,15.3-8.2c6.1-1.3,12.4-1.4,18.7-1c11.6,0.6,23.1,2.9,34.5,5.4
					c39.3,8.7,56.9,13.5,96.2,22.3c10,2.2,22.5,3.5,28.2-5c4.4-6.5,1.7-15.9-3.9-21.3c-5.6-5.5-20.5-2.4-28-4.7
					c-43.7-13-65.9-14.9-110.5-23.8c-10.2-2-21.1-4-30.5,0.4c-5.8,2.7-10.5,7.7-16.7,9.3c-5.6,1.5-11.6-0.1-17.2-1.7
					c-9.8-2.7-19.6-5.5-29.4-8.2c-7-1.9-14.7-7.5-22.2-6.4c-6.8,1-13,8.1-13.6,14.9C1217.1,94,1218.5,96.2,1220.6,97.8"/>
			</g>
			<g>
				<path class="st4" d="M1252.2,6.5c-0.5-0.7-1.1-1.6-0.5-2.3c0.2-0.2,0.4-0.3,0.6-0.4c1.6-0.5,4.1,0.3,5.6-0.3
					c1.9-0.7,2.5-3.3,4.5-3.8c0.2,0,0.4,0,0.6,0c0.5,0.2,0.5,0.6,0.5,0.9c0,1.1-0.1,2.3-0.4,3.4c-0.1,0.3-0.1,0.5-0.1,0.8
					c0.1,0.5,0.7,0.8,1.2,1c0.8,0.3,1.6,0.5,2.5,0.6c0.7,0.1,1.4,0.2,2,0.6c0.2,0.2,0.4,0.4,0.5,0.7c0.3,0.9-0.5,1.5-1.2,1.8
					c-1.1,0.6-2.4,1-3.6,1.2c-0.4,0.1-0.8,0.1-1.1,0.4c-0.4,0.4-0.3,1.1-0.2,1.7c0.3,1,0.6,2,0.7,3c0.1,0.6,0,1.2-0.2,1.8
					c-0.2,0.7-1.1,0.9-1.7,0.4c-1.6-1.2-2.4-3.5-3.9-4.9c-0.1-0.1-0.2-0.1-0.3,0l-1.8,1.7c-0.5,0.7-1.2,1.4-2.1,1.4
					c-0.2,0-0.4,0-0.5-0.1c-0.6-0.4-0.6-1.2-0.4-1.8c0.4-1.5,0.5-3.1,0.8-4.6C1254,8.4,1253,7.5,1252.2,6.5"/>
			</g>
			<g>
				<path class="st4" d="M1273,21.8c-0.3-0.4-0.6-0.9-0.3-1.2c0.1-0.1,0.2-0.2,0.3-0.2c0.9-0.3,2.2,0.1,3-0.2c1-0.4,1.3-1.8,2.4-2
					c0.1,0,0.2,0,0.3,0c0.2,0.1,0.3,0.3,0.3,0.5c0,0.6-0.1,1.2-0.2,1.8c0,0.1-0.1,0.3,0,0.4c0.1,0.3,0.4,0.4,0.6,0.5
					c0.4,0.2,0.9,0.3,1.3,0.3c0.4,0.1,0.7,0.1,1.1,0.3c0.1,0.1,0.2,0.2,0.3,0.4c0.1,0.5-0.3,0.8-0.6,1c-0.6,0.3-1.3,0.5-1.9,0.6
					c-0.2,0-0.4,0.1-0.6,0.2c-0.2,0.2-0.2,0.6-0.1,0.9c0.1,0.5,0.3,1.1,0.4,1.6c0,0.3,0,0.7-0.1,1c-0.1,0.4-0.6,0.5-0.9,0.2
					c-0.8-0.7-1.3-1.9-2.1-2.6c0,0-0.1,0-0.2,0l-1,0.9c-0.3,0.4-0.6,0.7-1.1,0.7c-0.1,0-0.2,0-0.3-0.1c-0.3-0.2-0.3-0.6-0.2-1
					c0.2-0.8,0.3-1.6,0.4-2.4C1274,22.9,1273.4,22.4,1273,21.8"/>
			</g>
			<g>
				<path d="M1241.7,78.2l-1.3-0.9c3.9-5.4,6.2-12,6.6-18.6l1.6,0.1C1248.2,65.7,1245.8,72.6,1241.7,78.2z"/>
			</g>
			<g>
				<path d="M1255.9,83l-1.2-0.9c0.9-1.2,1.5-2.6,2.1-4c1.4-3.2,2.8-6.5,3.5-9.9c0.4-2.2,0.4-4.3,0.1-6.2l1.5-0.3
					c0.4,2.1,0.3,4.4-0.1,6.8c-0.7,3.6-2.1,7-3.6,10.2C1257.6,80.2,1256.9,81.7,1255.9,83z"/>
			</g>
			<g>
				<path d="M1269,86.3l-1.4-0.6c1.1-2.5,2.2-5.1,3.3-7.6c1.9-4.6,3.6-9.1,2.4-13.3l1.5-0.4c1.3,4.7-0.4,9.5-2.5,14.3
					C1271.2,81.2,1270.2,83.7,1269,86.3z"/>
			</g>
			<g>
				<path d="M1285.1,90.1l-1.5-0.5c0.9-2.9,1.7-5.8,2.5-8.7c1.2-4.5,2.3-8.9,1.9-13.3l1.6-0.1c0.4,4.7-0.7,9.2-2,13.8
					C1286.8,84.3,1285.9,87.2,1285.1,90.1z"/>
			</g>
			<g>
				<path class="st5" d="M1237,44.7c-2.5-4.4-2.7-10.8-2.4-15.5c0.2-2.8,3.2-4.4,5.7-3.1c3.7,2,9.4,4.6,17.3,7
					c8.6,2.6,17.2,2.3,25.9,3.4c8.2,1,20.8,5.8,24.6,14.3c1.5,3.3,0.9,8.4-1.1,11.1c-3.8,5.3-10.9,5.7-17,5.5
					C1273.6,66.9,1246.1,61.1,1237,44.7"/>
			</g>
		</g>
		<g class="st1">
			<g>
				<path class="st3" d="M1194,659.9c5.9-9.6,13.4-18.6,23.4-22.6c15.1-6,33.4-5.2,46.2,4.9c27.8,22,27.7,63.5,31.8,94.7
					c0.8,6.3-3.9,12-10.3,12.3c0,0-76.7-0.4-76.9-0.4c-8.4,0.4-19.9,2.1-27.6-2.5c-8.6-5.2-7.8-16.3-7.1-25
					c1.4-16.3,5.8-32.3,12.8-47C1188.5,669.8,1191.1,664.7,1194,659.9"/>
			</g>
			<g>
				<path class="st3" d="M1319.3,659.9c5.9-9.6,13.4-18.6,23.4-22.6c15.1-6,33.4-5.2,46.2,4.9c27.8,22,27.7,63.5,31.8,94.7
					c0.8,6.3-3.9,12-10.3,12.3c0,0-76.7-0.4-76.9-0.4c-8.4,0.4-19.9,2.1-27.6-2.5c-8.6-5.2-7.8-16.3-7.1-25
					c1.4-16.3,5.8-32.3,12.8-47C1313.8,669.8,1316.4,664.7,1319.3,659.9"/>
			</g>
			<g>
				<path d="M1267,695.6c-10.4,0-20.7-0.5-30.8-0.9c-18.8-0.8-38.1-1.7-57,0.4l-0.2-1.7c19-2.1,38.5-1.2,57.3-0.4
					c17.5,0.8,35.7,1.6,53.4,0l0.2,1.7C1282.3,695.3,1274.6,695.6,1267,695.6z"/>
			</g>
			<g>
				<path d="M1391.9,696c-10.4,0-20.7-0.5-30.8-0.9c-18.8-0.8-38.1-1.7-57.1,0.4l-0.2-1.7c19-2.1,38.5-1.2,57.3-0.4
					c17.5,0.8,35.7,1.6,53.4,0l0.2,1.7C1407.2,695.8,1399.5,696,1391.9,696z"/>
			</g>
			<g>
				<path class="st3" d="M1347.8,697.4l-0.1,3c0,0,2.4,0,2.8,0c6.8-0.6,13.1,0.7,19.9-0.5c-0.3-3.5-0.5-7.1-0.9-10.6
					c-1.5,0.1-2.5,0.1-7.5,0c-4.7,0-9.4-0.2-13.6,0.1C1348.5,689.4,1347.8,693.7,1347.8,697.4"/>
			</g>
			<g>
				<path d="M1349.6,701.3c-0.7,0-1.6,0-1.9,0l-0.9,0l0.1-3.8c-0.1-3.8,0.6-8,0.6-8.2l0.1-0.7l0.7,0c3.5-0.2,7.5-0.2,11.3-0.2l2.4,0
					c5.1,0,6,0,7.5,0l0.8,0l0.1,0.8c0.3,2.3,0.5,4.7,0.6,7c0.1,1.2,0.2,2.4,0.3,3.6l0.1,0.8l-0.8,0.1c-3.9,0.7-7.7,0.6-11.4,0.5
					c-2.8-0.1-5.7-0.2-8.6,0.1C1350.5,701.3,1350.1,701.3,1349.6,701.3z M1354.9,699.3c1.5,0,3,0.1,4.4,0.1
					c3.5,0.1,6.8,0.2,10.2-0.3c-0.1-1-0.1-1.9-0.2-2.9c-0.1-2-0.3-4.1-0.5-6.1c-1.2,0-2.6,0-6.7,0l-2.4,0c-3.5,0-7.2-0.1-10.5,0.1
					c-0.2,1.4-0.6,4.5-0.5,7.2l-0.1,2.1c0.8,0,1.6,0,1.9,0C1352,699.4,1353.4,699.3,1354.9,699.3z"/>
			</g>
			<g>
				<path class="st3" d="M1223.1,696.7v3c0,0,2.4,0,2.8-0.1c6.8-0.8,13.1,0.3,19.9-1.1c-0.4-3.5-0.7-7.1-1.2-10.6
					c-1.5,0.1-2.5,0.1-7.5,0.2c-4.7,0.1-9.4,0.1-13.6,0.5C1223.5,688.7,1222.9,693,1223.1,696.7"/>
			</g>
			<g>
				<path d="M1222.2,700.6v-3.8c-0.2-3.8,0.4-8,0.4-8.2l0.1-0.7l0.7-0.1c3.5-0.4,7.5-0.4,11.4-0.5l2.2,0c5-0.1,5.9-0.1,7.4-0.2
					l0.8-0.1l0.1,0.8c0.4,2.3,0.6,4.7,0.8,7c0.1,1.2,0.2,2.4,0.4,3.6l0.1,0.8l-0.8,0.2c-3.9,0.8-7.7,0.8-11.4,0.8
					c-2.8,0-5.7,0-8.6,0.3c-0.5,0.1-2.5,0.1-2.9,0.1L1222.2,700.6z M1224.2,689.5c-0.2,1.4-0.4,4.5-0.3,7.2l0,2.1
					c0.8,0,1.6,0,1.9-0.1c3-0.4,5.9-0.4,8.8-0.3c3.5,0,6.8,0,10.2-0.6c-0.1-0.9-0.2-1.9-0.3-2.8c-0.2-2-0.4-4.1-0.7-6.1
					c-1.2,0.1-2.6,0.1-6.7,0.2l-2.3,0C1231.2,689.1,1227.5,689.2,1224.2,689.5z"/>
			</g>
		</g>
		<g class="st1">
			<path class="st4" d="M701.8-50.2c-29.3-6.4-57.1,1-60.4,34.7c-4,41,7.5,81.9,21.1,120.8c5.4,15.3,11.5,31.1,23.9,41.7
				c5.1,4.4,11.9,7.8,18.5,6.1c7.4-1.9,11.7-9.5,15.1-16.3c6.1-12.2,16.4-22.8,21.3-40.8c-1.7,6.3,15.1,23.6,19.2,27.7
				c12.3,12.6,36.1,18.3,45-1.2c8.6-18.9,6.9-42.8,5.5-63c-1.8-27.1-5.4-55.1-15.8-80.4c-10.1-24.4-32.2-52.7-62.4-46.4
				c-7.8,1.7-11.5,7.6-15.9,13.5C710.2-44.7,712.5-47.9,701.8-50.2"/>
		</g>
		<g class="st1">
			<g>
				<path class="st6" d="M984,12.2c7-1.4,28.4,9.5,35.6,9.8c29.3,1.5,25.7-1.4,43.3-5c15.4-3.1,23.9,6.2,37.3,14.3
					c9.3,5.6,25.7,9.9,28.9,20.2c3.4,10.9-0.9,23.3-8.7,31.7c-10.9,11.6-26.8,16-41.7,19.9c-39,10.2-87.7,16.3-123.9-5.7
					c-16.5-10-38.3-26.2-35.1-46.9C922.2,33.6,969.8,15,984,12.2"/>
			</g>
			<g>
				<path d="M1048.8,70.4c-11.7,0-23.6-0.5-35.6-1l-5.2-0.2c-25.7-1-60.8-2.4-85-23l0.9-1.1c22.1,18.7,51.2,21.4,84.2,22.7l5.2,0.2
					c39.9,1.6,77.6,3.2,113.9-12.8l0.6,1.3C1102.1,67.8,1075.9,70.4,1048.8,70.4z"/>
			</g>
		</g>
		<g class="st1">
			<g>
				<path class="st2" d="M1020.4,608.4c-11.7-5.5-26-9.2-36.8,0.2c-5.1,4.4-8.5,10.8-10.7,17.2c-10.6,31.4-8.9,65.6-5.3,98.5
					c1.5,13.9,3.7,20.8,12.9,31.5c2,2.3,4.4,4.3,7.2,5.3c12.7,4.4,22.8-14.3,30.5-21.2c2.3-2,4.8-4,7.9-4.3c3.4-0.3,6.6,1.7,8.9,4.3
					c3.9,4.3,6.3,9.8,10.1,14.2c8.2,9.3,23.1,12.8,31.4,1.9c10.2-13.3,13.1-24.7,15.7-40.7c3.5-21.6,5.8-44.1,2.1-65.9
					c-2.9-17.7-8.3-43.7-30-46.4C1048.8,601.1,1035.8,615.7,1020.4,608.4"/>
			</g>
			<g>
				<path d="M1070.6,716.8c-16,0-31.8-1.8-47.2-3.6c-16.6-1.9-33.7-3.9-50.8-3.6c-0.1,0-0.2,0-0.3,0c-7.1,0-13.1-5.5-13.8-12.7
					c-2.6-27.1-2.2-51,8.3-79.9c1.9-5.3,5.6-12.8,12.1-18c9.9-8,23.9-8.1,41.6-0.3c9.4,4.1,17.9,1.3,26.9-1.8
					c6.9-2.3,14.1-4.7,21.8-3.8c25.8,3,31.3,33.5,33.9,48.2c4,22.4,1.4,45-1.4,62.1c-0.8,4.8-4,8.9-8.5,10.7l0,0
					c-2.8,1.1-5.9,1.8-9.8,2.1C1079.1,716.7,1074.9,716.8,1070.6,716.8z M976.5,708.1c15.9,0,31.7,1.8,47,3.6
					c19.4,2.2,39.5,4.6,59.7,3.2c3.7-0.3,6.6-0.9,9.3-1.9l0,0c4-1.6,6.9-5.3,7.6-9.6c2.7-17.1,5.4-39.5,1.4-61.6
					c-2.6-14.3-7.9-44.1-32.6-47c-7.4-0.9-14.3,1.5-21.1,3.8c-8.9,3-18,6.1-28,1.7c-17.1-7.5-30.6-7.5-40,0.1
					c-6.2,5-9.7,12.2-11.6,17.3c-10.4,28.6-10.8,52.3-8.2,79.2c0.6,6.5,6.1,11.5,12.5,11.3C973.9,708.1,975.2,708.1,976.5,708.1z"/>
			</g>
		</g>
		<g class="st1">
			<g>
				<path class="st6" d="M457.5,632.8c7-1.4,28.4,9.5,35.6,9.8c29.3,1.5,25.7-1.4,43.3-5c15.4-3.1,23.9,6.2,37.3,14.3
					c9.3,5.6,25.7,9.9,28.9,20.2c3.4,10.9-0.9,23.3-8.7,31.7c-10.9,11.6-26.8,16-41.7,19.9c-39,10.2-87.7,16.3-123.9-5.7
					c-16.5-10-38.3-26.2-35.1-46.9C395.7,654.1,443.3,635.5,457.5,632.8"/>
			</g>
			<g>
				<path d="M522.3,691c-11.7,0-23.6-0.5-35.6-1l-5.2-0.2c-25.7-1-60.8-2.4-85-23l0.9-1.1c22.1,18.7,51.2,21.4,84.2,22.7l5.2,0.2
					c39.9,1.6,77.6,3.2,113.9-12.8l0.6,1.3C575.6,688.4,549.4,691,522.3,691z"/>
			</g>
		</g>
		<g class="st1">
			<g>
				<path class="st3" d="M768.1,637.1c39.1-5.6,71.2,5.2,106.4,8c0.7,0.1,0.9,1,0.3,1.4L854.6,658c-0.6,0.3-0.5,1.1,0.2,1.3
					c9.6,2.8,18.8,6.8,27.4,11.9c0.6,0.3,0.4,1.2-0.3,1.4c-7,1.2-14.1,1.7-21.2,1.6c-0.7,0-1,0.8-0.5,1.3
					c5.4,4.5,9.3,10.5,14.6,15.1c3.1,2.6,0.4,3.6-6.7,0.3c-15.8-7.2-52.9-14.6-70.4-16.1c-28-2.3-29.8,1.3-56.5,9.7
					c-0.6,0.2-1.6-11.6-1.6-12.2c0-12.2-0.7-16.4,1.2-20.3C745.1,642.6,759.1,638.4,768.1,637.1"/>
			</g>
			<g>
				<path class="st4" d="M749.4,689.1c-0.5-1.1-1-2.3-1.5-3.5c5.7,2.5,11.6,4.1,17.7,4.9c4.2,0.5,9.4,0.2,10.7-4.5
					c0.4-1.5,0.3-3.1-0.2-4.6c-1.3-3.8-4.3-6.1-7-8.7c-3.4-3.1-6.4-6.7-9.1-10.4c-1.7-2.4-3.3-5.5-2.3-8.2c0.5-1.4,1.7-2.3,2.7-3.2
					c4.6-4,8.6-8.7,12-13.8c1.1-1.6,2.1-3.5,0.6-5.7c-0.5-0.8-1.7-1.6-2.6-1.9c-10.3-4.1-20.7,5.5-31.3,3.1
					c-8.7-2-17.3-12.9-26-15.7c-1.3-0.4-2.6-0.5-3.8-0.2c-4.8,1.3-5.1,7.2-4.7,11.9c0.5,6.8,1.8,13.9-3,18.8
					c-5.8,5.9-11.3,12.2-17.5,17.8c-2.5,2.3-5.3,5.7-3.5,9.2c0.4,0.9,1.1,1.6,1.9,2.1c4,2.9,9.1,1.7,13.5,0.4l13-1.9
					c0.6-0.2,1.2,0.2,1.3,0.8c2.7,10.9-0.7,23.4,2.5,33.6c1.2,3.9,5.6,5.7,8.6,3.4c2.6-1.9,4.7-4.5,6.3-7.3c2.7-4.8,4.1-10.2,6-15.4
					c0.3-0.8,0.7-1.7,1.1-2.5c0.5,1.5,1.3,3,2,4.8c5.9,14.5,13.1,28.6,19.6,42.8c7.4,16.3,14.7,32.6,22.1,48.9
					c0.3,0.8,0.8,1.6,1.6,1.8c0.7,0.2,1.4-0.3,2-0.7c2.7-1.9,5.1-4.1,7.4-6.6C776.2,748.8,762.9,718.9,749.4,689.1"/>
			</g>
		</g>
		<g class="st1">
			<g>
				<path class="st3" d="M294.9,648.4c-0.8-0.8-1.6-1.5-2.6-1.9c-4.2-1.7-7.8,3.3-9.7,7.4c-0.1-2.7-2.6-5-5.3-5.2
					c-2.7-0.2-5.4,1.3-6.9,3.6c-1.1,1.6-1.9,3.6-3.7,4.1c-1.6,0.4-3.2-0.6-4.8-1.2c-3.4-1.2-7.4,0.2-9.4,3.1c-0.6,1-1.2,2.1-2.2,2.6
					c-1.7,0.7-3.4-0.7-5-1.5c-4.8-2.5-11.5,1.2-12,6.5c-2.6-1.4-5.4-2.6-8.3-2.6c-2.9,0-6,1.6-7.1,4.3c-0.8,1.9-0.5,4.1-0.2,6.1
					l3.2,21c0.1,0.6,0.2,1.3,0.6,1.7c0.9,1.1,2.6,0.9,4,0.6c18.9-4.6,36.9-12.1,55.8-16.6c6-1.4,21.9-0.9,24.9-6.2
					C310.2,667.5,299.3,652.8,294.9,648.4"/>
			</g>
			<g>
				<path class="st2" d="M316.6,700.5c-4.1,3-10.4,4.1-14.9,5.8c-7.6,2.8-15.2,5.5-22.9,8c-15.4,5-31,9.2-47,11.6
					c-2.5,0.4-5.2,0.7-7.6,0c-7-2.1-10.9-8.3-18.6-9.9c-7.5-1.6-15.1-1.7-22.7-1.3c-14.2,0.8-28.2,3.5-42,6.6
					c-47.9,10.7-69.3,16.5-117.2,27.2c-12.1,2.7-27.5,4.2-34.4-6.1c-5.4-7.9-2.1-19.3,4.7-26c6.8-6.7,24.9-3,34.1-5.7
					c53.2-15.8,80.2-18.1,134.7-28.9c12.4-2.5,25.7-4.8,37.2,0.5c7.1,3.3,12.8,9.3,20.4,11.3c6.9,1.8,14.1-0.1,20.9-2
					c11.9-3.3,23.9-6.6,35.8-10c8.5-2.4,17.9-9.1,27-7.8c8.3,1.2,15.9,9.9,16.5,18.2C320.8,695.9,319.2,698.6,316.6,700.5"/>
			</g>
			<g>
				<path class="st4" d="M278,589.3c0.7-0.8,1.4-2,0.6-2.8c-0.2-0.2-0.5-0.4-0.7-0.5c-2-0.6-5,0.3-6.9-0.4c-2.3-0.9-3-4-5.4-4.6
					c-0.2,0-0.5,0-0.7,0c-0.6,0.2-0.6,0.7-0.6,1.1c0,1.4,0.1,2.8,0.5,4.1c0.1,0.3,0.2,0.6,0.1,1c-0.1,0.6-0.8,1-1.5,1.2
					c-1,0.4-2,0.6-3,0.8c-0.8,0.1-1.7,0.2-2.4,0.7c-0.3,0.2-0.5,0.5-0.6,0.8c-0.3,1,0.6,1.8,1.4,2.2c1.4,0.7,2.9,1.2,4.4,1.4
					c0.5,0.1,1,0.1,1.3,0.5c0.5,0.5,0.4,1.4,0.2,2.1c-0.3,1.2-0.7,2.4-0.9,3.6c-0.1,0.7,0,1.5,0.2,2.2c0.3,0.8,1.3,1,2.1,0.5
					c1.9-1.5,2.9-4.3,4.8-6c0.1-0.1,0.3-0.1,0.4,0l2.2,2c0.7,0.8,1.5,1.7,2.6,1.7c0.2,0,0.4-0.1,0.6-0.2c0.8-0.4,0.7-1.4,0.5-2.2
					c-0.4-1.8-0.6-3.7-1-5.6C275.9,591.7,277.1,590.5,278,589.3"/>
			</g>
			<g>
				<path class="st4" d="M252.7,608c0.4-0.5,0.7-1.1,0.3-1.5c-0.1-0.1-0.2-0.2-0.4-0.2c-1.1-0.3-2.7,0.2-3.7-0.2
					c-1.2-0.5-1.6-2.2-2.9-2.4c-0.1,0-0.3,0-0.4,0c-0.3,0.1-0.3,0.4-0.3,0.6c0,0.7,0.1,1.5,0.3,2.2c0,0.2,0.1,0.3,0,0.5
					c-0.1,0.3-0.5,0.5-0.8,0.7c-0.5,0.2-1.1,0.3-1.6,0.4c-0.4,0.1-0.9,0.1-1.3,0.4c-0.2,0.1-0.3,0.3-0.3,0.4
					c-0.2,0.6,0.3,0.9,0.8,1.2c0.7,0.4,1.5,0.6,2.4,0.8c0.3,0,0.5,0.1,0.7,0.2c0.3,0.3,0.2,0.7,0.1,1.1c-0.2,0.6-0.4,1.3-0.5,1.9
					c0,0.4,0,0.8,0.1,1.2c0.2,0.4,0.7,0.6,1.1,0.2c1-0.8,1.5-2.3,2.5-3.2c0.1,0,0.1,0,0.2,0l1.2,1.1c0.4,0.4,0.8,0.9,1.4,0.9
					c0.1,0,0.2,0,0.3-0.1c0.4-0.2,0.4-0.8,0.3-1.2c-0.2-1-0.3-2-0.5-3C251.6,609.3,252.2,608.6,252.7,608"/>
			</g>
			<g>
				<path d="M290.9,676.7l1.5-1.1c-4.8-6.5-7.6-14.6-8-22.7l-1.9,0.1C282.9,661.5,285.9,669.9,290.9,676.7z"/>
			</g>
			<g>
				<path d="M273.5,682.5l1.5-1.1c-1.1-1.5-1.9-3.2-2.6-4.9c-1.7-3.9-3.4-7.9-4.2-12c-0.5-2.7-0.5-5.2-0.1-7.6l-1.9-0.3
					c-0.4,2.6-0.4,5.4,0.1,8.3c0.8,4.4,2.6,8.5,4.3,12.4C271.5,679.1,272.3,680.9,273.5,682.5z"/>
			</g>
			<g>
				<path d="M257.5,686.5l1.7-0.8c-1.3-3.1-2.7-6.2-4-9.3c-2.4-5.6-4.4-11-3-16.2l-1.8-0.5c-1.6,5.8,0.5,11.6,3,17.5
					C254.9,680.3,256.2,683.4,257.5,686.5z"/>
			</g>
			<g>
				<path d="M238,691.2l1.8-0.6c-1.1-3.5-2.1-7.1-3-10.6c-1.5-5.5-2.8-10.8-2.4-16.2l-1.9-0.1c-0.4,5.7,0.9,11.2,2.4,16.8
					C236,684.1,237,687.6,238,691.2z"/>
			</g>
			<g>
				<path class="st5" d="M296.6,635.9c3-5.4,3.2-13.2,2.9-18.9c-0.2-3.5-3.8-5.4-7-3.7c-4.5,2.4-11.5,5.6-21.1,8.5
					c-10.4,3.1-21,2.8-31.6,4.1c-10,1.2-25.3,7-30,17.4c-1.8,4-1.1,10.2,1.3,13.6c4.7,6.4,13.3,6.9,20.8,6.7
					C252,663,285.5,655.9,296.6,635.9"/>
			</g>
		</g>
		<g class="st7">
			<g>
				<path class="st2" d="M106.4,395.7c-17.4-8.2-38.8-13.6-54.9,0.3c-7.6,6.6-12.7,16.2-15.9,25.6c-15.7,46.9-13.3,97.8-7.9,146.9
					c2.3,20.7,5.5,31,19.2,47c2.9,3.4,6.5,6.3,10.8,7.8c18.9,6.6,33.9-21.3,45.5-31.6c3.4-3,7.2-6,11.7-6.4
					c5.1-0.4,9.9,2.6,13.3,6.3c5.8,6.4,9.3,14.7,15,21.2c12.2,13.8,34.4,19.1,46.8,2.8c15.2-19.8,19.6-36.8,23.4-60.8
					c5.2-32.2,8.6-65.8,3.2-98.2c-4.4-26.3-12.4-65.1-44.7-69.1C148.8,384.8,129.4,406.6,106.4,395.7"/>
			</g>
			<g>
				<path d="M181.3,557.4c-23.8,0-47.4-2.7-70.4-5.4c-24.7-2.9-50.3-5.8-75.8-5.3c-0.1,0-0.3,0-0.4,0c-10.6,0-19.6-8.2-20.6-18.9
					c-3.9-40.3-3.2-76,12.4-119.1c2.9-7.9,8.3-19,18-26.8c14.8-11.9,35.6-12,62-0.5c14,6.1,26.6,1.9,40-2.6c10.3-3.5,21-7,32.4-5.7
					c38.5,4.4,46.7,50,50.6,71.9c6,33.4,2,67.1-2.1,92.7c-1.2,7.2-6,13.3-12.7,16l0,0c-4.2,1.7-8.8,2.7-14.5,3.1
					C194,557.2,187.6,557.4,181.3,557.4z M41.1,544.4c23.6,0,47.3,2.7,70.2,5.4c29,3.3,58.9,6.8,88.9,4.7c5.5-0.4,9.9-1.3,13.8-2.9
					l0,0c6-2.4,10.3-7.9,11.3-14.3c4.1-25.4,8-58.9,2.1-91.9c-3.8-21.4-11.8-65.8-48.6-70.1c-11-1.3-21.4,2.2-31.5,5.6
					c-13.2,4.4-26.9,9-41.7,2.5c-25.6-11.2-45.6-11.1-59.7,0.2c-9.3,7.5-14.5,18.2-17.3,25.8c-15.5,42.6-16.1,78-12.2,118.1
					c0.9,9.7,9.2,17.1,18.7,16.9C37.1,544.4,39.1,544.4,41.1,544.4z"/>
			</g>
		</g>
		<g class="st7">
			<g>
				<path class="st3" d="M1329.2,296.6c32.7,43.7,74.6,64.5,111.7,96.3c0.8,0.6,1.9-0.1,1.6-1l-8.3-31c-0.2-0.9,0.7-1.6,1.5-1.1
					c12.1,6.7,25,11.8,38.4,15.1c0.9,0.2,1.6-0.8,1.1-1.6c-5.6-8-12.1-15.5-19.2-22.3c-0.7-0.7-0.2-1.8,0.8-1.7
					c9.6,0.9,19.4-1.2,29-0.4c5.5,0.5,3.9-3.1-6.2-6.9c-22.4-8.4-66-37.5-84.5-53.1c-29.6-25.1-27.8-30.4-45.8-64.7
					c-0.4-0.7-12.9,9.8-13.5,10.4c-11.9,11.9-16.7,15.3-18.8,21C1312.2,268.8,1321.7,286.6,1329.2,296.6"/>
			</g>
			<g>
				<path class="st4" d="M1361.8,227.6c-1.5,0.6-3.2,1.3-4.9,1.9c8,3.1,15.4,7.3,22,12.5c4.6,3.6,9.3,9,6.1,14.9
					c-1,1.9-2.7,3.3-4.7,4.2c-5,2.4-10.2,1.8-15.4,1.6c-6.4-0.2-12.8,0.2-19.1,1.3c-4,0.7-8.6,2.1-10.2,5.7
					c-0.8,1.8-0.6,3.9-0.5,5.8c0.5,8.4,0,16.9-1.7,25.3c-0.5,2.6-1.3,5.5-4.9,6.1c-1.3,0.2-3.2-0.1-4.4-0.6
					c-14.1-6.1-14.9-25.6-27.5-33.6c-10.5-6.6-29.6-4.3-40.8-10.1c-1.6-0.8-3-2-3.9-3.6c-3.5-5.9,2.1-11.9,7-16.3
					c7.1-6.2,15.4-11.8,15.5-21.3c0.1-11.4,0.9-22.9,0.4-34.4c-0.2-4.8,0.4-10.7,5.6-12.4c1.3-0.4,2.6-0.5,3.9-0.3
					c6.8,1.1,10.5,7.2,13.6,12.9l10.9,14.6c0.4,0.7,1.3,1,2.1,0.5c13.3-8.1,22.2-23.5,35.3-30.4c5-2.6,11-0.1,11.8,5.1
					c0.7,4.3,0.2,9-1,13.3c-2.1,7.3-6,14-9.2,20.9c-0.5,1.1-1,2.3-1.4,3.5c1.9-1,4.2-1.7,6.6-2.7c19.9-8.3,40.8-15.1,61-22.7
					c23.1-8.7,46.3-17.4,69.4-26.1c1.1-0.4,2.4-0.8,3.4-0.2c0.8,0.6,1.1,1.7,1.3,2.7c0.7,4.5,1,9.1,0.8,13.6
					C1446.4,195.5,1404.1,211.6,1361.8,227.6"/>
			</g>
		</g>
		<g style="opacity:0.62;clip-path:url(#SVGID_2_);">
			<g>
				<path class="st6" d="M31,205.8c9.2-1.8,37.2,12.4,46.5,12.9c38.4,1.9,33.6-1.9,56.6-6.5c20.1-4.1,31.2,8.1,48.8,18.7
					c12.1,7.3,33.6,12.9,37.8,26.4c4.5,14.3-1.2,30.5-11.4,41.4c-14.3,15.2-35,20.9-54.5,26C103.7,338,40,346.1-7.4,317.3
					C-29,304.2-57.5,283-53.4,255.9C-49.9,233.7,12.4,209.4,31,205.8"/>
			</g>
			<g>
				<path d="M115.7,282c-15.3,0-30.8-0.6-46.6-1.3l-6.9-0.3C28.7,279-17.2,277.2-49,250.3l1.2-1.4c28.9,24.5,67,27.9,110.1,29.7
					l6.9,0.3c52.2,2.1,101.5,4.2,149-16.7l0.8,1.7C185.5,278.5,151.2,282,115.7,282z"/>
			</g>
		</g>
		<g class="st7">
			<path class="st4" d="M1369.2,425.2c-24.1-11.5-49.7-10.7-59.4,17.8c-11.8,34.8-10.2,72.6-6.2,109.2c1.5,14.4,3.7,29.4,12.2,41
				c3.6,4.8,8.8,9.2,14.8,9.1c6.8-0.2,12.1-5.9,16.4-11.1c7.8-9.4,18.9-16.4,26.8-31.1c-2.8,5.1,8.3,23.5,11,28
				c8.1,13.5,27.6,23.2,39.3,8.1c11.3-14.7,14.7-35.7,17.6-53.5c3.9-23.9,6.5-48.9,2.6-73c-3.8-23.2-17.2-52.3-44.8-52.9
				c-7.1-0.2-11.5,4.2-16.6,8.5C1375.4,431.7,1378,429.4,1369.2,425.2"/>
		</g>
	</g>
</g>
<g id="Layer_8">
</g>
<g id="Layer_2">
</g>
<g id="Layer_1">
</g>
<g id="Layer_3">
</g>
<g id="Layer_11">
</g>
<g id="Layer_12">
</g>
<g id="Layer_13">
</g>
<g id="Layer_5">
</g>
<g id="Layer_6">
</g>
<g id="Layer_7">
	<g>
		<defs>
			<rect id="SVGID_31_" x="-1128.5" y="-2343.5" width="857" height="2463"/>
		</defs>
		<clipPath id="SVGID_4_">
			<use xlink:href="#SVGID_31_"  style="overflow:visible;"/>
		</clipPath>
		<g class="st11">
			
				<image style="overflow:visible;" width="1920" height="1080" xlink:href="6042B709.jpg"  transform="matrix(1 0 0 1 -1708 -901)">
			</image>
		</g>
	</g>
</g>
<g id="Layer_9">
</g>
<g id="Layer_10">
	<g>
		<defs>
			<polygon id="SVGID_37_" points="1359.7,-10.3 79.7,-5.3 79.7,-526.2 1359.7,-531.2 			"/>
		</defs>
		<clipPath id="SVGID_6_">
			<use xlink:href="#SVGID_37_"  style="overflow:visible;"/>
		</clipPath>
		<g style="clip-path:url(#SVGID_6_);">
			
				<image style="overflow:visible;" width="1920" height="1080" xlink:href="6042B70B.jpg"  transform="matrix(0.9352 0 0 0.9352 -145.348 -647.316)">
			</image>
		</g>
	</g>
</g>
<g id="Layer_14" class="st37">
	<path class="st38" d="M1284.1,578H179.9c-49.1,0-88.9-39.8-88.9-88.9V175.9c0-49.1,39.8-88.9,88.9-88.9h1104.2
		c49.1,0,88.9,39.8,88.9,88.9v313.2C1373,538.2,1333.2,578,1284.1,578z"/>
	<g class="st39">
		<rect x="341.1" y="202" class="st40" width="757" height="132.9"/>
		<text transform="matrix(1 0 0 1 486.0631 237.5199)" class="st28 st41 st42">Lo que dicen de mi:</text>
	</g>
	<g class="st39">
		<rect x="301.5" y="335" class="st40" width="839" height="266"/>
		<text transform="matrix(1 0 0 1 331.0353 353.2402)"><tspan x="0" y="0" class="st28 st43 st44">El lugar muy increíble para los niños, todas las doctoras con excelente </tspan><tspan x="-4.5" y="36" class="st28 st43 st44">atención tanto en lo profesional (la revisión y cita), cómo el trato con el </tspan><tspan x="-15.6" y="72" class="st28 st43 st44">paciente ya que le dio mucha confianza al niño para estar tranquilo en la </tspan><tspan x="29" y="108" class="st28 st43 st44">revisión agradezco la atención personalizada que nos brindaron.</tspan></text>
	</g>
	<polyline class="st45" points="1250.1,342 1265.2,357.2 1251.2,371.2 	"/>
	<polyline class="st45" points="190.9,351.4 175.7,366.6 189.8,380.6 	"/>
	<circle class="st45" cx="1258" cy="357" r="34.5"/>
	<circle class="st45" cx="187" cy="366" r="34.5"/>
</g>
</svg>
