<svg id="Layer_1" data-name="Layer 1" xmlns="http://www.w3.org/2000/svg" xmlns:xlink="http://www.w3.org/1999/xlink" viewBox="0 0 1920 1080"><defs><style>.cls-1,.cls-2{fill:none;}.cls-2{stroke:#fff;stroke-miterlimit:10;}.cls-3{fill:#fff;}.cls-4{opacity:0.25;fill:url(#Ncéntrica1_3);}</style><pattern id="Ncéntrica1_3" data-name="Ncéntrica1 3" width="571.54" height="513.26" patternTransform="translate(733.91 2794.25) scale(1.2)" patternUnits="userSpaceOnUse" viewBox="0 0 571.54 513.26"><rect class="cls-1" width="571.54" height="513.26"/><path class="cls-2" d="M-.49,36.78c2.48-4.05,5.65-7.84,9.84-9.5,6.38-2.53,14.09-2.19,19.47,2.07C40.54,38.63,40.5,56.12,42.2,69.26a4.59,4.59,0,0,1-4.33,5.17s-32.3-.16-32.42-.15c-3.54.17-8.4.9-11.61-1-3.62-2.19-3.3-6.87-3-10.53A57,57,0,0,1-3.74,42.9,67.9,67.9,0,0,1-.49,36.78"/><path class="cls-2" d="M52.31,36.78c2.47-4.05,5.65-7.84,9.84-9.5,6.38-2.53,14.09-2.19,19.47,2.07C93.34,38.63,93.3,56.12,95,69.26a4.59,4.59,0,0,1-4.33,5.17s-32.31-.16-32.42-.15c-3.54.17-8.4.9-11.62-1C43,71,43.34,66.36,43.65,62.7a57.15,57.15,0,0,1,5.4-19.8c.94-1.95,2-4.07,3.26-6.12"/><path class="cls-2" d="M11.75,50.49a127,127,0,0,0-18.6.39l.08.74a126.48,126.48,0,0,1,18.47-.4A6,6,0,0,1,11.75,50.49Z"/><path class="cls-2" d="M39.81,50.71a144.11,144.11,0,0,1-18.47.18,6.09,6.09,0,0,1,0,.74c2.95.12,5.93.21,8.92.21,3.21,0,6.43-.11,9.61-.4Z"/><path class="cls-2" d="M92.44,50.9a142.39,142.39,0,0,1-18.59.17,4.65,4.65,0,0,1,.08.74c3,.12,6,.22,9,.22,3.21,0,6.43-.11,9.62-.4Z"/><path class="cls-2" d="M64.44,50.68a127.77,127.77,0,0,0-18.66.39l.08.74a126.38,126.38,0,0,1,18.46-.4A4.45,4.45,0,0,1,64.44,50.68Z"/><path class="cls-2" d="M64.32,52.61l0,1.25s1,0,1.2,0c2.88-.26,5.53.3,8.38-.22-.13-1.48-.2-3-.38-4.48-.64,0-1.06,0-3.16,0s-4-.07-5.74.06a21.27,21.27,0,0,0-.26,3.39"/><path class="cls-2" d="M65.07,54.24H63.9L64,52.61a21.19,21.19,0,0,1,.27-3.45l0-.29.29,0c1.47-.11,3.15-.09,4.76-.07h1c2.14,0,2.52,0,3.14,0l.34,0,0,.34c.13,1,.2,2,.27,3,0,.52.07,1,.12,1.54l0,.33-.33.06a22.32,22.32,0,0,1-4.8.2,28.91,28.91,0,0,0-3.6,0Zm2.21-.82c.63,0,1.26,0,1.87,0a22.15,22.15,0,0,0,4.31-.13l-.09-1.21c-.06-.85-.12-1.73-.22-2.58-.5,0-1.08,0-2.84,0h-1c-1.49,0-3,0-4.4,0a18.87,18.87,0,0,0-.22,3l0,.89h.79C66.07,53.44,66.68,53.42,67.28,53.42Z"/><path class="cls-2" d="M11.74,52.32v1.25s1,0,1.2,0c2.87-.34,5.53.15,8.36-.45-.17-1.48-.28-3-.5-4.48-.64,0-1.06.06-3.16.1s-4,0-5.73.22a21.54,21.54,0,0,0-.17,3.4"/><path class="cls-2" d="M11.37,53.94V52.33a21.75,21.75,0,0,1,.17-3.46l0-.29.29,0c1.49-.15,3.18-.18,4.82-.2l.94,0c2.1,0,2.51,0,3.14-.09l.34,0,.05.34c.15,1,.25,2,.35,3,0,.51.1,1,.16,1.52l0,.34-.33.07a21.83,21.83,0,0,1-4.79.33A27.54,27.54,0,0,0,13,53.9c-.21,0-1.07,0-1.24,0Zm.87-4.69a19.73,19.73,0,0,0-.13,3v.89l.78,0a27.41,27.41,0,0,1,3.7-.14,23,23,0,0,0,4.31-.25c0-.4-.09-.8-.13-1.2-.08-.85-.17-1.73-.29-2.58-.51,0-1.11,0-2.84.07l-.94,0C15.18,49.11,13.62,49.13,12.24,49.25Z"/><path class="cls-2" d="M152.79,24.72c-4.49-2.13-10-3.53-14.17.08a15.06,15.06,0,0,0-4.11,6.62c-4.06,12.1-3.44,25.25-2,37.94.59,5.34,1.42,8,5,12.14a6.48,6.48,0,0,0,2.78,2C145.11,85.23,149,78,152,75.36a5.48,5.48,0,0,1,3-1.64,4.37,4.37,0,0,1,3.43,1.64c1.5,1.65,2.4,3.78,3.88,5.46,3.15,3.57,8.88,4.94,12.1.74,3.91-5.11,5.05-9.51,6.05-15.69,1.34-8.32,2.22-17,.83-25.37-1.13-6.8-3.21-16.81-11.56-17.85-6-.75-11,4.87-17,2.07"/><path class="cls-3" d="M177,66.3a11.83,11.83,0,0,0,3.76-.79h0a5.41,5.41,0,0,0,3.28-4.14c1.07-6.61,2.09-15.31.54-23.93-1-5.66-3.12-17.43-13.07-18.58-3-.33-5.72.59-8.38,1.48-3.46,1.16-6.73,2.25-10.34.67-6.82-3-12.21-2.94-16,.13a15.79,15.79,0,0,0-4.65,6.92c-4,11.12-4.19,20.33-3.19,30.75a5.39,5.39,0,0,0,5.32,4.9h.1A145.9,145.9,0,0,1,154,65.07a157.19,157.19,0,0,0,18.17,1.39C173.76,66.46,175.4,66.41,177,66.3Zm-42.66-3.18a4.82,4.82,0,0,1-4.83-4.36c-1-10.34-.83-19.48,3.16-30.5a15.33,15.33,0,0,1,4.47-6.66c3.63-2.93,8.82-2.94,15.42-.05,3.81,1.67,7.35.49,10.76-.66,2.6-.87,5.29-1.77,8.13-1.44C181,20.55,183.05,32,184,37.54c1.54,8.54.52,17.17-.54,23.74A4.79,4.79,0,0,1,180.57,65h0a11,11,0,0,1-3.58.75c-7.76.54-15.49-.36-23-1.22a158.91,158.91,0,0,0-18.11-1.39Z"/><path class="cls-2" d="M260,27.44c13.1-1.46,24,2.11,36,3A.26.26,0,0,1,296,31l-7.12,4.1a.25.25,0,0,0,.05.46,40.56,40.56,0,0,1,9.69,4.22.26.26,0,0,1-.09.48,37.68,37.68,0,0,1-7.5.56.25.25,0,0,0-.17.45c1.91,1.59,3.28,3.73,5.17,5.33,1.09.91.15,1.27-2.38.12C288.1,44.13,275,41.49,268.77,41a34.11,34.11,0,0,0-9.29.11"/><path class="cls-2" d="M251.68,46.05c-.17-.38-.34-.81-.54-1.23a23.05,23.05,0,0,0,6.26,1.73c1.49.19,3.31.06,3.79-1.58a2.73,2.73,0,0,0-.08-1.62,8,8,0,0,0-2.49-3.07,24.7,24.7,0,0,1-3.22-3.7,3.27,3.27,0,0,1-.81-2.89,3.2,3.2,0,0,1,1-1.14,24.67,24.67,0,0,0,4.27-4.89,1.64,1.64,0,0,0,.22-2,2.37,2.37,0,0,0-.91-.69c-3.65-1.45-7.34,1.94-11.07,1.09-3.09-.7-6.13-4.57-9.21-5.55a2.43,2.43,0,0,0-1.36-.06c-1.71.44-1.79,2.53-1.68,4.21.17,2.41.65,4.93-1.06,6.66-2,2.07-4,4.3-6.18,6.29-.9.83-1.86,2-1.24,3.26a2.11,2.11,0,0,0,.66.76c1.42,1,3.22.6,4.79.13l4.62-.67a.38.38,0,0,1,.47.29c.95,3.87-.25,8.27.87,11.91a2,2,0,0,0,3.06,1.21A8,8,0,0,0,244,51.9a37.47,37.47,0,0,0,2.13-5.46,6.38,6.38,0,0,1,.38-.9c.16.51.44,1.07.7,1.69,2.11,5.12,4.65,10.12,6.93,15.17L262,79.69c.12.28.28.58.58.65a.94.94,0,0,0,.71-.26,16.41,16.41,0,0,0,2.6-2.33q-7.1-15.84-14.2-31.7"/><path class="cls-2" d="M343.08,25.12c-8-3.78-16.47-3.48-19.64,6-3.87,11.52-3.28,24-1.93,36.11.53,4.75,1.25,9.72,4.09,13.56,1.18,1.6,2.91,3,4.9,3,2.26-.06,4-1.95,5.42-3.69,2.56-3.11,6.22-5.46,8.83-10.31-.91,1.69,2.78,7.78,3.67,9.24,2.71,4.45,9.16,7.64,13,2.62,3.73-4.86,4.81-11.84,5.76-17.73,1.28-7.92,2.11-16.17.79-24.14-1.27-7.67-5.75-17.28-14.87-17.45-2.36-.05-3.81,1.41-5.47,2.83-2.5,2.14-1.64,1.39-4.55,0"/><path class="cls-2" d="M404.81,23.47a1.67,1.67,0,0,1,.63.16c.81.45.5,1.67.09,2.49a1.17,1.17,0,0,1,1.51.16,1.6,1.6,0,0,1,.32,1.56c-.11.37-.33.77-.16,1.12s.51.42.8.6a1.72,1.72,0,0,1,.72,1.9,1.29,1.29,0,0,0-.13.69c.1.35.55.45.89.59a1.76,1.76,0,0,1,.51,2.74,3.44,3.44,0,0,1,1.49,1,1.57,1.57,0,0,1,.23,1.68,2.42,2.42,0,0,1-.94.82L407,41.18a.85.85,0,0,1-.34.14c-.3,0-.49-.3-.62-.56-1.71-3.58-2.85-7.41-4.6-11-.54-1.12-2.68-3.58-2.23-4.74.59-1.52,4.31-1.7,5.58-1.56"/><path class="cls-2" d="M393.75,26.77a11.47,11.47,0,0,0,1,3.11c.54,1.57,1.09,3.13,1.69,4.67a59.62,59.62,0,0,0,4.24,9,3.6,3.6,0,0,0,1,1.2c1.24.82,2.72.65,4,1.65a18,18,0,0,1,3.14,3.44,53.18,53.18,0,0,1,4.39,7.51c4.51,9,6.36,13.12,10.86,22.08,1.14,2.27,2.89,4.9,5.42,4.67,1.95-.18,3.33-2.17,3.51-4.12s-2.76-4.33-3.51-6.14c-4.38-10.47-7.51-15-12.83-25.07-1.21-2.28-2.57-4.71-4.89-5.83-1.44-.69-3.14-.82-4.42-1.77A8.36,8.36,0,0,1,405,37.56l-3.06-7c-.72-1.65-.87-4-2.26-5.29a4.35,4.35,0,0,0-5-.27,1.88,1.88,0,0,0-.87,1.74"/><path class="cls-3" d="M416.36,18.49c0-.21.13-.47.36-.46a.34.34,0,0,1,.17,0c.35.24.59.84.95,1s1-.05,1.43.27a.22.22,0,0,1,.09.12c0,.11,0,.18-.1.24a3.59,3.59,0,0,1-.71.46.32.32,0,0,0-.17.11.41.41,0,0,0,0,.39,3.06,3.06,0,0,0,.27.58,1,1,0,0,1,.2.48.35.35,0,0,1-.05.2c-.12.19-.35.14-.54.06a3.1,3.1,0,0,1-.8-.51.41.41,0,0,0-.24-.15c-.15,0-.27.11-.36.24a5.66,5.66,0,0,1-.47.6,1,1,0,0,1-.38.25.26.26,0,0,1-.33-.27c0-.49.3-1,.32-1.52a.06.06,0,0,0-.05-.06l-.6-.08a.71.71,0,0,1-.6-.19.61.61,0,0,1-.05-.12c0-.18.13-.3.27-.37.35-.17.68-.37,1-.56s.31-.49.38-.8"/><path class="cls-3" d="M416.67,24.93c0-.12.07-.26.2-.25a.16.16,0,0,1,.09,0c.18.12.31.44.51.55s.54,0,.76.14l0,.07c0,.06,0,.1-.06.13a1.36,1.36,0,0,1-.38.24.47.47,0,0,0-.09.06.26.26,0,0,0,0,.21,1.77,1.77,0,0,0,.15.31.59.59,0,0,1,.1.26.15.15,0,0,1,0,.11c-.07.1-.19.07-.29,0a1.67,1.67,0,0,1-.43-.28.35.35,0,0,0-.13-.08c-.08,0-.14.06-.19.13a2,2,0,0,1-.25.32.49.49,0,0,1-.2.13.14.14,0,0,1-.18-.14c0-.26.16-.53.17-.81,0,0,0,0,0,0l-.33,0a.35.35,0,0,1-.31-.1.09.09,0,0,1,0-.06c0-.1.07-.16.14-.2s.36-.2.54-.3.17-.26.2-.42"/><path class="cls-3" d="M400.84,27.77l0-.39a8.72,8.72,0,0,0,4.63-1.67l.23.31A9.1,9.1,0,0,1,400.84,27.77Z"/><path class="cls-3" d="M402.17,31.27l0-.39a5.32,5.32,0,0,0,1.11-.22,11.22,11.22,0,0,0,2.45-.89,4.61,4.61,0,0,0,1.23-1l.29.26a4.84,4.84,0,0,1-1.33,1,11.3,11.3,0,0,1-2.53.92A5.43,5.43,0,0,1,402.17,31.27Z"/><path class="cls-3" d="M403.61,34.31l-.11-.37,2-.58a5.18,5.18,0,0,0,3-1.62l.31.22a5.5,5.5,0,0,1-3.16,1.78Z"/><path class="cls-3" d="M405.39,38l-.15-.36c.7-.28,1.39-.58,2.07-.88A9.83,9.83,0,0,0,410.18,35l.27.28a10.2,10.2,0,0,1-3,1.79C406.79,37.42,406.09,37.72,405.39,38Z"/><path class="cls-2" d="M406.56,21.58a7.49,7.49,0,0,1,2.62-2.9,1,1,0,0,1,1.5.63,23.55,23.55,0,0,0,1.37,4.43,38,38,0,0,0,3.44,5.54c1.11,1.74,2.16,4.91,1.11,7a3.15,3.15,0,0,1-2.32,1.54c-1.62.09-2.82-1.21-3.74-2.42-2.49-3.25-5.69-9.47-4-13.82"/><path class="cls-2" d="M483.23,36.08c2.36-.46,9.52,3.18,11.92,3.3,9.83.49,8.62-.47,14.51-1.66,5.15-1,8,2.06,12.5,4.78,3.11,1.88,8.6,3.32,9.69,6.78,1.16,3.67-.29,7.81-2.93,10.61-3.65,3.9-9,5.37-14,6.68C501.87,70,485.54,72,473.38,64.66c-5.53-3.35-12.84-8.8-11.77-15.74.88-5.69,16.85-11.92,21.62-12.84"/><path class="cls-3" d="M505,55.6c-3.92,0-7.9-.16-11.95-.33l-1.75-.07c-8.6-.34-20.38-.82-28.52-7.72l.32-.37c7.4,6.28,17.16,7.16,28.22,7.61l1.75.07c13.38.55,26,1.07,38.19-4.28l.19.44C522.82,54.72,514,55.6,505,55.6Z"/><path class="cls-2" d="M571.06,36.78c2.47-4.05,5.64-7.84,9.84-9.5,6.38-2.53,14.08-2.19,19.46,2.07,11.73,9.28,11.69,26.77,13.38,39.91a4.58,4.58,0,0,1-4.32,5.17s-32.31-.16-32.42-.15c-3.54.17-8.4.9-11.62-1-3.62-2.19-3.29-6.87-3-10.53a56.93,56.93,0,0,1,5.4-19.8c.94-1.95,2-4.07,3.26-6.12"/><path class="cls-2" d="M583.3,50.49a127.09,127.09,0,0,0-18.61.39l.08.74a126.55,126.55,0,0,1,18.47-.4A4.49,4.49,0,0,1,583.3,50.49Z"/><path class="cls-2" d="M.15,127.77c-8-3.78-16.46-3.48-19.64,6-3.86,11.52-3.27,24-1.93,36.11.53,4.75,1.26,9.72,4.09,13.57,1.18,1.6,2.91,3,4.9,3,2.26-.06,4-2,5.42-3.7,2.56-3.11,6.22-5.46,8.84-10.31-.92,1.69,2.77,7.78,3.66,9.24,2.71,4.45,9.16,7.64,13,2.63s4.81-11.84,5.76-17.73c1.28-7.92,2.11-16.18.78-24.15-1.27-7.67-5.75-17.28-14.87-17.45-2.35,0-3.81,1.41-5.47,2.83-2.49,2.14-1.63,1.39-4.55,0"/><path class="cls-2" d="M61.88,126.12a1.56,1.56,0,0,1,.64.17c.8.45.5,1.66.09,2.48a1.16,1.16,0,0,1,1.5.16,1.63,1.63,0,0,1,.33,1.56c-.11.37-.33.77-.17,1.12s.51.43.8.61a1.71,1.71,0,0,1,.72,1.89,1.21,1.21,0,0,0-.12.69c.1.36.54.45.89.6a1.76,1.76,0,0,1,.51,2.73,3.41,3.41,0,0,1,1.48,1,1.56,1.56,0,0,1,.24,1.68,2.44,2.44,0,0,1-1,.82l-3.74,2.22a.81.81,0,0,1-.35.14c-.29,0-.49-.29-.61-.56-1.72-3.58-2.86-7.41-4.6-11-.55-1.13-2.68-3.58-2.23-4.75.58-1.51,4.31-1.7,5.57-1.56"/><path class="cls-2" d="M50.82,129.42a12.4,12.4,0,0,0,1,3.12c.54,1.56,1.1,3.12,1.69,4.66a60.61,60.61,0,0,0,4.24,9,3.62,3.62,0,0,0,1,1.2c1.24.83,2.73.65,4,1.66a18,18,0,0,1,3.14,3.43,53.25,53.25,0,0,1,4.4,7.51c4.5,9,6.35,13.12,10.86,22.08,1.14,2.27,2.88,4.9,5.41,4.67,2-.18,3.34-2.16,3.51-4.11s-2.76-4.34-3.51-6.14C82.18,166,79,161.4,73.72,151.38c-1.21-2.28-2.56-4.7-4.89-5.82-1.43-.7-3.14-.83-4.42-1.77A8.34,8.34,0,0,1,62,140.21l-3.06-7c-.72-1.65-.87-4-2.26-5.29a4.35,4.35,0,0,0-5-.27,1.89,1.89,0,0,0-.88,1.74"/><path class="cls-3" d="M73.43,121.15c0-.22.13-.48.37-.47a.25.25,0,0,1,.16.06c.35.23.59.83,1,1s1,0,1.43.27a.54.54,0,0,1,.09.12.22.22,0,0,1-.11.24,2.79,2.79,0,0,1-.71.46.46.46,0,0,0-.16.11.44.44,0,0,0,0,.39,3.06,3.06,0,0,0,.27.58,1.07,1.07,0,0,1,.2.48.31.31,0,0,1,0,.21c-.12.19-.35.13-.53.06a3,3,0,0,1-.8-.52.54.54,0,0,0-.25-.15c-.14,0-.27.11-.36.24a4.71,4.71,0,0,1-.47.61,1.12,1.12,0,0,1-.37.24.26.26,0,0,1-.34-.26c0-.5.3-1,.33-1.53a.05.05,0,0,0,0,0l-.61-.09a.7.7,0,0,1-.59-.19.27.27,0,0,1-.06-.12c0-.18.13-.29.28-.36.34-.17.67-.38,1-.57s.31-.49.38-.79"/><path class="cls-3" d="M73.75,127.58c0-.12.07-.25.19-.25a.16.16,0,0,1,.09,0c.19.13.32.44.51.55s.55,0,.76.15a.15.15,0,0,1,0,.06.12.12,0,0,1,0,.13,1.73,1.73,0,0,1-.38.24.2.2,0,0,0-.09.06.2.2,0,0,0,0,.21,1.23,1.23,0,0,0,.14.31.6.6,0,0,1,.11.26.2.2,0,0,1,0,.11c-.06.1-.19.07-.29,0a1.62,1.62,0,0,1-.42-.28.35.35,0,0,0-.13-.08c-.08,0-.15.06-.2.13a2.6,2.6,0,0,1-.25.33.58.58,0,0,1-.2.13.14.14,0,0,1-.18-.14c0-.27.16-.54.18-.82a0,0,0,0,0,0,0l-.32,0a.36.36,0,0,1-.32-.11.07.07,0,0,1,0-.06c0-.1.07-.16.15-.19l.53-.31c.15-.08.17-.26.21-.42"/><path class="cls-3" d="M57.91,130.42l0-.39a8.6,8.6,0,0,0,4.63-1.67l.23.31A9.1,9.1,0,0,1,57.91,130.42Z"/><path class="cls-3" d="M59.24,133.92l0-.39a4.65,4.65,0,0,0,1.11-.22,11.12,11.12,0,0,0,2.46-.89,4.23,4.23,0,0,0,1.22-1l.29.26A5.07,5.07,0,0,1,63,132.77a12.38,12.38,0,0,1-2.53.92A5.92,5.92,0,0,1,59.24,133.92Z"/><path class="cls-3" d="M60.68,137l-.1-.37,2-.57a5.25,5.25,0,0,0,2.95-1.63l.32.22a5.5,5.5,0,0,1-3.16,1.78C62,136.58,61.35,136.78,60.68,137Z"/><path class="cls-3" d="M62.47,140.66l-.15-.36,2.07-.89a9.91,9.91,0,0,0,2.86-1.72l.27.28a9.94,9.94,0,0,1-3,1.79C63.86,140.07,63.16,140.37,62.47,140.66Z"/><path class="cls-2" d="M63.64,124.23a7.32,7.32,0,0,1,2.62-2.89.94.94,0,0,1,1.49.62,23.75,23.75,0,0,0,1.38,4.43,37.06,37.06,0,0,0,3.43,5.54c1.11,1.74,2.16,4.91,1.12,7a3.17,3.17,0,0,1-2.32,1.54c-1.63.1-2.83-1.21-3.75-2.42-2.48-3.25-5.69-9.47-4-13.82"/><path class="cls-2" d="M140.3,138.73c2.36-.45,9.52,3.18,11.92,3.3,9.83.5,8.62-.47,14.52-1.66,5.14-1,8,2.06,12.5,4.78,3.1,1.88,8.6,3.32,9.69,6.78,1.15,3.67-.3,7.81-2.93,10.62-3.66,3.9-9,5.37-14,6.67-13.08,3.41-29.4,5.47-41.56-1.91-5.53-3.35-12.85-8.79-11.77-15.74.88-5.68,16.84-11.92,21.61-12.84"/><path class="cls-3" d="M162,158.26c-3.92,0-7.9-.17-11.94-.33l-1.76-.08c-8.6-.34-20.38-.81-28.51-7.72l.31-.37c7.4,6.29,17.16,7.16,28.22,7.61l1.76.07c13.37.55,26,1.07,38.18-4.28l.2.45C179.9,157.37,171.11,158.26,162,158.26Z"/><path class="cls-2" d="M228.13,139.44c2.47-4.06,5.65-7.85,9.84-9.51,6.38-2.53,14.09-2.18,19.47,2.07,11.72,9.29,11.68,26.77,13.38,39.91a4.6,4.6,0,0,1-4.33,5.18s-32.31-.17-32.42-.16c-3.54.17-8.4.9-11.62-1-3.61-2.19-3.29-6.88-3-10.53a57.2,57.2,0,0,1,5.4-19.81c.94-1.94,2-4.06,3.26-6.11"/><path class="cls-2" d="M280.93,139.44c2.47-4.06,5.65-7.85,9.84-9.51,6.38-2.53,14.09-2.18,19.46,2.07,11.73,9.29,11.69,26.77,13.39,39.91a4.61,4.61,0,0,1-4.33,5.18s-32.31-.17-32.42-.16c-3.54.17-8.4.9-11.62-1-3.62-2.19-3.29-6.88-3-10.53a57,57,0,0,1,5.4-19.81c.94-1.94,2-4.06,3.26-6.11"/><path class="cls-2" d="M240.37,153.14a128.53,128.53,0,0,0-18.61.4l.08.73a128,128,0,0,1,18.47-.39C240.32,153.63,240.34,153.38,240.37,153.14Z"/><path class="cls-2" d="M268.42,153.36a140.39,140.39,0,0,1-18.46.18c0,.25,0,.49,0,.74,2.95.12,5.93.21,8.91.21,3.22,0,6.43-.1,9.62-.39Z"/><path class="cls-2" d="M321.06,153.55a142.39,142.39,0,0,1-18.59.17,6.36,6.36,0,0,1,.08.75c3,.12,6,.21,9,.21,3.21,0,6.42-.11,9.61-.39Z"/><path class="cls-2" d="M293.06,153.33a127.94,127.94,0,0,0-18.67.4l.09.73a127.66,127.66,0,0,1,18.45-.4A6.21,6.21,0,0,1,293.06,153.33Z"/><path class="cls-2" d="M292.94,155.27l0,1.24s1,0,1.2,0c2.88-.26,5.53.3,8.38-.22-.13-1.48-.2-3-.39-4.48-.63,0-1,0-3.15,0s-4-.08-5.74.05a21.32,21.32,0,0,0-.26,3.4"/><path class="cls-2" d="M293.68,156.89h-1.16l.05-1.61a20.18,20.18,0,0,1,.27-3.46l0-.29.3,0c1.47-.1,3.14-.08,4.76-.06h1c2.14,0,2.52,0,3.14,0h.34l0,.33c.12,1,.2,2,.27,3,0,.52.07,1,.11,1.54l0,.34-.33.06a22.3,22.3,0,0,1-4.8.19,29.08,29.08,0,0,0-3.61,0Zm2.22-.82c.63,0,1.25,0,1.87,0a23,23,0,0,0,4.31-.12l-.09-1.21c-.06-.86-.12-1.74-.22-2.59-.5,0-1.08,0-2.84,0l-1,0c-1.49,0-3,0-4.41.05a20.19,20.19,0,0,0-.21,3l0,.89h.78C294.69,156.09,295.3,156.07,295.9,156.07Z"/><path class="cls-2" d="M240.36,155v1.25s1,0,1.19,0c2.88-.35,5.54.14,8.37-.46-.17-1.48-.28-3-.51-4.47-.63,0-1,.06-3.15.09s-4,0-5.73.22a21.54,21.54,0,0,0-.17,3.4"/><path class="cls-2" d="M240,156.59V155a21.75,21.75,0,0,1,.17-3.46l0-.29.29,0c1.49-.15,3.18-.17,4.81-.2h.95c2.1,0,2.51-.06,3.14-.1l.34,0,.05.33c.15,1,.25,2,.35,3,.05.51.1,1,.16,1.53l0,.33-.33.07a21.92,21.92,0,0,1-4.8.33,29.23,29.23,0,0,0-3.6.13c-.22,0-1.07,0-1.24,0Zm.87-4.68a19.59,19.59,0,0,0-.13,3v.89l.78,0a29.09,29.09,0,0,1,3.7-.14,22.19,22.19,0,0,0,4.31-.25c-.05-.4-.09-.8-.13-1.2-.08-.85-.17-1.73-.29-2.58-.52,0-1.11,0-2.84.07l-.95,0C243.8,151.76,242.24,151.79,240.86,151.91Z"/><path class="cls-2" d="M381.41,127.37c-4.5-2.13-10-3.52-14.17.08a15.11,15.11,0,0,0-4.11,6.62c-4.07,12.11-3.45,25.25-2,38,.59,5.34,1.42,8,4.95,12.14a6.71,6.71,0,0,0,2.78,2c4.89,1.7,8.77-5.5,11.76-8.17a5.45,5.45,0,0,1,3-1.64,4.37,4.37,0,0,1,3.43,1.64c1.51,1.66,2.41,3.79,3.89,5.46,3.15,3.58,8.88,4.94,12.1.74,3.91-5.11,5-9.5,6-15.69,1.34-8.32,2.21-17,.82-25.37-1.12-6.79-3.2-16.81-11.55-17.85-6-.75-11,4.87-16.95,2.07"/><path class="cls-3" d="M405.65,169a11.89,11.89,0,0,0,3.76-.79h0a5.42,5.42,0,0,0,3.28-4.14c1.06-6.61,2.09-15.31.54-23.93-1-5.66-3.12-17.42-13.07-18.57-3-.34-5.72.58-8.38,1.47-3.46,1.16-6.73,2.26-10.34.68-6.82-3-12.21-3-16,.12a15.82,15.82,0,0,0-4.65,6.93c-4,11.11-4.19,20.33-3.2,30.75a5.41,5.41,0,0,0,5.33,4.89h.1a145.64,145.64,0,0,1,19.57,1.37,159.8,159.8,0,0,0,18.18,1.38C402.38,169.11,404,169.07,405.65,169ZM363,165.77a4.82,4.82,0,0,1-4.83-4.36c-1-10.34-.83-19.48,3.16-30.49a15.26,15.26,0,0,1,4.47-6.67c3.63-2.92,8.81-2.94,15.41,0,3.82,1.68,7.35.49,10.77-.65,2.6-.87,5.28-1.78,8.12-1.45,9.51,1.1,11.57,12.58,12.56,18.09,1.53,8.54.52,17.17-.54,23.74a4.86,4.86,0,0,1-2.92,3.69h0a11.59,11.59,0,0,1-3.58.75c-7.76.53-15.49-.36-23-1.23a158.92,158.92,0,0,0-18.11-1.38Z"/><path class="cls-2" d="M488.57,130.09c13.1-1.46,24,2.11,36,3a.26.26,0,0,1,.11.49l-7.13,4.09a.26.26,0,0,0,.06.47,40.31,40.31,0,0,1,9.69,4.21.27.27,0,0,1-.09.49,38.49,38.49,0,0,1-7.5.55.25.25,0,0,0-.17.45c1.9,1.59,3.28,3.73,5.17,5.33,1.09.92.15,1.27-2.39.12-5.58-2.54-18.73-5.18-24.91-5.7a34.08,34.08,0,0,0-9.29.11"/><path class="cls-2" d="M480.3,148.7c-.17-.38-.35-.81-.54-1.23a23.47,23.47,0,0,0,6.25,1.74c1.5.19,3.32.06,3.8-1.59a2.69,2.69,0,0,0-.08-1.61,8.15,8.15,0,0,0-2.49-3.08,24.35,24.35,0,0,1-3.23-3.7c-.6-.85-1.18-1.94-.8-2.89a3.19,3.19,0,0,1,1-1.14,24,24,0,0,0,4.26-4.89,1.63,1.63,0,0,0,.22-2,2.16,2.16,0,0,0-.9-.68c-3.65-1.46-7.34,1.93-11.07,1.09-3.09-.7-6.14-4.58-9.21-5.55a2.35,2.35,0,0,0-1.36-.07c-1.71.44-1.79,2.53-1.68,4.21.16,2.42.64,4.93-1.06,6.66-2.05,2.07-4,4.3-6.18,6.29-.9.83-1.86,2-1.24,3.26a2,2,0,0,0,.66.76c1.42,1,3.22.6,4.79.13l4.62-.66a.38.38,0,0,1,.47.28c.95,3.87-.25,8.28.87,11.91a2,2,0,0,0,3.06,1.21,8.11,8.11,0,0,0,2.22-2.6,35.91,35.91,0,0,0,2.12-5.46c.11-.3.24-.6.38-.9.17.52.45,1.07.71,1.7,2.1,5.11,4.65,10.11,6.93,15.16q3.92,8.65,7.82,17.3c.13.27.29.58.58.64a.94.94,0,0,0,.71-.25,17,17,0,0,0,2.61-2.33q-7.1-15.85-14.2-31.71"/><path class="cls-2" d="M571.7,127.77c-8-3.78-16.47-3.48-19.64,6-3.87,11.52-3.28,24-1.93,36.11.52,4.75,1.25,9.72,4.09,13.57,1.18,1.6,2.91,3,4.9,3,2.25-.06,4-2,5.42-3.7,2.56-3.11,6.22-5.46,8.83-10.31-.91,1.69,2.78,7.78,3.67,9.24,2.7,4.45,9.16,7.64,13,2.63s4.81-11.84,5.76-17.73c1.28-7.92,2.11-16.18.79-24.15-1.28-7.67-5.75-17.28-14.87-17.45-2.36,0-3.82,1.41-5.47,2.83-2.5,2.14-1.64,1.39-4.55,0"/><path class="cls-2" d="M38.48,230c-4.49-2.12-10-3.52-14.17.09a15.08,15.08,0,0,0-4.11,6.61c-4.06,12.11-3.44,25.26-2,38,.59,5.34,1.42,8,5,12.14a6.56,6.56,0,0,0,2.78,2c4.89,1.7,8.76-5.5,11.75-8.17a5.54,5.54,0,0,1,3-1.64,4.39,4.39,0,0,1,3.43,1.64c1.5,1.66,2.41,3.79,3.88,5.47,3.15,3.57,8.88,4.93,12.1.73,3.91-5.11,5-9.5,6-15.69,1.35-8.32,2.22-17,.83-25.36C65.86,239,63.78,229,55.43,228c-6-.75-11,4.88-17,2.07"/><path class="cls-3" d="M62.72,271.61a12.1,12.1,0,0,0,3.76-.8h0a5.38,5.38,0,0,0,3.28-4.13c1.07-6.62,2.09-15.31.54-23.94-1-5.65-3.12-17.42-13.07-18.57-3-.34-5.71.58-8.37,1.47-3.47,1.16-6.74,2.26-10.35.68-6.82-3-12.21-2.95-16,.12a15.87,15.87,0,0,0-4.65,6.93c-4,11.11-4.19,20.33-3.19,30.75A5.39,5.39,0,0,0,20,269h.11a145.87,145.87,0,0,1,19.57,1.37,159.44,159.44,0,0,0,18.18,1.39C59.46,271.77,61.09,271.72,62.72,271.61Zm-42.66-3.19a4.81,4.81,0,0,1-4.83-4.36c-1-10.34-.83-19.48,3.16-30.49a15.35,15.35,0,0,1,4.47-6.67c3.63-2.92,8.82-2.93,15.42,0,3.81,1.67,7.35.48,10.76-.66,2.6-.87,5.29-1.78,8.13-1.45,9.51,1.1,11.57,12.58,12.56,18.1,1.53,8.53.51,17.17-.55,23.73a4.8,4.8,0,0,1-2.92,3.69h0a11.59,11.59,0,0,1-3.58.75c-7.76.53-15.49-.36-23-1.23a158.92,158.92,0,0,0-18.11-1.38Z"/><path class="cls-2" d="M145.65,232.75c13.09-1.47,24,2.1,36,3a.26.26,0,0,1,.11.48l-7.12,4.09a.26.26,0,0,0,.06.47,39.88,39.88,0,0,1,9.68,4.22.26.26,0,0,1-.09.48,37.68,37.68,0,0,1-7.5.55.25.25,0,0,0-.17.45c1.91,1.59,3.28,3.73,5.18,5.33,1.08.92.14,1.28-2.39.13-5.59-2.54-18.74-5.19-24.92-5.71a35,35,0,0,0-9.29.11"/><path class="cls-2" d="M137.37,251.36c-.17-.39-.34-.81-.53-1.24a22.91,22.91,0,0,0,6.25,1.74c1.49.19,3.31.06,3.79-1.58a2.72,2.72,0,0,0-.08-1.62,8.06,8.06,0,0,0-2.49-3.08,24.14,24.14,0,0,1-3.22-3.69c-.61-.85-1.18-1.95-.81-2.89a3.24,3.24,0,0,1,1-1.15,24.33,24.33,0,0,0,4.27-4.88,1.64,1.64,0,0,0,.22-2,2.28,2.28,0,0,0-.91-.69c-3.65-1.46-7.34,1.93-11.07,1.09-3.09-.7-6.13-4.58-9.21-5.55a2.53,2.53,0,0,0-1.36-.07c-1.71.45-1.79,2.53-1.68,4.22.17,2.41.65,4.92-1.06,6.65-2,2.08-4,4.31-6.17,6.3-.9.82-1.87,2-1.25,3.26a2.19,2.19,0,0,0,.66.76c1.42,1,3.22.6,4.79.13l4.62-.67a.38.38,0,0,1,.47.28c1,3.88-.25,8.28.87,11.91a2,2,0,0,0,3.06,1.21,7.85,7.85,0,0,0,2.22-2.59,37.92,37.92,0,0,0,2.13-5.46,6.38,6.38,0,0,1,.38-.9c.16.51.45,1.06.7,1.69,2.11,5.12,4.65,10.12,6.94,15.16q3.9,8.66,7.82,17.3c.12.27.28.58.58.64a.93.93,0,0,0,.71-.25,16.92,16.92,0,0,0,2.6-2.33q-7.09-15.85-14.2-31.7"/><path class="cls-2" d="M228.77,230.43c-8-3.79-16.47-3.49-19.64,6-3.87,11.53-3.28,24-1.93,36.12.53,4.75,1.25,9.71,4.09,13.56,1.18,1.6,2.91,3,4.9,3,2.26-.06,4-1.95,5.42-3.7,2.56-3.1,6.22-5.46,8.83-10.3-.91,1.69,2.78,7.77,3.67,9.24,2.71,4.45,9.16,7.64,13,2.62s4.82-11.84,5.77-17.73c1.27-7.92,2.1-16.17.78-24.14-1.27-7.68-5.75-17.28-14.87-17.46-2.36,0-3.81,1.41-5.47,2.83-2.49,2.14-1.64,1.4-4.55,0"/><path class="cls-2" d="M290.5,228.77a1.79,1.79,0,0,1,.64.17c.8.45.49,1.66.08,2.49a1.16,1.16,0,0,1,1.51.16,1.61,1.61,0,0,1,.33,1.55c-.11.37-.33.77-.17,1.13s.51.42.8.6a1.71,1.71,0,0,1,.72,1.89,1.31,1.31,0,0,0-.13.69c.1.36.55.45.89.6a1.76,1.76,0,0,1,.51,2.74,3.44,3.44,0,0,1,1.49,1,1.55,1.55,0,0,1,.23,1.68,2.42,2.42,0,0,1-.94.82l-3.74,2.22a.79.79,0,0,1-.35.13c-.3,0-.49-.29-.62-.55-1.71-3.59-2.85-7.42-4.59-11-.55-1.13-2.69-3.58-2.24-4.75.59-1.51,4.31-1.69,5.58-1.56"/><path class="cls-2" d="M279.44,232.08a12.46,12.46,0,0,0,1,3.11c.54,1.56,1.09,3.12,1.69,4.66a59.67,59.67,0,0,0,4.24,9,3.51,3.51,0,0,0,1,1.2c1.24.83,2.72.65,4,1.66a17.73,17.73,0,0,1,3.14,3.44,53.54,53.54,0,0,1,4.4,7.5c4.5,9,6.35,13.12,10.85,22.09,1.14,2.27,2.89,4.9,5.42,4.66,1.95-.17,3.33-2.16,3.51-4.11s-2.76-4.33-3.51-6.14c-4.38-10.47-7.51-15.05-12.83-25.08-1.21-2.28-2.57-4.7-4.89-5.82-1.43-.69-3.14-.83-4.42-1.77a8.34,8.34,0,0,1-2.38-3.58l-3.06-7c-.72-1.66-.87-4-2.26-5.3a4.36,4.36,0,0,0-5-.26,1.86,1.86,0,0,0-.87,1.74"/><path class="cls-3" d="M302.05,223.8c.05-.22.13-.48.36-.47a.27.27,0,0,1,.17.06c.35.23.59.83,1,1s1,0,1.42.27a.26.26,0,0,1,.09.12.22.22,0,0,1-.1.25,3.54,3.54,0,0,1-.71.45.62.62,0,0,0-.17.11.44.44,0,0,0,0,.39,3.15,3.15,0,0,0,.27.59,1,1,0,0,1,.2.47.36.36,0,0,1-.05.21c-.12.19-.35.14-.53.06a3,3,0,0,1-.8-.52.64.64,0,0,0-.25-.15c-.15,0-.27.12-.36.24a4.71,4.71,0,0,1-.47.61.94.94,0,0,1-.37.24.26.26,0,0,1-.34-.26c0-.5.3-1,.32-1.53,0,0,0-.05-.05-.05l-.6-.09a.69.69,0,0,1-.6-.19.33.33,0,0,1-.05-.12c0-.18.13-.29.27-.36.35-.17.68-.38,1-.56s.31-.49.38-.8"/><path class="cls-3" d="M302.36,230.23c0-.11.08-.25.2-.25l.09,0c.19.13.31.45.51.56s.55,0,.76.14a.15.15,0,0,1,.05.06c0,.06,0,.1-.06.13a1.67,1.67,0,0,1-.38.25l-.08,0a.22.22,0,0,0,0,.21,1.87,1.87,0,0,0,.15.32.51.51,0,0,1,.1.25.14.14,0,0,1,0,.11c-.07.1-.19.07-.29,0a1.94,1.94,0,0,1-.43-.27.17.17,0,0,0-.13-.08c-.07,0-.14.06-.19.12a2.6,2.6,0,0,1-.25.33.63.63,0,0,1-.2.13.14.14,0,0,1-.18-.14c0-.27.16-.54.17-.82,0,0,0,0,0,0l-.32,0a.39.39,0,0,1-.32-.1.09.09,0,0,1,0-.07c0-.09.07-.15.14-.19s.36-.2.54-.3.17-.26.2-.43"/><path class="cls-3" d="M286.53,233.07l0-.39a8.63,8.63,0,0,0,4.63-1.67l.23.32A9,9,0,0,1,286.53,233.07Z"/><path class="cls-3" d="M287.86,236.57l0-.39A4.65,4.65,0,0,0,289,236a11.74,11.74,0,0,0,2.45-.88,4.65,4.65,0,0,0,1.23-1l.29.25a4.87,4.87,0,0,1-1.33,1,11.82,11.82,0,0,1-2.53.92A5.31,5.31,0,0,1,287.86,236.57Z"/><path class="cls-3" d="M289.3,239.62l-.11-.38,2-.57a5.19,5.19,0,0,0,3-1.63l.31.23a5.46,5.46,0,0,1-3.16,1.77Z"/><path class="cls-3" d="M291.08,243.31l-.14-.36c.69-.28,1.38-.58,2.06-.89a9.8,9.8,0,0,0,2.87-1.71l.27.28a10.28,10.28,0,0,1-3,1.79Z"/><path class="cls-2" d="M292.26,226.88a7.43,7.43,0,0,1,2.61-2.89,1,1,0,0,1,1.5.62,23.75,23.75,0,0,0,1.38,4.43,37.06,37.06,0,0,0,3.43,5.54c1.11,1.74,2.16,4.92,1.11,7a3.16,3.16,0,0,1-2.32,1.55c-1.62.09-2.82-1.22-3.74-2.43-2.49-3.25-5.69-9.46-4-13.82"/><path class="cls-2" d="M368.92,241.38c2.36-.45,9.52,3.19,11.92,3.31,9.83.49,8.62-.48,14.52-1.67,5.14-1,8,2.07,12.49,4.79,3.11,1.88,8.61,3.31,9.69,6.77,1.16,3.67-.29,7.81-2.92,10.62-3.66,3.9-9,5.37-14,6.67-13.08,3.41-29.41,5.47-41.57-1.91-5.53-3.35-12.84-8.79-11.77-15.73.88-5.69,16.85-11.93,21.62-12.85"/><path class="cls-3" d="M390.64,260.91c-3.92,0-7.9-.17-11.94-.33l-1.76-.07c-8.6-.35-20.38-.82-28.52-7.73l.32-.37c7.4,6.29,17.16,7.17,28.22,7.61l1.76.07c13.37.55,26,1.07,38.18-4.28l.19.45C408.51,260,399.73,260.91,390.64,260.91Z"/><path class="cls-2" d="M456.75,242.09c2.47-4.06,5.65-7.85,9.84-9.51,6.38-2.52,14.09-2.18,19.46,2.08,11.73,9.28,11.69,26.77,13.39,39.9a4.6,4.6,0,0,1-4.33,5.18l-32.42-.16c-3.54.18-8.4.91-11.62-1-3.62-2.19-3.29-6.87-3-10.53a56.87,56.87,0,0,1,5.4-19.8c.94-2,2-4.07,3.26-6.12"/><path class="cls-2" d="M509.55,242.09c2.47-4.06,5.64-7.85,9.84-9.51,6.37-2.52,14.08-2.18,19.46,2.08,11.72,9.28,11.69,26.77,13.38,39.9a4.59,4.59,0,0,1-4.32,5.18l-32.42-.16c-3.54.18-8.4.91-11.62-1-3.62-2.19-3.29-6.87-3-10.53a56.66,56.66,0,0,1,5.4-19.8,68.08,68.08,0,0,1,3.26-6.12"/><path class="cls-2" d="M469,255.79a128.53,128.53,0,0,0-18.61.4l.08.73a128,128,0,0,1,18.47-.39A4.62,4.62,0,0,1,469,255.79Z"/><path class="cls-2" d="M497,256a140.54,140.54,0,0,1-18.47.18,6.12,6.12,0,0,1,0,.74c2.95.12,5.93.21,8.91.21,3.21,0,6.43-.1,9.62-.39Z"/><path class="cls-2" d="M549.67,256.2a142.22,142.22,0,0,1-18.58.18,6,6,0,0,1,.07.74c3,.12,6,.21,9,.21,3.22,0,6.43-.1,9.62-.39Z"/><path class="cls-2" d="M521.68,256a129.36,129.36,0,0,0-18.67.4l.08.73a127.82,127.82,0,0,1,18.46-.39A6,6,0,0,1,521.68,256Z"/><path class="cls-2" d="M521.55,257.92l0,1.25s1,0,1.2,0c2.88-.27,5.53.3,8.37-.22-.12-1.48-.19-3-.38-4.49-.63,0-1.05,0-3.16,0-2,0-4-.07-5.73.05a22.22,22.22,0,0,0-.27,3.4"/><path class="cls-2" d="M522.3,259.54h-1.16l.05-1.61a20.3,20.3,0,0,1,.27-3.46l0-.29.29,0c1.48-.1,3.15-.08,4.77-.06h1c2.14,0,2.52,0,3.14,0H531l0,.33c.12,1,.19,2,.26,3,0,.51.08,1,.12,1.53l0,.34-.33.06a21.68,21.68,0,0,1-4.8.19,29.08,29.08,0,0,0-3.61,0Zm2.22-.82c.63,0,1.25,0,1.86,0a23.1,23.1,0,0,0,4.32-.13c0-.4-.06-.81-.09-1.21-.06-.86-.13-1.74-.22-2.59-.5,0-1.08,0-2.84,0h-1c-1.5,0-3,0-4.41,0a21.34,21.34,0,0,0-.22,3l0,.89h.78C523.3,258.74,523.92,258.72,524.52,258.72Z"/><path class="cls-2" d="M469,257.62v1.25s1,0,1.2,0c2.88-.35,5.54.14,8.37-.46-.17-1.47-.28-3-.51-4.47-.63.05-1,.06-3.16.1-2,0-4,0-5.73.21a23,23,0,0,0-.17,3.4"/><path class="cls-2" d="M468.61,259.24v-1.61a21.94,21.94,0,0,1,.17-3.46l0-.29.29,0c1.48-.15,3.18-.17,4.81-.2h.95c2.09,0,2.5,0,3.14-.1l.33,0,.06.33c.15,1,.25,2,.35,3l.15,1.53,0,.33-.33.07a21.83,21.83,0,0,1-4.79.33,27.42,27.42,0,0,0-3.6.14c-.22,0-1.07,0-1.24,0Zm.86-4.68a22.56,22.56,0,0,0-.13,3.05v.89l.79,0a29.09,29.09,0,0,1,3.7-.14,22,22,0,0,0,4.3-.25q-.06-.58-.12-1.2c-.08-.85-.17-1.73-.29-2.58-.52,0-1.11,0-2.84.08h-.95C472.42,254.41,470.86,254.44,469.47,254.56Z"/><path class="cls-2" d="M26,344c2.36-.46,9.52,3.18,11.92,3.3,9.84.49,8.62-.48,14.52-1.67,5.15-1,8,2.07,12.5,4.79,3.1,1.88,8.6,3.31,9.69,6.77,1.15,3.68-.3,7.82-2.93,10.62-3.66,3.9-9,5.37-14,6.67-13.08,3.41-29.4,5.48-41.56-1.9-5.53-3.36-12.85-8.8-11.77-15.74C5.26,351.19,21.22,345,26,344"/><path class="cls-3" d="M47.71,363.56c-3.92,0-7.89-.16-11.94-.33L34,363.16c-8.6-.35-20.38-.82-28.51-7.72l.31-.37c7.4,6.28,17.16,7.16,28.22,7.6l1.76.08c13.37.55,26,1.07,38.18-4.28l.2.44C65.59,362.68,56.81,363.56,47.71,363.56Z"/><path class="cls-2" d="M113.82,344.74c2.47-4.05,5.65-7.85,9.84-9.51,6.38-2.52,14.09-2.18,19.47,2.08,11.72,9.28,11.68,26.77,13.38,39.91a4.59,4.59,0,0,1-4.33,5.17l-32.42-.16c-3.54.18-8.4.91-11.62-1-3.61-2.19-3.29-6.87-3-10.53a57,57,0,0,1,5.41-19.8,67.9,67.9,0,0,1,3.25-6.12"/><path class="cls-2" d="M166.62,344.74c2.47-4.05,5.65-7.85,9.84-9.51,6.38-2.52,14.09-2.18,19.46,2.08,11.73,9.28,11.69,26.77,13.39,39.91a4.59,4.59,0,0,1-4.33,5.17l-32.42-.16c-3.54.18-8.4.91-11.62-1-3.62-2.19-3.29-6.87-3-10.53a57.15,57.15,0,0,1,5.4-19.8c.94-1.95,2-4.07,3.26-6.12"/><path class="cls-2" d="M126.06,358.45a127.12,127.12,0,0,0-18.61.39l.08.74a126.65,126.65,0,0,1,18.48-.4A6,6,0,0,1,126.06,358.45Z"/><path class="cls-2" d="M154.12,358.67a144.11,144.11,0,0,1-18.47.18c0,.24,0,.49,0,.74,2.95.11,5.93.21,8.92.21,3.21,0,6.42-.11,9.61-.4Z"/><path class="cls-2" d="M206.75,358.86a144.16,144.16,0,0,1-18.59.17,6.2,6.2,0,0,1,.08.74c3,.12,6,.22,9,.22,3.21,0,6.43-.11,9.61-.4Z"/><path class="cls-2" d="M178.75,358.64a127.77,127.77,0,0,0-18.66.39l.08.74a126.35,126.35,0,0,1,18.46-.4A4.45,4.45,0,0,1,178.75,358.64Z"/><path class="cls-2" d="M178.63,360.57l0,1.25s1,0,1.2,0c2.88-.27,5.53.3,8.38-.22-.13-1.48-.2-3-.39-4.49-.63,0-1.05,0-3.15,0s-4-.07-5.74.05a21.46,21.46,0,0,0-.26,3.4"/><path class="cls-2" d="M179.37,362.2h-1.16l0-1.61a21.51,21.51,0,0,1,.27-3.46l.05-.28.29,0c1.47-.11,3.14-.09,4.76-.07h1c2.14,0,2.52,0,3.14,0l.34,0,0,.34c.13,1,.2,2,.27,3,0,.52.07,1,.11,1.54l0,.33-.33.06a22.32,22.32,0,0,1-4.8.2,29.08,29.08,0,0,0-3.61,0Zm2.22-.82c.63,0,1.26,0,1.87,0a23,23,0,0,0,4.31-.13l-.09-1.21c-.06-.85-.12-1.73-.22-2.58-.5,0-1.08,0-2.84,0h-1c-1.49,0-3,0-4.41,0a20.34,20.34,0,0,0-.21,3.05l0,.89h.79C180.38,361.39,181,361.38,181.59,361.38Z"/><path class="cls-2" d="M126.05,360.28v1.24s1,0,1.19,0c2.88-.34,5.54.14,8.37-.46-.17-1.47-.28-3-.51-4.47-.63.05-1,.06-3.15.1s-4,0-5.73.21a21.61,21.61,0,0,0-.17,3.41"/><path class="cls-2" d="M125.68,361.9v-1.61a22,22,0,0,1,.17-3.47l0-.28.29,0c1.49-.15,3.18-.18,4.81-.2l.95,0c2.1,0,2.51-.05,3.14-.1l.34,0,.05.34c.15,1,.25,2,.35,2.95.05.52.1,1,.16,1.53l0,.33-.33.07a22.53,22.53,0,0,1-4.8.34,27.45,27.45,0,0,0-3.6.13c-.21,0-1.07,0-1.24,0Zm.87-4.69a19.73,19.73,0,0,0-.13,3.05v.89l.78,0a27.35,27.35,0,0,1,3.7-.14,23,23,0,0,0,4.31-.25c-.05-.4-.09-.8-.13-1.2-.08-.86-.17-1.74-.29-2.59-.51,0-1.11.05-2.84.08H131C129.49,357.07,127.93,357.09,126.55,357.21Z"/><path class="cls-2" d="M267.1,332.68c-4.49-2.13-10-3.53-14.17.08a15.06,15.06,0,0,0-4.11,6.62c-4.07,12.1-3.45,25.25-2,37.94.59,5.34,1.42,8,5,12.14a6.57,6.57,0,0,0,2.79,2c4.88,1.71,8.76-5.5,11.75-8.17a5.58,5.58,0,0,1,3-1.64,4.4,4.4,0,0,1,3.43,1.64c1.51,1.66,2.41,3.79,3.89,5.47,3.15,3.57,8.88,4.93,12.1.73,3.91-5.11,5-9.5,6-15.68,1.34-8.33,2.22-17,.82-25.37-1.12-6.8-3.2-16.81-11.55-17.85-6-.75-11,4.87-16.95,2.07"/><path class="cls-3" d="M291.34,374.26a11.89,11.89,0,0,0,3.76-.79h0a5.43,5.43,0,0,0,3.28-4.14c1.07-6.61,2.09-15.31.54-23.93-1-5.66-3.12-17.43-13.07-18.58-3-.34-5.72.58-8.38,1.47-3.46,1.17-6.73,2.26-10.34.68-6.82-3-12.21-2.94-16,.13a15.79,15.79,0,0,0-4.65,6.92c-4,11.12-4.19,20.33-3.2,30.75a5.41,5.41,0,0,0,5.33,4.89h.1A145.9,145.9,0,0,1,268.27,373a157.19,157.19,0,0,0,18.17,1.39C288.07,374.42,289.71,374.37,291.34,374.26Zm-42.66-3.18a4.82,4.82,0,0,1-4.83-4.36c-1-10.34-.83-19.49,3.16-30.5a15.35,15.35,0,0,1,4.47-6.67c3.63-2.92,8.81-2.93,15.42,0,3.81,1.67,7.34.49,10.76-.66,2.6-.87,5.29-1.77,8.12-1.44,9.52,1.09,11.57,12.57,12.56,18.09,1.53,8.54.52,17.17-.54,23.74a4.81,4.81,0,0,1-2.92,3.68h0a11.31,11.31,0,0,1-3.58.75c-7.76.54-15.49-.36-23-1.22a156.66,156.66,0,0,0-18.11-1.39Z"/><path class="cls-2" d="M374.26,335.4c13.1-1.47,24,2.11,36,3a.26.26,0,0,1,.11.48l-7.13,4.1a.25.25,0,0,0,.06.46,40.74,40.74,0,0,1,9.69,4.22.26.26,0,0,1-.09.48,37.68,37.68,0,0,1-7.5.55.26.26,0,0,0-.17.46c1.9,1.58,3.28,3.72,5.17,5.33,1.09.91.15,1.27-2.38.12-5.59-2.54-18.74-5.18-24.92-5.7a34.11,34.11,0,0,0-9.29.11"/><path class="cls-2" d="M366,354c-.17-.38-.35-.81-.54-1.23a23.08,23.08,0,0,0,6.25,1.73c1.5.19,3.32.06,3.8-1.58a2.73,2.73,0,0,0-.08-1.62,8,8,0,0,0-2.49-3.07,24.7,24.7,0,0,1-3.22-3.7c-.61-.85-1.19-1.94-.81-2.89a3.2,3.2,0,0,1,1-1.14,24.3,24.3,0,0,0,4.26-4.89,1.65,1.65,0,0,0,.23-2,2.37,2.37,0,0,0-.91-.69c-3.65-1.45-7.34,1.93-11.07,1.09-3.09-.7-6.13-4.58-9.21-5.55a2.43,2.43,0,0,0-1.36-.06c-1.71.44-1.79,2.53-1.68,4.21.16,2.41.64,4.93-1.06,6.66-2.05,2.07-4,4.3-6.18,6.29-.9.82-1.86,2-1.24,3.26a2.11,2.11,0,0,0,.66.76c1.42,1,3.22.6,4.79.13l4.62-.67a.38.38,0,0,1,.47.29c.95,3.87-.25,8.27.87,11.9a2,2,0,0,0,3.06,1.22,8,8,0,0,0,2.22-2.6,36.33,36.33,0,0,0,2.12-5.46,7.89,7.89,0,0,1,.39-.9c.16.51.44,1.07.7,1.69,2.11,5.12,4.65,10.12,6.93,15.17q3.91,8.64,7.82,17.29c.13.28.29.58.59.64a.93.93,0,0,0,.71-.25,16.41,16.41,0,0,0,2.6-2.33Q373.1,369.87,366,354"/><path class="cls-2" d="M457.39,333.08c-8-3.78-16.47-3.48-19.64,6-3.87,11.52-3.28,24-1.93,36.11.53,4.75,1.25,9.72,4.09,13.56,1.18,1.6,2.91,3,4.9,3,2.25-.06,4-1.95,5.42-3.69,2.56-3.11,6.22-5.46,8.83-10.31-.91,1.69,2.78,7.78,3.67,9.24,2.7,4.45,9.16,7.64,13,2.62,3.73-4.86,4.81-11.84,5.76-17.73,1.28-7.92,2.11-16.17.79-24.14-1.28-7.67-5.75-17.28-14.87-17.45-2.36-.05-3.81,1.4-5.47,2.82-2.5,2.15-1.64,1.4-4.55,0"/><path class="cls-2" d="M519.12,331.43a1.51,1.51,0,0,1,.63.16c.81.45.5,1.66.09,2.49a1.17,1.17,0,0,1,1.51.16,1.58,1.58,0,0,1,.32,1.55c-.11.38-.33.78-.16,1.13s.51.42.8.6a1.71,1.71,0,0,1,.72,1.9,1.27,1.27,0,0,0-.13.68c.1.36.55.45.89.6a1.76,1.76,0,0,1,.51,2.74,3.44,3.44,0,0,1,1.49,1,1.57,1.57,0,0,1,.23,1.68,2.38,2.38,0,0,1-.95.82l-3.74,2.22a.75.75,0,0,1-.35.13c-.29,0-.48-.29-.61-.55-1.71-3.58-2.85-7.41-4.6-11-.54-1.12-2.68-3.58-2.23-4.74.59-1.52,4.31-1.7,5.58-1.56"/><path class="cls-2" d="M508.06,334.73a12,12,0,0,0,1,3.11c.55,1.57,1.1,3.12,1.7,4.67a59.05,59.05,0,0,0,4.24,8.95,3.6,3.6,0,0,0,1,1.2c1.24.83,2.73.66,4,1.66a17.75,17.75,0,0,1,3.15,3.44,52.63,52.63,0,0,1,4.39,7.51c4.51,9,6.36,13.11,10.86,22.08,1.14,2.27,2.89,4.9,5.42,4.67,2-.18,3.33-2.17,3.51-4.12s-2.76-4.33-3.51-6.14c-4.38-10.47-7.51-15.05-12.83-25.08-1.21-2.27-2.57-4.7-4.89-5.82-1.44-.69-3.14-.82-4.42-1.77a8.36,8.36,0,0,1-2.38-3.57l-3.06-7c-.72-1.66-.87-4-2.26-5.29a4.35,4.35,0,0,0-5-.27,1.87,1.87,0,0,0-.87,1.74"/><path class="cls-3" d="M530.67,326.45c0-.21.13-.47.36-.47a.35.35,0,0,1,.17.06c.35.24.59.84.95,1s1-.05,1.43.27a.19.19,0,0,1,.09.11.22.22,0,0,1-.1.25,3.59,3.59,0,0,1-.71.46.37.37,0,0,0-.17.1.43.43,0,0,0,0,.4,3.06,3.06,0,0,0,.27.58,1,1,0,0,1,.2.48.35.35,0,0,1,0,.2c-.12.19-.36.14-.54.06a2.94,2.94,0,0,1-.8-.51.45.45,0,0,0-.24-.15c-.15,0-.27.11-.37.23a4.64,4.64,0,0,1-.46.61,1,1,0,0,1-.38.25.27.27,0,0,1-.34-.27c0-.49.31-1,.33-1.52a.06.06,0,0,0,0-.06l-.6-.08a.71.71,0,0,1-.6-.19.31.31,0,0,1,0-.12c0-.19.13-.3.27-.37.35-.17.68-.38,1-.56s.31-.49.38-.8"/><path class="cls-3" d="M531,332.88c0-.11.07-.25.2-.25l.09,0c.18.12.31.44.51.55s.54,0,.76.14a.18.18,0,0,1,.05.07c0,.06,0,.09-.06.13a1.63,1.63,0,0,1-.38.24l-.09.06c0,.05,0,.14,0,.21a1.77,1.77,0,0,0,.15.31.6.6,0,0,1,.1.25.2.2,0,0,1,0,.11c-.07.1-.19.08-.29,0a2,2,0,0,1-.43-.28.35.35,0,0,0-.13-.08c-.08,0-.14.06-.19.13a2.72,2.72,0,0,1-.25.32.49.49,0,0,1-.2.13.14.14,0,0,1-.18-.14c0-.26.16-.54.17-.81,0,0,0,0,0,0l-.33,0a.38.38,0,0,1-.32-.1l0-.06c0-.1.08-.16.15-.2s.36-.2.54-.3.16-.26.2-.43"/><path class="cls-3" d="M515.15,335.72l0-.38a8.72,8.72,0,0,0,4.63-1.67l.23.31A9,9,0,0,1,515.15,335.72Z"/><path class="cls-3" d="M516.48,339.22l0-.38a5.32,5.32,0,0,0,1.11-.22,11.22,11.22,0,0,0,2.45-.89,4.61,4.61,0,0,0,1.23-1l.29.25a4.69,4.69,0,0,1-1.33,1.05,11.71,11.71,0,0,1-2.54.92A4.73,4.73,0,0,1,516.48,339.22Z"/><path class="cls-3" d="M517.92,342.27l-.11-.37,2-.58a5.14,5.14,0,0,0,3-1.63l.31.23a5.5,5.5,0,0,1-3.16,1.78Z"/><path class="cls-3" d="M519.7,346l-.15-.36c.7-.28,1.39-.58,2.07-.89a9.8,9.8,0,0,0,2.87-1.71l.27.28a10.42,10.42,0,0,1-3,1.79C521.1,345.38,520.4,345.68,519.7,346Z"/><path class="cls-2" d="M520.87,329.54a7.49,7.49,0,0,1,2.62-2.9,1,1,0,0,1,1.49.62,24.83,24.83,0,0,0,1.38,4.44,36.52,36.52,0,0,0,3.44,5.53c1.11,1.75,2.16,4.92,1.11,7a3.13,3.13,0,0,1-2.32,1.55c-1.62.09-2.82-1.21-3.75-2.42-2.48-3.25-5.68-9.47-4-13.82"/><path class="cls-2" d="M31.34,438.05c13.09-1.46,24,2.11,36,3a.26.26,0,0,1,.11.49l-7.12,4.09a.26.26,0,0,0,.06.47A40.24,40.24,0,0,1,70,450.34a.26.26,0,0,1-.09.48,37.68,37.68,0,0,1-7.5.56.25.25,0,0,0-.17.45c1.91,1.59,3.28,3.73,5.18,5.33,1.08.91.14,1.27-2.39.12-5.59-2.54-18.74-5.18-24.92-5.7a34.11,34.11,0,0,0-9.29.11"/><path class="cls-2" d="M23.07,456.66c-.18-.38-.35-.81-.54-1.23a22.89,22.89,0,0,0,6.25,1.73c1.49.19,3.32.06,3.79-1.58a2.61,2.61,0,0,0-.08-1.61A8,8,0,0,0,30,450.89a24.28,24.28,0,0,1-3.23-3.7A3.27,3.27,0,0,1,26,444.3a3.2,3.2,0,0,1,1-1.14,24.67,24.67,0,0,0,4.27-4.89,1.64,1.64,0,0,0,.22-2,2.37,2.37,0,0,0-.91-.69c-3.65-1.45-7.34,1.94-11.06,1.09-3.1-.7-6.14-4.57-9.22-5.55a2.43,2.43,0,0,0-1.36-.06c-1.71.44-1.79,2.53-1.68,4.21.17,2.41.65,4.93-1.06,6.66-2,2.07-4,4.3-6.17,6.29-.9.83-1.87,2-1.25,3.26a2,2,0,0,0,.67.76c1.41,1,3.21.6,4.79.13l4.61-.67a.38.38,0,0,1,.47.29c.95,3.87-.25,8.27.87,11.91a2,2,0,0,0,3.06,1.21,8,8,0,0,0,2.22-2.6,36.36,36.36,0,0,0,2.13-5.46,7.82,7.82,0,0,1,.38-.9c.16.52.45,1.07.7,1.7C20.72,463,23.26,468,25.55,473q3.9,8.64,7.82,17.29c.12.28.29.59.58.65a.94.94,0,0,0,.71-.26,16.4,16.4,0,0,0,2.6-2.32q-7.09-15.86-14.19-31.71"/><path class="cls-2" d="M114.46,435.73c-8-3.78-16.46-3.48-19.64,6-3.86,11.52-3.27,24-1.93,36.11.53,4.75,1.26,9.72,4.09,13.56,1.18,1.6,2.91,3,4.9,3,2.26-.06,4-2,5.42-3.69,2.56-3.11,6.22-5.46,8.83-10.31-.91,1.69,2.78,7.78,3.67,9.24,2.71,4.45,9.16,7.64,13,2.62,3.72-4.86,4.81-11.84,5.76-17.72,1.27-7.92,2.1-16.18.78-24.15-1.27-7.67-5.75-17.28-14.87-17.45-2.36-.05-3.81,1.41-5.47,2.83-2.49,2.14-1.64,1.39-4.55,0"/><path class="cls-2" d="M176.19,434.08a1.77,1.77,0,0,1,.64.16c.8.45.49,1.67.08,2.49a1.17,1.17,0,0,1,1.51.16,1.63,1.63,0,0,1,.33,1.56c-.11.37-.33.77-.17,1.12s.51.43.8.6a1.72,1.72,0,0,1,.72,1.9,1.31,1.31,0,0,0-.13.69c.1.35.55.45.89.59a1.77,1.77,0,0,1,.52,2.74,3.47,3.47,0,0,1,1.48,1,1.58,1.58,0,0,1,.24,1.68,2.44,2.44,0,0,1-.95.82l-3.74,2.22a.81.81,0,0,1-.35.14c-.3,0-.49-.29-.61-.56-1.72-3.58-2.86-7.41-4.6-11-.55-1.13-2.68-3.59-2.23-4.75.58-1.52,4.31-1.7,5.57-1.56"/><path class="cls-2" d="M165.13,437.38a12.2,12.2,0,0,0,1,3.11q.81,2.36,1.69,4.67a60.61,60.61,0,0,0,4.24,9,3.51,3.51,0,0,0,1,1.2c1.24.82,2.72.65,4,1.65a18.32,18.32,0,0,1,3.14,3.44,54.23,54.23,0,0,1,4.4,7.51c4.5,9,6.35,13.12,10.85,22.08,1.15,2.27,2.89,4.9,5.42,4.67,1.95-.18,3.34-2.17,3.51-4.12s-2.76-4.33-3.51-6.13c-4.37-10.48-7.51-15.06-12.83-25.08-1.21-2.28-2.56-4.7-4.89-5.83-1.43-.69-3.14-.82-4.42-1.77a8.25,8.25,0,0,1-2.38-3.57l-3.06-7c-.72-1.65-.87-4-2.26-5.29a4.35,4.35,0,0,0-5-.27,1.9,1.9,0,0,0-.87,1.74"/><path class="cls-3" d="M187.74,429.1c0-.21.13-.47.36-.46a.34.34,0,0,1,.17.05c.35.24.59.84,1,1s1-.05,1.43.27a.25.25,0,0,1,.08.12c0,.11,0,.18-.1.24a3,3,0,0,1-.71.46.36.36,0,0,0-.16.11c-.09.1-.05.26,0,.39a3.06,3.06,0,0,0,.27.58,1,1,0,0,1,.2.48.33.33,0,0,1,0,.2c-.12.19-.35.14-.53.06a2.94,2.94,0,0,1-.8-.51.47.47,0,0,0-.25-.15c-.14,0-.27.11-.36.24a5.5,5.5,0,0,1-.47.61,1.12,1.12,0,0,1-.37.24.26.26,0,0,1-.34-.26c0-.5.3-1,.32-1.53a0,0,0,0,0,0,0l-.61-.09a.7.7,0,0,1-.59-.19.34.34,0,0,1-.06-.12c0-.18.13-.29.28-.37.34-.17.67-.37,1-.56s.31-.49.38-.8"/><path class="cls-3" d="M188.05,435.54c0-.12.08-.26.2-.25l.09,0c.19.12.31.44.51.55s.55,0,.76.14l0,.07a.12.12,0,0,1,0,.13,1.58,1.58,0,0,1-.39.24.24.24,0,0,0-.08.06.22.22,0,0,0,0,.21,1.77,1.77,0,0,0,.15.31.49.49,0,0,1,.1.26.15.15,0,0,1,0,.11c-.07.1-.19.07-.29,0a1.47,1.47,0,0,1-.42-.28.35.35,0,0,0-.13-.08c-.08,0-.15.06-.2.13a2,2,0,0,1-.25.32.56.56,0,0,1-.2.14.15.15,0,0,1-.18-.15c0-.26.16-.53.18-.81a0,0,0,0,0,0,0l-.32-.05c-.12,0-.25,0-.32-.1a.09.09,0,0,1,0-.06c0-.1.07-.16.15-.2s.35-.2.53-.3.17-.26.2-.42"/><path class="cls-3" d="M172.22,438.38l0-.39a8.72,8.72,0,0,0,4.63-1.67l.23.31A9.1,9.1,0,0,1,172.22,438.38Z"/><path class="cls-3" d="M173.55,441.88l0-.39a5.2,5.2,0,0,0,1.11-.22,10.86,10.86,0,0,0,2.45-.89,4.31,4.31,0,0,0,1.23-1l.29.26a4.84,4.84,0,0,1-1.33,1,11.3,11.3,0,0,1-2.53.92A5.32,5.32,0,0,1,173.55,441.88Z"/><path class="cls-3" d="M175,444.92l-.11-.37,2-.57a5.25,5.25,0,0,0,3-1.63l.32.22a5.5,5.5,0,0,1-3.17,1.78Z"/><path class="cls-3" d="M176.77,448.62l-.14-.36,2.07-.89a9.91,9.91,0,0,0,2.86-1.72l.27.28a9.86,9.86,0,0,1-3,1.79C178.17,448,177.47,448.33,176.77,448.62Z"/><path class="cls-2" d="M178,432.19a7.39,7.39,0,0,1,2.61-2.9,1,1,0,0,1,1.5.63,23.75,23.75,0,0,0,1.38,4.43,37.06,37.06,0,0,0,3.43,5.54c1.11,1.74,2.16,4.91,1.11,7a3.13,3.13,0,0,1-2.31,1.54c-1.63.1-2.83-1.21-3.75-2.42-2.49-3.25-5.69-9.47-4-13.82"/><path class="cls-2" d="M254.61,446.69c2.36-.45,9.52,3.18,11.92,3.3,9.83.49,8.62-.47,14.52-1.66,5.14-1,8,2.06,12.49,4.78,3.11,1.88,8.61,3.32,9.69,6.78,1.16,3.67-.29,7.81-2.92,10.62-3.66,3.89-9,5.36-14,6.67-13.08,3.4-29.4,5.47-41.56-1.91-5.53-3.35-12.85-8.8-11.77-15.74.88-5.69,16.84-11.92,21.61-12.84"/><path class="cls-3" d="M276.33,466.21c-3.92,0-7.9-.16-11.94-.33l-1.76-.07c-8.6-.34-20.38-.82-28.51-7.72l.31-.37c7.4,6.28,17.16,7.16,28.22,7.61l1.76.07c13.37.55,26,1.07,38.18-4.28l.19.44C294.2,465.33,285.42,466.21,276.33,466.21Z"/><path class="cls-2" d="M342.44,447.39c2.47-4.05,5.65-7.84,9.84-9.5,6.38-2.53,14.09-2.19,19.46,2.07,11.73,9.29,11.69,26.77,13.39,39.91a4.6,4.6,0,0,1-4.33,5.18s-32.31-.17-32.42-.16c-3.54.17-8.4.9-11.62-1.05-3.62-2.19-3.29-6.87-3-10.53a57.21,57.21,0,0,1,5.4-19.8c.94-1.94,2-4.06,3.26-6.12"/><path class="cls-2" d="M395.24,447.39c2.47-4.05,5.64-7.84,9.84-9.5,6.38-2.53,14.08-2.19,19.46,2.07,11.73,9.29,11.69,26.77,13.38,39.91a4.59,4.59,0,0,1-4.32,5.18s-32.31-.17-32.42-.16c-3.54.17-8.4.9-11.62-1.05-3.62-2.19-3.29-6.87-3-10.53a57,57,0,0,1,5.4-19.8c.93-1.94,2-4.06,3.26-6.12"/><path class="cls-2" d="M354.68,461.1a127.12,127.12,0,0,0-18.61.4l.08.73a126.54,126.54,0,0,1,18.47-.39A6,6,0,0,1,354.68,461.1Z"/><path class="cls-2" d="M382.73,461.32a144,144,0,0,1-18.46.18c0,.25,0,.49,0,.74,3,.12,5.93.21,8.91.21,3.22,0,6.43-.11,9.62-.39Z"/><path class="cls-2" d="M435.37,461.51a142.39,142.39,0,0,1-18.59.17,6.34,6.34,0,0,1,.07.75c3,.11,6,.21,9,.21,3.21,0,6.42-.11,9.61-.4Z"/><path class="cls-2" d="M407.37,461.29a127.94,127.94,0,0,0-18.67.39l.08.74a126.41,126.41,0,0,1,18.46-.4A6.21,6.21,0,0,1,407.37,461.29Z"/><path class="cls-2" d="M407.25,463.23l0,1.24s1,0,1.2,0c2.88-.26,5.53.3,8.37-.22-.12-1.48-.19-3-.38-4.48-.63,0-1,0-3.16,0s-4-.07-5.73.06a21.32,21.32,0,0,0-.26,3.4"/><path class="cls-2" d="M408,464.85h-1.16l.05-1.61a20.14,20.14,0,0,1,.27-3.45l0-.29.29,0c1.48-.11,3.15-.09,4.77-.07l1,0c2.14,0,2.52,0,3.14,0l.34,0,0,.34c.12,1,.2,2,.26,3l.12,1.54,0,.33-.33.06a21.7,21.7,0,0,1-4.8.2,29.08,29.08,0,0,0-3.61,0Zm2.22-.82c.63,0,1.25,0,1.87,0a22.17,22.17,0,0,0,4.31-.13l-.09-1.21c-.06-.85-.13-1.73-.22-2.58-.5,0-1.08,0-2.84,0h-1c-1.49,0-3,0-4.41.05a21.34,21.34,0,0,0-.22,3l0,.89h.78C409,464.05,409.61,464,410.21,464Z"/><path class="cls-2" d="M354.67,462.93v1.25s1,0,1.19,0c2.88-.34,5.54.15,8.37-.45-.17-1.48-.28-3-.51-4.47-.63,0-1.05,0-3.16.09-2,0-4,0-5.73.22a22.17,22.17,0,0,0-.16,3.4"/><path class="cls-2" d="M354.3,464.55v-1.61a21.75,21.75,0,0,1,.17-3.46l0-.29.29,0c1.49-.15,3.18-.18,4.81-.2l.95,0c2.09,0,2.5-.05,3.14-.09l.34,0,0,.34c.15,1,.25,2,.35,3,.05.51.1,1,.16,1.52l0,.34-.32.07a22,22,0,0,1-4.8.33,27.39,27.39,0,0,0-3.6.13c-.22,0-1.07,0-1.24,0Zm.87-4.68a20.59,20.59,0,0,0-.14,3v.89l.79,0a27.35,27.35,0,0,1,3.7-.14,22,22,0,0,0,4.3-.25l-.12-1.2c-.08-.85-.17-1.73-.29-2.58-.52,0-1.11,0-2.84.07l-.95,0C358.11,459.72,356.55,459.74,355.17,459.87Z"/><path class="cls-2" d="M495.72,435.33c-4.5-2.13-10-3.52-14.17.08a15.06,15.06,0,0,0-4.11,6.62c-4.07,12.11-3.45,25.25-2,37.94.6,5.34,1.43,8,5,12.14a6.65,6.65,0,0,0,2.78,2c4.89,1.7,8.77-5.5,11.76-8.17a5.45,5.45,0,0,1,3-1.64,4.34,4.34,0,0,1,3.43,1.64c1.51,1.66,2.41,3.79,3.89,5.46,3.15,3.57,8.88,4.94,12.09.74,3.92-5.11,5.06-9.51,6.06-15.69,1.34-8.32,2.21-17,.82-25.37-1.13-6.8-3.2-16.81-11.55-17.85-6-.75-11,4.87-16.95,2.07"/><path class="cls-3" d="M520,476.91a11.89,11.89,0,0,0,3.76-.79h0A5.43,5.43,0,0,0,527,472c1.06-6.61,2.09-15.31.54-23.93-1-5.66-3.13-17.43-13.07-18.57-3-.34-5.72.58-8.38,1.47-3.46,1.16-6.73,2.26-10.34.67-6.82-3-12.21-2.94-16,.13a15.85,15.85,0,0,0-4.65,6.92c-4,11.12-4.19,20.34-3.2,30.75a5.41,5.41,0,0,0,5.33,4.9h.1a145.75,145.75,0,0,1,19.57,1.36,157.53,157.53,0,0,0,18.18,1.39C516.69,477.07,518.32,477,520,476.91Zm-42.66-3.18a4.82,4.82,0,0,1-4.83-4.36c-1-10.34-.83-19.48,3.16-30.5a15.24,15.24,0,0,1,4.47-6.66c3.63-2.92,8.81-2.94,15.41,0,3.82,1.67,7.35.49,10.77-.66,2.6-.87,5.28-1.77,8.12-1.44,9.51,1.1,11.57,12.58,12.56,18.09,1.53,8.54.52,17.17-.54,23.74a4.85,4.85,0,0,1-2.93,3.69h0a11.25,11.25,0,0,1-3.57.74c-7.76.54-15.49-.36-23-1.22a158.91,158.91,0,0,0-18.12-1.39Z"/><path class="cls-2" d="M594.61,456.66c-.17-.38-.35-.81-.54-1.23a23.08,23.08,0,0,0,6.25,1.73c1.49.19,3.32.06,3.8-1.58A2.69,2.69,0,0,0,604,454a8.07,8.07,0,0,0-2.49-3.08,24.84,24.84,0,0,1-3.23-3.7c-.6-.85-1.18-1.94-.8-2.89a3,3,0,0,1,1-1.14,24.3,24.3,0,0,0,4.26-4.89,1.63,1.63,0,0,0,.22-2,2.27,2.27,0,0,0-.9-.69c-3.65-1.45-7.34,1.94-11.07,1.09-3.09-.7-6.14-4.57-9.21-5.55a2.46,2.46,0,0,0-1.37-.06c-1.7.44-1.79,2.53-1.67,4.21.16,2.41.64,4.93-1.06,6.66-2,2.07-4,4.3-6.18,6.29-.9.83-1.86,2-1.24,3.26a2.11,2.11,0,0,0,.66.76c1.42,1,3.22.6,4.79.13l4.62-.67a.38.38,0,0,1,.47.29c1,3.87-.26,8.27.87,11.91a2,2,0,0,0,3.06,1.21,8.24,8.24,0,0,0,2.22-2.6,36.33,36.33,0,0,0,2.12-5.46c.11-.3.24-.61.38-.9.17.52.45,1.07.71,1.7,2.1,5.11,4.65,10.11,6.93,15.16q3.92,8.64,7.82,17.29c.13.28.29.59.58.65a.93.93,0,0,0,.71-.26,16.92,16.92,0,0,0,2.61-2.32q-7.09-15.86-14.2-31.71"/></pattern></defs><title>Artboard 2</title><rect class="cls-4" width="1920" height="1080"/></svg>