<?xml version="1.0" encoding="utf-8"?>
<!-- Generator: Adobe Illustrator 23.0.0, SVG Export Plug-In . SVG Version: 6.00 Build 0)  -->
<svg version="1.1" id="Layer_1" xmlns="http://www.w3.org/2000/svg" xmlns:xlink="http://www.w3.org/1999/xlink" x="0px" y="0px"
	 viewBox="0 0 364.9 68.7" style="enable-background:new 0 0 364.9 68.7;" xml:space="preserve">
<style type="text/css">
	.st0{fill:#FFF8F0;}
</style>
<g>
	<g>
		<path class="st0" d="M175.9,38.9c7,0,10.5-2.2,10.5-6.9c0-4.1-2.9-6.7-9.3-6.7c-7.8,0-10.8,3.5-11.6,9.7c-1.1-0.1-2.4-0.1-4.1-0.1
			c0-0.3,0-0.7,0-1c0-6.3-2.6-8.6-9.5-8.6c-3.4,0-6.4,0.5-8.2,1.2l0.3,5c1.6-0.8,4-1.7,6.2-1.7c3.2,0,4.1,1.3,4.1,4.4v0.5
			c-0.2,0-0.8,0-1.1,0c-7.9,0-11.6,2.4-11.6,6.8c0,4.6,2.3,7.3,8.7,7.3c3.4,0,6.8-0.5,11.1-0.5c-0.3-1.8-0.3-4.5-0.3-6.3
			c0-1,0-2.1,0.1-3.4c1.9,0,3.2,0.1,4.1,0.1c0.7,7.3,4.5,10,12.4,10c2.9,0,5.9-0.5,7.4-1.2l-0.3-5c-1.5,0.9-3.7,1.6-6,1.6
			c-3.9,0-6-2-6-5.2v-0.2C173.7,38.8,175.1,38.9,175.9,38.9z M152.1,44.4c-2.4,0-3.4-0.8-3.4-2.8c0-1.9,1.3-3,4.6-3
			c0.3,0,0.7,0,0.9,0c0,1.9-0.1,4.1,0,5.6C153.7,44.3,152.9,44.4,152.1,44.4z M173,35L173,35c0-3.2,1-5.6,3.9-5.6
			c1.6,0,2.7,0.9,2.7,2.4c0,2.2-1.5,3.2-4.5,3.2C174.3,35,173.5,35,173,35z M200.6,43.8c-2.3,0-3-0.9-3-4.3v-8.7h4.6V26h-4.5
			c0-1.7,0.1-4.3,0.3-6h-4.3c-0.6,4.2-1.8,6.4-5.7,7.1c0,1.1,0,2.7,0,3.8h2.6c0,2.4-0.1,6.8-0.1,10.8c0,5.1,2.6,7.2,7.6,7.2
			c2.4,0,4.2-0.4,4.8-0.5l-0.3-5C202.2,43.6,201.4,43.8,200.6,43.8z M249.1,33.8c0-6.3-2.6-8.6-9.5-8.6c-3.4,0-6.4,0.5-8.2,1.2
			l0.3,5c1.6-0.8,3.9-1.7,6.2-1.7c3.2,0,4.1,1.3,4.1,4.4v0.5c-0.2,0-0.8,0-1.1,0c-7.9,0-11.6,2.4-11.6,6.8c0,4.6,2.3,7.3,8.7,7.3
			c3.4,0,6.8-0.5,11.1-0.5c-0.3-1.8-0.3-4.5-0.3-6.3C248.8,40,249.1,37.1,249.1,33.8z M239.7,44.4c-2.4,0-3.4-0.8-3.4-2.8
			c0-1.9,1.3-3,4.6-3c0.3,0,0.7,0,0.9,0c0,1.9-0.1,4.1,0.1,5.6C241.3,44.3,240.5,44.4,239.7,44.4z M226.4,37.9c0-1.9,0-4.4,0-4.4
			c0-5.7-2.5-8.2-9.5-8.2c-3.9,0-6.8,0.7-11.2,0.7c0.2,4,0.3,8.9,0.2,11.9c0,3.1-0.1,8.6-0.2,10.4h7.6c-0.2-1.8-0.3-7-0.3-10.4
			c0-2,0-4.4,0.1-7.6c0.8-0.3,1.7-0.4,2.7-0.4c2.6,0,3.5,1.2,3.5,4.7c0,0,0,2.1,0,3.4c0,3.1-0.1,8.6-0.2,10.4h7.6
			C226.5,46.5,226.4,41.3,226.4,37.9z M132.8,24.2c-0.7-0.7-1.6-1.1-2.5-1.1s-1.9,0.4-2.6,1.1l-4.2,4.2l-4.2-4.2
			c-0.7-0.7-1.6-1.1-2.6-1.1c-0.9,0-1.8,0.4-2.6,1.1l-5.1,5.1c-1.4,1.4-1.4,3.7,0,5.1l14.4,14.4l14.4-14.4c1.4-1.4,1.4-3.7,0-5.1
			L132.8,24.2z M255.1,26.5c0-0.8-0.5-1.1-1.4-1.1h-1.4v3.8h0.6v-1.6h0.6l1,1.6h0.7l-1.1-1.7C254.6,27.5,255.1,27.2,255.1,26.5z
			 M252.9,27.1V26h0.7c0.4,0,0.8,0.1,0.8,0.5c0,0.5-0.4,0.6-0.9,0.6H252.9L252.9,27.1z M253.5,23.9c-1.8,0-3.3,1.4-3.3,3.4
			c0,1.9,1.4,3.4,3.3,3.4c1.8,0,3.3-1.3,3.3-3.4S255.3,23.9,253.5,23.9z M253.5,30.1c-1.6,0-2.6-1.3-2.6-2.8c0-1.7,1.1-2.8,2.6-2.8
			s2.6,1.2,2.6,2.8S255,30.1,253.5,30.1z"/>
	</g>
</g>
</svg>
