<?xml version="1.0" encoding="utf-8"?>
<!-- Generator: Adobe Illustrator 23.0.0, SVG Export Plug-In . SVG Version: 6.00 Build 0)  -->
<svg version="1.1" id="Layer_1" xmlns="http://www.w3.org/2000/svg" xmlns:xlink="http://www.w3.org/1999/xlink" x="0px" y="0px"
	 viewBox="0 0 364.9 68.7" style="enable-background:new 0 0 364.9 68.7;" xml:space="preserve">
<style type="text/css">
	.st0{fill:#FFF8F0;}
	.st1{fill:#FFFFFF;}
	.st2{opacity:0.8;fill:#FFF8F0;}
</style>
<g id="XMLID_245_">
	<path id="XMLID_263_" class="st0" d="M173.5,40.8c1.8,0,3-1,3-2.4c0-2-2-2.7-3.7-3.8c-2.3-1.4-3.5-2.7-3.5-4.7c0-2.6,2-4.4,5.1-4.4
		c1.4,0,2.8,0.3,4.2,1l-0.1,2.7c-1.6-0.8-2.8-1.3-3.9-1.3c-1.6,0-2.5,0.8-2.5,1.9c0,1.5,1.9,2.3,3.5,3.3c2.5,1.5,3.9,3,3.9,5.3
		c0,2.9-2.2,5-5.8,5c-1.6,0-3.1-0.4-4.5-1l-0.2-3.3C170.6,40.2,172.1,40.8,173.5,40.8"/>
	<path id="XMLID_262_" class="st0" d="M157,40.8c1.8,0,3-1,3-2.4c0-2-2-2.7-3.7-3.8c-2.3-1.4-3.5-2.7-3.5-4.7c0-2.6,2-4.4,5.1-4.4
		c1.4,0,2.8,0.3,4.2,1l-0.1,2.7c-1.6-0.8-2.8-1.3-3.9-1.3c-1.6,0-2.5,0.8-2.5,1.9c0,1.5,1.9,2.3,3.5,3.3c2.5,1.5,3.9,3,3.9,5.3
		c0,2.9-2.2,5-5.8,5c-1.6,0-3.1-0.4-4.5-1l-0.2-3.3C154,40.2,155.5,40.8,157,40.8"/>
	<path id="XMLID_261_" class="st0" d="M188.9,35.8c0,3.3,1.4,4.9,4,4.9c2.6,0,4-1.7,4-4.9V26h3v9.7c0,4.9-2.7,7.5-7,7.5
		c-4.5,0-7.1-3-7.1-7.5V26h3L188.9,35.8"/>
	<path id="XMLID_260_" class="st0" d="M215.4,31c0-2.6-2.8-2.6-5.2-2.6v5.2C212.1,33.6,215.4,33.8,215.4,31z M207.3,26h3.9
		c2.1,0,3.8,0.1,5.2,1.1c1.3,0.9,2,2.2,2,3.6c0,2.2-1.3,3.9-3.7,4.6l5.4,7.4h-3.4l-5.1-6.9h-1.4v6.9h-2.9L207.3,26"/>
	<polyline id="XMLID_259_" class="st0" points="274.9,42.8 272,42.8 272,28.6 266.3,28.6 266.3,26 280.5,26 280.5,28.6 274.9,28.6 
		274.9,42.8 	"/>
	<path id="XMLID_258_" class="st0" d="M136.5,36.1c0.8-2.1,1.6-4,2.8-5.9c1.1,1.9,2.1,3.9,2.8,5.9H136.5z M139.5,25.5l-0.1-0.1
		l-0.1,0.1c-4.2,6.1-5.7,9.5-8.3,17.2h3c0.3-1,1-3.1,1.3-4.2h8.1c0.4,1,1.1,3.1,1.3,4.2h3C145.2,34.9,143.5,31.5,139.5,25.5"/>
	<path id="XMLID_257_" class="st0" d="M229.6,36.1c0.8-2.1,1.6-4,2.8-5.9c1.1,1.9,2.1,3.9,2.8,5.9H229.6z M232.5,25.5l-0.1-0.1
		l-0.1,0.1c-4.2,6.1-5.7,9.5-8.3,17.2h3c0.3-1,1-3.1,1.3-4.2h8.1c0.4,1,1.1,3.1,1.3,4.2h3C238.2,34.9,236.6,31.5,232.5,25.5"/>
	<polyline id="XMLID_256_" class="st0" points="249.2,32.3 260.2,43.3 260.3,43.3 260.4,43.1 260.4,26 257.5,26 257.5,36.4 
		246.6,25.4 246.4,25.5 246.4,25.6 246.4,42.8 249.2,42.8 249.2,32.3 	"/>
	<path id="XMLID_255_" class="st1" d="M72.5,33.1c0,0.4-0.1,0.8-0.1,1.3c0,4.3,1.1,8.3,3.2,11.8c1.4-4.8,3.6-9.9,6.2-15
		C78.5,31.6,75.4,32.3,72.5,33.1"/>
	<path id="XMLID_254_" class="st1" d="M76.5,21.4c3.9-0.8,8.1-1.4,12.5-1.7c2.1-2.9,4.3-5.6,6.5-8l-0.3-0.3
		C87.4,11.5,80.6,15.4,76.5,21.4"/>
	<path id="XMLID_253_" class="st1" d="M108.1,15.1c-1.7,6.8-4.7,14.1-8.9,21.3c-1.2,2-2.4,4-3.7,5.9c1.3,1.9,2.6,3.7,3.9,5.4
		c1.9-0.1,3.7-0.2,5.5-0.4c1.2-1.7,2.4-3.6,3.4-5.5c3.4-5.9,6-11.8,7.8-17.4C114.4,20.7,111.5,17.4,108.1,15.1"/>
	<path id="XMLID_252_" class="st0" d="M108.1,15.1c-3.6-2.4-8-3.7-12.6-3.7h-0.3c3.4,3.7,6.8,8,9.9,12.9
		C106.3,21.2,107.3,18.1,108.1,15.1"/>
	<path id="XMLID_251_" class="st0" d="M116.2,24.5c-1.2,3.7-2.8,7.7-4.8,11.6c1.4,3.3,2.7,6.5,3.7,9.6c0.1-0.1,0.3-0.1,0.4-0.1
		c1.9-3.3,3-7.2,3-11.3C118.5,30.8,117.6,27.4,116.2,24.5"/>
	<path id="XMLID_250_" class="st0" d="M91.7,36.5c-1.2-2-2.3-4.1-3.3-6.1c-2.3,0.2-4.5,0.4-6.6,0.7c-0.9,1.7-1.7,3.4-2.4,5
		c1,1.9,2,3.9,3.1,5.7c3.4,5.9,7.2,11.1,11.2,15.4c0.6,0.1,1.2,0.1,1.8,0.1c3.7,0,7.2-0.9,10.4-2.5C100.8,50.1,96,43.8,91.7,36.5"/>
	<path id="XMLID_249_" class="st2" d="M115.5,45.7c-4.9,1.1-10.4,1.9-16.2,2.2c2.1,2.7,4.2,5,6.5,7.2
		C109.9,52.8,113.3,49.6,115.5,45.7"/>
	<path id="XMLID_248_" class="st2" d="M86,47.4c-3.6-0.4-7-1-10.2-1.7c-0.1,0.1-0.1,0.2-0.1,0.4c3.7,6.3,10.4,10.6,18,11.2
		C91,54.4,88.4,51,86,47.4"/>
	<path id="XMLID_247_" class="st2" d="M95.4,19.4c-6.8,0-13.2,0.7-19,1.9c-2.3,3.4-3.7,7.4-4,11.7c6.7-1.9,14.5-3,23-3
		c2.4,0,4.7,0.1,6.9,0.2c1-2,1.9-4.1,2.7-6.1c-1-1.6-2-3.1-3.1-4.6C99.8,19.5,97.7,19.4,95.4,19.4"/>
	<path id="XMLID_246_" class="st0" d="M288.6,27.8v1.4c0.1,0,0.2,0,0.4,0c0.4,0,0.7-0.1,0.8-0.1c0.1-0.1,0.2-0.3,0.2-0.5
		c0-0.5-0.3-0.7-0.9-0.7h-0.2L288.6,27.8z M290.2,31.4l-1-1.7h-0.6v1.7H288v-4.1h1c1,0,1.5,0.4,1.5,1.1c0,0.5-0.2,0.9-0.8,1.1
		l1.1,1.9L290.2,31.4L290.2,31.4z M292,29.4c0-0.8-0.2-1.4-0.8-2c-0.5-0.5-1.2-0.8-2-0.8c-0.8,0-1.4,0.3-2,0.8
		c-0.5,0.5-0.8,1.2-0.8,2c0,0.8,0.3,1.4,0.8,2c0.5,0.5,1.2,0.8,2,0.8c0.8,0,1.4-0.3,2-0.8C291.7,30.8,292,30.2,292,29.4z
		 M285.8,29.4c0-0.9,0.3-1.7,1-2.4c0.7-0.7,1.4-1,2.4-1s1.7,0.3,2.4,1c0.7,0.7,1,1.4,1,2.4s-0.3,1.7-1,2.4c-0.7,0.7-1.4,1-2.4,1
		s-1.7-0.3-2.4-1C286.2,31.1,285.8,30.3,285.8,29.4"/>
</g>
</svg>
