<svg id="Layer_1" data-name="Layer 1" xmlns="http://www.w3.org/2000/svg" viewBox="0 0 104.41 18.85"><defs><style>.cls-1{fill:#231f20;}</style></defs><title>Artboard 2</title><path d="M32.81,6A5.72,5.72,0,0,0,27,12a5.74,5.74,0,0,0,5.89,6,5.75,5.75,0,0,0,5.47-3.29l-3.3-1A2.2,2.2,0,0,1,32.9,15a2.59,2.59,0,0,1-2.52-2.29h8.08a5.93,5.93,0,0,0,0-.73A5.67,5.67,0,0,0,32.81,6Zm-2.36,4.9A2.44,2.44,0,0,1,32.78,9a2.37,2.37,0,0,1,2.29,1.92Z"/><path d="M46.77,6a4,4,0,0,0-3.63,2.12l-.71-1.83H39.89V17.67h3.3V12a2.56,2.56,0,0,1,2.35-2.83c1.2,0,2,1,2,2.45v6h3.3V11.06C50.87,8.12,49.19,6,46.77,6Z"/><path d="M9,6A4,4,0,0,0,5.38,8.09L4.67,6.26H2.13V17.67H5.42V12A2.56,2.56,0,0,1,7.78,9.18c1.2,0,2,1,2,2.45v6H13.1V11.06C13.1,8.12,11.43,6,9,6Z"/><path d="M58.59,14.79a1.43,1.43,0,0,1-1.6-1.6v-4h2.63V6.26H57V2.84L53.88,4v2.3H52V9.18h1.7v4.91a3.79,3.79,0,0,0,4,3.86A8,8,0,0,0,60,17.67l-.56-3A2.59,2.59,0,0,1,58.59,14.79Z"/><path d="M94.58,6.16V7.37a4.26,4.26,0,0,0-3.33-1.48,4.94,4.94,0,0,0-2.18.48,5.08,5.08,0,0,0-1.69,1.29,5.85,5.85,0,0,0-1.11,1.91,6.66,6.66,0,0,0-.4,2.32,7,7,0,0,0,.41,2.41,5.91,5.91,0,0,0,1.14,1.93,5.24,5.24,0,0,0,1.72,1.27,5.08,5.08,0,0,0,2.15.45,3.91,3.91,0,0,0,3.29-1.61V17.6h3.3V6.16ZM94.41,13a3.23,3.23,0,0,1-.58.9,2.4,2.4,0,0,1-.84.6,2.64,2.64,0,0,1-2.11,0,2.43,2.43,0,0,1-.85-.6,3.1,3.1,0,0,1-.56-.91,3,3,0,0,1-.2-1.12,2.73,2.73,0,0,1,.2-1.08A3.22,3.22,0,0,1,90,9.87a2.6,2.6,0,0,1,.85-.61,2.76,2.76,0,0,1,2.11,0,2.56,2.56,0,0,1,.84.61,3.15,3.15,0,0,1,.58.91,2.87,2.87,0,0,1,.21,1.1A2.81,2.81,0,0,1,94.41,13Z"/><path d="M20.33,14.89c-1.41,0-2.45-1.24-2.45-3S18.92,9,20.33,9a2.24,2.24,0,0,1,2.17,2l3.22-1a5.29,5.29,0,0,0-5.39-4,5.74,5.74,0,0,0-5.89,6,5.79,5.79,0,0,0,6,6,5.29,5.29,0,0,0,5.47-4.23l-3.3-1A2.28,2.28,0,0,1,20.33,14.89Z"/><polygon points="86.17 6.82 81.91 6.82 79.49 9.73 79.48 9.72 79.48 2.84 76.18 2.84 76.18 17.65 79.48 17.65 79.48 14.75 79.49 14.74 81.91 17.65 86.17 17.65 81.6 12.24 86.17 6.82"/><rect x="71.34" y="6.82" width="3.3" height="10.83"/><rect x="71.34" y="2.88" width="3.3" height="3.01"/><path d="M67.74,6.52c-2,0-3.12,2.22-3.12,2.22V6.82H61.44V17.67h3.34V13.12c0-2,.71-3.34,2.23-3.34a2.65,2.65,0,0,1,1.55.44l1.75-2.78A3.28,3.28,0,0,0,67.74,6.52Z"/><polygon points="35.94 2.95 33.59 0.9 31.54 4.29 32.85 5.44 35.94 2.95"/><path class="cls-1" d="M100.69,5.45a1.14,1.14,0,0,1-.46-.09,1.09,1.09,0,0,1-.38-.25,1.21,1.21,0,0,1-.25-.37,1.44,1.44,0,0,1-.08-.46,1.4,1.4,0,0,1,.08-.47,1.34,1.34,0,0,1,.25-.37,1.25,1.25,0,0,1,.38-.25,1.22,1.22,0,0,1,.92,0,1.25,1.25,0,0,1,.38.25,1.12,1.12,0,0,1,.24.37,1.19,1.19,0,0,1,.09.47,1.22,1.22,0,0,1-.09.46,1,1,0,0,1-.24.37,1.09,1.09,0,0,1-.38.25A1.14,1.14,0,0,1,100.69,5.45Zm0-.16a.9.9,0,0,0,.4-.08,1.11,1.11,0,0,0,.32-.21,1,1,0,0,0,.21-.32,1.09,1.09,0,0,0,.07-.4,1,1,0,0,0-.07-.4.89.89,0,0,0-.21-.32,1.14,1.14,0,0,0-.32-.22,1.18,1.18,0,0,0-.8,0,1,1,0,0,0-.32.22.89.89,0,0,0-.21.32,1,1,0,0,0-.08.4,1.1,1.1,0,0,0,.08.4.94.94,0,0,0,.53.53A.9.9,0,0,0,100.69,5.29ZM100.18,5V3.58h.6a.49.49,0,0,1,.36.12.35.35,0,0,1,.13.3.35.35,0,0,1-.13.3.48.48,0,0,1-.35.12l.06,0a.24.24,0,0,1,.15,0,.29.29,0,0,1,.13.12l.23.41H101l-.25-.44a.19.19,0,0,0-.07-.08l-.1,0h-.14V5Zm.29-.76h.27a.24.24,0,0,0,.18,0A.17.17,0,0,0,101,4a.18.18,0,0,0-.06-.16.3.3,0,0,0-.18,0h-.27Z"/></svg>