<?xml version="1.0" encoding="utf-8"?>
<!-- Generator: Adobe Illustrator 23.0.0, SVG Export Plug-In . SVG Version: 6.00 Build 0)  -->
<svg version="1.1" id="Layer_1" xmlns="http://www.w3.org/2000/svg" xmlns:xlink="http://www.w3.org/1999/xlink" x="0px" y="0px"
	 viewBox="0 0 364.9 68.7" style="enable-background:new 0 0 364.9 68.7;" xml:space="preserve">
<style type="text/css">
	.st0{fill:#FFF8F0;}
	.st1{fill:none;}
	.st2{opacity:0.2;fill:#FFF8F0;}
	.st3{opacity:0.6;fill:#FFF8F0;}
</style>
<g>
	<g>
		<path class="st0" d="M238.8,23.5c-1.5,0-3,0.5-4.1,1.5c-1.3,1.1-1.7,2-2,3.8l-0.2,1.5h-2.2v3.7h2.3v5.5c0,3,0.1,5.5,0.2,5.6
			s1.1,0.2,2.3,0.2h2.1V33.9h3.4v-3.7h-3.4v-0.9c0-1.4,1-2.3,2.4-2.1c0.6,0.1,1.3,0.2,1.5,0.3c0.3,0.1,0.7-0.2,1.3-1.2l0.9-1.4
			l-0.6-0.5C242,24,240.1,23.5,238.8,23.5L238.8,23.5z M225.6,23.5c-2.2,0.1-3.3,3.4-1.1,4.6c1.1,0.6,1.9,0.5,2.8-0.3
			c0.7-0.6,0.9-0.9,0.9-1.8c0-1.2-0.7-2.1-1.9-2.4C226,23.5,225.8,23.5,225.6,23.5z M174.4,24l-2.3,0.1l-2.3,0.1l-2.5,4.7
			c-1.4,2.6-2.6,4.7-2.7,4.9c-0.1,0.1-1.4-2-2.9-4.7l-2.7-4.9l-2.3,0.1l-2.3,0.1l-0.3,7.2c-0.2,4-0.4,8.7-0.5,10.5l-0.2,3.3h4.4
			l0.2-3.6c0.1-2,0.2-4.7,0.2-6c0.1-4.6,0.1-4.6,2.6,0l2.2,4h2.4l2.2-4.2l2.2-4.2l0.2,4.9c0.1,2.7,0.3,5.9,0.4,7l0.2,2h4.5l0-1.3
			c0-0.7-0.2-5.1-0.4-9.7c-0.2-4.6-0.4-8.7-0.4-9.3L174.4,24L174.4,24z M207.6,24v10.4c0,5.7,0.1,10.5,0.2,10.6
			c0.1,0.1,3.2,0.2,6.9,0.2h6.7v-4h-9V24L207.6,24L207.6,24z M195.8,26.3v3.9l-1.2,0.1l-1.2,0.1v3.4l1.2,0.1l1.2,0.1l0,3.7
			c0,4.9,0.5,6.3,2.6,7.4c1.5,0.7,4.4,0.6,6.1-0.3l1.4-0.7l-0.8-1.4l-0.8-1.4l-1.2,0.5c-1.1,0.4-1.3,0.4-2,0
			c-0.7-0.5-0.7-0.5-0.7-4.1v-3.7h3.7v-3.7h-3.6l-0.1-1.9l-0.1-1.9l-2.2-0.1L195.8,26.3L195.8,26.3z M184.8,29.9
			c-3.1,0-5.5,1.6-6.7,4.3c-0.8,1.9-0.8,5.3,0.1,7.2c0.8,1.6,2.3,3,4,3.6c2.5,0.9,6.9,0.4,8.9-1l0.8-0.5l-0.9-1.4l-0.8-1.4l-1.5,0.7
			c-1.6,0.7-3.6,0.9-4.8,0.4c-0.9-0.4-2.1-1.6-2.1-2.3c0-0.5,0.3-0.5,5.2-0.5h5.2v-1.4C192.1,33,189.2,29.9,184.8,29.9L184.8,29.9z
			 M184.8,33.3c0.9,0,1.7,0.3,2.3,0.8c0.5,0.5,0.8,1.1,0.8,1.4c0,0.6-0.1,0.6-3.1,0.6c-2,0-3.1-0.1-3.1-0.3c0-0.7,0.8-1.9,1.5-2.2
			C183.8,33.5,184.3,33.3,184.8,33.3L184.8,33.3z M249.3,29.9c-4.4,0-7.3,2.7-7.6,7.1c-0.3,3.6,1.1,6.2,3.9,7.6
			c1.7,0.9,1.9,0.9,4.5,0.8c2.2-0.1,2.9-0.2,4.3-0.9c0.9-0.4,1.6-0.9,1.6-1c0-0.1-0.4-0.8-0.8-1.5l-0.8-1.3l-1,0.6
			c-1.3,0.8-4.2,1-5.4,0.4c-1-0.5-1.7-1.3-1.9-2.1l-0.2-0.6h10.8l-0.2-1.5C255.8,32.3,253.5,29.9,249.3,29.9L249.3,29.9z
			 M249.1,33.3c1,0,1.4,0.2,2.1,0.8c0.5,0.4,0.9,1.1,1,1.4c0.2,0.6,0.2,0.6-3.1,0.6c-3.3,0-3.3,0-3.1-0.6c0.1-0.3,0.6-1,1-1.4
			C247.7,33.5,248.1,33.3,249.1,33.3L249.1,33.3z M227.9,30.2l-2.2,0.1l-2.2,0.1l-0.1,7.1c0,3.9,0,7.2,0.1,7.4
			c0.1,0.2,0.8,0.4,2.3,0.4h2.1L227.9,30.2L227.9,30.2z"/>
	</g>
	<g>
		<path class="st1" d="M130.8,40.6C130.8,40.6,130.8,40.6,130.8,40.6C130.8,40.6,130.8,40.6,130.8,40.6z"/>
		<path class="st1" d="M131.1,49.5c0,0.1,0,0.1,0,0.2C131.1,49.7,131.1,49.6,131.1,49.5z"/>
		<path class="st1" d="M130.7,39.9c0,0.1,0,0.2,0.1,0.3C130.7,40.1,130.7,40,130.7,39.9z"/>
		<path class="st1" d="M131.2,45.6c0,0.4,0,0.8,0,1.2C131.2,46.5,131.2,46,131.2,45.6C131.2,45.6,131.2,45.6,131.2,45.6
			C131.2,45.6,131.2,45.6,131.2,45.6C131.2,45.6,131.2,45.6,131.2,45.6z"/>
		<path class="st1" d="M130.4,38.9c0.1,0.3,0.1,0.5,0.2,0.7C130.5,39.3,130.5,39.1,130.4,38.9c-0.1-0.4-0.2-0.9-0.4-1.4
			C130.2,38,130.3,38.4,130.4,38.9C130.4,38.9,130.4,38.9,130.4,38.9z"/>
		<path class="st0" d="M142.4,18.9c-0.3-0.3-0.7-0.5-1.2-0.5v0c-0.6,0-1.3,0.2-2.3,0.5c-4.1,1.4-7.7,3.7-11,7.1l-2.3,2.7l0,0l0,0
			l0.8,1.1c0,0,0.1,0.1,0.1,0.1l0,0c1.3,1.8,2.6,4.8,3.5,7.5c0.1,0.5,0.3,0.9,0.4,1.4c0.1,0.3,0.1,0.5,0.2,0.7c0,0.1,0,0.2,0.1,0.3
			c0,0.1,0,0.2,0.1,0.3c0,0.1,0.1,0.3,0.1,0.4c0,0,0,0,0,0c0.3,1.4,0.3,2.6,0.4,4.9c0,0,0,0,0,0.1c0,0.4,0,0.8,0,1.3c0,1,0,2,0,2.6
			c0,0.1,0,0.1,0,0.2c0,0.4-0.1,0.6-0.1,0.6h10.9l0.6-0.6c0.4-0.5,0.4-2.5,0.4-15.4C142.9,20.8,142.9,19.4,142.4,18.9z"/>
		<path class="st0" d="M120,45.7c0-3.3,0.1-4.4,0.8-6.8c0.7-2.9,3-7.8,4.2-9.3l0.7-0.8c-0.8-1.1-1.7-2.2-2.7-3.1
			c-3.2-3-6.8-5.4-10.7-6.7c-0.9-0.3-1.6-0.5-2.2-0.5l0,0c-0.5,0-0.9,0.1-1.3,0.4c-0.5,0.4-0.5,1.3-0.5,15.3c0,13,0.1,14.9,0.4,15.5
			l0.4,0.6H120c0.1,0,0.1,0,0.2,0C120,50.3,120,47.8,120,45.7z"/>
		<path class="st0" d="M130.4,38.9C130.4,38.9,130.4,38.9,130.4,38.9c0.6,2.4,0.7,3.5,0.8,6.8c0,0,0,0,0,0c0,0,0,0,0,0
			c0,0,0,0,0-0.1c0-2.3-0.1-3.6-0.4-4.9c0,0,0,0,0,0c0-0.1-0.1-0.3-0.1-0.4c0-0.1,0-0.2-0.1-0.3c0-0.1,0-0.2-0.1-0.3
			C130.5,39.3,130.5,39.1,130.4,38.9C130.4,38.9,130.4,38.9,130.4,38.9z"/>
		<path class="st0" d="M126.5,29.9l0.1,0.1C126.5,30,126.5,29.9,126.5,29.9z"/>
		<path class="st2" d="M130.4,38.9c-0.1-0.4-0.2-0.9-0.4-1.4c-0.8-2.7-2.2-5.6-3.5-7.5C128.3,32.7,129.6,35.7,130.4,38.9z"/>
		<path class="st2" d="M125.7,28.7L125.7,28.7c0.2,0.3,0.5,0.7,0.7,1L125.7,28.7z"/>
		<path class="st2" d="M131.1,49.7c0-0.1,0-0.1,0-0.2c0-0.6,0-1.6,0-2.6c0-0.4,0-0.8,0-1.2c0,2.2-0.1,4.1-0.2,4.3
			c-0.2,0.3-2.6,0.4-10.8,0.4c0,0,0,0,0,0H131c0,0,0,0,0,0h0C131.1,50.3,131.1,50.1,131.1,49.7z"/>
		<path class="st0" d="M131.1,49.7c0,0.4-0.1,0.6-0.1,0.6h0C131.1,50.3,131.1,50.1,131.1,49.7z"/>
		<path class="st2" d="M131.1,49.7c0,0.4-0.1,0.6-0.1,0.6h0C131.1,50.3,131.1,50.1,131.1,49.7z"/>
		<path class="st0" d="M131.1,49.5c0-0.6,0-1.6,0-2.6C131.2,47.9,131.2,48.9,131.1,49.5z"/>
		<path class="st2" d="M131.1,49.5c0-0.6,0-1.6,0-2.6C131.2,47.9,131.2,48.9,131.1,49.5z"/>
		<path class="st3" d="M125.7,28.7l-0.7,0.8c-1.2,1.5-3.4,6.4-4.2,9.3c-0.6,2.3-0.7,3.5-0.8,6.8c0,2.2-0.1,4.6,0.2,4.6H131
			c0.2,0,0.2-2.5,0.2-4.7c0-3.3-0.2-4.4-0.8-6.8c-0.7-3.1-2.3-6.7-3.9-8.8L125.7,28.7L125.7,28.7z"/>
	</g>
</g>
</svg>
