<?xml version="1.0" encoding="utf-8"?>
<!-- Generator: Adobe Illustrator 23.0.0, SVG Export Plug-In . SVG Version: 6.00 Build 0)  -->
<svg version="1.1" id="Layer_1" xmlns="http://www.w3.org/2000/svg" xmlns:xlink="http://www.w3.org/1999/xlink" x="0px" y="0px"
	 viewBox="0 0 364.9 68.7" style="enable-background:new 0 0 364.9 68.7;" xml:space="preserve">
<style type="text/css">
	.st0{fill-rule:evenodd;clip-rule:evenodd;fill:#FFF8F0;}
</style>
<g>
	<path class="st0" d="M163,22.2c0.5,1.7-0.1,3.2-1.8,3.9c-1.2,0.6-2.6,0.4-3.5-0.7c-0.7-0.8-0.8-2.1-0.4-2.9
		c0.7-0.7,1.3-1.6,2.1-1.7C161.1,20.6,162.1,21,163,22.2L163,22.2z"/>
	<path class="st0" d="M114.7,24c2,2.1,1.8,5.7,0.7,8.2c-3.3,5.7-10.3,5.4-16.5,5.2l-1.2,5.4l4.8,0.4c-0.2,1.2-0.1,2.6-1,3.5h-14
		l0.8-3.5l3.6-0.1L96,24.6c-1-0.5-2.1-0.1-3.5-0.1c-0.1-1.2,0.5-2.3,0.8-3.5C100.6,21.8,109.7,18.8,114.7,24L114.7,24z M110.3,27.1
		c0.5,1.5,0,3.1-0.8,4.4c-2.3,2.6-5.8,2-9.2,2c0.1-2.9,1-6.1,2-8.9C105.1,24.6,109.1,24,110.3,27.1L110.3,27.1z"/>
	<path class="st0" d="M207.9,23.3l1.1-1.4h3.7c-0.2,2.7-1,5.6-1.6,8.2c-1.2,0.6-2.9,0.4-4.2,0.4c-0.1-1.8-0.5-3.9-2.6-4.8
		c-2.7-1.1-5.6,0.1-7.5,2.3c-2.5,3.1-3.7,7-3.1,11.3c0.5,1.7,1.4,3.1,3.1,3.9c2.6,0.7,5-0.1,6.7-1.9l1.7-2.6c1.7-0.2,3.5,0,5.2,0
		c-0.5,2.9-3,5.8-5.7,7.4c-3.5,1.8-8.6,2.3-12.2,0.2c-3.1-1.7-4.8-5-4.9-8.5c-0.4-6.3,2.7-12.4,8.3-15.5
		C199.6,20.6,205.1,20.4,207.9,23.3L207.9,23.3z"/>
	<path class="st0" d="M185,21.3c0,1-0.6,2.1-0.6,3.2c-1.4,0.2-3.3,0.4-4.7-0.1c-1.7,0.7-4.2,0.1-5,2.3c-0.1,0.7-0.6,1.6-0.4,2.1
		L186,29l-3,14.2l4.1,0.4l-0.6,3.5L175,46.7l0.6-3.1l2.1-0.4c0.8-3.6,2-7,2.5-10.7l-6.6-0.2c-1.2,3.5-2,7.3-2.6,10.9
		c0.6,0.7,2.4-0.4,2.3,1c-0.7,0.8-0.2,2.1-1,2.9L150,46.7l0.7-3.2l2.7-0.2c1.2-3.3,1.8-7.2,2.5-10.7c-0.5-0.7-2.3,0.2-2.1-0.8
		l0.6-2.9c2.1-0.2,5-0.1,7.4,0l0.2,0.5c-1.2,4.7-2.3,9.3-3.1,13.8l6.3,0.1c1.3-3.2,2-7,2.9-10.7l-4.2-0.2l0.5-3.5l4.5-0.2
		c0.6-2.5,1.4-5.5,4.1-6.7C176.6,20.5,181.2,21.7,185,21.3L185,21.3z"/>
	<path class="st0" d="M132,31.8c0.8,3.8-0.8,7.4-1.6,11c0.4,0.7,1.3,0.2,2,0.5l-0.7,3.3l-6.3,0.1l-0.4-1.4c-2.3,1.7-6,2.5-8.8,1.2
		c-1.3-0.8-2.6-2.1-3-3.8c-0.4-2,0.4-3.9,1.9-5.2c3.3-2.1,7.3-2.6,11.6-2.3c0.8-0.7,0.2-1.9,0.1-2.6c-0.6-1.2-2.1-1.3-3.2-1.1
		c-1.2,0-2.1,0.8-2.6,2l-0.4,0.5H116c-0.4-0.7,0.5-2,1.2-3c2.6-2.7,6.6-3.6,10.4-2.6C129.1,29.1,131.1,29.9,132,31.8L132,31.8z
		 M126,38.4c0,2.1-1.4,4.2-3.6,4.9c-1.2,0.2-2.3,0.2-3.1-0.6c-0.7-0.7-0.8-1.7-0.4-2.5C120.6,37.9,123.7,38.6,126,38.4L126,38.4z"/>
	<path class="st0" d="M148.2,30.1c0.4,0,0.7-0.7,0.8-1.2c0.8-0.1,2.1-0.1,3.3-0.1l0.1,0.4l-1.7,6.2h-3.2c0.1-1.4-0.7-2.7-2-3.6
		c-1.7-0.5-3.2,0.1-4.4,1.1c-2.3,2.4-3.5,6.1-2.1,9.1c0.7,1.4,2.1,1.7,3.5,1.7c1.7-0.2,2.6-1.6,3.2-2.9c1.6-0.5,3,0,4.5-0.1
		c0,1.2-0.8,2.5-1.7,3.5c-2.5,2.6-6,3.8-9.5,3.1c-2.5-0.5-4.8-2.3-5.6-4.8c-0.8-3.6,0-7.8,2.5-10.5
		C138.9,28.4,144.7,26.2,148.2,30.1L148.2,30.1z"/>
	<path class="st0" d="M229.6,32.3c1.2,3.9-1.2,7.3-1.3,11c1.2,0.7,3,0.4,4.7,0.4c1.1-3.5,1.8-7,2.4-10.9c-0.6-0.2-1.4-0.1-2.3-0.2
		l0.8-3.5h6.6c0.5,0.6-0.1,1.6,0,2.4c2-1.9,4.7-3.2,7.5-2.6l-0.6,3.8c-2,0-4.3,0.1-5.7,1.4c-2.6,2.5-2.6,6.1-3.3,9.4L242,44
		l-0.6,3.1l-18.1,0.2c-1-0.4,0.2-1.3-0.2-1.9c-1.8,1.6-3.8,2.4-6.3,2.1c-1.4-0.2-3.2-0.6-4.4-1.9c-1.3-1.3-1.4-3.3-1.1-5.1
		c2-5.1,8.3-4.8,13.4-5.1c0.7-0.8,0.4-1.8-0.1-2.6c-0.8-1-2.1-1.3-3.2-0.8c-1.6,0-2.1,1.6-2.9,2.5c-1.4,0.4-3.1,0.1-4.5,0.1
		c-0.2-1.6,1.1-2.9,2.3-4.2C220,27.8,227.4,27.5,229.6,32.3L229.6,32.3z M223.9,38.9c-0.1,1.6-1,3.1-2.3,4.3c-1.2,0.5-2.4,1-3.7,0.5
		c-0.8-0.1-1.6-0.8-1.4-1.8c0-1.3,1-2.5,2.3-2.6C220.3,38.9,222.1,38.6,223.9,38.9L223.9,38.9z"/>
	<path class="st0" d="M264,32c1.3,2.1,1.7,5.1,1,7.4c-4.3,0.6-9.2,0-13.2,0.6c-0.7,1,0.1,2,0.5,2.9c1.1,1.6,3,1.8,4.5,1.2
		c0.7-0.5,1.7-0.8,1.8-1.7c1.9-0.4,3.8-0.1,5.5,0c-1.3,3.3-4.8,5-8.1,5.5c-3.3,0.5-6.8-0.7-8.7-3.7c-1.6-2.6-1.3-6.3-0.1-9.2
		c1.4-3.7,5.6-6.3,9.9-6.2C259.8,28.6,262.3,29.7,264,32L264,32z M260,34.3l0.1,1.8c-2.3,0.4-5,0.1-7.6,0.1c-0.4-0.8,0.5-1.7,1-2.3
		C254.8,31.8,259.1,31.5,260,34.3L260,34.3z"/>
	<path class="st0" d="M273.4,29c0.7,0,1.3,0.2,2,0.5c0.6,0.3,1.1,0.8,1.5,1.5c0.4,0.6,0.5,1.3,0.5,2s-0.2,1.3-0.5,2
		c-0.3,0.6-0.8,1.1-1.5,1.5c-0.6,0.3-1.3,0.5-2,0.5s-1.3-0.2-2-0.5c-0.6-0.3-1.1-0.8-1.5-1.5c-0.4-0.6-0.5-1.3-0.5-2s0.2-1.4,0.5-2
		c0.4-0.6,0.9-1.1,1.5-1.5C272.1,29.1,272.8,29,273.4,29L273.4,29z M273.4,29.6c-0.6,0-1.1,0.1-1.6,0.4s-0.9,0.7-1.2,1.2
		c-0.3,0.5-0.4,1.1-0.4,1.7c0,0.6,0.1,1.1,0.4,1.6s0.7,0.9,1.2,1.2s1.1,0.4,1.6,0.4c0.6,0,1.1-0.1,1.6-0.4c0.5-0.3,0.9-0.7,1.2-1.2
		c0.3-0.5,0.4-1.1,0.4-1.6c0-0.6-0.1-1.1-0.4-1.7c-0.3-0.5-0.7-0.9-1.2-1.2C274.5,29.8,274,29.6,273.4,29.6L273.4,29.6z M271.7,35.1
		v-4.3h1.5c0.5,0,0.9,0,1.1,0.1s0.4,0.2,0.5,0.4c0.1,0.2,0.2,0.4,0.2,0.6c0,0.3-0.1,0.6-0.3,0.8c-0.2,0.2-0.5,0.4-0.9,0.4
		c0.2,0.1,0.3,0.1,0.4,0.2c0.2,0.2,0.4,0.4,0.6,0.8l0.5,0.8h-0.8l-0.4-0.7c-0.3-0.5-0.5-0.9-0.7-1c-0.1-0.1-0.3-0.1-0.6-0.1h-0.4
		v1.8h-0.7V35.1z M272.4,32.7h0.8c0.4,0,0.7-0.1,0.8-0.2c0.1-0.1,0.2-0.3,0.2-0.5c0-0.1,0-0.2-0.1-0.3c-0.1-0.1-0.2-0.2-0.3-0.2
		c-0.1,0-0.4-0.1-0.7-0.1h-0.8v1.3H272.4z"/>
</g>
</svg>
