<?xml version="1.0" encoding="utf-8"?>
<!-- Generator: Adobe Illustrator 23.0.0, SVG Export Plug-In . SVG Version: 6.00 Build 0)  -->
<svg version="1.1" id="Layer_1" xmlns="http://www.w3.org/2000/svg" xmlns:xlink="http://www.w3.org/1999/xlink" x="0px" y="0px"
	 viewBox="0 0 364.9 68.7" style="enable-background:new 0 0 364.9 68.7;" xml:space="preserve">
<style type="text/css">
	.st0{fill:#FFF8F0;}
</style>
<g>
	<path id="XMLID_17_" class="st0" d="M273.9,19v0.8c0,0,0.1,0,0.2,0c0.2,0,0.4,0,0.4-0.1c0.1-0.1,0.1-0.2,0.1-0.3
		c0-0.3-0.2-0.4-0.5-0.4H274L273.9,19z M274.8,21.1l-0.6-1h-0.3v1h-0.3v-2.3h0.6c0.5,0,0.8,0.2,0.8,0.6c0,0.3-0.1,0.5-0.4,0.6l0.6,1
		L274.8,21.1L274.8,21.1z M275.8,19.9c0-0.4-0.1-0.8-0.5-1.1c-0.3-0.3-0.7-0.5-1.1-0.5c-0.4,0-0.8,0.2-1.1,0.5
		c-0.3,0.3-0.5,0.7-0.5,1.1c0,0.4,0.2,0.8,0.5,1.1c0.3,0.3,0.7,0.5,1.1,0.5c0.4,0,0.8-0.2,1.1-0.5C275.7,20.7,275.8,20.4,275.8,19.9
		z M272.4,19.9c0-0.5,0.2-0.9,0.5-1.3c0.4-0.4,0.8-0.5,1.3-0.5s0.9,0.2,1.3,0.5c0.4,0.4,0.5,0.8,0.5,1.3c0,0.5-0.2,0.9-0.5,1.3
		c-0.4,0.4-0.8,0.5-1.3,0.5s-0.9-0.2-1.3-0.5C272.6,20.9,272.4,20.5,272.4,19.9"/>
	<g>
		<g>
			<path class="st0" d="M147,45.3c0-2.6,0-5.1,0-7.7c0-0.8,0.2-1,0.9-0.9c1.7,0.2,3.4,0.2,5,0c1.4-0.2,2.8-0.1,4.2,0.2
				c3.1,0.6,5,2.6,5.4,5.9c0.3,1.7,0.2,3.4-0.2,5.1c-1,3.3-4,5.7-7.8,5.9c-2.3,0.2-4.6-0.3-7,0c-0.8,0.1-0.6-0.4-0.6-0.9
				C147,50.5,147,47.9,147,45.3z M152.2,37.8c-0.4,0-1.2,0.1-2,0.1c-0.6,0-0.9,0.2-0.9,0.8c-0.2,4.5-0.2,9,0,13.4
				c0,0.6,0.3,0.8,0.8,0.8c1.8,0.1,3.7,0.3,5.5-0.3c2-0.6,3.4-1.9,4.2-3.8c0.4-1.2,0.6-2.4,0.6-3.6C160.3,39.8,158,37.6,152.2,37.8z
				"/>
			<path class="st0" d="M88.8,20.7c0-1.7,0.1-3.5,0-5.2c-0.1-1.2,0.8-0.7,1.3-0.8c0.7-0.2,0.9,0.1,0.9,0.8c0,3.4-0.2,6.8,0.1,10.2
				c0.3,3.7,1.9,5.3,5.4,5.3c3.2,0,5.2-2,5.4-5.4c0.2-3.4,0.1-6.7,0.1-10.1c0-0.8,0.3-0.9,1-0.9c0.3,0,0.4,0.1,0.4,0.4
				c-0.1,3.9,0.4,7.9-0.3,11.8c-0.5,3.2-3,5.2-6.2,5.2c-1.3,0-2.6,0.1-3.8-0.3c-2.4-0.7-3.9-2.5-4.2-5c0-0.4-0.1-0.8-0.1-1.2
				C88.9,24,88.9,22.3,88.8,20.7C88.9,20.7,88.9,20.7,88.8,20.7z"/>
			<path class="st0" d="M144.1,24.9c0-2,0-3.9,0-5.9c0-0.7,0.1-1,0.9-1c1.8,0.1,3.7,0,5.5,0c3.4,0.1,5.3,1.9,5.8,5.2
				c0.7,5.2-2.2,8.7-7.5,8.7c-1.2,0-2.5,0-3.7,0c-0.8,0-1.1-0.2-1-1C144.2,29,144.1,27,144.1,24.9z M146,25.1c0,1.3,0,2.6,0,3.8
				c0,2.5,0,2.5,2.5,2.5c3.3,0,5.3-1.7,5.8-4.9c0.2-1.2,0.2-2.4,0-3.6c-0.5-2.8-2.1-4.1-5-4.3c-0.8,0-1.6,0-2.4,0
				c-0.7-0.1-1,0.2-1,0.9C146.1,21.4,146,23.2,146,25.1z"/>
			<path class="st0" d="M183.6,32.2c-4.6,0-7.3-2.8-7.3-7.3c0-4.4,2.8-7,7.5-7c4.5,0,7.3,2.8,7.2,7.3
				C191,29.5,188.1,32.2,183.6,32.2z M178.2,24.9c0,0.6,0,1.2,0.1,1.7c0.3,2.9,2.3,4.7,5,4.9c3,0.2,4.9-1.4,5.6-4.3
				c0.3-1.2,0.3-2.3,0.2-3.5c-0.3-3-2.2-4.9-4.8-5.1c-3.2-0.2-5.2,1.3-5.9,4.4C178.2,23.6,178.2,24.3,178.2,24.9z"/>
			<path class="st0" d="M175.3,18c-0.2-0.2-0.4-0.3-0.5-0.5c-3.5-3.3-9.7-1.8-10.8,3.6c-0.4,2-0.4,4,0.2,5.9c1.2,4,5.5,5.8,9.3,3.9
				c0.7-0.4,1.4-0.8,2.1-1.2c0.2,1.1-0.2,1.7-1.2,2.1c-2.2,0.8-4.5,1-6.8,0.4c-4.7-1.3-6.3-5-6.2-9c0.2-6.3,5.2-9,11.3-8.2
				c0.4,0.1,0.9,0.2,1.3,0.3C175.9,15.9,175.9,15.9,175.3,18z"/>
			<path class="st0" d="M239.1,25c1,1.3,1.9,2.4,2.8,3.4c0.9,1.1,1.7,2.2,2.7,3.4c-1.3,0.3-2.2,0.2-3-0.9c-1.3-1.8-2.7-3.4-4.1-5.1
				c-0.3-0.3-0.6-0.8-1.1-0.6c-0.5,0.2-0.3,0.7-0.3,1.1c0,1.6,0,3.3,0,4.9c0,0.4,0.1,0.9-0.6,0.9c-0.6-0.1-1.1,0-1-0.9
				c0-4.1,0-8.3,0-12.4c0-0.6,0.2-0.8,0.8-0.8c1.6,0.1,3.2,0.1,4.8,0.2c1.9,0.1,3.1,1,3.4,2.5c0.3,1.5-0.5,3-2.1,3.8
				C240.6,24.7,240,24.9,239.1,25z M236.1,22.1c0,0.2,0,0.4,0,0.5c0,0.6-0.3,1.4,0.4,1.7c0.9,0.3,1.9,0.2,2.8-0.2
				c0.1,0,0.2-0.1,0.3-0.1c1.5-0.6,2.2-2,1.8-3.5c-0.4-1.5-2.1-2.3-4.6-2c-0.7,0.1-0.8,0.5-0.8,1.2
				C236.2,20.6,236.2,21.4,236.1,22.1z"/>
			<path class="st0" d="M116.5,28.9c0-3.5,0-6.8,0-10c0-0.3-0.2-0.7,0.2-0.8c0.5-0.1,0.8-0.1,0.8,0.6c0,4.2,0,8.4,0,12.6
				c0,0.3,0.1,0.6-0.3,0.7c-0.4,0.1-0.6-0.2-0.8-0.5c-2.2-2.4-4.4-4.8-6.6-7.2c-1-1.1-2.1-2.2-3.4-3.5c0,3,0,5.8,0,8.5
				c0,0.7,0,1.4,0,2c0,0.3,0,0.6-0.5,0.6c-0.5,0-0.5-0.3-0.5-0.7c0-1.8,0-3.5,0-5.3c0-2.4,0-4.8,0-7.2c0-0.3-0.2-0.8,0.2-0.9
				c0.4-0.1,0.6,0.3,0.9,0.5c3.1,3.3,6.1,6.6,9.2,9.9C116,28.5,116.1,28.6,116.5,28.9z"/>
			<path class="st0" d="M185,50.6c0-3.1,0-6.3,0-9.4c0-0.3,0-0.6,0-0.8c0-0.4,0.2-0.5,0.5-0.5c0.3,0,0.4,0.1,0.4,0.4
				c0,0.2,0,0.5,0,0.7c0,3.9,0,7.9,0,11.8c0,0.4,0.3,0.9-0.3,1c-0.5,0.1-0.7-0.3-0.9-0.6c-2.9-3.1-5.8-6.2-8.7-9.3
				c-0.3-0.3-0.5-0.6-0.7-0.9c-0.5,0.3-0.3,0.7-0.3,0.9c0,2.9,0,5.9,0,8.8c0,0.4,0.3,1.1-0.4,1.1c-0.8,0-0.5-0.7-0.5-1.1
				c0-3.9-0.1-7.9,0-11.8c0-0.4-0.2-0.9,0.3-1c0.4-0.1,0.6,0.3,0.8,0.6c2.6,2.9,5.3,5.7,7.9,8.6c0.5,0.6,1.1,1.1,1.6,1.7
				C184.8,50.7,184.9,50.6,185,50.6z"/>
			<path class="st0" d="M193.4,20.9c0,3.5,0,6.6,0,9.8c0,0.3,0,0.6,0,0.8c0,0.3-0.1,0.5-0.4,0.6c-0.5,0-0.5-0.3-0.5-0.6c0-1,0-2,0-3
				c0-3.1,0-6.2,0-9.3c0-0.4-0.3-0.9,0.2-1.1c0.5-0.2,0.7,0.3,1,0.6c2.8,3,5.6,6.1,8.4,9.1c0.3,0.4,0.6,0.7,1,1.1
				c0.5-0.3,0.3-0.6,0.3-0.9c0-2.9,0-5.9,0-8.8c0-0.4-0.3-1.1,0.5-1.1c0.8,0,0.5,0.6,0.5,1c0,4,0,8,0,12c0,0.3,0.2,0.7-0.2,0.9
				c-0.4,0.2-0.6-0.2-0.9-0.5C200.2,28,196.9,24.5,193.4,20.9z"/>
			<path class="st0" d="M134.8,25c0-2,0-4.1,0-6.1c0-0.6,0.2-0.8,0.8-0.8c2,0,4.1,0,6.1,0c0.4,0,0.7,0,0.7,0.6
				c0,0.5-0.3,0.6-0.7,0.6c-1.4,0-2.9,0-4.3,0c-0.7,0-1,0.1-1,0.9c0,1.2,0,2.3,0,3.5c0,0.7,0.2,0.9,0.9,0.8c1.2,0,2.5,0,3.7,0
				c0.2,0,0.6-0.2,0.7,0.3c0,0.5-0.4,0.4-0.7,0.4c-1.2,0-2.4,0-3.6,0c-0.7,0-1,0.1-1,0.9c0.1,1.4,0,2.9,0,4.3c0,0.7,0.2,0.9,0.9,0.9
				c1.5,0,3,0,4.4,0c0.3,0,0.7-0.1,0.7,0.4c0,0.5-0.3,0.6-0.7,0.6c-2,0-4,0-6,0c-0.7,0-1-0.2-1-0.9C134.8,29.1,134.8,27.1,134.8,25z
				"/>
			<path class="st0" d="M164.3,46.8c0-2,0-4.1,0-6.1c0-0.7,0.2-0.9,0.9-0.9c2,0,3.9,0,5.9,0c0.4,0,0.8,0,0.8,0.6
				c0,0.7-0.4,0.6-0.9,0.6c-1.4,0-2.8,0-4.2,0c-0.7,0-0.9,0.2-0.9,0.9c0,1.2,0,2.4,0,3.6c0,0.6,0.2,0.8,0.8,0.8c1.3,0,2.6,0,3.8,0
				c0.3,0,0.7-0.1,0.7,0.2c0,0.5-0.5,0.3-0.7,0.3c-1.2,0-2.4,0-3.6,0c-0.7,0-1,0.1-1,0.9c0.1,1.4,0.1,2.9,0,4.3
				c0,0.7,0.2,0.9,0.9,0.9c1.4,0,2.9,0,4.3,0c0.3,0,0.8-0.1,0.8,0.5c0,0.6-0.4,0.5-0.8,0.5c-2,0-4,0-6,0c-0.7,0-0.9-0.2-0.9-0.9
				C164.4,50.9,164.3,48.9,164.3,46.8z"/>
			<path class="st0" d="M217.4,20.3c-1.4-1.2-2.9-2-4.7-1.7c-2.5,0.4-4,1.7-4.7,4.2c-0.4,1.5-0.4,3,0,4.5c0.9,3.5,4.4,5.2,7.7,3.7
				c0.6-0.3,1.2-0.6,1.9-1c0,0.5,0.1,1-0.4,1.3c-2.8,1.5-8.8,1.5-10.8-3.1c-1.7-4.1-0.2-10,6.3-10.4c1.2-0.1,2.4,0,3.6,0.3
				C217.8,18.6,217.8,18.5,217.4,20.3z"/>
			<path class="st0" d="M192,47.4c0-1.8,0-3.7,0-5.5c0-0.7-0.2-0.9-0.9-0.9c-0.9,0.1-1.8,0-2.8,0c-0.5,0-0.7-0.1-0.7-0.7
				c0-0.6,0.4-0.5,0.7-0.5c2.9,0,5.8,0,8.7,0c0.4,0,0.8,0,0.8,0.6c0,0.6-0.5,0.5-0.8,0.5c-0.1,0-0.2,0-0.2,0c-1,0.1-2.3-0.4-2.9,0.2
				c-0.7,0.7-0.2,2-0.2,3c0,2.9,0,5.8,0.1,8.8c0,0.7-0.2,1-0.9,1c-0.8,0-0.8-0.4-0.8-0.9C192,51.1,192,49.2,192,47.4
				C192,47.4,192,47.4,192,47.4z"/>
			<path class="st0" d="M209.7,46.9c0-2.1,0.1-4.2,0-6.4c0-1.3,0.9-0.6,1.3-0.7c0.7-0.2,0.6,0.3,0.6,0.8c-0.3,3.8-0.1,7.7-0.1,11.5
				c0,0.7,0.2,0.9,0.9,0.9c1.3-0.1,2.6,0,4-0.2c0.3-0.1,0.8-0.3,0.8,0.4c0,0.6-0.2,0.7-0.8,0.7c-2-0.2-4-0.2-6,0
				c-0.6,0-0.7-0.1-0.7-0.7C209.8,51.2,209.7,49,209.7,46.9C209.7,46.9,209.7,46.9,209.7,46.9z"/>
			<path class="st0" d="M128.4,18.1c1.4,0,2.7,0,4.1,0c0.4,0,0.9-0.3,1,0.5c0,0.8-0.6,0.5-0.9,0.5c-0.8,0-1.6,0.1-2.4,0
				c-0.8-0.1-1,0.3-1,1c0,3.6,0,7.2,0,10.8c0,0.5,0.2,1.1-0.7,1.1c-1,0-0.8-0.6-0.8-1.2c0-3.5,0-7.1,0-10.6c0-1-0.3-1.3-1.2-1.2
				c-0.8,0.1-1.7,0-2.5,0c-0.3,0-0.6,0-0.7-0.5c0-0.5,0.2-0.6,0.7-0.6C125.4,18.1,126.9,18.1,128.4,18.1z"/>
			<path class="st0" d="M121.7,25.1c0,2,0,4.1,0,6.1c0,0.6-0.1,0.9-0.8,0.9c-0.6,0-0.9-0.1-0.9-0.9c0-4.2,0-8.3,0-12.5
				c0-0.7,0.3-0.8,0.9-0.8c0.6,0,0.9,0.1,0.8,0.8C121.7,20.9,121.7,23,121.7,25.1z"/>
			<path class="st0" d="M259.6,25c0-2,0-4,0-6c0-0.6,0.1-0.9,0.8-0.9c0.8,0,0.9,0.2,0.9,1c0,4,0,8,0,12c0,0.6-0.1,0.9-0.8,0.9
				c-0.8,0-0.9-0.2-0.9-1C259.6,29,259.6,27,259.6,25z"/>
		</g>
		<path class="st0" d="M208.4,53.8c-2,0.1-2,0.1-2.7-1.6c-0.5-1.2-0.6-2.9-1.6-3.5c-0.9-0.6-2.4-0.1-3.6-0.2
			c-1.1-0.1-1.6,0.3-1.9,1.3c-0.3,1-0.8,2-1.1,3c-0.2,0.9-0.7,1.2-1.7,0.9c1.3-2.9,2.6-5.8,3.9-8.7c0.7-1.5,1.4-3.1,2-4.6
			c0.1-0.2,0.1-0.6,0.5-0.6c0.3,0,0.3,0.3,0.4,0.5C204.5,44.8,206.4,49.2,208.4,53.8z M201.7,42.5c-0.7,1.6-1.3,3.1-2,4.5
			c-0.2,0.5,0.1,0.6,0.5,0.6c1,0,1.9,0,2.9,0c0.5,0,0.8-0.1,0.5-0.7C203,45.6,202.4,44.1,201.7,42.5z"/>
		<path class="st0" d="M225.7,32.2c-4.5,0-7.4-2.8-7.4-7.2c0-4.3,2.8-7.1,7-7.1c4.9,0,7.7,2.6,7.8,7.1
			C233.1,29.4,230.2,32.2,225.7,32.2z M220.1,25.1c0.1,0.7,0.1,1.4,0.3,2.1c0.5,2.6,2.4,4.1,4.9,4.2c2.7,0.1,4.6-1.2,5.4-3.8
			c0.3-1,0.5-2.1,0.4-3.2c-0.3-4.5-3.7-7-7.5-5.6C221.4,19.7,220.2,22,220.1,25.1z"/>
		<path class="st0" d="M245.8,25c0-2,0-4.1,0-6.1c0-0.3-0.2-0.8,0.4-0.8c2.4,0.1,4.8-0.3,7.2,0.2c2.8,0.6,4.2,2.4,4.4,5.5
			c0.4,5-2.4,8.1-7.4,8.2c-1.2,0-2.4,0-3.6,0c-0.8,0-1.1-0.2-1-1C245.9,29,245.8,27,245.8,25z M247.7,24.9c0,1.2,0,2.5,0,3.7
			c0,2.9,0,2.9,2.9,2.8c2.5-0.1,4.3-1.5,5-3.8c0.6-1.8,0.6-3.7,0.1-5.5c-0.5-1.8-1.7-2.8-3.5-3.2c-1.2-0.3-2.3-0.1-3.5-0.2
			c-0.8-0.1-1.1,0.2-1,1C247.7,21.4,247.7,23.1,247.7,24.9z"/>
		<path class="st0" d="M262.5,32c1.3-2.8,2.5-5.7,3.8-8.5c0.7-1.5,1.3-3,2-4.5c0.2-0.3,0.2-0.9,0.6-0.9c0.5,0,0.5,0.6,0.6,0.9
			c1.7,4,3.4,8,5.1,12c0.1,0.3,0.7,1,0.1,1c-0.6,0.1-1.5,0.6-1.9-0.5c-0.5-1.3-1-2.6-1.5-3.9c-0.2-0.7-0.6-1-1.4-1
			c-0.8,0.1-1.5,0.1-2.3,0c-1.4-0.2-2.2,0.2-2.5,1.7c-0.2,0.9-0.7,1.7-0.9,2.6C264.1,31.8,263.7,32.4,262.5,32z M268.4,20.7
			c-0.7,1.7-1.3,3.1-1.9,4.6c-0.3,0.6,0,0.6,0.4,0.6c1,0,2,0,3,0c0.5,0,0.7-0.1,0.5-0.6C269.8,23.8,269.2,22.3,268.4,20.7z"/>
	</g>
</g>
</svg>
