<?xml version="1.0" encoding="utf-8"?>
<!-- Generator: Adobe Illustrator 23.0.0, SVG Export Plug-In . SVG Version: 6.00 Build 0)  -->
<svg version="1.1" id="Layer_1" xmlns="http://www.w3.org/2000/svg" xmlns:xlink="http://www.w3.org/1999/xlink" x="0px" y="0px"
	 viewBox="0 0 364.9 68.7" style="enable-background:new 0 0 364.9 68.7;" xml:space="preserve">
<style type="text/css">
	.st0{fill:#FFF8F0;}
</style>
<g>
	<path class="st0" d="M134.5,31.6c1,0,7.6,2.9,7.6,13.4c0,5-1.7,9.2-2.6,9.2c-0.4,0-0.6-0.4-0.6-1.3c0-1.9,0.7-3.5,0.7-7.5
		c0-7.7-3.1-10.7-4.5-12.5c-0.4-0.5-0.8-0.9-0.8-1.2C134.2,31.7,134.3,31.6,134.5,31.6 M151,31.9c0,0.3-0.3,0.6-0.8,1.2
		c-1.4,1.7-4.5,4.8-4.5,12.5c0,4,0.7,5.6,0.7,7.5c0,0.9-0.2,1.3-0.6,1.3c-1,0-2.6-4.2-2.6-9.2c0-10.5,6.5-13.4,7.6-13.4
		C150.9,31.6,151,31.7,151,31.9"/>
	<path class="st0" d="M140.2,33.7c0,1.4,1.1,2.5,2.4,2.5c1.4,0,2.4-1.1,2.4-2.5c0-1.4-1.1-2.5-2.4-2.5
		C141.3,31.2,140.2,32.3,140.2,33.7"/>
	<path class="st0" d="M130.2,29.8c-1.3-0.6-2.2-1.7-2.3-2.8c0.9-0.6,2.4-0.7,3.7-0.1c1.3,0.6,1.6,1.6,1.6,2.5
		C132.4,29.9,131.5,30.4,130.2,29.8 M133.8,23.1c-0.8-1.3-1-2.8-0.5-3.9c1.2,0,2.6,0.8,3.3,2c0.9,1.3,0.5,2.4,0,3.2
		C135.7,24.6,134.6,24.4,133.8,23.1 M135.6,29.8c-1-0.9-1.5-2.1-1.4-3.2c1-0.3,2.4,0,3.3,0.9c1,0.9,1,1.9,0.9,2.7
		C137.6,30.5,136.7,30.6,135.6,29.8 M138.6,26.5c-0.4-1.4-0.2-3,0.6-3.8c1.1,0.3,2.2,1.4,2.6,2.8c0.4,1.4-0.2,2.4-0.9,3.1
		C140.1,28.5,139.1,28,138.6,26.5 M133.4,36.7c-1,0.2-2-0.1-2.6-0.7c0.3-0.8,1.2-1.4,2.1-1.6c1-0.2,1.6,0.3,2,0.8
		C134.9,35.8,134.5,36.5,133.4,36.7 M130.8,33.8c-1.1-0.1-2.1-0.8-2.6-1.6c0.6-0.8,1.7-1.1,2.8-1c1.2,0.2,1.7,0.9,1.9,1.5
		C132.7,33.3,132,33.9,130.8,33.8 M130.7,25.4c-0.9-0.8-1.4-1.9-1.3-2.8c0.9-0.3,2.1,0,3,0.8c0.9,0.8,0.9,1.7,0.8,2.4
		C132.5,25.9,131.7,26.1,130.7,25.4 M136.8,19.3c-0.3-1.1-0.2-2.5,0.4-3.1c0.9,0.3,1.8,1.2,2.2,2.4c0.3,1.2-0.1,2-0.7,2.6
		C137.9,20.9,137.1,20.6,136.8,19.3 M122,49.4L122,49.4c0.1,0.1,0.2,0,0.3,0c3.6-1.3,8.8-2.8,16.1-3.3c0-0.1,0.1-0.4,0.1-0.7
		c0-0.5-0.1-1.1-0.1-1.2c-7.5,0.7-12.7,2.9-16.1,5C122,49.4,122,49.4,122,49.4 M140.7,19.1c0-1.7,0.8-3.3,2-4c1.1,0.8,2,2.4,2,4
		c0,1.8-0.9,2.6-2,3.1C141.6,21.8,140.7,20.9,140.7,19.1 M152.1,29.4c0-0.9,0.3-1.9,1.6-2.5s2.7-0.5,3.7,0.1
		c-0.2,1.1-1.1,2.3-2.3,2.8C153.7,30.4,152.7,29.9,152.1,29.4 M148.6,24.5c-0.5-0.9-0.8-1.9,0-3.2c0.8-1.3,2.1-2,3.3-2
		c0.5,1.1,0.3,2.6-0.5,3.9C150.6,24.4,149.5,24.6,148.6,24.5 M146.8,30.1c-0.3-0.9-0.2-1.8,0.9-2.7c1-0.9,2.4-1.2,3.3-0.9
		c0.2,1-0.4,2.4-1.4,3.2C148.5,30.6,147.6,30.5,146.8,30.1 M144.2,28.6c-0.7-0.6-1.3-1.6-0.9-3.1c0.4-1.4,1.4-2.6,2.6-2.8
		c0.8,0.9,1,2.5,0.6,3.8C146.1,28,145.1,28.5,144.2,28.6 M150.2,35.2c0.3-0.5,1-1,2-0.8c1,0.2,1.9,0.9,2.1,1.6
		c-0.6,0.6-1.6,0.9-2.6,0.7C150.7,36.5,150.4,35.8,150.2,35.2 M152.1,32.7c0.3-0.7,0.8-1.4,1.9-1.5s2.3,0.3,2.8,1
		c-0.4,0.9-1.4,1.4-2.6,1.6C153.2,33.9,152.6,33.3,152.1,32.7 M152,25.7c-0.2-0.7-0.2-1.6,0.8-2.4c0.9-0.8,2-1,3-0.8
		c0.2,0.9-0.3,2-1.3,2.8C153.5,26.1,152.7,25.9,152,25.7 M146.4,21c-0.6-0.5-1-1.3-0.7-2.6c0.3-1.2,1.3-2.1,2.2-2.4
		c0.6,0.8,0.9,2,0.5,3.2C148.1,20.6,147.2,20.9,146.4,21 M163,49.3c-3.4-2.1-8.6-4.3-16.1-5c0,0.1-0.1,0.7-0.1,1.2
		c0,0.3,0.1,0.6,0.1,0.7c7.3,0.5,12.5,2,16.1,3.3c0.1,0,0.2,0.1,0.2,0.1s0.1,0,0.1-0.1C163.2,49.4,163.2,49.4,163,49.3"/>
	<path class="st0" d="M182.3,26.7c0,1.1,0.9,2,2,2c1.1,0,2-0.9,2-2c0-1.1-0.9-2-2-2C183.2,24.7,182.3,25.6,182.3,26.7 M198.2,37.3
		c0,3.2-1.3,4.6-3,4.6c-1.8,0-2.8-1.5-2.8-4.2c0-2.8,1.6-5.1,4.5-5.1c0.6,0,1,0.1,1.4,0.2V37.3z M198.4,42.6v1c0,2.9-1.8,4-3.9,4
		c-1.9,0-3.4-0.6-3.8-0.8v2.8c0.3,0.1,1.9,0.6,4.2,0.6c4,0,6.7-1.7,6.7-7.4V30.6c-0.5-0.2-2.4-0.6-4.6-0.6c-5.6,0-8,3.8-8,7.9
		c0,3.8,1.9,6.7,5.5,6.7C196.9,44.6,198,43.1,198.4,42.6z M179.4,40.8c-0.9,0.4-2.4,0.7-3.7,0.7c-3.8,0-6.6-2.7-6.6-6.9
		c0-4.1,2.8-6.9,6.6-6.9c1.9,0,3.2,0.4,3.7,0.7v-2.9c-0.8-0.3-2.2-0.6-4.1-0.6c-5.9,0-9.8,4.1-9.8,9.8c0,5.4,3.6,9.8,9.8,9.8
		c1.8,0,3.2-0.3,4.1-0.6V40.8z M229.3,37.3c0,3.2-1.3,4.6-3,4.6c-1.8,0-2.8-1.5-2.8-4.2c0-2.8,1.6-5.1,4.5-5.1c0.6,0,1,0.1,1.4,0.2
		V37.3z M233,44.3c-0.1-0.8-0.4-2.9-0.4-4.6v-9.1c-0.5-0.2-2.4-0.6-4.6-0.6c-5.6,0-8,3.8-8,7.9c0,3.8,1.9,6.7,5.5,6.7
		c2.6,0,3.8-1.7,4.2-2.6h0.1c0,0.4,0.2,1.9,0.2,2.3L233,44.3L233,44.3z M186,30.3h-3.3v13.9h3.3V30.3z M205.2,44.3v-9.6
		c0-1.3-0.1-3.8-0.2-4.3h3l0.2,1.9h0.1c0.3-0.5,1.4-2.3,4.1-2.3c3.1,0,4.8,2.3,4.8,5.2v9h-3.3v-8.5c0-1.8-1-3.1-2.6-3.1
		c-1.8,0-2.6,1.4-2.6,3.1v8.5H205.2z"/>
	<path class="st0" d="M239.2,39.7c-0.2-0.1-0.4-0.2-0.8-0.2h-0.6v1.4h0.6c0.3,0,0.5,0,0.6-0.1c0.3-0.1,0.3-0.3,0.3-0.6
		C239.5,40,239.4,39.8,239.2,39.7 M238.5,39.1c0.4,0,0.8,0.1,1,0.2c0.3,0.2,0.6,0.5,0.6,0.9c0,0.3-0.1,0.6-0.3,0.8
		c-0.1,0.1-0.3,0.2-0.5,0.2c0.3,0.1,0.5,0.2,0.6,0.3c0.2,0.2,0.2,0.4,0.2,0.6v0.3v0.3v0.2v0.1h-0.6v-0.1v-0.4c0-0.4-0.1-0.7-0.3-0.8
		c-0.2-0.1-0.3-0.1-0.7-0.1h-0.5v1.4h-0.7v-3.7L238.5,39.1L238.5,39.1z M236.6,39c-0.6,0.6-0.8,1.3-0.8,2c0,0.8,0.3,1.5,0.8,2
		c0.6,0.6,1.3,0.8,2,0.8s1.4-0.3,2-0.8s0.8-1.3,0.8-2c0-0.8-0.3-1.5-0.8-2c-0.6-0.6-1.3-0.8-2-0.8C237.8,38.1,237.1,38.4,236.6,39
		 M240.9,43.3c-0.7,0.7-1.4,1-2.4,1c-0.9,0-1.7-0.3-2.4-1c-0.7-0.7-0.9-1.4-0.9-2.4s0.3-1.7,1-2.4c0.7-0.7,1.4-1,2.4-1
		s1.7,0.3,2.4,1c0.7,0.7,1,1.4,1,2.4C241.9,41.9,241.6,42.8,240.9,43.3"/>
</g>
</svg>
