<svg id="Layer_1" data-name="Layer 1" xmlns="http://www.w3.org/2000/svg" viewBox="0 0 100 100"><defs><style>.cls-1{fill:#4d4d4d;}</style></defs><title>Artboard 5</title><path class="cls-1" d="M76.29,25a6.64,6.64,0,1,0-10.76-7.68,36.07,36.07,0,0,0-15.46-3.45A36.54,36.54,0,1,0,76.29,25Zm-5-10a5.67,5.67,0,0,1,5.66,5.65,5.67,5.67,0,0,1-5.66,5.66,5.67,5.67,0,0,1-5.66-5.66,5.49,5.49,0,0,1,.57-2.44A5.6,5.6,0,0,1,71.28,15ZM50.07,85.88a35.5,35.5,0,0,1,0-71,35.15,35.15,0,0,1,15,3.33,6.51,6.51,0,0,0-.47,2.42,6.65,6.65,0,0,0,11,5.08A35.49,35.49,0,0,1,50.07,85.88Z"/><path class="cls-1" d="M60.48,78.07a8.57,8.57,0,0,1-6.18-3,18.39,18.39,0,0,1-1.64-2.32A15.2,15.2,0,0,0,51,70.51a3.15,3.15,0,0,0-2.47-1.22,4.26,4.26,0,0,0-2.26,1.26,23.8,23.8,0,0,0-2,2.23c-2.21,2.63-5,5.9-8.34,4.73a5.91,5.91,0,0,1-2.56-1.85c-3-3.57-3.77-5.84-4.28-10.47-1.17-10.51-1.77-21.67,1.73-32.1a13.31,13.31,0,0,1,3.6-5.78c3-2.59,7.17-2.64,12.45-.14h0c2.63,1.24,5,.36,7.61-.57,2-.74,4.17-1.51,6.48-1.22,7.75,1,9.37,10.73,10.15,15.42,1.23,7.46.34,15.05-.7,21.48-.9,5.58-2,9.19-5.18,13.41a5.81,5.81,0,0,1-4.54,2.37ZM48.73,68.29a4.23,4.23,0,0,1,3.05,1.55,16.64,16.64,0,0,1,1.73,2.41,16.12,16.12,0,0,0,1.54,2.19,7.49,7.49,0,0,0,5.61,2.62,4.85,4.85,0,0,0,3.79-2c3.1-4,4.11-7.54,5-13,1-6.35,1.9-13.83.69-21.16C69,33.84,67,27.14,60.85,26.38a13.08,13.08,0,0,0-6,1.16c-2.64,1-5.38,1.95-8.38.53-4.88-2.31-8.71-2.31-11.36,0a12.35,12.35,0,0,0-3.31,5.35c-3.44,10.24-2.84,21.28-1.69,31.67.49,4.4,1.18,6.56,4.05,9.93a5.13,5.13,0,0,0,2.12,1.56c2.74,1,5.14-1.91,7.26-4.44a24.24,24.24,0,0,1,2.13-2.33,5,5,0,0,1,2.84-1.5Z"/></svg>