<?xml version="1.0" encoding="utf-8"?>
<!-- Generator: Adobe Illustrator 23.0.0, SVG Export Plug-In . SVG Version: 6.00 Build 0)  -->
<svg version="1.1" id="Layer_2" xmlns="http://www.w3.org/2000/svg" xmlns:xlink="http://www.w3.org/1999/xlink" x="0px" y="0px"
	 viewBox="0 0 100 100" style="enable-background:new 0 0 100 100;" xml:space="preserve">
<style type="text/css">
	.st0{fill:#4D4D4D;}
</style>
<g>
	<g>
		<path class="st0" d="M59.7,49.7c-0.8-4.7-2.4-14.5-10.1-15.4c-2.3-0.3-4.4,0.5-6.5,1.2c-2.6,0.9-5,1.8-7.6,0.6
			c-5.3-2.5-9.5-2.5-12.5,0.1c-1.7,1.6-2.9,3.6-3.6,5.8c-3.5,10.4-2.9,21.6-1.7,32.1c0.5,4.6,1.2,6.9,4.3,10.5
			c0.7,0.8,1.5,1.5,2.5,1.9c3.4,1.2,6.1-2.1,8.3-4.7c0.6-0.8,1.3-1.5,2-2.2c0.6-0.7,1.4-1.1,2.3-1.3c1,0,1.9,0.5,2.5,1.2
			s1.1,1.5,1.6,2.3s1.1,1.6,1.7,2.3c1.5,1.8,3.8,2.9,6.2,3h0.2c1.8,0,3.5-0.9,4.5-2.4c3.2-4.2,4.3-7.8,5.2-13.4
			C60.1,64.7,61,57.2,59.7,49.7z M58,71.1c-0.9,5.4-1.9,8.9-5,13c-0.9,1.2-2.3,2-3.8,2c-2.2,0-4.2-1-5.6-2.6
			c-0.6-0.7-1.1-1.4-1.5-2.2c-0.5-0.9-1.1-1.7-1.7-2.4c-0.8-0.9-1.9-1.5-3.1-1.6h-0.2c-1.1,0.2-2.1,0.7-2.8,1.5
			c-0.8,0.7-1.5,1.5-2.1,2.3c-2.1,2.5-4.5,5.4-7.3,4.4c-0.8-0.3-1.6-0.9-2.1-1.6c-2.9-3.4-3.6-5.5-4-9.9
			c-1.2-10.4-1.8-21.5,1.6-31.7c0.6-2,1.8-3.9,3.3-5.3c2.7-2.3,6.5-2.3,11.4,0c1.3,0.6,2.8,0.8,4.2,0.6c0.8,1,5.3,6.8,7.5,11.4
			c1.1,2.4,5.7,2.9,8.9,2.9c1.6,0,2.9-0.1,3.2-0.1l-0.1-1c-2.7,0.3-9.9,0.4-11.1-2.1c-2.1-3.9-4.5-7.7-7.3-11.2c1-0.3,2-0.6,3-1
			c1.9-0.9,3.9-1.3,6-1.2c6.2,0.8,8.1,7.5,9.3,14.6C59.9,57.2,59.1,64.7,58,71.1z"/>
		<circle class="st0" cx="53.9" cy="46.4" r="0.9"/>
		<circle class="st0" cx="51.2" cy="41.1" r="0.9"/>
		<circle class="st0" cx="49.4" cy="44.7" r="0.9"/>
		<circle class="st0" cx="46.7" cy="39.2" r="0.9"/>
		<path class="st0" d="M54.4,18.7l15.5-2.8c0.9-0.1,1.8-0.2,2.8-0.2h10.1v-1H72.7c-1,0-2,0.1-2.9,0.2l-15.4,2.7l0.1,0.7
			c0-3-2.5-5.5-5.5-5.5h-3.5c-3,0-5.5,2.5-5.5,5.5v3c0,3,2.5,5.5,5.5,5.5H47v3.3h-3v1h7v-1h-3v-3.3h1.1c2.6,0,4.8-1.8,5.4-4.3
			L69.6,25c1,0.1,1.9,0.2,2.9,0.2l10.3,0v-1l-10.6,0c-0.9,0-1.8-0.1-2.8-0.2l-15.1-2.3 M53.4,21.6c0,2.5-2,4.5-4.5,4.5h-3.5
			c-2.5,0-4.5-2-4.5-4.5v-3c0-2.5,2-4.5,4.5-4.5h3.5c2.5,0,4.5,2,4.5,4.5V21.6z"/>
	</g>
	<circle class="st0" cx="82.8" cy="15.3" r="0.5"/>
	<circle class="st0" cx="82.8" cy="24.6" r="0.5"/>
</g>
</svg>
