<svg id="Layer_1" data-name="Layer 1" xmlns="http://www.w3.org/2000/svg" viewBox="0 0 100 100"><defs><style>.cls-1{fill:#4d4d4d;}</style></defs><title>Artboard 4</title><path class="cls-1" d="M61.21,50.72C60.43,46,58.81,36.27,51.07,35.3c-2.31-.29-4.43.48-6.48,1.22-2.57.93-5,1.81-7.61.57-5.28-2.5-9.47-2.45-12.45.14A13.26,13.26,0,0,0,20.93,43C17.43,53.44,18,64.6,19.2,75.11c.51,4.63,1.23,6.9,4.28,10.47A5.94,5.94,0,0,0,26,87.43c3.38,1.18,6.14-2.1,8.35-4.73a21.33,21.33,0,0,1,2-2.23,4.13,4.13,0,0,1,2.26-1.26,3.3,3.3,0,0,1,2.47,1.22,16.79,16.79,0,0,1,1.62,2.27A16.55,16.55,0,0,0,44.4,85a8.54,8.54,0,0,0,6.17,3h.22a5.84,5.84,0,0,0,4.55-2.37c3.23-4.23,4.28-7.83,5.18-13.41C61.56,65.76,62.45,58.18,61.21,50.72ZM59.53,72c-.87,5.41-1.88,8.9-5,13a4.85,4.85,0,0,1-3.78,2,7.48,7.48,0,0,1-5.61-2.63,15.42,15.42,0,0,1-1.54-2.18,17.44,17.44,0,0,0-1.73-2.41,4.27,4.27,0,0,0-3.06-1.55h-.24a5.11,5.11,0,0,0-2.84,1.51,24.24,24.24,0,0,0-2.13,2.33c-2.12,2.52-4.52,5.39-7.25,4.43a5,5,0,0,1-2.12-1.55c-2.88-3.37-3.56-5.53-4-9.93C19,64.6,18.43,53.57,21.87,43.33A12.44,12.44,0,0,1,25.18,38c2.66-2.31,6.48-2.3,11.37,0a7.37,7.37,0,0,0,4.23.63c.78,1,5.35,6.79,7.55,11.4,1.14,2.41,5.66,2.86,8.86,2.86,1.61,0,2.88-.12,3.24-.15l-.1-1c-2.68.26-9.9.39-11.1-2.14A69.72,69.72,0,0,0,41.9,38.43a27.36,27.36,0,0,0,3-1,13.22,13.22,0,0,1,6-1.17c6.15.77,8.09,7.47,9.27,14.59C61.44,58.2,60.56,65.68,59.53,72Z"/><circle class="cls-1" cx="55.38" cy="47.41" r="0.9"/><circle class="cls-1" cx="52.68" cy="42.01" r="0.9"/><circle class="cls-1" cx="50.88" cy="45.61" r="0.9"/><circle class="cls-1" cx="48.18" cy="40.21" r="0.9"/><path class="cls-1" d="M52.85,18.76,68.37,16a21.47,21.47,0,0,1,2.77-.18H81.72v-1H71.14a20.67,20.67,0,0,0-2.92.2L52.85,17.74v-.23a5.51,5.51,0,0,0-5.5-5.5H43.83a5.51,5.51,0,0,0-5.5,5.5v4a5.51,5.51,0,0,0,5.5,5.5h1.45v4.29h-3v1h7v-1h-3V27h1.07a5.51,5.51,0,0,0,5.35-4.25l15.1,2.35a23.41,23.41,0,0,0,2.9.19H81.28v-1H70.7a21.2,21.2,0,0,1-2.76-.18l-15.1-2.35c0-.09,0-.17,0-.26Zm-1,2.76a4.51,4.51,0,0,1-4.5,4.5H43.83a4.51,4.51,0,0,1-4.5-4.5v-4a4.51,4.51,0,0,1,4.5-4.5h3.52a4.51,4.51,0,0,1,4.5,4.5Z"/></svg>