<?xml version="1.0" encoding="utf-8"?>
<!-- Generator: Adobe Illustrator 23.0.0, SVG Export Plug-In . SVG Version: 6.00 Build 0)  -->
<svg version="1.1" id="Layer_2" xmlns="http://www.w3.org/2000/svg" xmlns:xlink="http://www.w3.org/1999/xlink" x="0px" y="0px"
	 viewBox="0 0 100 100" style="enable-background:new 0 0 100 100;" xml:space="preserve">
<style type="text/css">
	.st0{fill:#4D4D4D;}
</style>
<g>
	<path class="st0" d="M50.9,70.9c-1.9,0.1-3.7-0.5-5.2-1.6c-2.3-1.8-3.2-3.5-3-5.3c0.3-2.1,4.5-4.1,5.6-4.4l0,0
		c0.5-0.1,1.1,0.1,2,0.6c0.3,0.2,0.6,0.3,1,0.4c0.8,0.2,1.6,0.1,2.4-0.2c0.3-0.1,0.6-0.2,0.9-0.3c1.2-0.3,2,0.4,2.8,1l0.6,0.5
		c0.2,0.1,0.4,0.3,0.7,0.4c0.9,0.4,1.5,1.1,1.8,1.9c0.4,2.2-0.7,4.4-2.8,5.4c-1.7,0.8-3.6,1.2-5.5,1.4
		C51.9,70.9,51.4,70.9,50.9,70.9z M48.5,60.6c-1.3,0.3-4.7,2.2-4.8,3.5c-0.2,1.3,0.7,2.9,2.6,4.4c1.7,1.2,3.8,1.7,5.9,1.3
		c1.8-0.2,3.5-0.6,5.2-1.3c1.6-0.7,2.5-2.5,2.2-4.3c-0.1-0.6-0.8-0.9-1.4-1.3c-0.3-0.1-0.5-0.3-0.8-0.5c-0.2-0.2-0.4-0.4-0.7-0.5
		c-0.8-0.7-1.2-1-1.9-0.8c-0.3,0.1-0.6,0.2-0.8,0.3c-0.9,0.3-1.8,0.4-2.8,0.2c-0.5-0.1-1-0.3-1.4-0.5C49.5,60.9,49,60.7,48.5,60.6z"
		/>
	<path class="st0" d="M67.8,46.6L67.8,46.6l0.1,0.7l0,0v0.1l0,0v0.1c2.1-0.2,4.2-0.4,5.8,0.6h0.1l0.4-0.7h-0.1
		C72.3,46.2,70.1,46.3,67.8,46.6z"/>
	<path class="st0" d="M36.3,45.8c-2.3-0.3-4.5-0.4-6.3,0.7h-0.1l0.4,0.7h0.1c1.6-1,3.7-0.9,5.8-0.6v-0.2l0,0l0.1-0.5V45.8z"/>
	<path class="st0" d="M31.9,49.9c-1.5,1-1.2,4.5,0.7,4.8c3.2,0.4,3.1-3,2.8-4c-0.6-1.1-2-1.6-3.1-1C32.1,49.7,32,49.8,31.9,49.9z
		 M33.6,52.4c-0.7-0.1-0.8-1.4-0.3-1.8c0.4-0.3,0.9-0.2,1.2,0.2l0.1,0.1C34.8,51.2,34.8,52.5,33.6,52.4z"/>
	<path class="st0" d="M68.6,51c-1.5,1-1.2,4.5,0.7,4.8c3.2,0.4,3.1-3,2.8-4c-0.6-1.1-2-1.5-3.1-1C68.8,50.8,68.7,50.9,68.6,51z
		 M70.3,53.5c-0.7-0.1-0.8-1.4-0.3-1.8c0.4-0.3,0.9-0.2,1.2,0.2c0,0,0,0.1,0.1,0.1C71.5,52.3,71.6,53.6,70.3,53.5z"/>
	<path class="st0" d="M51.7,54.5c-0.7-0.1-1.5,0.2-2,0.8c-0.5,0.5-0.3,0.9,0.2,0.6c1-0.7,2.3-0.8,3.3-0.2c0.6,0.3,0.7-0.2,0.2-0.6
		C53,54.7,52.4,54.5,51.7,54.5z"/>
	<path class="st0" d="M81.2,47.9c-0.3-1.3-1-3.5-1.2-4c-0.3-1.3-0.8-2.5-1.4-3.7c-3.6-6.9-10.1-8.4-17.1-9.6
		c-2.8-0.5-5.6-0.8-8.5-0.8c0.1-0.7,0.5-2.8,3.5-4.6L56,24.4c-3.4,2-3.9,4.6-4,5.4h-1.5c0.5-2.4,1.4-4.8,2.4-7.1L52,22.3
		c-1.1,2.4-2,5-2.6,7.6h-0.8c-0.1-1.8-1.1-5.1-4.4-5.5l-0.1,1c3.1,0.4,3.5,3.9,3.5,4.6c-1.3,0.1-2.6,0.3-3.9,0.5S41.2,31,40,31.3
		c-3.4,0.8-6.8,1.9-10,3.2c-5.4,2.4-9.2,7.8-10.8,13.6c-3.3-0.7-7.2,1-7.3,4.6c-0.1,3.1,2.7,5.8,5.8,6.1c0.4,0.1,1.1,3,1.3,3.4
		c4.1,11.1,18.3,15,28.9,15.4c4.3,0.2,8.6-0.2,12.8-1.1c5-1.1,10.1-2.8,14.2-5.9c2.4-1.8,4.3-4.2,5.6-6.8c0.5-1,1-2.1,1.6-3.2
		c0.2-0.3,0.7-1.8,1.2-1.9c3-0.4,5.1-3.1,4.8-6.1C88,49.1,84.4,47.4,81.2,47.9z M84.6,56.7c-1.1,0.4-2.7-0.1-3.7,0.4
		s-0.3,1.5,0.6,1.6c0.4,0.2-2.3,5.3-2.5,5.7c-1.8,3.1-4.5,5.7-7.7,7.2c-9.5,4.7-20.2,6-30.6,3.8c-2.7-0.6-5.4-1.3-8-2.3
		c-5.1-1.9-9.6-5-11.9-10.1c-0.2-0.4-1.7-4.4-1.8-4.4c0.8-0.1,1.6-1,0.5-1.6s-2.6,0-3.7-0.4c-2-0.6-3.1-2.7-2.5-4.7
		c0.5-1.5,1.8-2.5,3.3-2.6c1.3,0,2.5-0.2,3.8-0.5c0.4-0.1,0.7-0.3,0.9-0.6c0.1-0.2,0.2-0.5,0.1-0.7c-0.4,0.1-0.7,0.1-1.1,0.1
		c0.3-1.3,0.9-2.6,1.5-3.8c0.7-1.5,1.6-2.9,2.7-4.1c2.6-2.6,5.7-4.6,9.2-5.7c9.6-3.5,20-4.3,30.1-2.2c2.4,0.4,4.8,1.2,7,2.2
		c2.4,1.2,4.4,3,5.9,5.2c0.8,1.1,1.5,2.3,2,3.6c0.2,0.5,1,3.6,1.4,4.9h-0.2c-0.4,0-0.8,0-1.1-0.1c0,0.2,0,0.5,0.1,0.7
		c0.2,0.3,0.5,0.5,0.9,0.6c1.2,0.3,2.5,0.4,3.8,0.5c2.1,0.1,3.7,1.9,3.5,4C87.2,54.9,86.1,56.3,84.6,56.7z"/>
	<path class="st0" d="M51.9,63.9L51.9,63.9c-0.8,0-1-0.8-1-1.1c-0.1-0.4-0.1-0.8,0-1.2c0-0.3,0.2-0.5,0.4-0.6c0.1,0,0.2-0.1,0.3-0.1
		h0.2l0,0c0.3,0,0.5,0,0.8,0c0.2,0,0.5,0,0.7,0c0.4,0,0.7,0.2,0.8,0.6c0.1,0.5,0.1,1-0.1,1.5c-0.1,0.5-0.6,0.9-1.2,0.8
		c-0.1,0-0.2-0.1-0.3-0.1c0,0,0,0-0.1,0C52.4,63.9,52.1,63.9,51.9,63.9z M51.8,62c0,0.2,0,0.4,0,0.6c0.1,0.2,0.1,0.3,0.1,0.3
		s0.1,0,0.1-0.1c0.3-0.1,0.5-0.1,0.8-0.1c0.1,0,0.1,0,0.2,0c0-0.3,0-0.5,0-0.8h-0.6C52.2,62,52,62,51.8,62z"/>
</g>
</svg>
