<svg id="Layer_1" data-name="Layer 1" xmlns="http://www.w3.org/2000/svg" viewBox="0 0 100 100"><defs><style>.cls-1{fill:#4d4d4d;}</style></defs><title>Artboard 3</title><path class="cls-1" d="M51.64,67.28a8.26,8.26,0,0,1-5.2-1.64c-2.25-1.75-3.23-3.48-3-5.29.25-2.14,4.5-4.11,5.57-4.38h0c.47-.11,1.06.15,2,.59A5.8,5.8,0,0,0,52,57a4.55,4.55,0,0,0,2.39-.19,8.94,8.94,0,0,1,.94-.3c1.24-.32,2,.38,2.83,1.05l.6.51c.2.14.43.28.67.43a3.37,3.37,0,0,1,1.84,1.93,5,5,0,0,1-2.77,5.37,18.51,18.51,0,0,1-5.46,1.43A14.15,14.15,0,0,1,51.64,67.28ZM49.23,57c-1.28.32-4.65,2.18-4.81,3.52s.69,2.87,2.64,4.38a7.81,7.81,0,0,0,5.87,1.35,17.26,17.26,0,0,0,5.15-1.32,3.94,3.94,0,0,0,2.24-4.25c-.14-.56-.77-.94-1.38-1.31a6.83,6.83,0,0,1-.77-.49c-.23-.18-.44-.36-.65-.54-.78-.68-1.22-1-1.92-.84a6,6,0,0,0-.84.27A5.54,5.54,0,0,1,52,58a4.59,4.59,0,0,1-1.38-.51A4.57,4.57,0,0,0,49.23,57Z"/><path class="cls-1" d="M68.48,42.93V43l.07.59h0v.08h0v.07c2.13-.24,4.18-.37,5.77.62l.07,0,.43-.7-.06,0C73,42.54,70.77,42.67,68.48,42.93Z"/><path class="cls-1" d="M37,42.19c-2.28-.26-4.48-.39-6.3.74l-.07,0,.44.7.06,0c1.6-1,3.65-.86,5.78-.62l0-.15h0l.06-.53Z"/><path class="cls-1" d="M32.6,46.23c-1.46,1-1.21,4.53.66,4.76,3.21.38,3.06-3,2.75-4A2.29,2.29,0,0,0,32.6,46.23Zm1.73,2.51c-.71-.09-.81-1.42-.25-1.8a.86.86,0,0,1,1.29.28C35.49,47.6,35.54,48.89,34.33,48.74Z"/><path class="cls-1" d="M69.33,47.34c-1.46,1-1.2,4.52.66,4.75,3.21.38,3.06-3,2.75-4A2.29,2.29,0,0,0,69.33,47.34Zm1.73,2.5c-.71-.09-.81-1.42-.26-1.81a.88.88,0,0,1,1.3.29C72.22,48.7,72.28,50,71.06,49.84Z"/><path class="cls-1" d="M52.45,50.87a2.54,2.54,0,0,0-2,.76c-.53.47-.29.95.21.6A3,3,0,0,1,54,52c.55.26.68-.17.22-.58A2.58,2.58,0,0,0,52.45,50.87Z"/><path class="cls-1" d="M81.88,44.25c-.3-1.29-1-3.55-1.19-4a21.1,21.1,0,0,0-1.38-3.73c-3.56-6.94-10.13-8.41-17.13-9.58a60.27,60.27,0,0,0-8.48-.83c.07-.67.5-2.79,3.47-4.56l-.51-.85c-3.43,2.05-3.9,4.59-4,5.4H51.2A33.87,33.87,0,0,1,53.64,19l-.9-.43a36,36,0,0,0-2.58,7.58l-.76,0c-.09-1.83-1.08-5.09-4.36-5.54l-.14,1c3.09.42,3.46,3.89,3.51,4.63-1.29.11-2.58.25-3.86.47s-2.48.47-3.71.78a63.16,63.16,0,0,0-10,3.24c-5.42,2.45-9.21,7.84-10.8,13.6-3.26-.71-7.19,1-7.33,4.62-.11,3.13,2.73,5.76,5.76,6.09.4.08,1.12,3,1.27,3.37C23.86,69.52,38,73.45,48.64,73.86a51.48,51.48,0,0,0,12.81-1.11c5-1.07,10.1-2.78,14.22-5.91A19.29,19.29,0,0,0,81.23,60c.52-1,1-2.12,1.57-3.16.17-.33.74-1.83,1.2-1.88a5.56,5.56,0,0,0,4.85-6.06C88.73,45.44,85.07,43.73,81.88,44.25Zm3.46,8.83c-1.11.43-2.74-.1-3.68.39s-.28,1.47.55,1.56c.38.16-2.27,5.26-2.52,5.73A17.87,17.87,0,0,1,72,68a46.86,46.86,0,0,1-30.57,3.85,56.46,56.46,0,0,1-8-2.31c-5.1-1.89-9.59-5-11.89-10.08-.18-.41-1.72-4.44-1.8-4.43.83-.09,1.62-1,.55-1.56s-2.57,0-3.68-.39a3.76,3.76,0,0,1,.82-7.34,20.92,20.92,0,0,0,3.79-.49,1.53,1.53,0,0,0,.92-.62,1.15,1.15,0,0,0,.11-.71,6,6,0,0,1-1.07.11,17.68,17.68,0,0,1,1.5-3.83,17.41,17.41,0,0,1,2.69-4.12,22.46,22.46,0,0,1,9.23-5.74,54.32,54.32,0,0,1,30.07-2.16,27.61,27.61,0,0,1,7,2.2,16,16,0,0,1,5.87,5.2,20.56,20.56,0,0,1,2,3.56c.23.53,1,3.59,1.42,4.88h-.17a5.8,5.8,0,0,1-1.14-.11,1.15,1.15,0,0,0,.11.71,1.53,1.53,0,0,0,.92.62,20.92,20.92,0,0,0,3.79.49A3.76,3.76,0,0,1,85.34,53.08Z"/><path class="cls-1" d="M52.62,60.3h0c-.79,0-1-.85-1-1.11a3.31,3.31,0,0,1,0-1.16.71.71,0,0,1,.41-.58.82.82,0,0,1,.3-.08l.23,0h0a5.44,5.44,0,0,1,.81,0,6.09,6.09,0,0,0,.74,0,.72.72,0,0,1,.77.61,3.22,3.22,0,0,1-.07,1.49,1,1,0,0,1-1.48.67s0,0-.07,0A1.22,1.22,0,0,1,52.62,60.3Zm-.14-1.93a1.91,1.91,0,0,0,0,.58c.06.24.1.32.13.34s.05,0,.09-.06a1.13,1.13,0,0,1,.8-.06.34.34,0,0,0,.17,0,2.28,2.28,0,0,0,0-.81l-.57,0A5.66,5.66,0,0,0,52.48,58.37Z"/></svg>