<?xml version="1.0" encoding="utf-8"?>
<!-- Generator: Adobe Illustrator 23.0.0, SVG Export Plug-In . SVG Version: 6.00 Build 0)  -->
<svg version="1.1" id="Layer_2" xmlns="http://www.w3.org/2000/svg" xmlns:xlink="http://www.w3.org/1999/xlink" x="0px" y="0px"
	 viewBox="0 0 100 100" style="enable-background:new 0 0 100 100;" xml:space="preserve">
<style type="text/css">
	.st0{fill:#4D4D4D;}
</style>
<g>
	<title>Artboard 9</title>
	<path class="st0" d="M43.6,61.7c-1.4,0-2.8-0.7-3.8-1.8c-0.4-0.4-0.7-0.9-1-1.4s-0.6-0.9-0.9-1.3c-0.3-0.4-0.8-0.6-1.3-0.7
		c-0.5,0.1-0.9,0.3-1.2,0.7c-0.4,0.4-0.8,0.8-1.2,1.3c-1.3,1.6-3,3.6-5.1,2.8c-0.6-0.2-1.2-0.6-1.6-1.1C26,58.5,25.1,56.3,25,54
		c-0.7-6.2-1-12.7,1-18.8c0.4-1.3,1.2-2.5,2.2-3.5c1.8-1.6,4.3-1.6,7.5-0.1l0,0c1.5,0.7,2.8,0.2,4.3-0.3c1.2-0.6,2.5-0.8,3.9-0.7
		c4.7,0.6,5.6,6.4,6.1,9.2c0.5,4.2,0.4,8.4-0.4,12.6c-0.5,3.3-1.2,5.4-3.1,7.9c-0.7,0.9-1.7,1.4-2.8,1.5L43.6,61.7z M36.7,55.5
		c0.8,0,1.5,0.4,1.9,1c0.4,0.4,0.7,0.9,1,1.4c0.3,0.4,0.6,0.9,0.9,1.3c0.8,0.9,1.9,1.4,3.1,1.5c0.8,0,1.5-0.4,2-1.1
		c1.8-2.3,2.4-4.3,2.9-7.5c0.8-4,0.9-8.2,0.4-12.3c-0.7-4.1-1.8-7.9-5.2-8.3c-1.1,0-2.3,0.2-3.3,0.6c-1.6,0.6-3.2,1.2-5,0.3
		c-2.8-1.3-4.9-1.3-6.4,0c-0.9,0.8-1.5,1.9-1.9,3c-2,5.9-1.6,12.3-1,18.4c0.1,2.1,0.9,4.1,2.3,5.7c0.3,0.4,0.7,0.7,1.2,0.8
		c1.5,0.5,2.8-1.1,4-2.5c0.4-0.5,0.8-0.9,1.3-1.4S36,55.6,36.7,55.5L36.7,55.5z"/>
	<path class="st0" d="M35.8,64.1c-0.1,0-0.1-0.1-0.2-0.2l0.2-0.1l-0.3,0c-2.9,0.1-5.8-0.2-8.6-0.6c-2.6-0.4-5.3-0.6-8-0.6
		c-0.8,0-1.4-0.6-1.5-1.4c-0.4-4.1-0.3-7.8,1.3-12.2c0.3-0.9,0.9-1.8,1.7-2.5c1.1-0.9,2.7-1,4.6-0.5c0-0.3,0-0.6,0.1-0.9
		c-2.2-0.6-4-0.5-5.3,0.6c-0.9,0.8-1.6,1.8-2,2.9c-1.7,4.5-1.8,8.3-1.3,12.6c0.2,1.3,1.3,2.4,2.6,2.4c2.7,0.1,5.3,0.3,7.9,0.6
		c2.4,0.3,4.9,0.5,7.4,0.6c0.5,0,1,0,1.4,0l1.1,0L35.8,64.1z"/>
	<path class="st0" d="M83.7,52.4c-0.4-2.3-1.3-7.1-5.5-7.6c-1.1-0.1-2.4,0.2-3.4,0.6c-0.2,0.1-0.4,0.2-0.6,0.2
		c0.2,0.2,0.3,0.6,0.4,0.9c0.2-0.1,0.3-0.1,0.5-0.2c1-0.4,2-0.6,3-0.6c3.5,0.4,4.3,4.8,4.7,6.8c0.4,3.1,0.3,6.2-0.2,9.3
		c-0.1,0.5-0.4,0.9-0.9,1.1c-0.4,0.2-0.8,0.2-1.3,0.2c-1.4,0.1-2.9,0.1-4.3,0c-0.2,0.3-0.4,0.7-0.7,0.9c1,0.1,2,0.2,3,0.2
		c0.7,0,1.3,0,2,0c0.6,0,1.1-0.2,1.6-0.3c0.8-0.3,1.4-1.1,1.5-1.9C84.1,58.8,84.2,55.6,83.7,52.4z"/>
	<path class="st0" d="M35.1,63.8c2.3-0.1,4.5-0.1,6.6,0c2.9,0.2,5.9,0.2,8.8-0.1l3.4-0.3l0.5,0.4c0,0.1,0.2,0.4,0.2,0.4l-2.6,0.3
		l-1.4,0.2c-0.4,0.1-0.9,0.1-1.3,0.2C48.4,65,47.4,65,46.4,65c-1.6,0-3.1-0.1-4.6-0.2c-2.1-0.1-2.9-0.2-5.2-0.1"/>
	<path class="st0" d="M34.2,64.2c0-0.1,0-0.2,0-0.3"/>
	<path class="st0" d="M73.6,65.8c-1.3,0.4-2.9,0.1-4.2-0.7c-0.5-0.3-0.9-0.7-1.4-1.1c-0.4-0.4-0.8-0.7-1.2-1s-0.9-0.4-1.4-0.3
		c-0.5,0.2-0.8,0.5-1,1c-0.3,0.5-0.5,1-0.8,1.6c-0.8,1.9-1.9,4.3-4.1,4.1c-0.6,0-1.3-0.2-1.8-0.6c-1.9-1.2-3.4-3.1-4.1-5.2
		c-2.4-5.8-4.5-11.9-4.3-18.3c0-1.4,0.4-2.7,1.1-4c1.3-2,3.7-2.7,7.2-2.2l0,0c1.6,0.3,2.7-0.6,4-1.5c1-0.9,2.2-1.5,3.5-1.8
		c4.7-0.7,7.2,4.6,8.4,7.1c1.7,3.9,2.7,7.9,3.2,12.2c0.4,3.3,0.4,5.5-0.8,8.5c-0.4,1.1-1.2,1.8-2.3,2.2L73.6,65.8z M65.3,61.8
		c0.8-0.2,1.6,0,2.1,0.4c0.5,0.3,0.9,0.7,1.4,1.1c0.4,0.3,0.8,0.7,1.2,1c1,0.6,2.2,0.8,3.4,0.6c0.8-0.2,1.3-0.8,1.6-1.6
		c1.1-2.7,1.1-4.8,0.7-8c-0.4-4.1-1.4-8.1-3.1-11.9c-1.8-3.7-3.9-7.1-7.3-6.5c-1.1,0.3-2.2,0.8-3,1.5c-1.4,1-2.7,2.1-4.7,1.7
		c-3.1-0.5-5.1,0.1-6.1,1.8c-0.6,1-0.9,2.2-1,3.4c-0.3,6.2,1.9,12.3,4.2,17.9c0.7,2,2,3.7,3.8,4.8c0.4,0.3,0.9,0.5,1.4,0.4
		c1.6,0.1,2.4-1.8,3.1-3.5c0.2-0.6,0.5-1.1,0.9-1.7S64.6,62.1,65.3,61.8L65.3,61.8z"/>
</g>
</svg>
