<svg id="Layer_1" data-name="Layer 1" xmlns="http://www.w3.org/2000/svg" viewBox="0 0 100 100"><defs><style>.cls-1{fill:#4d4d4d;}</style></defs><title>Artboard 6</title><polygon class="cls-1" points="92.53 17.86 85.65 15.04 85.27 15.97 86.92 16.65 82.73 22.25 83.53 22.85 87.88 17.04 89.39 17.66 85.07 23.43 85.87 24.03 90.32 18.08 90.19 17.98 92.15 18.79 92.53 17.86"/><path class="cls-1" d="M23.4,39a4,4,0,0,1,2.77-3.52c.74-.32.43-.82-.38-.73A3.42,3.42,0,0,0,23.63,36a3.41,3.41,0,0,0-1,2.65C22.62,39.63,23.31,39.82,23.4,39Z"/><path class="cls-1" d="M45.58,79.12a8.54,8.54,0,0,1-6.18-3,19,19,0,0,1-1.64-2.31,15.3,15.3,0,0,0-1.62-2.28,3.15,3.15,0,0,0-2.47-1.21,4.18,4.18,0,0,0-2.26,1.25,25.15,25.15,0,0,0-2,2.23c-2.21,2.63-5,5.91-8.34,4.73a6,6,0,0,1-2.56-1.84c-3-3.57-3.76-5.85-4.28-10.47C13,55.73,12.43,44.57,15.93,34.14a13.37,13.37,0,0,1,3.6-5.78c3-2.59,7.17-2.64,12.45-.14h0c2.63,1.24,5.05.36,7.61-.56a13.76,13.76,0,0,1,6.49-1.22c7.74,1,9.36,10.72,10.14,15.41,1.24,7.47.34,15-.7,21.48-.9,5.58-2,9.19-5.18,13.41a5.85,5.85,0,0,1-4.54,2.38ZM33.83,69.34a4.23,4.23,0,0,1,3.05,1.55,16.64,16.64,0,0,1,1.73,2.41,16.12,16.12,0,0,0,1.54,2.19,7.48,7.48,0,0,0,5.61,2.63,4.89,4.89,0,0,0,3.79-2c3.1-4,4.11-7.54,5-13,1-6.35,1.91-13.83.69-21.15C54.05,34.89,52.1,28.2,46,27.43a13,13,0,0,0-6,1.17c-2.64.95-5.37,1.94-8.38.52-4.88-2.31-8.71-2.31-11.36,0a12.32,12.32,0,0,0-3.31,5.34C13.44,44.7,14,55.74,15.19,66.14c.49,4.39,1.18,6.56,4,9.93a5.06,5.06,0,0,0,2.13,1.55c2.73.95,5.13-1.91,7.25-4.43a23.3,23.3,0,0,1,2.13-2.34,5,5,0,0,1,2.84-1.5Z"/><path class="cls-1" d="M59.29,59.17h-1V83.9l-12.43-.05c-5.52,0-11.79,0-17.87,0q-4.47,0-8.94.08h-1c-2.33.06-4.73.11-6.84-.88-3-1.4-2.93-4.15-2.59-7.34.12-1,.16-2.23.21-3.51.19-5.07.43-11.39,5-13.24L13.46,58C8.31,60.13,8.05,66.8,7.85,72.17c0,1.25-.09,2.43-.2,3.43-.28,2.6-.71,6.54,3.16,8.36a13.15,13.15,0,0,0,5.7,1c.53,0,1.06,0,1.58,0h1c3,0,6-.07,8.93-.08,6,0,11.91,0,17.87,0l13.28.05v-.22h.15Z"/><path class="cls-1" d="M90,25.36l-12.86-5.5-.39.92,3.06,1.31c-5.42,7-7.53,9.75-9.76,12.69-1.42,1.86-2.89,3.79-5.3,6.91l0,0a1.11,1.11,0,0,0-.07.16l-3.73,4.83h0v0l-.07.09,0,0-.08.31c.07.43.58.88,2.19,2l-4,5.75.82.57,4-5.75c.67.46,1.48,1,1.85,1.32v0l.16.12s0,0,0,0h0l.59.45L76,39.17c3.47-4.53,7-9.07,9.84-12.8a2.06,2.06,0,0,0,.54-1.46l3.21,1.37ZM71.38,34.61a.26.26,0,0,1-.06.21l-.06,0ZM85,25.76l-9.84,12.8-9,11.67c-.4-.33-1-.78-2-1.46A25.59,25.59,0,0,1,61.84,47c1.21-1.57,2.26-2.92,3.17-4.11a9.52,9.52,0,0,0,.85.66,4.68,4.68,0,0,1,.92.75l.91-.41a3.65,3.65,0,0,0-1.25-1.16,9.75,9.75,0,0,1-.82-.63c2.33-3,3.78-4.92,5.16-6.75a8.22,8.22,0,0,0,.94.73,5.07,5.07,0,0,1,.92.75l.91-.4a3.56,3.56,0,0,0-1.25-1.16,6.5,6.5,0,0,1-.9-.73c1.22-1.6,2.5-3.28,4.39-5.73a4,4,0,0,0,1,.63,4,4,0,0,1,.89.59l.92-.41a3,3,0,0,0-1.34-1.05,4.1,4.1,0,0,1-.75-.48.31.31,0,0,1,0,.33l-.22-.17,4.16-5.38a24.66,24.66,0,0,1,4.41,1.66c.25.12.51.27.56.43S85.14,25.6,85,25.76Z"/></svg>