<?xml version="1.0" encoding="utf-8"?>
<!-- Generator: Adobe Illustrator 23.0.0, SVG Export Plug-In . SVG Version: 6.00 Build 0)  -->
<svg version="1.1" id="Layer_1" xmlns="http://www.w3.org/2000/svg" xmlns:xlink="http://www.w3.org/1999/xlink" x="0px" y="0px"
	 viewBox="0 0 25 20" style="enable-background:new 0 0 25 20;" xml:space="preserve">
<style type="text/css">
	.st0{fill:#F05641;}
	.st1{fill:#FFFFFF;}
</style>
<g id="XMLID_12_">
	<g id="XMLID_13_">
		<path id="XMLID_15_" class="st0" d="M23.1,4.7c-0.3-1-1-1.7-1.9-2c-1.7-0.5-8.6-0.5-8.6-0.5s-6.9,0-8.6,0.5c-0.9,0.3-1.7,1-1.9,2
			C1.5,6.4,1.5,10,1.5,10s0,3.6,0.5,5.3c0.3,1,1,1.7,1.9,2c1.7,0.5,8.6,0.5,8.6,0.5s6.9,0,8.6-0.5c0.9-0.3,1.7-1,1.9-2
			c0.5-1.7,0.5-5.3,0.5-5.3S23.5,6.4,23.1,4.7z"/>
		<polygon id="XMLID_14_" class="st1" points="10.2,13.3 10.2,6.7 16,10 		"/>
	</g>
</g>
</svg>
