<?xml version="1.0" encoding="utf-8"?>
<!-- Generator: Adobe Illustrator 23.0.0, SVG Export Plug-In . SVG Version: 6.00 Build 0)  -->
<svg version="1.1" xmlns="http://www.w3.org/2000/svg" xmlns:xlink="http://www.w3.org/1999/xlink" x="0px" y="0px"
	 viewBox="0 0 1440 90" style="enable-background:new 0 0 1440 90;" xml:space="preserve">
<style type="text/css">
	.st0{fill:#FFF8F0;}
	.st1{clip-path:url(#SVGID_2_);}
	.st2{fill:#9AC0E6;}
	.st3{fill:#EAA9CB;}
	.st4{fill:#F7BE29;}
	.st5{fill:#F5BE29;}
	.st6{fill:#F05641;}
	.st7{opacity:0.58;clip-path:url(#SVGID_2_);}
	.st8{fill:#F98F8A;}
	.st9{fill:#F0553C;}
	.st10{opacity:0.7;fill:#F0553C;}
	.st11{clip-path:url(#SVGID_4_);}
	.st12{opacity:0.58;clip-path:url(#SVGID_4_);}
	.st13{opacity:0.62;clip-path:url(#SVGID_4_);}
	.st14{fill:#9ABEE4;}
	.st15{fill:#181818;}
	.st16{fill:#FFFCF8;}
	.st17{fill-rule:evenodd;clip-rule:evenodd;}
	.st18{fill:none;stroke:#FFFFFF;stroke-miterlimit:10;}
	.st19{opacity:0.25;fill:url(#);}
	.st20{opacity:0.25;fill:url(#);enable-background:new    ;}
	.st21{fill:#92D2C7;}
	.st22{fill:#F2CF80;}
	.st23{fill:#FABE15;}
	.st24{opacity:0.42;fill:url(#);}
	.st25{fill:#99BFE5;}
	.st26{fill:#4E4C49;}
	.st27{fill:#FFFFFF;}
	.st28{fill:#3B3937;}
	.st29{fill:#ECA7CA;}
	.st30{fill:#CDCECE;}
	.st31{clip-path:url(#SVGID_32_);}
	.st32{fill:none;stroke:#3B3937;stroke-width:0.25;stroke-miterlimit:10;}
	.st33{fill:#1A1A1A;}
	.st34{fill:#222221;}
	.st35{fill:none;stroke:#231F20;stroke-miterlimit:10;}
	.st36{opacity:0.8;fill:#FFF8F0;}
	.st37{display:none;}
	.st38{display:inline;fill:#FFF8F0;}
	.st39{display:inline;}
	.st40{display:inline;fill:none;stroke:#231F20;stroke-miterlimit:10;}
</style>
<g id="Layer_4">
</g>
<g id="Layer_8">
	<g>
		<g>
			<path class="st3" d="M362.2,23c9.9-1.4,18,1.3,26.9,2c0.2,0,0.2,0.3,0.1,0.3l-5.1,2.9c-0.1,0.1-0.1,0.3,0,0.3
				c2.4,0.7,4.8,1.7,6.9,3c0.1,0.1,0.1,0.3-0.1,0.3c-1.8,0.3-3.6,0.4-5.4,0.4c-0.2,0-0.3,0.2-0.1,0.3c1.4,1.1,2.3,2.7,3.7,3.8
				c0.8,0.7,0.1,0.9-1.7,0.1c-4-1.8-13.4-3.7-17.8-4.1c-7.1-0.6-7.5,0.3-14.3,2.4c-0.1,0-0.4-2.9-0.4-3.1c0-3.1-0.2-4.1,0.3-5.1
				C356.4,24.4,360,23.3,362.2,23"/>
		</g>
		<g>
			<path class="st4" d="M357.5,36.2c-0.1-0.3-0.2-0.6-0.4-0.9c1.4,0.6,2.9,1,4.5,1.2c1.1,0.1,2.4,0,2.7-1.1c0.1-0.4,0.1-0.8-0.1-1.2
				c-0.3-1-1.1-1.6-1.8-2.2c-0.9-0.8-1.6-1.7-2.3-2.6c-0.4-0.6-0.8-1.4-0.6-2.1c0.1-0.3,0.4-0.6,0.7-0.8c1.2-1,2.2-2.2,3-3.5
				c0.3-0.4,0.5-0.9,0.2-1.4c-0.1-0.2-0.4-0.4-0.6-0.5c-2.6-1-5.3,1.4-7.9,0.8c-2.2-0.5-4.4-3.3-6.6-4c-0.3-0.1-0.7-0.1-1,0
				c-1.2,0.3-1.3,1.8-1.2,3c0.1,1.7,0.5,3.5-0.8,4.8c-1.5,1.5-2.9,3.1-4.4,4.5c-0.6,0.6-1.3,1.4-0.9,2.3c0.1,0.2,0.3,0.4,0.5,0.5
				c1,0.7,2.3,0.4,3.4,0.1l3.3-0.5c0.1,0,0.3,0.1,0.3,0.2c0.7,2.8-0.2,5.9,0.6,8.5c0.3,1,1.4,1.4,2.2,0.9c0.6-0.5,1.2-1.1,1.6-1.9
				c0.7-1.2,1-2.6,1.5-3.9c0.1-0.2,0.2-0.4,0.3-0.6c0.1,0.4,0.3,0.8,0.5,1.2c1.5,3.7,3.3,7.2,5,10.8c1.9,4.1,3.7,8.2,5.6,12.4
				c0.1,0.2,0.2,0.4,0.4,0.5c0.2,0,0.4-0.1,0.5-0.2c0.7-0.5,1.3-1,1.9-1.7C364.3,51.3,360.9,43.7,357.5,36.2"/>
		</g>
	</g>
	<g>
		<path class="st4" d="M600.8,24.6c-5-2.4-10.2-2.2-12.2,3.7c-2.4,7.2-2,14.9-1.2,22.4c0.3,3,0.8,6,2.5,8.4c0.7,1,1.8,1.9,3,1.9
			c1.4,0,2.5-1.2,3.4-2.3c1.6-1.9,3.9-3.4,5.5-6.4c-0.6,1,1.7,4.8,2.3,5.7c1.7,2.8,5.7,4.7,8.1,1.6c2.3-3,3-7.4,3.6-11
			c0.8-4.9,1.3-10.1,0.5-15c-0.8-4.8-3.6-10.7-9.2-10.8c-1.5,0-2.4,0.9-3.4,1.8C602,25.9,602.6,25.5,600.8,24.6"/>
	</g>
	<g>
		<g>
			<path class="st3" d="M786.5,41.4c0.2-0.2,0.4-0.4,0.6-0.5c1-0.5,2,0.7,2.6,1.7c0-0.7,0.6-1.3,1.3-1.4c0.7-0.1,1.4,0.2,1.8,0.8
				c0.3,0.4,0.5,0.9,1,1c0.4,0.1,0.8-0.2,1.2-0.4c0.8-0.4,1.9-0.1,2.4,0.6c0.2,0.2,0.3,0.5,0.6,0.6c0.4,0.2,0.9-0.2,1.2-0.5
				c1.2-0.7,2.9,0.1,3.2,1.5c0.6-0.4,1.3-0.8,2.1-0.8c0.7,0,1.6,0.3,1.9,1c0.2,0.5,0.2,1,0.1,1.6l-0.4,5.4c0,0.2,0,0.3-0.1,0.5
				c-0.2,0.3-0.6,0.3-1,0.2c-4.9-0.8-9.6-2.4-14.5-3.2c-1.5-0.3-5.6,0.1-6.4-1.2C782.9,46.5,785.4,42.6,786.5,41.4"/>
		</g>
		<g>
			<path class="st2" d="M781.9,55c1.1,0.7,2.7,0.9,3.9,1.2c2,0.6,4,1.1,6,1.6c4,1,8.1,1.8,12.2,2.1c0.6,0.1,1.3,0.1,1.9-0.1
				c1.7-0.7,2.6-2.3,4.6-2.9c1.9-0.5,3.8-0.7,5.8-0.7c3.6-0.1,7.2,0.4,10.8,0.9c12.4,1.9,17.9,3,30.3,4.9c3.1,0.5,7.1,0.6,8.6-2.1
				c1.2-2.1,0.2-5-1.7-6.5c-1.9-1.6-6.4-0.3-8.8-0.9c-13.8-3.1-20.7-3.2-34.7-5c-3.2-0.4-6.6-0.8-9.4,0.8c-1.7,1-3.1,2.6-5,3.2
				c-1.7,0.6-3.6,0.2-5.4-0.2c-3.1-0.6-6.2-1.3-9.3-1.9c-2.2-0.5-4.7-2-7-1.5c-2.1,0.5-3.9,2.8-3.9,4.9
				C780.7,53.9,781.2,54.6,781.9,55"/>
		</g>
		<g>
			<path class="st4" d="M789.7,26.1c-0.2-0.2-0.4-0.5-0.2-0.7c0-0.1,0.1-0.1,0.2-0.1c0.5-0.2,1.3,0,1.7-0.2c0.6-0.3,0.7-1.1,1.3-1.3
				c0,0,0.1,0,0.2,0c0.1,0,0.2,0.2,0.2,0.3c0,0.4,0,0.7,0,1.1c0,0.1,0,0.2,0,0.2c0,0.2,0.2,0.2,0.4,0.3c0.3,0.1,0.5,0.1,0.8,0.1
				c0.2,0,0.4,0,0.6,0.1c0.1,0,0.1,0.1,0.2,0.2c0.1,0.3-0.1,0.5-0.3,0.6c-0.3,0.2-0.7,0.4-1.1,0.4c-0.1,0-0.2,0.1-0.3,0.1
				c-0.1,0.1-0.1,0.4,0,0.5c0.1,0.3,0.2,0.6,0.3,0.9c0,0.2,0,0.4,0,0.6c-0.1,0.2-0.3,0.3-0.5,0.2c-0.5-0.4-0.8-1-1.3-1.4
				c0,0-0.1,0-0.1,0l-0.5,0.6c-0.2,0.2-0.3,0.5-0.6,0.5c-0.1,0-0.1,0-0.2,0c-0.2-0.1-0.2-0.3-0.2-0.5c0.1-0.5,0.1-1,0.2-1.4
				C790.3,26.6,790,26.4,789.7,26.1"/>
		</g>
		<g>
			<path class="st4" d="M796.5,30.4c-0.1-0.1-0.2-0.3-0.1-0.4c0,0,0.1-0.1,0.1-0.1c0.3-0.1,0.7,0,0.9-0.1c0.3-0.1,0.4-0.6,0.7-0.7
				c0,0,0.1,0,0.1,0c0.1,0,0.1,0.1,0.1,0.1c0,0.2,0,0.4,0,0.6c0,0,0,0.1,0,0.1c0,0.1,0.1,0.1,0.2,0.2c0.1,0,0.3,0.1,0.4,0.1
				c0.1,0,0.2,0,0.3,0.1c0,0,0.1,0.1,0.1,0.1c0.1,0.1-0.1,0.2-0.2,0.3c-0.2,0.1-0.4,0.2-0.6,0.2c-0.1,0-0.1,0-0.2,0.1
				c-0.1,0.1,0,0.2,0,0.3c0.1,0.2,0.1,0.3,0.1,0.5c0,0.1,0,0.2,0,0.3c0,0.1-0.2,0.2-0.3,0.1c-0.3-0.2-0.4-0.6-0.7-0.8c0,0,0,0,0,0
				l-0.3,0.3c-0.1,0.1-0.2,0.2-0.3,0.3c0,0-0.1,0-0.1,0c-0.1-0.1-0.1-0.2-0.1-0.3c0-0.3,0.1-0.5,0.1-0.8
				C796.8,30.7,796.6,30.5,796.5,30.4"/>
		</g>
		<g>
			<path d="M788,48.5l-0.4-0.3c1.1-1.7,1.7-3.8,1.6-5.9l0.5,0C789.7,44.5,789.1,46.7,788,48.5z"/>
		</g>
		<g>
			<path d="M792.5,49.7l-0.4-0.3c0.3-0.4,0.4-0.8,0.6-1.3c0.4-1,0.7-2.1,0.9-3.1c0.1-0.7,0-1.3-0.1-1.9l0.5-0.1
				c0.2,0.6,0.2,1.4,0.1,2.1c-0.1,1.1-0.5,2.2-0.9,3.2C793,48.8,792.8,49.3,792.5,49.7z"/>
		</g>
		<g>
			<path d="M796.6,50.4l-0.5-0.2c0.3-0.8,0.6-1.6,0.9-2.4c0.5-1.5,0.9-2.9,0.5-4.2l0.5-0.2c0.5,1.4,0.1,2.9-0.5,4.5
				C797.2,48.8,796.9,49.6,796.6,50.4z"/>
		</g>
		<g>
			<path d="M801.7,51.3l-0.5-0.1c0.2-0.9,0.4-1.8,0.6-2.7c0.3-1.4,0.5-2.8,0.3-4.1l0.5-0.1c0.2,1.4,0,2.9-0.3,4.3
				C802.1,49.4,801.9,50.4,801.7,51.3z"/>
		</g>
		<g>
			<path class="st5" d="M785.8,38.2c-0.9-1.3-1.1-3.3-1.1-4.7c0-0.9,0.9-1.4,1.7-1.1c1.2,0.5,3,1.2,5.5,1.8c2.7,0.6,5.4,0.4,8.1,0.5
				c2.6,0.1,6.6,1.3,7.9,3.9c0.5,1,0.5,2.6-0.1,3.5c-1.1,1.7-3.3,2-5.2,2.1C797.6,44.3,789,43.1,785.8,38.2"/>
		</g>
	</g>
	<g>
		<g>
			<path class="st6" d="M1038.5,25.7c1.8-0.3,7.3,2.4,9.1,2.5c7.5,0.4,6.6-0.4,11.1-1.3c3.9-0.8,6.1,1.6,9.6,3.7
				c2.4,1.4,6.6,2.5,7.4,5.2c0.9,2.8-0.2,6-2.2,8.1c-2.8,3-6.9,4.1-10.7,5.1c-10,2.6-22.5,4.2-31.8-1.5c-4.2-2.6-9.8-6.7-9-12
				C1022.7,31.2,1034.9,26.4,1038.5,25.7"/>
		</g>
		<g>
			<path d="M1055.1,40.6c-3,0-6-0.1-9.1-0.3l-1.3-0.1c-6.6-0.3-15.6-0.6-21.8-5.9l0.2-0.3c5.7,4.8,13.1,5.5,21.6,5.8l1.3,0.1
				c10.2,0.4,19.9,0.8,29.2-3.3l0.1,0.3C1068.8,40,1062.1,40.6,1055.1,40.6z"/>
		</g>
	</g>
	<g>
		<g>
			<path class="st3" d="M1233.2,29.1c1.9-3.1,4.3-6,7.5-7.2c4.9-1.9,10.7-1.7,14.8,1.6c8.9,7.1,8.9,20.4,10.2,30.4
				c0.3,2-1.3,3.8-3.3,3.9c0,0-24.6-0.1-24.7-0.1c-2.7,0.1-6.4,0.7-8.9-0.8c-2.8-1.7-2.5-5.2-2.3-8c0.4-5.2,1.9-10.4,4.1-15.1
				C1231.4,32.3,1232.2,30.7,1233.2,29.1"/>
		</g>
		<g>
			<path class="st3" d="M1273.4,29.1c1.9-3.1,4.3-6,7.5-7.2c4.9-1.9,10.7-1.7,14.8,1.6c8.9,7.1,8.9,20.4,10.2,30.4
				c0.3,2-1.3,3.8-3.3,3.9c0,0-24.6-0.1-24.7-0.1c-2.7,0.1-6.4,0.7-8.9-0.8c-2.8-1.7-2.5-5.2-2.3-8c0.4-5.2,1.9-10.4,4.1-15.1
				C1271.6,32.3,1272.5,30.7,1273.4,29.1"/>
		</g>
		<g>
			<path d="M1256.6,40.6c-3.3,0-6.6-0.1-9.9-0.3c-6-0.3-12.3-0.5-18.3,0.1l-0.1-0.6c6.1-0.7,12.4-0.4,18.4-0.1
				c5.6,0.3,11.5,0.5,17.2,0l0.1,0.6C1261.5,40.5,1259.1,40.6,1256.6,40.6z"/>
		</g>
		<g>
			<path d="M1296.7,40.8c-3.3,0-6.6-0.1-9.9-0.3c-6-0.3-12.3-0.5-18.3,0.1l-0.1-0.6c6.1-0.7,12.4-0.4,18.4-0.1
				c5.6,0.3,11.5,0.5,17.2,0l0.1,0.6C1301.6,40.7,1299.2,40.8,1296.7,40.8z"/>
		</g>
		<g>
			<path class="st3" d="M1282.6,41.2l0,1c0,0,0.8,0,0.9,0c2.2-0.2,4.2,0.2,6.4-0.2c-0.1-1.1-0.1-2.3-0.3-3.4c-0.5,0-0.8,0-2.4,0
				c-1.5,0-3-0.1-4.4,0C1282.8,38.6,1282.5,40,1282.6,41.2"/>
		</g>
		<g>
			<path d="M1283.1,42.5c-0.2,0-0.5,0-0.6,0l-0.3,0l0-1.2c0-1.2,0.2-2.6,0.2-2.6l0-0.2l0.2,0c1.1-0.1,2.4-0.1,3.6,0l0.8,0
				c1.6,0,1.9,0,2.4,0l0.3,0l0,0.3c0.1,0.7,0.1,1.5,0.2,2.3c0,0.4,0.1,0.8,0.1,1.2l0,0.3l-0.3,0c-1.3,0.2-2.5,0.2-3.7,0.1
				c-0.9,0-1.8-0.1-2.8,0C1283.4,42.4,1283.3,42.5,1283.1,42.5z M1284.8,41.8c0.5,0,1,0,1.4,0c1.1,0,2.2,0.1,3.3-0.1
				c0-0.3,0-0.6-0.1-0.9c0-0.7-0.1-1.3-0.2-2c-0.4,0-0.8,0-2.2,0l-0.8,0c-1.1,0-2.3,0-3.4,0c-0.1,0.4-0.2,1.4-0.2,2.3l0,0.7
				c0.3,0,0.5,0,0.6,0C1283.9,41.8,1284.4,41.8,1284.8,41.8z"/>
		</g>
		<g>
			<path class="st3" d="M1242.5,41v1c0,0,0.8,0,0.9,0c2.2-0.3,4.2,0.1,6.4-0.3c-0.1-1.1-0.2-2.3-0.4-3.4c-0.5,0-0.8,0-2.4,0.1
				c-1.5,0-3,0-4.4,0.2C1242.6,38.4,1242.4,39.8,1242.5,41"/>
		</g>
		<g>
			<path d="M1242.2,42.2V41c-0.1-1.2,0.1-2.6,0.1-2.6l0-0.2l0.2,0c1.1-0.1,2.4-0.1,3.7-0.2l0.7,0c1.6,0,1.9,0,2.4-0.1l0.3,0l0,0.3
				c0.1,0.7,0.2,1.5,0.3,2.3c0,0.4,0.1,0.8,0.1,1.2l0,0.3l-0.3,0.1c-1.3,0.3-2.5,0.3-3.7,0.3c-0.9,0-1.8,0-2.7,0.1
				c-0.2,0-0.8,0-0.9,0L1242.2,42.2z M1242.9,38.7c0,0.4-0.1,1.4-0.1,2.3l0,0.7c0.3,0,0.5,0,0.6,0c1-0.1,1.9-0.1,2.8-0.1
				c1.1,0,2.2,0,3.3-0.2c0-0.3-0.1-0.6-0.1-0.9c-0.1-0.7-0.1-1.3-0.2-2c-0.4,0-0.8,0-2.2,0.1l-0.7,0
				C1245.1,38.5,1243.9,38.6,1242.9,38.7z"/>
		</g>
	</g>
</g>
<g id="Layer_2">
</g>
<g id="Layer_1">
	<g>
		<g>
			<path class="st2" d="M70.2,29.9c-2.3-1.1-5.2-1.8-7.3,0c-1,0.9-1.7,2.1-2.1,3.4c-2.1,6.2-1.8,13-1,19.5c0.3,2.7,0.7,4.1,2.6,6.3
				c0.4,0.5,0.9,0.8,1.4,1c2.5,0.9,4.5-2.8,6.1-4.2c0.4-0.4,1-0.8,1.6-0.8c0.7-0.1,1.3,0.3,1.8,0.8c0.8,0.9,1.2,2,2,2.8
				c1.6,1.8,4.6,2.5,6.2,0.4c2-2.6,2.6-4.9,3.1-8.1c0.7-4.3,1.1-8.8,0.4-13.1c-0.6-3.5-1.6-8.7-5.9-9.2
				C75.8,28.5,73.3,31.4,70.2,29.9"/>
		</g>
		<g>
			<path d="M80.2,51.4c-3.2,0-6.3-0.4-9.4-0.7c-3.3-0.4-6.7-0.8-10.1-0.7c0,0,0,0-0.1,0c-1.4,0-2.6-1.1-2.7-2.5
				c-0.5-5.4-0.4-10.1,1.6-15.8c0.4-1.1,1.1-2.5,2.4-3.6c2-1.6,4.7-1.6,8.2-0.1c1.9,0.8,3.5,0.2,5.3-0.3c1.4-0.5,2.8-0.9,4.3-0.8
				c5.1,0.6,6.2,6.7,6.7,9.6c0.8,4.4,0.3,8.9-0.3,12.3c-0.2,1-0.8,1.8-1.7,2.1l0,0c-0.6,0.2-1.2,0.4-1.9,0.4
				C81.8,51.4,81,51.4,80.2,51.4z M61.5,49.7c3.1,0,6.3,0.4,9.3,0.7c3.9,0.4,7.8,0.9,11.8,0.6c0.7-0.1,1.3-0.2,1.8-0.4l0,0
				c0.8-0.3,1.4-1,1.5-1.9c0.5-3.4,1.1-7.8,0.3-12.2c-0.5-2.8-1.6-8.8-6.5-9.3C78.4,27,77,27.5,75.6,28c-1.8,0.6-3.6,1.2-5.5,0.3
				c-3.4-1.5-6.1-1.5-7.9,0c-1.2,1-1.9,2.4-2.3,3.4c-2.1,5.7-2.1,10.4-1.6,15.7c0.1,1.3,1.2,2.3,2.5,2.2
				C61,49.7,61.3,49.7,61.5,49.7z"/>
		</g>
	</g>
</g>
<g id="Layer_3">
</g>
<g id="Layer_11">
</g>
<g id="Layer_12">
</g>
<g id="Layer_13">
</g>
<g id="Layer_5">
</g>
<g id="Layer_6">
</g>
<g id="Layer_7">
</g>
<g id="Layer_9">
</g>
<g id="Layer_10">
</g>
<g id="Layer_14" class="st37">
</g>
</svg>
