<?xml version="1.0" encoding="utf-8"?>
<!-- Generator: Adobe Illustrator 23.0.0, SVG Export Plug-In . SVG Version: 6.00 Build 0)  -->
<svg version="1.1" xmlns="http://www.w3.org/2000/svg" xmlns:xlink="http://www.w3.org/1999/xlink" x="0px" y="0px"
	 viewBox="0 0 360 38" style="enable-background:new 0 0 360 38;" xml:space="preserve">
<style type="text/css">
	.st0{fill:#EAA9CB;}
	.st1{fill:#FFF8F0;}
	.st2{fill:#F7BE29;}
	.st3{opacity:0.25;fill:url(#);}
	.st4{fill:#FFFFFF;}
	.st5{opacity:0.25;fill:url(#);enable-background:new    ;}
	.st6{fill:#92D2C7;}
	.st7{fill:#F2CF80;}
	.st8{fill:#FABE15;}
	.st9{opacity:0.42;fill:url(#);}
	.st10{fill:#29ABE2;}
	.st11{fill:#4E4C49;}
	.st12{fill:#99BFE5;}
	.st13{fill:#F05641;}
	.st14{fill:none;stroke:#3B3937;stroke-linecap:round;stroke-miterlimit:10;}
	.st15{clip-path:url(#SVGID_12_);}
	.st16{fill:#9AC0E6;}
	.st17{fill:#F5BE29;}
	.st18{opacity:0.58;clip-path:url(#SVGID_12_);}
	.st19{fill:none;stroke:#3B3937;stroke-width:0.25;stroke-miterlimit:10;}
	.st20{fill-rule:evenodd;clip-rule:evenodd;}
	.st21{fill:#1A1A1A;}
	.st22{fill:#222221;}
	.st23{fill:#9ABEE4;}
	.st24{fill:#181818;}
	.st25{fill:#FFFCF8;}
	.st26{clip-path:url(#SVGID_16_);}
	.st27{fill:#F98F8A;}
	.st28{fill:none;stroke:#231F20;stroke-miterlimit:10;}
	.st29{fill:none;stroke:#FFF8F0;stroke-miterlimit:10;}
	.st30{fill:#CDCECE;}
	.st31{fill:none;stroke:#FFF8F0;stroke-linecap:round;stroke-miterlimit:10;}
</style>
<g id="Layer_2">
</g>
<g id="Layer_1">
</g>
<g id="Icons">
</g>
<g id="Text">
	<g>
		<g>
			<path class="st0" d="M72.8,6.5c7.1-1,13,1,19.4,1.4c0.1,0,0.2,0.2,0.1,0.2l-3.7,2.1c-0.1,0.1-0.1,0.2,0,0.2
				c1.7,0.5,3.4,1.2,5,2.2c0.1,0.1,0.1,0.2,0,0.2c-1.3,0.2-2.6,0.3-3.9,0.3c-0.1,0-0.2,0.2-0.1,0.2c1,0.8,1.7,1.9,2.7,2.7
				c0.6,0.5,0.1,0.7-1.2,0.1c-2.9-1.3-9.6-2.7-12.8-2.9c-5.1-0.4-5.4,0.2-10.3,1.8c-0.1,0-0.3-2.1-0.3-2.2c0-2.2-0.1-3,0.2-3.7
				C68.7,7.5,71.2,6.7,72.8,6.5"/>
		</g>
		<g>
			<path class="st2" d="M69.5,15.9c-0.1-0.2-0.2-0.4-0.3-0.6c1,0.4,2.1,0.8,3.2,0.9c0.8,0.1,1.7,0,2-0.8c0.1-0.3,0.1-0.6,0-0.8
				c-0.2-0.7-0.8-1.1-1.3-1.6c-0.6-0.6-1.2-1.2-1.7-1.9c-0.3-0.4-0.6-1-0.4-1.5C71,9.3,71.3,9.1,71.4,9c0.8-0.7,1.6-1.6,2.2-2.5
				c0.2-0.3,0.4-0.6,0.1-1c-0.1-0.1-0.3-0.3-0.5-0.4c-1.9-0.7-3.8,1-5.7,0.6c-1.6-0.4-3.2-2.4-4.7-2.9c-0.2-0.1-0.5-0.1-0.7,0
				c-0.9,0.2-0.9,1.3-0.9,2.2c0.1,1.2,0.3,2.5-0.5,3.4c-1.1,1.1-2.1,2.2-3.2,3.2c-0.5,0.4-1,1-0.6,1.7c0.1,0.2,0.2,0.3,0.3,0.4
				c0.7,0.5,1.7,0.3,2.5,0.1l2.4-0.3c0.1,0,0.2,0,0.2,0.1c0.5,2-0.1,4.3,0.4,6.1c0.2,0.7,1,1,1.6,0.6c0.5-0.3,0.9-0.8,1.1-1.3
				c0.5-0.9,0.8-1.9,1.1-2.8c0.1-0.2,0.1-0.3,0.2-0.5c0.1,0.3,0.2,0.5,0.4,0.9c1.1,2.6,2.4,5.2,3.6,7.8c1.3,3,2.7,5.9,4,8.9
				c0.1,0.1,0.1,0.3,0.3,0.3c0.1,0,0.3-0.1,0.4-0.1c0.5-0.4,0.9-0.8,1.3-1.2C74.3,26.8,71.9,21.4,69.5,15.9"/>
		</g>
	</g>
	<g>
		<path class="st2" d="M132.5,7.6c-3.6-1.7-7.4-1.6-8.8,2.7c-1.7,5.2-1.5,10.8-0.9,16.2c0.2,2.1,0.6,4.3,1.8,6.1
			c0.5,0.7,1.3,1.4,2.2,1.3c1,0,1.8-0.9,2.4-1.7c1.1-1.4,2.8-2.4,4-4.6c-0.4,0.8,1.2,3.5,1.6,4.1c1.2,2,4.1,3.4,5.8,1.2
			c1.7-2.2,2.2-5.3,2.6-7.9c0.6-3.5,0.9-7.2,0.4-10.8c-0.6-3.4-2.6-7.7-6.7-7.8c-1.1,0-1.7,0.6-2.4,1.3
			C133.4,8.6,133.8,8.2,132.5,7.6"/>
	</g>
	<g>
		<g>
			<path class="st0" d="M172.1,19.7c0.1-0.1,0.3-0.3,0.5-0.4c0.7-0.4,1.5,0.5,1.9,1.2c0-0.5,0.4-0.9,0.9-1c0.5-0.1,1,0.2,1.3,0.6
				c0.2,0.3,0.4,0.6,0.7,0.7c0.3,0.1,0.6-0.2,0.9-0.3c0.6-0.3,1.4-0.1,1.8,0.5c0.1,0.2,0.2,0.4,0.4,0.4c0.3,0.1,0.6-0.2,0.9-0.3
				c0.8-0.5,2.1,0.1,2.3,1c0.5-0.3,0.9-0.6,1.5-0.6c0.5,0,1.1,0.2,1.4,0.7c0.2,0.3,0.1,0.7,0.1,1.1l-0.3,3.9c0,0.1,0,0.2-0.1,0.3
				c-0.1,0.2-0.5,0.2-0.7,0.2c-3.5-0.6-6.9-1.8-10.4-2.3c-1.1-0.2-4,0.1-4.6-0.8C169.6,23.4,171.4,20.6,172.1,19.7"/>
		</g>
		<g>
			<path class="st16" d="M168.8,29.5c0.8,0.5,2,0.6,2.8,0.9c1.4,0.4,2.9,0.8,4.3,1.2c2.9,0.7,5.8,1.3,8.8,1.5c0.5,0,1,0.1,1.4-0.1
				c1.2-0.5,1.9-1.7,3.3-2.1c1.3-0.4,2.7-0.5,4.1-0.5c2.6,0,5.2,0.3,7.8,0.7c8.9,1.4,12.9,2.2,21.8,3.5c2.3,0.3,5.1,0.4,6.2-1.5
				c0.9-1.5,0.1-3.6-1.2-4.7c-1.3-1.1-4.6-0.2-6.3-0.6c-9.9-2.2-14.9-2.3-25-3.6c-2.3-0.3-4.8-0.6-6.8,0.6c-1.3,0.7-2.2,1.9-3.6,2.3
				c-1.2,0.4-2.6,0.2-3.9-0.1c-2.2-0.5-4.5-0.9-6.7-1.4c-1.6-0.3-3.4-1.4-5-1.1c-1.5,0.3-2.8,2-2.8,3.5
				C168,28.7,168.3,29.2,168.8,29.5"/>
		</g>
		<g>
			<path class="st2" d="M174.5,8.7c-0.1-0.1-0.3-0.3-0.2-0.5c0,0,0.1-0.1,0.1-0.1c0.4-0.1,0.9,0,1.3-0.2c0.4-0.2,0.5-0.8,0.9-0.9
				c0,0,0.1,0,0.1,0c0.1,0,0.1,0.1,0.1,0.2c0,0.3,0,0.5,0,0.8c0,0.1,0,0.1,0,0.2c0,0.1,0.2,0.2,0.3,0.2c0.2,0.1,0.4,0.1,0.6,0.1
				c0.2,0,0.3,0,0.5,0.1c0.1,0,0.1,0.1,0.1,0.1c0.1,0.2-0.1,0.3-0.2,0.4c-0.2,0.1-0.5,0.3-0.8,0.3c-0.1,0-0.2,0-0.2,0.1
				c-0.1,0.1-0.1,0.3,0,0.4c0.1,0.2,0.2,0.4,0.2,0.7c0,0.1,0,0.3,0,0.4c0,0.2-0.2,0.2-0.4,0.1c-0.4-0.3-0.6-0.7-0.9-1
				c0,0-0.1,0-0.1,0l-0.4,0.4c-0.1,0.2-0.2,0.3-0.4,0.3c0,0-0.1,0-0.1,0c-0.1-0.1-0.1-0.2-0.1-0.4c0.1-0.3,0.1-0.7,0.1-1
				C174.9,9.1,174.7,8.9,174.5,8.7"/>
		</g>
		<g>
			<path class="st2" d="M179.4,11.8c-0.1-0.1-0.1-0.2-0.1-0.3c0,0,0,0,0.1,0c0.2-0.1,0.5,0,0.7-0.1c0.2-0.1,0.3-0.4,0.5-0.5
				c0,0,0.1,0,0.1,0c0.1,0,0.1,0.1,0.1,0.1c0,0.1,0,0.3,0,0.4c0,0,0,0.1,0,0.1c0,0.1,0.1,0.1,0.2,0.1c0.1,0,0.2,0,0.3,0.1
				c0.1,0,0.2,0,0.2,0.1c0,0,0.1,0,0.1,0.1c0,0.1,0,0.2-0.1,0.2c-0.1,0.1-0.3,0.1-0.4,0.2c0,0-0.1,0-0.1,0.1c0,0.1,0,0.1,0,0.2
				c0,0.1,0.1,0.2,0.1,0.4c0,0.1,0,0.1,0,0.2c0,0.1-0.1,0.1-0.2,0.1c-0.2-0.1-0.3-0.4-0.5-0.6c0,0,0,0,0,0l-0.2,0.2
				c-0.1,0.1-0.1,0.2-0.2,0.2c0,0,0,0-0.1,0c-0.1,0-0.1-0.1-0.1-0.2c0-0.2,0-0.4,0.1-0.5C179.6,12,179.5,11.9,179.4,11.8"/>
		</g>
		<g>
			<path d="M173.2,24.8l-0.3-0.2c0.8-1.3,1.2-2.8,1.2-4.3l0.3,0C174.5,21.9,174.1,23.5,173.2,24.8z"/>
		</g>
		<g>
			<path d="M176.5,25.7l-0.3-0.2c0.2-0.3,0.3-0.6,0.4-0.9c0.3-0.7,0.5-1.5,0.6-2.3c0.1-0.5,0-1-0.1-1.4l0.3-0.1
				c0.1,0.5,0.1,1,0.1,1.5c-0.1,0.8-0.4,1.6-0.6,2.3C176.8,25,176.7,25.4,176.5,25.7z"/>
		</g>
		<g>
			<path d="M179.5,26.2l-0.3-0.1c0.2-0.6,0.4-1.2,0.6-1.8c0.4-1.1,0.7-2.1,0.3-3l0.3-0.1c0.4,1,0,2.1-0.3,3.2
				C179.9,25,179.7,25.6,179.5,26.2z"/>
		</g>
		<g>
			<path d="M183.1,26.8l-0.3-0.1c0.1-0.7,0.3-1.3,0.4-2c0.2-1,0.4-2,0.2-3l0.3-0.1c0.2,1,0,2.1-0.2,3.1
				C183.4,25.5,183.2,26.2,183.1,26.8z"/>
		</g>
		<g>
			<path class="st17" d="M171.7,17.4c-0.6-0.9-0.8-2.4-0.8-3.4c0-0.6,0.6-1,1.2-0.8c0.9,0.4,2.2,0.9,4,1.3c1.9,0.4,3.9,0.3,5.8,0.4
				c1.8,0.1,4.7,1,5.7,2.8c0.4,0.7,0.3,1.9-0.1,2.5c-0.8,1.2-2.3,1.4-3.7,1.5C180.2,21.8,174,20.9,171.7,17.4"/>
		</g>
	</g>
	<g>
		<g>
			<path class="st13" d="M257.5,8.4c1.3-0.3,5.2,1.8,6.6,1.8c5.4,0.3,4.7-0.3,8-0.9c2.8-0.6,4.4,1.1,6.9,2.6c1.7,1,4.7,1.8,5.3,3.7
				c0.6,2-0.2,4.3-1.6,5.8c-2,2.1-4.9,3-7.7,3.7c-7.2,1.9-16.2,3-22.9-1c-3-1.8-7.1-4.8-6.5-8.7C246.1,12.4,254.9,8.9,257.5,8.4"/>
		</g>
		<g>
			<path d="M269.5,19.2c-2.2,0-4.3-0.1-6.6-0.2l-1,0c-4.7-0.2-11.2-0.5-15.7-4.2l0.2-0.2c4.1,3.5,9.4,3.9,15.5,4.2l1,0
				c7.4,0.3,14.3,0.6,21-2.4l0.1,0.2C279.3,18.7,274.5,19.2,269.5,19.2z"/>
		</g>
	</g>
	<g>
		<g>
			<path class="st0" d="M309.6,10.9c1.4-2.2,3.1-4.3,5.4-5.2c3.5-1.4,7.7-1.2,10.7,1.1c6.4,5.1,6.4,14.7,7.3,21.9
				c0.2,1.5-0.9,2.8-2.4,2.8c0,0-17.7-0.1-17.8-0.1c-1.9,0.1-4.6,0.5-6.4-0.6c-2-1.2-1.8-3.8-1.6-5.8c0.3-3.8,1.3-7.5,3-10.9
				C308.3,13.2,308.9,12,309.6,10.9"/>
		</g>
		<g>
			<path class="st0" d="M338.6,10.9c1.4-2.2,3.1-4.3,5.4-5.2c3.5-1.4,7.7-1.2,10.7,1.1c6.4,5.1,6.4,14.7,7.3,21.9
				c0.2,1.5-0.9,2.8-2.4,2.8c0,0-17.7-0.1-17.8-0.1c-1.9,0.1-4.6,0.5-6.4-0.6c-2-1.2-1.8-3.8-1.6-5.8c0.3-3.8,1.3-7.5,3-10.9
				C337.3,13.2,337.9,12,338.6,10.9"/>
		</g>
		<g>
			<path d="M326.5,19.1c-2.4,0-4.8-0.1-7.1-0.2c-4.3-0.2-8.8-0.4-13.2,0.1l0-0.4c4.4-0.5,8.9-0.3,13.3-0.1c4.1,0.2,8.3,0.4,12.3,0
				l0,0.4C330,19.1,328.2,19.1,326.5,19.1z"/>
		</g>
		<g>
			<path d="M355.3,19.2c-2.4,0-4.8-0.1-7.1-0.2c-4.3-0.2-8.8-0.4-13.2,0.1l0-0.4c4.4-0.5,8.9-0.3,13.3-0.1c4.1,0.2,8.3,0.4,12.3,0
				l0,0.4C358.9,19.2,357.1,19.2,355.3,19.2z"/>
		</g>
		<g>
			<path class="st0" d="M345.1,19.6l0,0.7c0,0,0.5,0,0.7,0c1.6-0.1,3,0.2,4.6-0.1c-0.1-0.8-0.1-1.7-0.2-2.5c-0.3,0-0.6,0-1.7,0
				c-1.1,0-2.2,0-3.1,0C345.3,17.7,345.1,18.7,345.1,19.6"/>
		</g>
		<g>
			<path d="M345.6,20.5c-0.2,0-0.4,0-0.4,0l-0.2,0l0-0.9c0-0.9,0.1-1.9,0.1-1.9l0-0.2l0.2,0c0.8-0.1,1.7,0,2.6,0l0.5,0
				c1.2,0,1.4,0,1.7,0l0.2,0l0,0.2c0.1,0.5,0.1,1.1,0.1,1.6c0,0.3,0,0.6,0.1,0.8l0,0.2l-0.2,0c-0.9,0.2-1.8,0.1-2.6,0.1
				c-0.6,0-1.3,0-2,0C345.8,20.5,345.7,20.5,345.6,20.5z M346.8,20c0.3,0,0.7,0,1,0c0.8,0,1.6,0.1,2.4-0.1c0-0.2,0-0.4,0-0.7
				c0-0.5-0.1-1-0.1-1.4c-0.3,0-0.6,0-1.6,0l-0.5,0c-0.8,0-1.7,0-2.4,0c0,0.3-0.1,1-0.1,1.7l0,0.5c0.2,0,0.4,0,0.4,0
				C346.1,20,346.4,20,346.8,20z"/>
		</g>
		<g>
			<path class="st0" d="M316.3,19.4v0.7c0,0,0.5,0,0.7,0c1.6-0.2,3,0.1,4.6-0.3c-0.1-0.8-0.2-1.6-0.3-2.5c-0.3,0-0.6,0-1.7,0.1
				c-1.1,0-2.2,0-3.1,0.1C316.4,17.5,316.3,18.5,316.3,19.4"/>
		</g>
		<g>
			<path d="M316.1,20.3v-0.9c0-0.9,0.1-1.9,0.1-1.9l0-0.2l0.2,0c0.8-0.1,1.7-0.1,2.6-0.1l0.5,0c1.1,0,1.4,0,1.7-0.1l0.2,0l0,0.2
				c0.1,0.5,0.1,1.1,0.2,1.6c0,0.3,0.1,0.6,0.1,0.8l0,0.2l-0.2,0c-0.9,0.2-1.8,0.2-2.6,0.2c-0.6,0-1.3,0-2,0.1c-0.1,0-0.6,0-0.7,0
				L316.1,20.3z M316.6,17.7c0,0.3-0.1,1-0.1,1.7l0,0.5c0.2,0,0.4,0,0.4,0c0.7-0.1,1.4-0.1,2-0.1c0.8,0,1.6,0,2.4-0.1
				c0-0.2,0-0.4-0.1-0.7c0-0.5-0.1-1-0.2-1.4c-0.3,0-0.6,0-1.6,0l-0.5,0C318.2,17.6,317.3,17.7,316.6,17.7z"/>
		</g>
	</g>
	<g>
		<g>
			<path class="st16" d="M16.7,11.4c-1.7-0.8-3.7-1.3-5.3,0c-0.7,0.6-1.2,1.5-1.5,2.5C8.4,18.4,8.6,23.3,9.2,28c0.2,2,0.5,3,1.8,4.5
				c0.3,0.3,0.6,0.6,1,0.7c1.8,0.6,3.2-2,4.4-3c0.3-0.3,0.7-0.6,1.1-0.6c0.5,0,0.9,0.2,1.3,0.6c0.6,0.6,0.9,1.4,1.4,2
				c1.2,1.3,3.3,1.8,4.5,0.3c1.5-1.9,1.9-3.5,2.2-5.8c0.5-3.1,0.8-6.3,0.3-9.4c-0.4-2.5-1.2-6.2-4.3-6.6
				C20.7,10.4,18.9,12.5,16.7,11.4"/>
		</g>
		<g>
			<path d="M23.9,26.9c-2.3,0-4.5-0.3-6.7-0.5c-2.4-0.3-4.8-0.6-7.3-0.5c0,0,0,0,0,0c-1,0-1.9-0.8-2-1.8C7.5,20.2,7.6,16.8,9,12.7
				c0.3-0.8,0.8-1.8,1.7-2.6c1.4-1.1,3.4-1.2,5.9,0c1.3,0.6,2.5,0.2,3.8-0.3c1-0.3,2-0.7,3.1-0.5c3.7,0.4,4.5,4.8,4.8,6.9
				c0.6,3.2,0.2,6.4-0.2,8.9c-0.1,0.7-0.6,1.3-1.2,1.5l0,0c-0.4,0.2-0.8,0.3-1.4,0.3C25.1,26.9,24.5,26.9,23.9,26.9z M10.4,25.7
				c2.3,0,4.5,0.3,6.7,0.5c2.8,0.3,5.6,0.7,8.5,0.5c0.5,0,0.9-0.1,1.3-0.3l0,0c0.6-0.2,1-0.8,1.1-1.4c0.4-2.4,0.8-5.6,0.2-8.8
				c-0.4-2-1.1-6.3-4.7-6.7c-1.1-0.1-2,0.2-3,0.5c-1.3,0.4-2.6,0.9-4,0.2c-2.4-1.1-4.4-1.1-5.7,0C10,11,9.5,12,9.3,12.8
				c-1.5,4.1-1.5,7.5-1.2,11.3C8.2,25,9,25.7,9.9,25.7C10.1,25.7,10.2,25.7,10.4,25.7z"/>
		</g>
	</g>
</g>
<g id="menubar">
</g>
<g id="Layer_6">
</g>
<g id="Layer_7">
</g>
</svg>
