<?xml version="1.0" encoding="utf-8"?>
<!-- Generator: Adobe Illustrator 23.0.0, SVG Export Plug-In . SVG Version: 6.00 Build 0)  -->
<svg version="1.1" id="Layer_1" xmlns="http://www.w3.org/2000/svg" xmlns:xlink="http://www.w3.org/1999/xlink" x="0px" y="0px"
	 viewBox="0 0 364.9 68.7" style="enable-background:new 0 0 364.9 68.7;" xml:space="preserve">
<style type="text/css">
	.st0{fill:#FFF8F0;}
</style>
<g>
	<polygon class="st0" points="55,17.1 44.8,17.1 59.4,43 40.1,43 49.8,25.7 39.6,25.7 28.6,43.2 33.6,51.5 64.5,51.5 70,42.9 	"/>
	<g>
		<path class="st0" d="M98.4,38.7c0,5.4-6.2,4.9-6.2,4.9v-9.8C92.2,33.9,98.4,33.3,98.4,38.7 M93.4,25.7H82.7v25.9h10.2
			c11.1,0,14.8-6.3,14.8-13.3S102.7,25.7,93.4,25.7"/>
		<path class="st0" d="M210.1,38.7c0,5.4-6.2,4.9-6.2,4.9v-9.8C203.9,33.9,210.1,33.3,210.1,38.7 M205.1,25.7h-10.6v25.9h10.2
			c11.1,0,14.8-6.3,14.8-13.3S214.4,25.7,205.1,25.7"/>
	</g>
	<polygon class="st0" points="145.6,43.2 138,43.2 138,25.8 128.7,25.8 128.7,51.5 130.9,51.5 138,51.5 145.6,51.5 	"/>
	<polygon class="st0" points="329.6,43.2 322,43.2 322,25.8 312.7,25.8 312.7,51.5 314.9,51.5 322,51.5 329.6,51.5 	"/>
	<polygon class="st0" points="162.5,34.1 162.5,25.8 157.4,25.8 148.2,25.8 143,25.8 143,34.1 148.2,34.1 148.2,51.5 157.4,51.5 
		157.4,34.1 	"/>
	<polygon class="st0" points="287.9,34.1 287.9,25.8 282.9,25.8 273.6,25.8 268.4,25.8 268.4,34.1 273.6,34.1 273.6,51.5 
		282.9,51.5 282.9,34.1 	"/>
	<polygon class="st0" points="118.5,44.6 118.5,41.9 125.5,41.9 125.5,35.3 118.5,35.3 118.5,32.6 126.7,32.6 126.7,25.8 
		118.5,25.8 111.9,25.8 109.3,25.8 109.3,51.5 112.3,51.5 118.5,51.5 126.7,51.5 126.7,44.6 	"/>
	<polygon class="st0" points="230.2,44.6 230.2,41.9 237.1,41.9 237.1,35.3 230.2,35.3 230.2,32.6 238.3,32.6 238.3,25.8 
		230.2,25.8 223.5,25.8 220.9,25.8 220.9,51.5 223.9,51.5 230.2,51.5 238.4,51.5 238.4,44.6 	"/>
	<polygon class="st0" points="176.8,51.5 185.8,51.5 176.5,25.8 167.7,25.8 158.4,51.4 167.5,51.4 172,36.1 	"/>
	<polygon class="st0" points="302.5,51.5 311.5,51.5 302.2,25.8 293.3,25.8 284.1,51.4 293.1,51.4 297.7,36.1 	"/>
	<polygon class="st0" points="256.8,51.5 266.5,51.5 266.5,25.8 257.2,25.8 257.2,39 249.5,25.8 240.5,25.8 240.5,51.5 249.7,51.5 
		249.7,39.4 	"/>
	<g>
		<path class="st0" d="M329.9,29c0.2,0.4,0.4,0.7,0.7,1c0.3,0.3,0.6,0.5,1,0.6c0.4,0.2,0.8,0.2,1.2,0.2c0.4,0,0.8-0.1,1.2-0.2
			c0.4-0.2,0.7-0.4,1-0.6c0.3-0.3,0.5-0.6,0.6-1c0.2-0.4,0.2-0.8,0.2-1.2c0-0.4-0.1-0.8-0.2-1.2c-0.2-0.4-0.4-0.7-0.6-1
			c-0.3-0.3-0.6-0.5-1-0.6c-0.4-0.2-0.8-0.2-1.2-0.2c-0.4,0-0.8,0.1-1.2,0.2c-0.4,0.2-0.7,0.4-1,0.6c-0.3,0.3-0.5,0.6-0.7,1
			s-0.2,0.8-0.2,1.2C329.6,28.2,329.7,28.6,329.9,29 M329.4,26.3c0.2-0.4,0.5-0.8,0.8-1.1c0.3-0.3,0.7-0.6,1.1-0.8
			c0.4-0.2,0.9-0.3,1.4-0.3s1,0.1,1.4,0.3c0.4,0.2,0.8,0.4,1.2,0.8c0.3,0.3,0.6,0.7,0.8,1.1c0.2,0.4,0.3,0.9,0.3,1.4s-0.1,1-0.3,1.4
			c-0.2,0.4-0.5,0.8-0.8,1.1c-0.3,0.3-0.7,0.6-1.2,0.8c-0.4,0.2-0.9,0.3-1.4,0.3s-1-0.1-1.4-0.3c-0.4-0.2-0.8-0.4-1.1-0.8
			c-0.3-0.3-0.6-0.7-0.8-1.1c-0.2-0.4-0.3-0.9-0.3-1.4C329.1,27.2,329.2,26.8,329.4,26.3 M331.9,27.5h0.7c0.1,0,0.3,0,0.4,0
			s0.3,0,0.4-0.1c0.1,0,0.2-0.1,0.3-0.2c0.1-0.1,0.1-0.2,0.1-0.4c0-0.1,0-0.3-0.1-0.3c-0.1-0.1-0.1-0.2-0.2-0.2s-0.2-0.1-0.3-0.1
			c-0.1,0-0.2,0-0.3,0H332v1.3H331.9z M331.3,25.7h1.5c0.5,0,0.9,0.1,1.1,0.3c0.2,0.2,0.4,0.5,0.4,0.9s-0.1,0.6-0.3,0.8
			c-0.2,0.2-0.5,0.3-0.8,0.3l1.2,1.8h-0.6l-1.1-1.8H332v1.8h-0.6v-4.1H331.3z"/>
	</g>
</g>
</svg>
