<?xml version="1.0" encoding="utf-8"?>
<!-- Generator: Adobe Illustrator 23.0.0, SVG Export Plug-In . SVG Version: 6.00 Build 0)  -->
<svg version="1.1" id="Layer_1" xmlns="http://www.w3.org/2000/svg" xmlns:xlink="http://www.w3.org/1999/xlink" x="0px" y="0px"
	 viewBox="0 0 364.9 68.7" style="enable-background:new 0 0 364.9 68.7;" xml:space="preserve">
<style type="text/css">
	.st0{fill:#FFF8F0;}
</style>
<g>
	<path class="st0" d="M104.6,18.2c-2.2,1-3.8,2-5.2,3.4c-3.7,3.5-4,8.4-0.8,12.3c1.1,1.3,2.3,2.4,3.3,3.7c4.2,5.6,1.1,10.2-4.6,12.1
		c-0.6,0.2-0.9-0.1-1.3-0.3c-0.8-0.5-1.6-1-2.4-1.5c-4.3-2.4-6.8-5.6-6.2-11c0.6-4.8,0.2-9.8,0.1-14.7c0-1.3,0.5-1.9,1.6-2.3
		C92.8,18.4,99.2,17.6,104.6,18.2z"/>
	<path class="st0" d="M98.4,50.6c1.9-1.1,3.7-1.9,5.2-3.2c4.5-3.7,5-8.9,1.2-13.4c-1-1.2-2.2-2.3-3.2-3.6c-2.8-3.7-2.1-7.3,1.4-10.3
		c2.7-2.3,5.6-1.8,8.5-1.2c0.3,0.1,0.6,0.2,0.9,0.2c3.3,1,3.3,1,3.3,4.3c0,5.6-0.1,11.1,0,16.7c0,1.7-0.5,3-1.7,4.1
		c-3.3,3.2-7.3,5.4-11.4,7.3C101.1,52.5,99.9,51.4,98.4,50.6z"/>
	<path class="st0" d="M198.5,25c-1.7-1.1-3.2-1.7-4.9-1.5c-1.9,0.2-3.3,1-4,2.8c-1.1,2.9-0.8,5.8,0.8,8.5c0.5,0.8,1.3,1.4,2.2,1.7
		c2.1,0.7,2.7,0.3,2.7-1.9c0-3.3,0-3.3-0.8-4.9c1.6,0,3.1,0.1,4.6,0c1-0.1,1.2,0.4,1.1,1.3c0,2.2,0,4.5,0,6.7c0,0.7,0,1.2-0.9,1.4
		c-3.1,0.7-6.2,1-9.3,0c-4.3-1.4-6.7-5.1-6.3-9.7c0.3-4.4,3.4-7.8,7.8-8.7c1.8-0.3,3.5-0.3,5.3-0.1c1.3,0.1,2,0.5,1.8,2
		C198.4,23.3,198.5,24,198.5,25z"/>
	<path class="st0" d="M157.1,39.4c-2.6,0-5.2,0-7.9,0c0.8-1.4,0.6-4.6-0.4-5.4c-0.3-0.3-5.1-0.2-5.4,0c-1.1,1-1.4,3.8-0.4,5.3
		c-1.8,0-3.5,0-5.4,0c2-2.7,2.8-6,3.7-9.1c0.9-3,3.2-5.8,2-9.3c-0.1,0,0-0.1,0.1-0.1c2.1,0.2,4.7-0.8,6.2,0.4
		c1.4,1.2,1.6,3.7,2.3,5.6c1,2.7,2,5.4,3,8.1C155.5,36.5,155.9,38.1,157.1,39.4z M146.1,25.8c-0.5,1.5-0.9,2.5-1.2,3.6
		c-0.2,0.6-0.9,1.5-0.3,1.9c0.7,0.5,1.7,0.3,2.6,0.1c0.6-0.1,0.8-0.5,0.5-1.2C147.2,28.9,146.7,27.6,146.1,25.8z"/>
	<path class="st0" d="M134.8,24.3c-1.1-0.3-2.1-0.7-3.2-0.9c-1.2-0.2-2.4,0-2.8,1.3c-0.4,1.3,0.7,1.9,1.7,2.3
		c1.2,0.6,2.5,1.1,3.6,1.8c2.4,1.5,3.4,3.7,2.9,6.1c-0.5,2.4-2.4,4.1-5,4.6c-1.5,0.3-2.9,0.3-4.4,0.1c-3.8-0.5-4-0.7-4.3-4.7
		c1.5,0.8,3,1.7,4.7,1.8c0.8,0.1,1.5,0.1,2.3-0.1c0.7-0.2,1.3-0.6,1.5-1.4c0.2-0.8-0.2-1.5-0.8-2c-1.1-0.9-2.5-1.3-3.8-2
		c-1.5-0.8-2.8-2-3.5-3.5c-1.1-2.4,0.1-5.2,2.5-6.5c1.2-0.7,2.6-0.9,3.9-0.9c1.3,0,2.5,0.1,3.7,0.7C135.7,21.9,134,23.4,134.8,24.3z
		"/>
	<path class="st0" d="M169.7,39.4c1.4-2.3,1.4-16.2,0-18.5c3.4,0,6.8,0,10.1,0c0.7,0,0.8,0.2,0.8,0.8c0,0.9,0,1.9,0,3
		c-1.1-0.5-2-1.3-3.3-1.1c-1,0.1-1.6,0.3-1.4,1.5c0,0.2,0,0.5,0,0.7c0,2.5,0,2.6,2.5,2.5c1,0,1.4,0.1,1.3,1.2c-0.1,0.8,0,1.5,0,2.3
		c-0.5,0.3-0.6-0.2-0.9-0.3c-2-0.9-2.9-0.4-2.9,1.8c0,0.6,0.1,1.2,0,1.8c-0.2,1.6,0.8,2,2.1,2.2c1.3,0.1,2.4-0.1,3.5-0.8
		c0.3-0.2,0.6-0.4,1-0.2c0.5,0.3,0.2,0.7,0.1,1.1c-0.2,1.7-0.9,2.5-2.8,2.4C176.5,39.3,173.2,39.4,169.7,39.4z"/>
	<path class="st0" d="M165.4,39.4c-2.5,0-4.9,0-7.2,0c1.2-3,1.2-16.2-0.1-18.5c3.5,0,6.9,0,10.3,0c0.6,0,0.6,0.4,0.6,0.8
		c0,0.9,0,1.9,0,2.8c-0.3,0.1-0.5,0-0.7-0.1c-1.2-0.8-2.8-1-3.7-0.4c-1,0.7-0.3,2.4-0.3,3.7c0,0.8,0.8,0.6,1.3,0.5
		c1.7-0.3,2.1,0.5,1.9,2c-0.1,0.5,0,1,0,1.7c-0.5-0.3-1-0.6-1.4-0.7c-1.1-0.2-2-0.2-1.8,1.4C164.5,34.8,163.8,37.2,165.4,39.4z"/>
	<path class="st0" d="M142,45.5c-0.5,0.8-0.2,1.4-0.3,2c0,0.4-0.1,0.9-0.7,0.8c-0.6,0-0.6-0.5-0.6-0.9c0-1.2,0-2.5,0-3.7
		c0-0.4,0-0.7,0.4-0.9c0.4-0.1,0.7,0,0.9,0.3c0.2,0.3,0.4,0.6,0.7,0.8c0.4,0.4,0.6,1.4,1.4,1.1c0.5-0.2,0.3-0.9,0.3-1.4
		c0-0.4,0.1-0.9,0.7-0.8c0.6,0,0.6,0.5,0.6,0.9c0,1.2,0,2.5,0,3.7c0,0.3,0.1,0.7-0.4,0.9c-0.4,0.1-0.7-0.1-0.9-0.4
		C143.4,47.2,142.7,46.4,142,45.5z M144,45.8c0,0,0.1-0.1,0.1-0.1c0,0-0.1-0.1-0.1-0.1c0,0-0.1,0.1-0.1,0.1
		C143.9,45.7,144,45.8,144,45.8z"/>
	<path class="st0" d="M232.5,45.5c0,0.8,0,1.4,0,1.9c0,0.4,0,0.9-0.6,0.9c-0.6,0-0.6-0.4-0.6-0.9c0-1.2,0-2.5,0-3.7
		c0-0.3-0.1-0.7,0.4-0.9c0.5-0.2,0.8,0.1,1.1,0.4c0.7,0.8,1.4,1.7,2.4,2.9c0-1.2,0-2,0-2.7c0-0.3,0.1-0.6,0.5-0.6
		c0.5,0,0.6,0.2,0.6,0.6c0,1.3,0,2.6,0,3.9c0,0.3,0.1,0.7-0.3,0.9c-0.5,0.2-0.8-0.1-1.1-0.4C234.1,47.2,233.7,46.1,232.5,45.5z"/>
	<path class="st0" d="M181.2,45c-0.1,0.7-0.1,1.4-0.3,2.1c-0.4,1-1.2,1.5-2.2,1.5c-1,0-1.8-0.5-2.2-1.5c-0.4-1.2-0.2-2.4-0.2-3.7
		c0-0.4,0.3-0.6,0.7-0.6c0.4,0,0.6,0.4,0.6,0.8c0,0.8,0,1.6,0,2.5c0,0.7,0.3,1.3,1.1,1.3c0.8,0,1.1-0.5,1.1-1.3c0-0.7,0-1.4,0-2.1
		c0-0.4-0.1-1.1,0.5-1.1c0.8-0.1,0.7,0.6,0.7,1.1C181.1,44.3,181.1,44.7,181.2,45C181.1,45,181.2,45,181.2,45z"/>
	<path class="st0" d="M199.4,48.2c-1.3,0.5-1.5-0.5-2-1c-0.3-0.4-0.5-1-1.2-0.9c-0.6,0.2-0.4,0.8-0.4,1.2c0,0.4,0,0.9-0.6,0.9
		c-0.6,0-0.6-0.5-0.6-0.9c0-0.8-0.1-1.7,0-2.5c0.1-0.7-0.5-1.8,0.4-2.1c1-0.3,2.2-0.3,3.3,0.2c0.6,0.3,1.1,1.2,0.7,1.6
		C197.8,46.1,198.7,47.1,199.4,48.2z M196.8,45.2c0.5,0,1,0,1-0.6c0-0.6-0.6-0.6-1-0.7c-0.5,0-1,0-1,0.7
		C195.8,45.3,196.3,45.2,196.8,45.2z"/>
	<path class="st0" d="M161.8,43.9c-0.7,0.1-1.3-0.2-1.4,0.4c-0.1,0.5,0.6,0.5,0.9,0.6c0.8,0.3,1.7,0.6,1.8,1.7
		c0.1,0.7-0.3,1.2-0.9,1.6c-1,0.5-1.9,0.4-2.9-0.1c-0.4-0.2-0.7-0.6-0.5-1c0.2-0.5,0.6-0.1,0.9,0c0.3,0.1,0.7,0.2,1,0.2
		c0.3,0,0.8,0.1,0.9-0.4c0.1-0.4-0.2-0.6-0.6-0.7c-0.2-0.1-0.4-0.2-0.7-0.2c-0.8-0.3-1.6-0.6-1.6-1.6c0-0.7,0.3-1.1,0.9-1.4
		c0.9-0.4,1.7-0.3,2.6,0.1c0.3,0.1,0.5,0.4,0.4,0.7C162.4,44.5,161.9,43.9,161.8,43.9z"/>
	<path class="st0" d="M253.2,44c-1.4-0.1-2.3,0.3-2.3,1.7c0.1,1.4,1,1.9,2.4,1.6c0.4-0.1,0.8-0.5,0.9,0.3c0.1,0.5-0.3,0.7-0.7,0.9
		c-1.3,0.4-2.4,0.1-3.2-0.9c-0.9-1-1-2.3-0.3-3.4c0.7-1.2,1.9-1.5,3.2-1.3c0.5,0.1,0.9,0.3,0.8,0.9C254,44.4,253.4,43.9,253.2,44z"
		/>
	<path class="st0" d="M271,45.7c-0.5,0.5-1.1,0.3-1.6,0.3c-0.5,0-0.9,0.1-0.9,0.8c0,0.5,0.3,0.9,0.9,0.9c0.7,0,1.4,0,2.1,0.2
		c-1,0.9-2.3,0.6-3.4,0.5c-1-0.1-0.4-1.2-0.5-1.8c0-0.2,0-0.5,0-0.7c0-3,0.2-3.2,3.1-2.8c0.3,0,0.6-0.1,0.6,0.4
		c0,0.4-0.3,0.4-0.6,0.5c-0.7,0.2-2-0.5-2.1,0.6c0,1.3,1.4,0.5,2.1,0.9C270.9,45.3,270.9,45.5,271,45.7z"/>
	<path class="st0" d="M126.8,45.8c-0.4,0.7,0.7,2.4-0.7,2.4c-1.2,0-0.4-1.6-0.6-2.5c-0.1-0.6,0-1.3,0-1.9c0-0.5,0-1,0.7-1
		c0.6,0,0.6,0.5,0.6,0.9C126.8,44.4,126.8,45,126.8,45.8z"/>
	<path class="st0" d="M211.4,21.1c0.3,0.6,0.8,1.1,0.8,1.7c0.1,3.7,0.3,7.4-0.1,11.1c-0.2,1.5-0.9,2.6-2.6,2.6
		c-1.4,0-2.2-1.1-2.2-3.1c0-3.1,0-6.1,0-9.2c0-1.1-0.1-2.3,1-3.3c-2.5,0-4.8,0-7.4,0c1.3,1.2,1.2,2.5,1.2,3.9c0,3.2,0,6.4,0,9.6
		c0,3.6,2.8,5.9,6.4,5.3c1.5-0.3,2.7-1.1,4-2.5c-0.5,2,0.4,2.3,1.7,2.2c1.4-0.1,2.8,0,4.5,0c-1.3-1.2-1.2-2.6-1.2-3.9
		c0-3.5,0-7.1,0-10.6c0-1.4,0.1-2.7,0.9-3.9"/>
	<path class="st0" d="M239.4,39.2c-1.1-1.2-1.8-2.6-2.3-4.1c-1.5-4.3-3.2-8.6-4.7-13c-0.3-0.7-0.4-1.3-1.4-1.2c-1.9,0.1-3.7,0-5.5,0
		c1.2,3.6-1.1,6.4-2,9.4c-0.9,3.1-1.7,6.3-3.7,9.1c1.9,0,3.6,0,5.4,0c-0.8-1.3-0.5-4.5,0.4-5.3c0.3-0.3,5.1-0.3,5.4-0.1
		c1,0.7,1.2,4,0.4,5.4c2.7,0,5.3,0,8,0c0,0,0.1,0,0.1,0C239.4,39.3,239.4,39.3,239.4,39.2z M229,31.6c-0.4,0-0.8,0-1.2,0
		c-1.1,0.2-1.4-0.3-1-1.3c0.5-1.4,1-2.8,1.5-4.4c0.6,1.7,1.1,3.1,1.6,4.5C230.1,31.2,229.9,31.6,229,31.6z"/>
	<path class="st0" d="M258.8,39.3c2.9,0,5.7,0.2,8.6,0.1c5.3-0.2,7.8-2.1,9.3-7.2c1.3-4.6-1.6-9.8-6.3-10.9
		c-3.7-0.9-7.5-0.3-11.7-0.5c1.2,1.1,1.3,2.2,1.3,3.4c0,4,0,8,0,12.1c0,0.8,0,1.6-0.5,2.2c-0.2,0.4-0.5,0.7-0.8,0.7 M257.3,39.2
		c-0.2,0-0.4-0.2-0.7-0.5c-1.8-2.1-3-4.7-4.6-7c-0.6-0.9-0.7-1.5,0.4-2.2c1.9-1.2,2.5-3,1.9-5.1c-0.5-2-1.9-3.2-3.9-3.4
		c-3.4-0.2-6.8-0.1-10.3-0.1c0.9,1,1.1,2,1.1,3.2c0,4,0,7.9,0,11.9c0,1,0,1.9-0.7,2.7l0,0c-0.2,0.1-0.4,0.3-0.2,0.5
		c0.3,0.3,0.6,0.2,1,0.1c-0.2-0.2-0.5-0.2-0.6-0.4c0.2,0.2,0.5,0.2,0.6,0.4c0.4,0,0.7,0,1.1,0c0.1,0,0.2,0,0.3,0h0
		c1.3,0,2.6,0,3.9,0c0,0,0,0,0,0c0.3,0,0.7,0.5,0.7-0.2l0,0c-1.6-2.1-0.7-4.4-0.7-6.7c1.1,1.7,2.1,3.4,3,5.2c0.7,1.3,1.7,2,3.2,1.9
		c1.5-0.1,3.1-0.2,4.6-0.2 M249.2,27.1c-0.3,1.3-1,2.2-2.3,2.7c-0.7,0.3-0.6-0.3-0.6-0.7c0-0.8,0-1.6,0-2.5c0-0.5,0-1.1,0-1.6
		c0-0.4-0.2-1,0.3-1.3c0.5-0.2,1,0,1.5,0.3C249.1,24.8,249.5,25.9,249.2,27.1z M269.2,34.2c-0.6,1.5-2,2.1-3.3,2.7
		c-1.1,0.5-2.1-0.2-2.1-1.5c0-1.7,0-3.4,0-5.1c0-1.7,0-3.3,0-5c0-0.9,0.3-1.2,1.2-1.3c1.8-0.1,3.3,0.5,4.1,2.2
		C270.3,28.8,270.3,31.5,269.2,34.2z"/>
</g>
<path class="st0" d="M215.8,43.1c-0.4-0.7-1.1-0.3-1.4,0.4c-0.6,1.3-1.1,2.6-1.7,3.9c-0.1,0.3-0.4,0.7,0,0.9
	c0.3,0.2,0.7,0.1,0.9-0.3c1-1.3,2.1-1.3,3.1,0c0.2,0.3,0.6,0.4,1,0.2c0.1,0,0.2-0.2,0.3-0.4C217.3,46.3,216.7,44.6,215.8,43.1z
	 M215.5,46.4c-0.1,0-0.3,0-0.4,0c-0.3,0-0.4-0.1-0.3-0.4c0.1-0.4,0.3-0.9,0.5-1.4c0.2,0.5,0.3,0.9,0.5,1.4
	C215.8,46.3,215.7,46.4,215.5,46.4z"/>
</svg>
