<?xml version="1.0" encoding="utf-8"?>
<!-- Generator: Adobe Illustrator 23.0.0, SVG Export Plug-In . SVG Version: 6.00 Build 0)  -->
<svg version="1.1" id="Layer_1" xmlns="http://www.w3.org/2000/svg" xmlns:xlink="http://www.w3.org/1999/xlink" x="0px" y="0px"
	 viewBox="0 0 364.9 68.7" style="enable-background:new 0 0 364.9 68.7;" xml:space="preserve">
<style type="text/css">
	.st0{fill:#FFF8F0;}
</style>
<g>
	<g>
		<path class="st0" d="M100.2,26.4v5.4h8.6V36h-8.6v10h-4.1V22.2h13.9v4.2H100.2z"/>
		<path class="st0" d="M112.3,46V28.3h3.8V46H112.3z M112.3,25.5v-3.8h3.8v3.8H112.3z"/>
		<path class="st0" d="M126.8,32.6c-2.5,0-3.7,1.4-3.7,4.2V46h-3.8V28.3h3.7v3.2c1.1-2.7,2.2-3.6,4-3.6c0.2,0,0.3,0,0.8,0.1v4.7
			C127.5,32.6,127.2,32.6,126.8,32.6z"/>
		<path class="st0" d="M135.6,46.5c-3.8,0-6.4-1.6-6.9-6.1h3.9c0.1,1.8,1,2.6,3.1,2.6c1.5,0,2.5-0.7,2.5-1.8c0-0.9-1-1.5-3.2-2
			c-4-0.8-5.8-2.4-5.8-5.4c0-3.6,2.3-5.9,6-5.9c3.7,0,5.8,1.4,6.3,5.8h-3.8c-0.3-1.7-0.9-2.3-2.6-2.3c-1.5,0-2.3,0.6-2.3,1.7
			c0,1,0.9,1.5,3.1,1.9c4.3,0.8,5.9,2.7,5.9,5.5C142.1,44.2,139.6,46.5,135.6,46.5z"/>
		<path class="st0" d="M149.1,46.2h-0.5c-2.8,0-3.9-1-3.9-3.8V31.7h-2v-3.3h2v-4.8h3.8v4.8h2.4v3.3h-2.4v9.6c0,1.2,0.2,1.4,1.6,1.4
			c0.2,0,0.4,0,0.8-0.1v3.5C149.7,46.2,149.6,46.2,149.1,46.2z"/>
		<path class="st0" d="M161.3,46h-7.8V22.2h7.9c5,0,8.2,4.6,8.2,11.7C169.6,40.6,166.8,46,161.3,46z M161.1,24.9h-4.9v18.3h5.1
			c3.5,0,5.7-3.5,5.7-9.2C166.9,28.2,164.8,24.9,161.1,24.9z"/>
		<path class="st0" d="M174.3,38.3c0.1,4.1,1.6,5.7,4.1,5.7c1.9,0,3.5-1.4,3.8-3.4h2.4c-0.6,3.8-2.9,5.9-6.2,5.9
			c-4.1,0-6.5-3.4-6.5-8.9c0-5.8,2.6-9.5,6.7-9.5c3.7,0,6,2.7,6.2,10.1H174.3z M178.4,30.7c-2.3,0-4,2.1-4.1,5.2h7.9
			C181.9,32.3,180.5,30.7,178.4,30.7z"/>
		<path class="st0" d="M196.4,46V35.3c0-3.2-0.9-4.6-2.9-4.6c-2.4,0-3.9,2.2-3.9,5.8V46h-2.4V28.6h2.3v2.6c1.2-2.2,2.6-3.1,4.6-3.1
			c3,0,4.8,2.2,4.8,6V46H196.4z"/>
		<path class="st0" d="M204.9,31.1v11.3c0,1,0.4,1.4,1.5,1.4h0.8V46c-1.7,0.2-1.6,0.2-1.9,0.2c-1.9,0-2.8-1.2-2.8-3.7V31.1h-1.9
			v-2.4h1.9v-4.8h2.4v4.8h2.3v2.4H204.9z"/>
		<path class="st0" d="M220.5,46.3c-1.6,0-2.3-0.8-2.5-2.7c-1.6,2-3,2.8-5,2.8c-2.8,0-4.6-2-4.6-5.1c0-3,1.6-4.9,4.3-5.4l4-0.6
			c0.9-0.1,1.3-0.7,1.3-2c0-1.9-1.1-2.9-3.3-2.9c-2.1,0-3.4,0.9-3.4,3.4h-2.2c0-4.1,2.2-5.8,5.7-5.8c3.4,0,5.4,1.8,5.4,4.8v10
			c0,0.7,0.3,1,0.8,1c0.2,0,0.3,0,0.8-0.1V46C221.3,46.2,221,46.3,220.5,46.3z M217.9,37.1c-0.5,0.5-1.2,0.6-3.9,1.1
			c-2.2,0.4-3.1,1.2-3.1,2.9c0,1.9,0.9,2.9,2.6,2.9c2.4,0,4.4-1.9,4.4-4.1V37.1z"/>
		<path class="st0" d="M224.1,46V22.2h2.4V46H224.1z"/>
		<path class="st0" d="M244.8,46V34.9h-10.2V46h-2.7V22.2h2.7V32h10.2v-9.9h2.7V46H244.8z"/>
		<path class="st0" d="M252.8,38.3c0.1,4.1,1.6,5.7,4.1,5.7c1.9,0,3.5-1.4,3.8-3.4h2.4c-0.6,3.8-2.9,5.9-6.2,5.9
			c-4.1,0-6.5-3.4-6.5-8.9c0-5.8,2.6-9.5,6.7-9.5c3.7,0,6,2.7,6.2,10.1H252.8z M256.9,30.7c-2.3,0-4,2.1-4.1,5.2h7.9
			C260.4,32.3,259,30.7,256.9,30.7z"/>
		<path class="st0" d="M277,46.3c-1.6,0-2.3-0.8-2.5-2.7c-1.6,2-3,2.8-5,2.8c-2.8,0-4.6-2-4.6-5.1c0-3,1.6-4.9,4.3-5.4l4-0.6
			c0.9-0.1,1.3-0.7,1.3-2c0-1.9-1.1-2.9-3.3-2.9c-2.1,0-3.4,0.9-3.4,3.4h-2.2c0-4.1,2.2-5.8,5.7-5.8c3.4,0,5.4,1.8,5.4,4.8v10
			c0,0.7,0.3,1,0.8,1c0.2,0,0.3,0,0.8-0.1V46C277.7,46.2,277.4,46.3,277,46.3z M274.4,37.1c-0.5,0.5-1.2,0.6-3.9,1.1
			c-2.2,0.4-3.1,1.2-3.1,2.9c0,1.9,0.9,2.9,2.6,2.9c2.4,0,4.4-1.9,4.4-4.1V37.1z"/>
		<path class="st0" d="M280.6,46V22.2h2.4V46H280.6z"/>
		<path class="st0" d="M289.2,31.1v11.3c0,1,0.4,1.4,1.5,1.4h0.8V46c-1.7,0.2-1.6,0.2-1.9,0.2c-1.9,0-2.8-1.2-2.8-3.7V31.1h-1.9
			v-2.4h1.9v-4.8h2.4v4.8h2.3v2.4H289.2z"/>
		<path class="st0" d="M302.7,46V34.6c0-2.8-0.8-3.9-2.8-3.9c-2.6,0-4.1,2.1-4.1,5.8V46h-2.4V22.2h2.4V31c1.4-2.2,2.5-2.9,4.4-2.9
			c3,0,4.8,2.2,4.8,6V46H302.7z"/>
	</g>
	<path class="st0" d="M79.1,45c-0.3-1.2-0.6-2.4-1-3.5c-2.4-7-2.5-7-9.4-3.9c-0.7,0.3-1.4,0.5-2.1,0.8c-0.2,0-0.5,0-0.7,0
		c-1-2.5-2-4.9-2.9-7.4c-0.1-1.1,0.5-1.8,1.4-2.3c0,0,0,0,0,0c4.3-1.1,6.9-3.9,8.1-8c-0.2,0-0.5,0-0.7,0c-3.3,0-6.6,0.2-9.9-0.1
		c-1.9-0.1-2,0.6-2,2.1c0,4.4,0.1,8.8,0,13.2c0,1.5,0,3,0,4.5c0,1.4-0.3,2.8-0.1,4.2c0.3,2.4,3.1,2.8,5,3.4l13.3,0
		C80.1,48,79.4,46.3,79.1,45z"/>
	<path class="st0" d="M92,40.9c0.6,0.4,0.9-0.1,0.8-0.6c-0.2-3.9,0.4-7.9,0.1-11.8c-0.1-1.6-0.2-3.6-1-5c-1.6-2.7-4.1-2.8-6.9-2.8
		c0.2,0.5,0.3,1,0.5,1.6"/>
</g>
</svg>
