<svg id="Layer_1" data-name="Layer 1" xmlns="http://www.w3.org/2000/svg" viewBox="0 0 100 100"><defs><style>.cls-1{fill:#4d4d4d;}</style></defs><title>Artboard 7</title><polygon class="cls-1" points="51.69 53.58 49.99 51.89 48.3 53.58 48.3 55.02 49.49 53.83 49.49 60.79 50.49 60.79 50.49 53.83 51.69 55.02 51.69 53.58"/><path class="cls-1" d="M81.21,39.32c-.06-.52-.12-1.08-.18-1.64-.09-.86-.19-1.76-.32-2.64a35.86,35.86,0,0,0-.88-4.39c-1.12-4-3.43-12.47-14.31-13.29a30.92,30.92,0,0,0-9.07,1c-3.75.82-7.28,1.59-11.18.47C37.89,16.77,32,16.8,27.89,19a12.51,12.51,0,0,0-5.13,5c-2.86,5.13-3.52,10-4,15h.1l0,.34a1.74,1.74,0,0,0,.39,1.35,1.8,1.8,0,0,0,1.28.63l7.58,0a1.75,1.75,0,0,0,.4,1.22,1.8,1.8,0,0,0,1.28.63l6.31,0a2.22,2.22,0,0,0,1,1.38,3.83,3.83,0,0,0,1.95.43c.36,0,.72,0,1.05,0l.43,0c.18,0,9.43,0,9.5,0a5,5,0,0,0,.67,0c.36,0,.72,0,1.06,0l.43,0h0c.39,0,8.78,0,8.84,0a1.74,1.74,0,0,0,1.26-.62,1.77,1.77,0,0,0,.4-1.15c1.57,0,7.25.05,7.36.05h0a1.76,1.76,0,0,0,1.26-.62,1.73,1.73,0,0,0,.39-1.26l7.89,0h0a1.79,1.79,0,0,0,1.26-.63A1.73,1.73,0,0,0,81.21,39.32ZM23.63,24.45a11.49,11.49,0,0,1,4.73-4.59c3.91-2.05,9.5-2.06,16.64,0,4.13,1.18,8,.34,11.66-.47a30.28,30.28,0,0,1,8.78-1c8,.6,11.06,5.25,12.83,10.6a7.93,7.93,0,0,0-.89-.84,5.9,5.9,0,0,0-5.8-.64,6.38,6.38,0,0,0-2.92,2.8l.43.26-.43-.26c0,.08-.11.18-.16.28a7.59,7.59,0,0,0-.66-.6,5.87,5.87,0,0,0-5.8-.64A7.08,7.08,0,0,0,59.19,32c-.12-.11-.24-.24-.37-.34A5.88,5.88,0,0,0,53,31a6.35,6.35,0,0,0-2.93,2.8c-.18.3-.39.68-.59,1.06a7.91,7.91,0,0,0-2.35-3.22A5.93,5.93,0,0,0,41.37,31a4.36,4.36,0,0,0-1,.61,5.77,5.77,0,0,0-8.41-1.72,5.19,5.19,0,0,0-.49.43.35.35,0,0,1-.05-.08l-.43.26.43-.26a6.38,6.38,0,0,0-2.92-2.8,6,6,0,0,0-5.8.64,7.09,7.09,0,0,0-1.1,1.09A26.67,26.67,0,0,1,23.63,24.45Zm35.73,8.24h0l-.09.09ZM20,40a.72.72,0,0,1-.17-.58c.07-.53.13-1.09.18-1.66.34-3.22.72-6.86,3.28-8.88a4.94,4.94,0,0,1,4.81-.5,5.39,5.39,0,0,1,2.43,2.39h0c.07.1.13.22.2.34-1.81,2.3-2.15,5.48-2.45,8.35l-.09.77-7.65,0A.73.73,0,0,1,20,40Zm9.8,2.08a.73.73,0,0,1-.54-.27.72.72,0,0,1-.17-.58c.06-.53.12-1.09.18-1.67.34-3.21.72-6.85,3.28-8.87a4.93,4.93,0,0,1,4.8-.5,5.17,5.17,0,0,1,2.25,2.1,8.76,8.76,0,0,0-1.16,1.52c-.38.62-.68,1.24-.91,1.71A16,16,0,0,0,36,41.12c0,.28,0,.61,0,1Zm10.66,1.7-.47,0a4.4,4.4,0,0,1-2.41-.24c-.68-.41-.66-1.33-.57-2.4A15,15,0,0,1,38.43,36a18.14,18.14,0,0,1,.87-1.62A5.39,5.39,0,0,1,41.73,32a4.94,4.94,0,0,1,4.81.5A7.39,7.39,0,0,1,49,36.28v7.57Zm21-.22a.72.72,0,0,1-.51.27l-8.86,0-.47,0a7.34,7.34,0,0,1-1.69,0v-7.6c.28-.57.7-1.39,1-1.87A5.39,5.39,0,0,1,53.39,32a4.92,4.92,0,0,1,4.81.5,4.78,4.78,0,0,1,.7.65h0c1.93,2.09,2.27,5.34,2.57,8.22.07.58.12,1.14.19,1.67A.73.73,0,0,1,61.49,43.59Zm9-1.73a.72.72,0,0,1-.51.27l-7.43,0c0-.28-.07-.56-.1-.85-.3-2.9-.66-6.15-2.57-8.47a6.34,6.34,0,0,1,2.51-2.52,5,5,0,0,1,4.81.49c2.55,2,2.94,5.67,3.27,8.88.06.58.12,1.13.19,1.67A.7.7,0,0,1,70.51,41.86ZM80.05,40a.74.74,0,0,1-.51.27l-8,0c0-.24-.06-.48-.08-.73-.3-2.78-.62-5.87-2.3-8.15l.32-.57h0A5.46,5.46,0,0,1,72,28.41a4.94,4.94,0,0,1,4.81.5c1.9,1.5,2.6,3.9,3,6.35v.05h0c.12.83.21,1.66.29,2.47.07.58.12,1.14.19,1.67A.72.72,0,0,1,80.05,40Z"/><path class="cls-1" d="M81.21,74.6Q81.12,73.8,81,73c-.36-3.4-.76-7.27-3.65-9.55a5.87,5.87,0,0,0-5.8-.64,6.33,6.33,0,0,0-2.92,2.8l-.17.29a7.45,7.45,0,0,0-.65-.61A5.85,5.85,0,0,0,62,64.6a7.08,7.08,0,0,0-2.85,2.7,3.92,3.92,0,0,0-.37-.34A5.85,5.85,0,0,0,53,66.32a6.33,6.33,0,0,0-2.93,2.79c-.18.3-.39.69-.59,1.07A7.85,7.85,0,0,0,47.16,67a5.93,5.93,0,0,0-5.79-.64,4.53,4.53,0,0,0-1,.59,5.75,5.75,0,0,0-8.4-1.7,5,5,0,0,0-.48.44l-.06-.09a6.3,6.3,0,0,0-2.93-2.8,5.85,5.85,0,0,0-5.79.64C19.78,65.69,19.38,69.55,19,73c-.06.56-.12,1.11-.18,1.64a1.74,1.74,0,0,0,1.67,2h7.58a1.73,1.73,0,0,0,1.69,1.81s3.69-.06,6.29-.08a2.18,2.18,0,0,0,1,1.43,3.73,3.73,0,0,0,1.95.43c.36,0,.72,0,1.05,0l.43,0c.1,0,6.39,0,8.28,0a.47.47,0,0,0,.17,0h0c.62,0,1.33,0,2,0l1.22,0h0l8.84,0h0a1.74,1.74,0,0,0,1.26-.62,1.76,1.76,0,0,0,.4-1.14l7.36,0h0a1.75,1.75,0,0,0,1.26-.63,1.72,1.72,0,0,0,.39-1.25l7.89,0h0a1.74,1.74,0,0,0,1.65-2Zm-1.16.71a.73.73,0,0,1-.51.26l-8,0,0-.19a.5.5,0,0,0-1,.11c0,.38.08.75.13,1.11a.72.72,0,0,1-.17.58.76.76,0,0,1-.51.27l-7.48,0a.49.49,0,0,0-.49-.28.5.5,0,0,0-.44.56c0,.21,0,.43.07.64a.7.7,0,0,1-.17.57.69.69,0,0,1-.51.27l-8.86,0c-.31,0-.74,0-1.2,0h-.68V77.88a.5.5,0,0,0-.5-.5.51.51,0,0,0-.5.5v1.25l-8.78,0-.47,0a4.49,4.49,0,0,1-2.41-.24c-.44-.27-.63-.77-.62-1.62a.5.5,0,1,0-1,0v0c-2.58,0-6.16.08-6.17.08a.72.72,0,0,1-.53-.26.73.73,0,0,1-.17-.58c0-.24.06-.49.08-.74a.5.5,0,0,0-.44-.55.48.48,0,0,0-.51.32H20.54a.72.72,0,0,1-.54-.26.73.73,0,0,1-.17-.58c.07-.53.13-1.09.18-1.67.34-3.21.72-6.85,3.28-8.88a4.94,4.94,0,0,1,4.81-.49,5.39,5.39,0,0,1,2.43,2.39l.08.13a1.93,1.93,0,0,1,.13.21c-.06.08-.13.14-.18.22a.49.49,0,0,0,.11.7.5.5,0,0,0,.69-.11A6.37,6.37,0,0,1,32.55,66a4.93,4.93,0,0,1,4.8-.49,5.13,5.13,0,0,1,2.24,2.09,1.59,1.59,0,0,0-.13.13,10.23,10.23,0,0,0-1,1.39.5.5,0,0,0,.17.69.48.48,0,0,0,.26.07.5.5,0,0,0,.43-.24,8.8,8.8,0,0,1,.91-1.25,4.1,4.1,0,0,1,1.52-1.13,4.94,4.94,0,0,1,4.81.49A7.49,7.49,0,0,1,49,71.61a.49.49,0,0,0,.48.36l.14,0a.5.5,0,0,0,.35-.43c.28-.58.71-1.4,1-1.89a5.36,5.36,0,0,1,2.43-2.38,4.94,4.94,0,0,1,4.81.49,6.19,6.19,0,0,1,.7.65h0l.26.3h0a5.6,5.6,0,0,1,.36.49.52.52,0,0,0,.42.22.51.51,0,0,0,.28-.09.49.49,0,0,0,.13-.69c-.13-.19-.27-.38-.42-.56h0l0,0a6.32,6.32,0,0,1,2.5-2.5,5,5,0,0,1,4.81.49,6.5,6.5,0,0,1,1.45,1.63.48.48,0,0,0,.68.16.49.49,0,0,0,.16-.69c-.1-.16-.22-.3-.33-.45l.33-.59A5.46,5.46,0,0,1,72,63.69a4.94,4.94,0,0,1,4.81.49c2.56,2,2.94,5.67,3.27,8.88.07.57.12,1.13.19,1.67A.73.73,0,0,1,80.05,75.31Z"/></svg>