<?xml version="1.0" encoding="utf-8"?>
<!-- Generator: Adobe Illustrator 23.0.0, SVG Export Plug-In . SVG Version: 6.00 Build 0)  -->
<svg version="1.1" id="Layer_3" xmlns="http://www.w3.org/2000/svg" xmlns:xlink="http://www.w3.org/1999/xlink" x="0px" y="0px"
	 viewBox="0 0 100 100" style="enable-background:new 0 0 100 100;" xml:space="preserve">
<style type="text/css">
	.st0{fill:#4D4D4D;}
</style>
<g>
	<polygon class="st0" points="51.7,54.7 50,53 48.3,54.7 48.3,56.1 49.5,54.9 49.5,61.9 50.5,61.9 50.5,54.9 51.7,56.1 	"/>
	<path class="st0" d="M81.2,40.4c-0.1-0.5-0.1-1.1-0.2-1.6c-0.1-0.9-0.2-1.8-0.3-2.6c-0.2-1.5-0.5-2.9-0.9-4.4
		c-1.1-4-3.4-12.5-14.3-13.3c-3.1-0.1-6.1,0.2-9.1,1c-3.8,0.8-7.3,1.6-11.2,0.5c-7.4-2.1-13.3-2-17.4,0.2c-2.2,1.1-3.9,2.9-5.1,5
		c-2.9,5.1-3.5,10-4,15h0.1v0.3c-0.1,0.5,0.1,1,0.4,1.3c0.3,0.4,0.8,0.6,1.3,0.6h7.6c0,0.4,0.1,0.9,0.4,1.2c0.3,0.4,0.8,0.6,1.3,0.6
		h6.3c0.1,0.6,0.5,1.1,1,1.4c0.6,0.3,1.3,0.5,2,0.4c0.4,0,0.7,0,1,0h0.4c0.2,0,9.4,0,9.5,0c0.2,0,0.4,0,0.7,0c0.4,0,0.7,0,1.1,0h0.4
		l0,0c0.4,0,8.8,0,8.8,0c0.5,0,0.9-0.2,1.3-0.6c0.3-0.3,0.4-0.7,0.4-1.2c1.6,0,7.3,0.1,7.4,0.1l0,0c0.5,0,0.9-0.2,1.3-0.6
		c0.3-0.4,0.4-0.8,0.4-1.3h7.9l0,0c0.5,0,0.9-0.3,1.3-0.6C81.2,41.4,81.3,40.9,81.2,40.4z M23.6,25.5c1.1-2,2.7-3.6,4.7-4.6
		c3.9-2,9.5-2.1,16.6,0c4.1,1.2,8,0.3,11.7-0.5c2.9-0.8,5.8-1.1,8.8-1c8,0.6,11.1,5.3,12.8,10.6c-0.3-0.3-0.6-0.6-0.9-0.8
		c-1.7-1.2-3.9-1.5-5.8-0.6c-1.3,0.6-2.3,1.6-2.9,2.8l0.4,0.3l-0.4-0.3c0,0.1-0.1,0.2-0.2,0.3c-0.2-0.2-0.4-0.4-0.7-0.6
		c-1.7-1.2-3.9-1.5-5.8-0.6c-1.2,0.6-2.2,1.5-2.8,2.6c-0.1-0.1-0.2-0.2-0.4-0.3c-1.7-1.2-3.9-1.5-5.8-0.7c-1.3,0.6-2.3,1.6-2.9,2.8
		c-0.2,0.3-0.4,0.7-0.6,1.1c-0.5-1.3-1.3-2.4-2.3-3.2c-1.7-1.2-3.9-1.4-5.8-0.6c-0.4,0.2-0.7,0.4-1,0.6c-1.6-2.7-5.1-3.7-7.9-2.1
		c-0.2,0.1-0.3,0.2-0.5,0.3c-0.2,0.1-0.3,0.3-0.5,0.4v-0.1L31,31.6l0.4-0.3c-0.6-1.2-1.7-2.2-2.9-2.8c-1.9-0.8-4.1-0.6-5.8,0.6
		c-0.4,0.3-0.8,0.7-1.1,1.1C22.1,28.6,22.8,27,23.6,25.5z M59.3,33.8L59.3,33.8L59.3,33.8L59.3,33.8z M20,41.1
		c-0.1-0.2-0.2-0.4-0.2-0.6c0.1-0.5,0.1-1.1,0.2-1.7c0.3-3.2,0.7-6.9,3.3-8.9c1.4-1,3.2-1.2,4.8-0.5c1,0.5,1.9,1.4,2.4,2.4l0,0
		c0.1,0.1,0.1,0.2,0.2,0.3c-1.8,2.3-2.2,5.5-2.5,8.4l-0.1,0.8h-7.7C20.3,41.3,20.1,41.2,20,41.1z M29.8,43.2c-0.2,0-0.4-0.1-0.5-0.3
		s-0.2-0.4-0.2-0.6c0.1-0.5,0.1-1.1,0.2-1.7c0.3-3.2,0.7-6.9,3.3-8.9c1.4-1,3.2-1.2,4.8-0.5c0.9,0.5,1.7,1.2,2.3,2.1
		c-0.4,0.5-0.8,1-1.2,1.5c-0.4,0.6-0.7,1.2-0.9,1.7c-0.8,1.8-1.4,3.7-1.5,5.6c0,0.3,0,0.6,0,1L29.8,43.2z M40.4,44.9h-0.5
		c-0.8,0.1-1.6,0.1-2.4-0.2c-0.7-0.4-0.7-1.3-0.6-2.4c0.2-1.8,0.6-3.5,1.4-5.1c0.3-0.6,0.6-1.1,0.9-1.6c0.5-1,1.4-1.9,2.4-2.4
		c1.6-0.7,3.4-0.5,4.8,0.5c1.2,1,2.1,2.3,2.5,3.8v7.6L40.4,44.9z M61.4,44.7c-0.1,0.2-0.3,0.3-0.5,0.3H52h-0.5
		c-0.6,0.1-1.1,0.1-1.7,0v-7.7c0.3-0.6,0.7-1.4,1-1.9c0.5-1,1.4-1.9,2.5-2.4c1.6-0.7,3.4-0.5,4.8,0.5c0.3,0.2,0.5,0.4,0.7,0.7l0,0
		c1.9,2.1,2.3,5.3,2.6,8.2c0.1,0.6,0.1,1.1,0.2,1.7C61.7,44.3,61.6,44.5,61.4,44.7L61.4,44.7z M70.4,42.9c-0.1,0.2-0.3,0.3-0.5,0.3
		h-7.4c0-0.3-0.1-0.6-0.1-0.8c-0.3-2.9-0.7-6.2-2.6-8.5c0.6-1.1,1.5-1.9,2.5-2.5c1.6-0.7,3.4-0.5,4.8,0.5c2.6,2,2.9,5.7,3.3,8.9
		c0.1,0.6,0.1,1.1,0.2,1.7C70.6,42.6,70.6,42.8,70.4,42.9L70.4,42.9z M80,41.1c-0.1,0.2-0.3,0.3-0.5,0.3h-8c0-0.2-0.1-0.5-0.1-0.7
		c-0.3-2.8-0.6-5.9-2.3-8.2l0.3-0.6l0,0c0.6-1.1,1.4-1.9,2.5-2.4c1.6-0.7,3.4-0.5,4.8,0.5c1.9,1.5,2.6,3.9,3,6.4l0,0l0,0
		c0.1,0.8,0.2,1.7,0.3,2.5c0.1,0.6,0.1,1.1,0.2,1.7C80.3,40.8,80.2,41,80,41.1z"/>
	<path class="st0" d="M81.2,75.7c-0.1-0.5-0.1-1.1-0.2-1.6c-0.4-3.4-0.8-7.3-3.7-9.5c-1.7-1.2-3.9-1.5-5.8-0.6
		c-1.3,0.6-2.3,1.6-2.9,2.8l-0.2,0.3c-0.2-0.2-0.4-0.4-0.7-0.6c-1.7-1.3-3.9-1.5-5.8-0.7c-1.2,0.6-2.2,1.5-2.8,2.7
		c-0.1-0.1-0.2-0.2-0.4-0.3c-1.7-1.2-3.9-1.5-5.8-0.6c-1.3,0.6-2.3,1.6-2.9,2.8c-0.2,0.3-0.4,0.7-0.6,1.1c-0.5-1.2-1.3-2.3-2.3-3.2
		c-1.7-1.2-3.9-1.5-5.8-0.6c-0.4,0.2-0.7,0.4-1,0.6c-1.6-2.7-5.1-3.7-7.9-2.1c-0.2,0.1-0.4,0.2-0.5,0.4c-0.2,0.1-0.3,0.3-0.5,0.4
		l-0.1-0.1c-0.6-1.2-1.7-2.2-2.9-2.8c-1.9-0.8-4.1-0.6-5.8,0.6c-2.9,2.2-3.3,6.1-3.7,9.6c-0.1,0.6-0.1,1.1-0.2,1.6
		c-0.1,1,0.5,1.8,1.5,2c0.1,0,0.1,0,0.2,0H28c0,1,0.7,1.8,1.6,1.8l0,0c0,0,3.7-0.1,6.3-0.1c0.1,0.6,0.5,1.1,1,1.4
		c0.6,0.3,1.3,0.5,2,0.4c0.4,0,0.7,0,1,0h0.4c0.1,0,6.4,0,8.3,0c0.1,0,0.1,0,0.2,0l0,0c0.6,0,1.3,0,2,0H52l0,0h8.8l0,0
		c0.5,0,0.9-0.2,1.3-0.6c0.3-0.3,0.4-0.7,0.4-1.1h7.4l0,0c0.5,0,0.9-0.3,1.3-0.6c0.3-0.3,0.4-0.8,0.4-1.3h7.9l0,0
		c1,0,1.7-0.8,1.7-1.8C81.2,75.8,81.2,75.7,81.2,75.7L81.2,75.7z M80,76.4c-0.1,0.2-0.3,0.2-0.5,0.3h-8v-0.2c0-0.3-0.3-0.5-0.6-0.4
		c-0.3,0-0.5,0.3-0.4,0.6c0,0.4,0.1,0.8,0.1,1.1c0,0.2,0,0.4-0.2,0.6c-0.1,0.2-0.3,0.3-0.5,0.3h-7.5c-0.1-0.2-0.3-0.3-0.5-0.3
		c-0.3,0-0.5,0.3-0.4,0.6l0,0c0,0.2,0,0.4,0.1,0.6c0,0.2,0,0.4-0.2,0.6c-0.1,0.2-0.3,0.3-0.5,0.3H52c-0.3,0-0.7,0-1.2,0h-0.7v-1.3
		c0-0.3-0.2-0.5-0.5-0.5s-0.5,0.2-0.5,0.5v1.3h-8.7h-0.5c-0.8,0.1-1.6,0.1-2.4-0.2c-0.4-0.3-0.6-0.8-0.6-1.6c0-0.3-0.2-0.5-0.5-0.5
		s-0.5,0.2-0.5,0.5l0,0c-2.6,0-6.2,0.1-6.2,0.1c-0.2,0-0.4-0.1-0.5-0.3S29,78.1,29,77.9c0-0.2,0.1-0.5,0.1-0.7
		c0-0.3-0.2-0.5-0.4-0.6c-0.2,0-0.4,0.1-0.5,0.3h-7.7c-0.2,0-0.4-0.1-0.5-0.3s-0.2-0.4-0.2-0.6c0.1-0.5,0.1-1.1,0.2-1.7
		c0.3-3.2,0.7-6.9,3.3-8.9c1.4-1,3.2-1.2,4.8-0.5c1,0.5,1.9,1.4,2.4,2.4l0.1,0.1c0,0.1,0.1,0.1,0.1,0.2c-0.1,0.1-0.1,0.1-0.2,0.2
		c-0.2,0.2-0.1,0.5,0.1,0.7l0,0c0.2,0.2,0.5,0.1,0.7-0.1c0.3-0.5,0.7-0.9,1.2-1.2c1.4-1,3.2-1.2,4.8-0.5c0.9,0.5,1.7,1.2,2.2,2.1
		l-0.1,0.1c-0.4,0.4-0.7,0.9-1,1.4c-0.1,0.2-0.1,0.5,0.2,0.7l0,0c0.1,0,0.2,0.1,0.3,0.1c0.2,0,0.3-0.1,0.4-0.2
		c0.3-0.4,0.6-0.9,0.9-1.3c0.4-0.5,0.9-0.9,1.5-1.1c1.6-0.7,3.4-0.5,4.8,0.5c1.2,1,2,2.4,2.4,3.9c0.1,0.2,0.3,0.4,0.5,0.4h0.1
		c0.2-0.1,0.3-0.2,0.3-0.4c0.3-0.6,0.7-1.4,1-1.9c0.5-1,1.4-1.9,2.4-2.4c1.6-0.7,3.4-0.5,4.8,0.5c0.2,0.2,0.5,0.4,0.7,0.6l0,0L59,70
		l0,0c0.1,0.2,0.2,0.3,0.4,0.5c0.1,0.1,0.3,0.2,0.4,0.2s0.2,0,0.3-0.1c0.2-0.1,0.3-0.5,0.1-0.7l0,0c-0.1-0.2-0.3-0.4-0.4-0.6l0,0
		l0,0c0.6-1.1,1.4-1.9,2.5-2.5c1.6-0.7,3.4-0.5,4.8,0.5c0.6,0.5,1.1,1,1.4,1.6c0.1,0.2,0.4,0.3,0.7,0.2l0,0c0.2-0.1,0.3-0.4,0.2-0.7
		l0,0c-0.1-0.2-0.2-0.3-0.3-0.4l0.3-0.6c0.5-1.1,1.4-1.9,2.5-2.4c1.6-0.7,3.4-0.5,4.8,0.5c2.6,2,2.9,5.7,3.3,8.9
		c0.1,0.6,0.1,1.1,0.2,1.7C80.3,76,80.2,76.3,80,76.4z"/>
</g>
</svg>
