<svg id="Layer_1" data-name="Layer 1" xmlns="http://www.w3.org/2000/svg" viewBox="0 0 100 100"><defs><style>.cls-1{fill:#4d4d4d;}</style></defs><title>Artboard 9</title><path class="cls-1" d="M43.18,61.67a5.2,5.2,0,0,1-3.76-1.8,9.83,9.83,0,0,1-1-1.38,9.06,9.06,0,0,0-.93-1.29,1.68,1.68,0,0,0-1.27-.65,2.31,2.31,0,0,0-1.19.68,13,13,0,0,0-1.17,1.28c-1.33,1.59-3,3.56-5.09,2.82a3.67,3.67,0,0,1-1.58-1.13A9.72,9.72,0,0,1,24.67,54c-.68-6.15-1-12.69,1-18.81a8,8,0,0,1,2.16-3.46c1.81-1.57,4.33-1.61,7.49-.12h0c1.45.69,2.82.19,4.28-.33a8.14,8.14,0,0,1,3.87-.72c4.67.58,5.63,6.37,6.1,9.16a39.41,39.41,0,0,1-.41,12.59c-.53,3.29-1.15,5.42-3.06,7.91a3.62,3.62,0,0,1-2.81,1.47Zm-6.85-6.12a2.68,2.68,0,0,1,1.93,1,9.29,9.29,0,0,1,1,1.44,9.9,9.9,0,0,0,.88,1.25,4.2,4.2,0,0,0,3.11,1.46,2.64,2.64,0,0,0,2-1.08c1.78-2.32,2.36-4.34,2.87-7.46a38.64,38.64,0,0,0,.4-12.27c-.68-4.07-1.78-7.9-5.23-8.33A7.27,7.27,0,0,0,40,32.2c-1.58.57-3.22,1.16-5.05.3-2.81-1.33-4.9-1.34-6.4,0a7,7,0,0,0-1.87,3c-2,5.93-1.64,12.34-1,18.38A8.62,8.62,0,0,0,28,59.55a2.68,2.68,0,0,0,1.15.84c1.45.51,2.81-1.1,4-2.52a13.65,13.65,0,0,1,1.26-1.38,3.14,3.14,0,0,1,1.78-.93Z"/><path class="cls-1" d="M60,69.5h-.06a3.72,3.72,0,0,1-1.86-.59,9.66,9.66,0,0,1-4.34-5.13c-2.55-5.64-4.91-11.74-4.85-18.2a8.06,8.06,0,0,1,1-4c1.24-2,3.62-2.87,7.09-2.42h0c1.59.21,2.74-.7,4-1.65a8.31,8.31,0,0,1,3.47-1.88C69,34.78,71.69,40,73,42.5A38.91,38.91,0,0,1,76.5,54.6c.52,3.29.59,5.5-.46,8.47a3.61,3.61,0,0,1-2.22,2.26,5.15,5.15,0,0,1-4.26-.51,10.48,10.48,0,0,1-1.35-1,8.64,8.64,0,0,0-1.28-1,1.72,1.72,0,0,0-1.4-.22,2.27,2.27,0,0,0-.93,1,12,12,0,0,0-.71,1.57C63.12,67.14,62.17,69.5,60,69.5ZM55.17,40.08c-2.17,0-3.63.68-4.46,2.06a7,7,0,0,0-.84,3.45c-.06,6.26,2.25,12.25,4.76,17.78a8.66,8.66,0,0,0,4,4.69,2.79,2.79,0,0,0,1.35.44h0c1.51,0,2.29-1.93,3-3.63a13.24,13.24,0,0,1,.78-1.71,3.13,3.13,0,0,1,1.4-1.43,2.62,2.62,0,0,1,2.29.27,10,10,0,0,1,1.42,1,9.89,9.89,0,0,0,1.22.91,4.1,4.1,0,0,0,3.41.43,2.65,2.65,0,0,0,1.62-1.66c1-2.76.9-4.85.42-8A38.49,38.49,0,0,0,72.11,43c-1.91-3.67-4.14-7-7.56-6.31a7.39,7.39,0,0,0-3,1.69c-1.33,1-2.71,2.1-4.71,1.85h0A12.09,12.09,0,0,0,55.17,40.08Z"/><path class="cls-1" d="M33.73,64.74A85.24,85.24,0,0,1,24,64a76.63,76.63,0,0,0-10.31-.72h0a3.39,3.39,0,0,1-3.39-3.05c-.53-5.59-.45-10.54,1.72-16.52a8.9,8.9,0,0,1,2.63-3.89c2.17-1.75,5.2-1.8,9-.13a4.81,4.81,0,0,0,1.18.33l.5.07-.07.49a2.28,2.28,0,0,0,0,.26l0,.55-.55-.07a5.52,5.52,0,0,1-1.54-.43c-3.32-1.46-5.9-1.47-7.66,0a7.64,7.64,0,0,0-2.22,3.32c-2.08,5.75-2.16,10.53-1.64,16a2,2,0,0,0,2,1.86,77.44,77.44,0,0,1,10.49.73,71.3,71.3,0,0,0,11.22.68h.25l.16.2a2.73,2.73,0,0,0,.23.25l.88.8-1.19.06Q34.74,64.74,33.73,64.74Z"/><path class="cls-1" d="M82.4,65.28a70.84,70.84,0,0,1-7.77-.52l-1-.11.68-.73.18-.23.17-.25.3,0a55.71,55.71,0,0,0,10,.41,5.29,5.29,0,0,0,1.74-.36A2.06,2.06,0,0,0,87.93,62a37.87,37.87,0,0,0,.29-12.42c-.51-2.8-1.55-8.64-6.23-9.18a9.62,9.62,0,0,0-4.08.74c-1.82.61-3.88,1.3-6.08.33l-.29-.12L71.47,41c0-.09,0-.19,0-.29l-.13-.88,1,.44c1.74.76,3.31.24,5.12-.37a10.5,10.5,0,0,1,4.66-.8c5.64.65,6.81,7.13,7.37,10.25h0a38.84,38.84,0,0,1-.29,12.86,3.37,3.37,0,0,1-2,2.58,6.91,6.91,0,0,1-2.14.45C84.19,65.25,83.3,65.28,82.4,65.28Z"/><path class="cls-1" d="M48.78,65c-2,0-3.9-.08-5.81-.16-2.59-.11-5.52-.23-8.36-.1l-.54,0,0-.54a2.26,2.26,0,0,0,0-.26l0-.52.52,0c2.86-.13,5.71,0,8.47.1a72.17,72.17,0,0,0,11.07-.11l.38,0,.14.36a2.56,2.56,0,0,0,.11.24l.37.65-.74.09c-.56.06-1.11.12-1.67.16C51.39,65,50.08,65,48.78,65Z"/></svg>