<svg id="Layer_1" data-name="Layer 1" xmlns="http://www.w3.org/2000/svg" viewBox="0 0 100 100"><defs><style>.cls-1{fill:#4d4d4d;}</style></defs><title>Artboard 8</title><path class="cls-1" d="M13.71,71.2A10.68,10.68,0,0,1,8.2,70c-3.39-2.05-3-6.47-2.77-9.39a48.52,48.52,0,0,1,4.63-17c.7-1.45,1.64-3.36,2.78-5.23,2.63-4.31,5.44-7,8.59-8.26,5.94-2.35,12.61-1.63,17,1.83,8.64,6.84,9.87,18.62,11,29,.19,1.77.37,3.49.58,5.13a4.37,4.37,0,0,1-1,3.38A4.42,4.42,0,0,1,45.8,71.1L18.34,71h0l-1.41.09C15.9,71.12,14.81,71.2,13.71,71.2ZM28.56,29.8a18.58,18.58,0,0,0-6.77,1.3c-2.93,1.16-5.58,3.73-8.09,7.85h0c-1.12,1.84-2,3.71-2.74,5.14A47.45,47.45,0,0,0,6.43,60.7c-.24,2.84-.57,6.72,2.29,8.45,2.17,1.32,5.33,1.1,8.11.91l1.45-.1,27.5.14A3.39,3.39,0,0,0,49,66.28c-.21-1.65-.4-3.38-.58-5.16-1.07-10.2-2.28-21.76-10.58-28.33A14.86,14.86,0,0,0,28.56,29.8Z"/><path class="cls-1" d="M58.46,71.2A10.7,10.7,0,0,1,52.94,70c-3.38-2.05-3-6.47-2.77-9.39a48.68,48.68,0,0,1,4.63-17c.7-1.45,1.64-3.35,2.79-5.23h0c2.63-4.31,5.43-7,8.58-8.26,5.94-2.35,12.61-1.63,17,1.83,8.63,6.84,9.86,18.62,11,29,.18,1.77.36,3.49.57,5.13a4.4,4.4,0,0,1-1,3.38,4.46,4.46,0,0,1-3.16,1.57L63.08,71h0l-1.42.09C60.64,71.12,59.55,71.2,58.46,71.2Zm0-32.25c-1.12,1.84-2,3.72-2.74,5.14A47.67,47.67,0,0,0,51.17,60.7c-.24,2.84-.56,6.72,2.29,8.45,2.18,1.32,5.33,1.1,8.11.91L63,70l27.5.14a3.39,3.39,0,0,0,3.17-3.82c-.21-1.65-.39-3.38-.58-5.16C92,50.92,90.84,39.36,82.54,32.79c-4.11-3.25-10.38-3.91-16-1.69C63.6,32.26,61,34.83,58.44,39Z"/><path class="cls-1" d="M7.5,51.82,7.32,50.2l.5-.06a109.46,109.46,0,0,1,15.84-.33l.55,0-.07.54a5.54,5.54,0,0,0-.05.56v.52l-.51,0A108.64,108.64,0,0,0,8,51.76Z"/><path class="cls-1" d="M39.32,52c-2.72,0-5.35-.09-7.57-.18l-.52,0,0-.51a5.23,5.23,0,0,0,0-.56l0-.56.56,0A119.47,119.47,0,0,0,47.37,50l.5,0L48,51.57l-.5,0C45,51.84,42.34,52,39.32,52Z"/><path class="cls-1" d="M83.92,52.11c-2.75,0-5.51-.1-7.61-.18l-.46,0,0-.46a5.07,5.07,0,0,0,0-.56l-.11-.61.62,0A120.93,120.93,0,0,0,92,50.15l.5,0,.15,1.62-.5,0C89.63,52,87,52.11,83.92,52.11Z"/><path class="cls-1" d="M52.1,52l-.18-1.62.5-.06A110.09,110.09,0,0,1,68.31,50l.62,0-.15.6a3.53,3.53,0,0,0-.1.55l-.05.47-.46,0a108.53,108.53,0,0,0-15.57.33Z"/><path class="cls-1" d="M73.81,53.67l-1.56,0a23.62,23.62,0,0,0-3,0c-.18,0-1.07,0-1.07,0h-.51l0-1.55a18.57,18.57,0,0,1,.23-3l.06-.39.4,0c1.26-.09,2.68-.07,4.06-.06h.84c1.81,0,2.13,0,2.65,0l.46,0,0,.45c.11.84.17,1.7.23,2.53,0,.43.06.87.1,1.29l0,.46-.45.08A14,14,0,0,1,73.81,53.67Zm-5.14-1h.46a23.91,23.91,0,0,1,3.16,0,19.84,19.84,0,0,0,3.45-.08c0-.28,0-.57-.07-.85,0-.67-.09-1.35-.17-2-.39,0-.94,0-2.23,0h-.84c-1.21,0-2.46,0-3.58,0a16.88,16.88,0,0,0-.16,2.4Z"/><path class="cls-1" d="M68.82,54h-.68l-.82,0,.06-1.87a18,18,0,0,1,.23-3l.1-.63.64,0c1.29-.09,2.78-.08,4.08-.06h.85c1.8,0,2.12,0,2.63,0l.75,0,.09.74c.11.84.17,1.71.23,2.54,0,.44.06.87.1,1.3l.06.73-.72.14a19.18,19.18,0,0,1-4.18.17,24.87,24.87,0,0,0-3,0Zm1.88-1.69c.52,0,1,0,1.54,0a22.07,22.07,0,0,0,3.16,0l0-.55c0-.59-.08-1.16-.14-1.72H72.41c-1.1,0-2.24,0-3.28,0A14.34,14.34,0,0,0,69,52.09v.27h.11C69.59,52.31,70.11,52.29,70.7,52.29Z"/><path class="cls-1" d="M23.13,53.42V51.87a18,18,0,0,1,.15-3l0-.4.39,0c1.28-.13,2.71-.15,4.11-.18h.79c1.78,0,2.13,0,2.65-.08l.46,0,.07.45c.13.83.21,1.69.3,2.52,0,.43.08.86.13,1.29l.05.45-.44.1a18.62,18.62,0,0,1-4.1.28,23.81,23.81,0,0,0-3,.11c-.19,0-1.07,0-1.07,0Zm1.09-4a18.62,18.62,0,0,0-.09,2.4v.58l.46,0a24.15,24.15,0,0,1,3.15-.12,19.8,19.8,0,0,0,3.45-.18l-.09-.84c-.06-.67-.13-1.35-.22-2-.41,0-1,0-2.24,0h-.8C26.62,49.32,25.35,49.34,24.22,49.43Z"/><path class="cls-1" d="M22.82,53.73V51.87a18.7,18.7,0,0,1,.15-3l.08-.63.64-.07C25,48,26.41,48,27.81,48h.81c1.79,0,2.11,0,2.63-.08l.75,0,.11.74c.13.82.21,1.66.29,2.48.05.48.09.91.14,1.34l.09.73-.72.15a18.74,18.74,0,0,1-4.17.29,26.47,26.47,0,0,0-3,.11c-.19,0-.95,0-1.1,0Zm1.69-4a16.68,16.68,0,0,0-.07,2.09v.27h.11a24.09,24.09,0,0,1,3.2-.12,21.26,21.26,0,0,0,3.1-.13l-.06-.55c-.06-.58-.11-1.15-.19-1.72l-2,0h-.81C26.71,49.64,25.56,49.65,24.51,49.73Z"/></svg>