<?xml version="1.0" encoding="utf-8"?>
<!-- Generator: Adobe Illustrator 23.0.0, SVG Export Plug-In . SVG Version: 6.00 Build 0)  -->
<svg version="1.1" id="Layer_1" xmlns="http://www.w3.org/2000/svg" xmlns:xlink="http://www.w3.org/1999/xlink" x="0px" y="0px"
	 viewBox="0 0 100 100" style="enable-background:new 0 0 100 100;" xml:space="preserve">
<style type="text/css">
	.st0{fill:#4D4D4D;}
</style>
<title>Artboard 6</title>
<g>
	<path class="st0" d="M24.9,34.7c0.1-1.6,1.2-3,2.8-3.5c0.7-0.3,0.4-0.8-0.4-0.7c-0.9,0.1-1.6,0.6-2.2,1.3c-0.7,0.7-1.1,1.7-1,2.6
		C24.1,35.3,24.8,35.5,24.9,34.7z"/>
	<path class="st0" d="M47,74.8c-2.4-0.1-4.6-1.2-6.2-3c-0.6-0.7-1.2-1.5-1.6-2.3c-0.5-0.8-1-1.6-1.6-2.3C37,66.4,36.1,66,35.1,66
		c-0.9,0.2-1.7,0.6-2.3,1.3c-0.7,0.7-1.4,1.4-2,2.2c-2.2,2.6-5,5.9-8.3,4.7c-1-0.4-1.9-1-2.6-1.8c-3-3.6-3.8-5.8-4.3-10.5
		c-1.2-10.5-1.8-21.6,1.7-32.1c0.7-2.2,1.9-4.2,3.6-5.8c3-2.6,7.2-2.6,12.5-0.1l0,0c2.6,1.2,5,0.4,7.6-0.6c2-0.9,4.3-1.3,6.5-1.2
		c7.7,1,9.4,10.7,10.1,15.4c1.2,7.5,0.3,15-0.7,21.5c-0.9,5.6-2,9.2-5.2,13.4c-1.1,1.4-2.7,2.3-4.5,2.4H47z M35.3,65
		c1.2,0.1,2.3,0.6,3,1.5c0.6,0.8,1.2,1.6,1.7,2.4s1,1.5,1.5,2.2c1.4,1.6,3.4,2.6,5.6,2.6c1.5,0,2.9-0.8,3.8-2c3.1-4,4.1-7.5,5-13
		c1-6.4,1.9-13.8,0.7-21.1c-1.2-7.1-3.1-13.8-9.2-14.5c-2.1-0.1-4.1,0.3-6,1.2c-2.6,0.9-5.4,1.9-8.4,0.5c-4.9-2.3-8.7-2.3-11.4,0
		c-1.5,1.5-2.7,3.3-3.3,5.3c-3.5,10.2-2.9,21.3-1.8,31.7c0.5,4.4,1.2,6.6,4,9.9c0.6,0.7,1.3,1.2,2.1,1.5c2.7,1,5.1-1.9,7.3-4.4
		c0.7-0.8,1.4-1.6,2.1-2.3c0.8-0.8,1.8-1.3,2.8-1.5L35.3,65z"/>
	<path class="st0" d="M62.2,55.8c-0.3,0-0.5,0.2-0.5,0.5l0,0v22.6c0,0.4-0.3,0.7-0.7,0.7H50.3H32.4c-3,0-6,0-8.9,0.1h-1
		c-2.3,0.1-4.7,0.1-6.8-0.9c-3-1.4-2.9-4.2-2.6-7.3c0.1-1,0.2-2.2,0.2-3.5c0.1-3.9,0.3-8.4,2.4-11.2c0.1-0.2,0.2-0.3,0.1-0.5
		c-0.1-0.3-0.1-0.7-0.1-1.1c-3.1,2.9-3.3,8.3-3.5,12.8c0,1.3-0.1,2.4-0.2,3.4c-0.3,2.6-0.7,6.5,3.2,8.4c1.8,0.8,3.7,1.1,5.7,1h2.6
		c3,0,6-0.1,8.9-0.1h17.9c3.1,0,9.2,0,12.3,0l0.1-24.4C62.7,56,62.5,55.8,62.2,55.8z"/>
	<path class="st0" d="M87.9,15.9L87.9,15.9l-6.4-2.7l0,0c-0.1,0-0.1,0-0.2-0.1c-0.3,0-0.5,0.2-0.6,0.5c0,0.2,0.1,0.4,0.3,0.5l0,0
		l0,0l0,0l1.4,0.6L78.3,20l-4.2-2.1c-0.1,0-0.1-0.1-0.2-0.1c-0.3,0-0.5,0.2-0.6,0.5c0,0.2,0.1,0.4,0.2,0.5l0,0l0,0c0,0,0,0,0.1,0
		l2.5,1.3c-5,6.8-7,9.6-9,12.6c0,0.1-0.1,0.1-0.1,0.1l-4.2,5.9c-0.7,0.9,1.6,2,2.1,2.3v0.1l0,0L61.7,46l0,0
		c-0.1,0.1-0.1,0.2-0.1,0.3c0,0.3,0.2,0.5,0.5,0.5c0.2,0,0.3-0.1,0.4-0.2l0,0l3.2-5c0.8,0.5,1.5,1.1,2.4,1.6c0.1,0,0.2,0.1,0.3,0.1
		c0.1,0,0.2-0.1,0.3-0.2c1.1-1.3,2-2.9,3-4.3c0.3-0.4,0.6-0.9,1-1.3l0.4-0.5c3.3-4.6,6.7-9.3,9.4-13.1c0.1-0.1,0.1-0.2,0.2-0.3
		l2.4,1.2l0,0c0.1,0,0.1,0.1,0.2,0.1c0.3,0,0.5-0.2,0.6-0.5c0-0.2-0.1-0.4-0.2-0.5l0,0l0,0l0,0l-4.2-2.1l4.2-5.5l1.5,0.7l0,0h0.1
		l0,0h0.1c0.3,0,0.5-0.2,0.5-0.5C88.2,16.2,88.1,16,87.9,15.9z M82.1,22.9c0,0.1-0.1,0.1-0.1,0.2L76.3,31l0,0
		c-0.6,0.9-1.2,1.7-1.8,2.6c-1.2,1.7-2.4,3.3-3.6,5c-0.8,1.2-1.6,2.4-2.5,3.5c-0.7-0.5-1.3-1-2-1.4c-0.8-0.5-1.6-1.1-2.4-1.7
		l1.9-2.7l0,0l2.2-3.1c0.3,0.3,0.6,0.5,1,0.7c0.3,0.2,0.7,0.4,0.9,0.7l0.9-0.4c-0.3-0.5-0.8-0.9-1.3-1.1c-0.3-0.2-0.6-0.4-0.9-0.7
		c0.3-0.4,0.6-0.8,0.9-1.2l1.9-2.6l0,0c0.4-0.6,0.9-1.3,1.4-2c0.3,0.2,0.7,0.5,1,0.6s0.6,0.3,0.9,0.6l0.9-0.4
		c-0.4-0.5-0.8-0.8-1.4-1c-0.2-0.1-0.5-0.3-0.8-0.5l3.7-5.2L82.1,22.9z M80.8,21.1l-1.4-0.7l4.1-5.3l1.5,0.6L80.8,21.1z"/>
</g>
</svg>
