<?xml version="1.0" encoding="utf-8"?>
<!-- Generator: Adobe Illustrator 23.0.0, SVG Export Plug-In . SVG Version: 6.00 Build 0)  -->
<svg version="1.1" id="Layer_1" xmlns="http://www.w3.org/2000/svg" xmlns:xlink="http://www.w3.org/1999/xlink" x="0px" y="0px"
	 viewBox="0 0 25 20" style="enable-background:new 0 0 25 20;" xml:space="preserve">
<style type="text/css">
	.st0{fill:#FFFFFF;}
</style>
<path class="st0" d="M13.7,1.5c-0.4-0.1-0.8-0.1-1.2-0.1c-1.7,0-3.2,0.7-4.3,1.8l2.5,2L13.7,1.5z M10.2,5.8l-2.5-2
	c-0.8,1-1.3,2.3-1.3,3.7c0,0.8,0.2,1.6,0.5,2.3L10.2,5.8z M11.6,5.1C11.9,5,12.2,5,12.5,5C13.9,5,15,6.1,15,7.5c0,0.1,0,0.2,0,0.4
	l2.8-3.4c-0.7-1.3-1.9-2.2-3.3-2.7L11.6,5.1z M13.3,9.9C13,10,12.8,10,12.5,10C11.1,10,10,8.9,10,7.5c0-0.1,0-0.3,0-0.4l-2.8,3.4
	c0.1,0.2,0.3,0.5,0.5,0.7c0.1,0.2,0.3,0.4,0.5,0.7c0.5,0.6,1.1,1.4,1.6,2.2L13.3,9.9z M10.3,14.7c0.7,1.1,1.4,2.3,1.5,3.2
	c0.1,0.4,0.4,0.6,0.7,0.6c0.4,0,0.7-0.3,0.7-0.6c0.2-1.7,2.4-4.5,3.5-6c0.2-0.3,0.4-0.5,0.5-0.7c0.9-1.1,1.4-2.4,1.4-3.8
	c0-0.8-0.2-1.6-0.5-2.3L10.3,14.7z"/>
</svg>
