<?xml version="1.0" encoding="utf-8"?>
<!-- Generator: Adobe Illustrator 23.0.0, SVG Export Plug-In . SVG Version: 6.00 Build 0)  -->
<svg version="1.1" id="Layer_1" xmlns="http://www.w3.org/2000/svg" xmlns:xlink="http://www.w3.org/1999/xlink" x="0px" y="0px"
	 viewBox="0 0 25 20" style="enable-background:new 0 0 25 20;" xml:space="preserve">
<style type="text/css">
	.st0{fill:#FFFFFF;}
</style>
<path class="st0" d="M23.1,4.7c-0.3-1-1-1.7-1.9-2c-1.7-0.5-8.6-0.5-8.6-0.5S5.7,2.2,4,2.7c-0.9,0.3-1.7,1-1.9,2
	C1.5,6.4,1.5,10,1.5,10s0,3.6,0.5,5.3c0.3,1,1,1.7,1.9,2c1.7,0.5,8.6,0.5,8.6,0.5s6.9,0,8.6-0.5c0.9-0.3,1.7-1,1.9-2
	c0.5-1.7,0.5-5.3,0.5-5.3S23.5,6.4,23.1,4.7z M10.2,13.3V6.7L16,10L10.2,13.3z"/>
</svg>
