<?xml version="1.0" encoding="utf-8"?>
<!-- Generator: Adobe Illustrator 23.0.0, SVG Export Plug-In . SVG Version: 6.00 Build 0)  -->
<svg version="1.1" id="Layer_1" xmlns="http://www.w3.org/2000/svg" xmlns:xlink="http://www.w3.org/1999/xlink" x="0px" y="0px"
	 viewBox="0 0 25 20" style="enable-background:new 0 0 25 20;" xml:space="preserve">
<style type="text/css">
	.st0{fill:#F05641;}
	.st1{fill:#FFFFFF;}
</style>
<g id="XMLID_1_">
	<g id="XMLID_2_">
		<path id="XMLID_7_" class="st0" d="M12.5,3.8c2,0,2.3,0,3.1,0c0.7,0,1.1,0.2,1.4,0.3c0.4,0.1,0.6,0.3,0.9,0.6
			c0.3,0.3,0.4,0.5,0.6,0.9c0.1,0.3,0.2,0.7,0.3,1.4c0,0.8,0,1,0,3.1c0,2,0,2.3,0,3.1c0,0.7-0.2,1.1-0.3,1.4
			c-0.1,0.4-0.3,0.6-0.6,0.9c-0.3,0.3-0.5,0.4-0.9,0.6c-0.3,0.1-0.7,0.2-1.4,0.3c-0.8,0-1,0-3.1,0c-2,0-2.3,0-3.1,0
			c-0.7,0-1.1-0.2-1.4-0.3c-0.4-0.1-0.6-0.3-0.9-0.6c-0.3-0.3-0.4-0.5-0.6-0.9c-0.1-0.3-0.2-0.7-0.3-1.4c0-0.8,0-1,0-3.1
			c0-2,0-2.3,0-3.1c0-0.7,0.2-1.1,0.3-1.4c0.1-0.4,0.3-0.6,0.6-0.9C7.4,4.4,7.7,4.3,8,4.1C8.3,4,8.7,3.9,9.4,3.9
			C10.2,3.8,10.5,3.8,12.5,3.8 M12.5,2.5c-2.1,0-2.3,0-3.1,0C8.6,2.5,8,2.7,7.6,2.8C7.1,3,6.6,3.3,6.2,3.7C5.8,4.1,5.5,4.6,5.3,5.1
			C5.2,5.5,5,6.1,5,6.9C5,7.7,5,7.9,5,10c0,2.1,0,2.3,0,3.1c0,0.8,0.2,1.4,0.4,1.8c0.2,0.5,0.5,0.9,0.9,1.3c0.4,0.4,0.8,0.7,1.3,0.9
			c0.5,0.2,1,0.3,1.8,0.4c0.8,0,1.1,0,3.1,0c2.1,0,2.3,0,3.1,0c0.8,0,1.4-0.2,1.8-0.4c0.5-0.2,0.9-0.5,1.3-0.9
			c0.4-0.4,0.7-0.8,0.9-1.3c0.2-0.5,0.3-1,0.4-1.8c0-0.8,0-1.1,0-3.1c0-2.1,0-2.3,0-3.1c0-0.8-0.2-1.4-0.4-1.8
			c-0.2-0.5-0.5-0.9-0.9-1.3c-0.4-0.4-0.8-0.7-1.3-0.9c-0.5-0.2-1-0.3-1.8-0.4C14.8,2.5,14.6,2.5,12.5,2.5"/>
		<path id="XMLID_4_" class="st0" d="M12.5,6.1c-2.1,0-3.9,1.7-3.9,3.9s1.7,3.9,3.9,3.9c2.1,0,3.9-1.7,3.9-3.9S14.6,6.1,12.5,6.1
			 M12.5,12.5c-1.4,0-2.5-1.1-2.5-2.5c0-1.4,1.1-2.5,2.5-2.5c1.4,0,2.5,1.1,2.5,2.5C15,11.4,13.9,12.5,12.5,12.5"/>
		<path id="XMLID_3_" class="st0" d="M17.4,6c0,0.5-0.4,0.9-0.9,0.9c-0.5,0-0.9-0.4-0.9-0.9s0.4-0.9,0.9-0.9C17,5.1,17.4,5.5,17.4,6
			"/>
	</g>
</g>
</svg>
