<?xml version="1.0" encoding="utf-8"?>
<!-- Generator: Adobe Illustrator 23.0.0, SVG Export Plug-In . SVG Version: 6.00 Build 0)  -->
<svg version="1.1" id="Layer_1" xmlns="http://www.w3.org/2000/svg" xmlns:xlink="http://www.w3.org/1999/xlink" x="0px" y="0px"
	 viewBox="0 0 15 15" style="enable-background:new 0 0 15 15;" xml:space="preserve">
<style type="text/css">
	.st0{fill:#68BC49;}
	.st1{fill:#A4CE4E;}
	.st2{fill:#1992D1;}
	.st3{fill:#0466A6;}
	.st4{fill:#010101;}
	.st5{fill:#7E4297;}
	.st6{fill:#1F8CCB;}
	.st7{fill:#F68522;}
	.st8{fill:#3EB449;}
	.st9{fill:#716E6F;}
	.st10{fill:#F89D1C;}
	.st11{fill:#47B649;}
	.st12{fill:#2675BC;}
	.st13{fill-rule:evenodd;clip-rule:evenodd;fill:#4F122E;}
	.st14{fill:#F5BE27;}
</style>
<g>
	<path class="st14" d="M2.1,5.9C1.7,5.4,1.3,4.8,1.7,4.3C1.8,4.2,2,4.1,2.1,4.1c1.1-0.3,2.7,0.2,3.7-0.2c1.2-0.5,1.6-2.2,3-2.5
		c0.1,0,0.3,0,0.4,0C9.6,1.5,9.6,1.7,9.6,2c0,0.8-0.1,1.5-0.3,2.2c0,0.2-0.1,0.3-0.1,0.5c0.1,0.3,0.5,0.5,0.8,0.7
		c0.5,0.2,1.1,0.3,1.7,0.4c0.5,0.1,0.9,0.1,1.3,0.4c0.2,0.1,0.3,0.3,0.3,0.4c0.2,0.6-0.3,1-0.8,1.2c-0.7,0.4-1.6,0.7-2.4,0.8
		c-0.3,0-0.5,0.1-0.7,0.2c-0.3,0.3-0.2,0.8-0.1,1.2c0.2,0.7,0.4,1.3,0.5,2c0,0.4,0,0.8-0.1,1.2c-0.2,0.4-0.7,0.6-1.1,0.3
		c-1-0.8-1.6-2.3-2.6-3.3c-0.1-0.1-0.1,0-0.2,0l-1.2,1.1c-0.4,0.4-0.8,0.9-1.4,0.9c-0.1,0-0.2,0-0.3-0.1C2.4,12,2.5,11.4,2.6,11
		c0.2-1,0.4-2,0.5-3C3.2,7.1,2.6,6.5,2.1,5.9"/>
</g>
</svg>
