<?xml version="1.0" encoding="utf-8"?>
<!-- Generator: Adobe Illustrator 23.0.0, SVG Export Plug-In . SVG Version: 6.00 Build 0)  -->
<svg version="1.1" xmlns="http://www.w3.org/2000/svg" xmlns:xlink="http://www.w3.org/1999/xlink" x="0px" y="0px"
	 viewBox="0 0 1440 64" style="enable-background:new 0 0 1440 64;" xml:space="preserve">
<style type="text/css">
	.st0{fill:#FFF8F0;}
	.st1{clip-path:url(#SVGID_2_);}
	.st2{fill:#9AC0E6;}
	.st3{fill:#EAA9CB;}
	.st4{fill:#F7BE29;}
	.st5{fill:#F5BE29;}
	.st6{fill:#F05641;}
	.st7{opacity:0.58;clip-path:url(#SVGID_2_);}
	.st8{fill:none;stroke:#FFFFFF;stroke-miterlimit:10;}
	.st9{clip-path:url(#SVGID_4_);}
	.st10{opacity:0.58;clip-path:url(#SVGID_4_);}
	.st11{opacity:0.62;clip-path:url(#SVGID_4_);}
	.st12{fill:#9ABEE4;}
	.st13{opacity:0.25;fill:url(#);enable-background:new    ;}
	.st14{fill:#92D2C7;}
	.st15{fill:#7D4097;}
	.st16{fill:#1A8BCB;}
	.st17{fill:#F58522;}
	.st18{fill:#3BB44A;}
	.st19{fill:none;stroke:#231F20;stroke-miterlimit:10;}
	.st20{fill:#706D6E;}
	.st21{fill:#F89C0E;}
	.st22{fill:#40B93C;}
	.st23{fill:#1575C5;}
	.st24{fill:#A4CE4E;}
	.st25{fill:#0192D5;}
	.st26{fill:#0065A5;}
	.st27{fill:#67BB49;}
	.st28{fill:#F2CF80;}
	.st29{opacity:0.25;fill:url(#);}
	.st30{fill:none;stroke:#3B3937;stroke-width:0.25;stroke-miterlimit:10;}
	.st31{fill:#FFFFFF;}
	.st32{fill:#181818;}
	.st33{fill:#1A1A1A;}
	.st34{fill:#FFFCF8;}
	.st35{fill-rule:evenodd;clip-rule:evenodd;}
	.st36{fill:#222221;}
	.st37{fill:#FABE15;}
	.st38{opacity:0.42;fill:url(#);}
	.st39{fill:#99BFE5;}
	.st40{fill:#4E4C49;}
	.st41{fill:#3B3937;}
	.st42{fill:#ECA7CA;}
	.st43{fill:#F0553C;}
	.st44{fill:#CDCECE;}
</style>
<g id="Layer_4">
	<rect x="-1" y="1" class="st0" width="1441" height="63"/>
	<g>
		<defs>
			<polygon id="SVGID_1_" points="1444,64 -1,64 -1.4,3.8 1444,-2 			"/>
		</defs>
		<clipPath id="SVGID_2_">
			<use xlink:href="#SVGID_1_"  style="overflow:visible;"/>
		</clipPath>
		<g class="st1">
			<g>
				<path class="st2" d="M162.3-14.6c-5.2-2.5-11.6-4.1-16.4,0.1c-2.3,2-3.8,4.8-4.8,7.7c-4.7,14.1-4,29.3-2.4,44
					c0.7,6.2,1.7,9.3,5.8,14.1c0.9,1,2,1.9,3.2,2.3c5.7,2,10.2-6.4,13.6-9.5c1-0.9,2.2-1.8,3.5-1.9c1.5-0.1,3,0.8,4,1.9
					c1.7,1.9,2.8,4.4,4.5,6.3c3.7,4.1,10.3,5.7,14,0.9c4.5-5.9,5.9-11,7-18.2c1.6-9.7,2.6-19.7,1-29.4c-1.3-7.9-3.7-19.5-13.4-20.7
					C175-17.8,169.2-11.3,162.3-14.6"/>
			</g>
			<g>
				<path d="M184.8,33.9c-7.1,0-14.2-0.8-21.1-1.6c-7.4-0.9-15.1-1.7-22.7-1.6c0,0-0.1,0-0.1,0c-3.2,0-5.9-2.5-6.2-5.7
					c-1.2-12.1-1-22.8,3.7-35.7c0.9-2.4,2.5-5.7,5.4-8c4.4-3.6,10.7-3.6,18.6-0.1c4.2,1.8,8,0.6,12-0.8c3.1-1,6.3-2.1,9.7-1.7
					c11.5,1.3,14,15,15.2,21.6c1.8,10,0.6,20.1-0.6,27.8c-0.3,2.2-1.8,4-3.8,4.8l0,0c-1.3,0.5-2.6,0.8-4.4,0.9
					C188.6,33.8,186.7,33.9,184.8,33.9z M142.7,30c7.1,0,14.2,0.8,21,1.6c8.7,1,17.7,2,26.7,1.4c1.6-0.1,3-0.4,4.2-0.9l0,0
					c1.8-0.7,3.1-2.4,3.4-4.3c1.2-7.6,2.4-17.6,0.6-27.6c-1.1-6.4-3.5-19.7-14.6-21c-3.3-0.4-6.4,0.7-9.4,1.7
					c-4,1.3-8.1,2.7-12.5,0.8c-7.7-3.4-13.7-3.3-17.9,0c-2.8,2.2-4.4,5.4-5.2,7.7c-4.6,12.8-4.8,23.4-3.7,35.4
					c0.3,2.9,2.7,5.1,5.6,5.1C141.5,30,142.1,30,142.7,30z"/>
			</g>
		</g>
		<g class="st1">
			<g>
				<path class="st3" d="M49.6,12.5c17.5-2.5,31.8,2.3,47.6,3.6c0.3,0,0.4,0.5,0.1,0.6l-9,5.2c-0.2,0.1-0.2,0.5,0.1,0.6
					c4.3,1.2,8.4,3,12.2,5.3c0.3,0.2,0.2,0.6-0.1,0.6c-3.1,0.5-6.3,0.8-9.5,0.7c-0.3,0-0.5,0.4-0.2,0.6c2.4,2,4.1,4.7,6.5,6.7
					c1.4,1.2,0.2,1.6-3,0.2c-7.1-3.2-23.7-6.5-31.5-7.2c-12.5-1-13.3,0.6-25.3,4.3c-0.3,0.1-0.7-5.2-0.7-5.5c0-5.5-0.3-7.3,0.5-9.1
					C39.3,14.9,45.6,13,49.6,12.5"/>
			</g>
			<g>
				<path class="st4" d="M41.2,35.7c-0.2-0.5-0.4-1-0.7-1.6c2.5,1.1,5.2,1.8,7.9,2.2c1.9,0.2,4.2,0.1,4.8-2c0.2-0.7,0.1-1.4-0.1-2
					c-0.6-1.7-1.9-2.7-3.1-3.9c-1.5-1.4-2.9-3-4.1-4.7c-0.8-1.1-1.5-2.5-1-3.6c0.2-0.6,0.7-1,1.2-1.4c2-1.8,3.9-3.9,5.4-6.2
					c0.5-0.7,0.9-1.6,0.3-2.5c-0.2-0.3-0.8-0.7-1.1-0.9c-4.6-1.8-9.3,2.4-14,1.4c-3.9-0.9-7.8-5.8-11.6-7c-0.6-0.2-1.2-0.2-1.7-0.1
					c-2.2,0.6-2.3,3.2-2.1,5.3c0.2,3,0.8,6.2-1.3,8.4c-2.6,2.6-5,5.4-7.8,8c-1.1,1-2.4,2.5-1.6,4.1c0.2,0.4,0.5,0.7,0.8,1
					c1.8,1.3,4.1,0.8,6,0.2l5.8-0.8c0.3-0.1,0.5,0.1,0.6,0.4c1.2,4.9-0.3,10.5,1.1,15c0.5,1.7,2.5,2.5,3.9,1.5
					c1.1-0.8,2.1-2,2.8-3.3c1.2-2.1,1.8-4.6,2.7-6.9c0.1-0.4,0.3-0.8,0.5-1.1c0.2,0.7,0.6,1.3,0.9,2.1c2.7,6.5,5.9,12.8,8.8,19.2
					c3.3,7.3,6.6,14.6,9.9,21.8c0.2,0.3,0.4,0.7,0.7,0.8c0.3,0.1,0.6-0.1,0.9-0.3c1.2-0.9,2.3-1.9,3.3-2.9
					C53.2,62.4,47.2,49,41.2,35.7"/>
			</g>
		</g>
		<g class="st1">
			<g>
				<path class="st3" d="M543.1,32.3c0.1-0.5,0.3-0.9,0.6-1.3c1.2-1.5,3.7-0.4,5.3,0.7c-0.6-1-0.1-2.5,0.9-3.1
					c1-0.7,2.3-0.6,3.4-0.1c0.7,0.4,1.5,1,2.3,0.8c0.7-0.2,1.1-0.9,1.6-1.5c1-1.2,2.9-1.5,4.3-0.8c0.5,0.2,0.9,0.6,1.4,0.5
					c0.8-0.1,1.2-1,1.6-1.6c1.3-2,4.6-2,6,0c0.7-1.1,1.5-2.2,2.6-2.8c1.1-0.6,2.6-0.7,3.6,0.1c0.7,0.6,1,1.5,1.4,2.3l3.3,8.7
					c0.1,0.3,0.2,0.5,0.2,0.8c-0.1,0.6-0.8,0.9-1.4,1.1c-8.2,2.3-16.7,3.2-24.9,5.6c-2.6,0.7-8.5,4.3-10.8,2.9
					C541.3,42.8,542.3,34.9,543.1,32.3"/>
			</g>
			<g>
				<path class="st2" d="M545.9,56.8c2.2,0.3,4.9-0.6,6.9-1c3.5-0.6,7-1.1,10.5-1.8c6.9-1.4,13.8-3.1,20.4-5.6
					c1-0.4,2.1-0.8,2.9-1.6c2.2-2.3,2.4-5.5,5-7.8c2.5-2.2,5.4-3.9,8.4-5.3c5.6-2.7,11.5-4.7,17.5-6.4c20.6-6.1,30-8.4,50.6-14.6
					c5.2-1.5,11.4-4.2,11.9-9.6c0.4-4.2-3.3-7.8-7.3-8.9c-4-1.1-10.2,4.2-14.2,5.1c-23.7,5.3-34.5,10.2-57.6,17.6
					c-5.2,1.7-10.9,3.6-14.1,8.1c-2,2.8-2.9,6.3-5.4,8.6c-2.2,2.1-5.4,2.9-8.4,3.7c-5.3,1.3-10.5,2.5-15.8,3.8
					c-3.8,0.9-8.8,0.3-12,2.8c-2.9,2.2-4,7.2-2.4,10.5C543.3,55.9,544.5,56.6,545.9,56.8"/>
			</g>
			<g>
				<path class="st4" d="M537,6.1c-0.4-0.2-0.9-0.5-0.8-0.9c0-0.1,0.1-0.2,0.2-0.3c0.6-0.7,2-0.9,2.5-1.6c0.7-0.8,0.3-2.2,1.1-2.9
					c0.1-0.1,0.2-0.1,0.3-0.1c0.3,0,0.4,0.1,0.5,0.3c0.3,0.5,0.5,1.1,0.7,1.7c0,0.1,0.1,0.3,0.2,0.4c0.2,0.2,0.5,0.2,0.8,0.2
					c0.5-0.1,0.9-0.2,1.3-0.3c0.3-0.1,0.7-0.3,1.1-0.2c0.2,0,0.3,0.1,0.4,0.2c0.4,0.3,0.2,0.8-0.1,1.1c-0.4,0.6-0.8,1.1-1.4,1.5
					c-0.2,0.1-0.3,0.3-0.4,0.5c-0.1,0.3,0.1,0.6,0.4,0.9c0.4,0.4,0.8,0.8,1.1,1.2c0.2,0.3,0.3,0.6,0.4,0.9c0.1,0.4-0.3,0.7-0.7,0.6
					c-1-0.2-2-1-3.1-1.3c-0.1,0-0.1,0-0.1,0.1L540.9,9c-0.1,0.5-0.2,1-0.6,1.2c-0.1,0-0.2,0.1-0.3,0.1c-0.4,0-0.6-0.4-0.7-0.7
					c-0.2-0.8-0.5-1.6-0.8-2.3C538.3,6.6,537.6,6.4,537,6.1"/>
			</g>
			<g>
				<path class="st4" d="M550.6,7.9c-0.2-0.1-0.5-0.2-0.5-0.5c0-0.1,0.1-0.1,0.1-0.2c0.3-0.3,1.1-0.5,1.4-0.9
					c0.4-0.4,0.2-1.2,0.6-1.6c0,0,0.1-0.1,0.2-0.1c0.1,0,0.2,0.1,0.3,0.2c0.2,0.3,0.3,0.6,0.4,0.9c0,0.1,0,0.1,0.1,0.2
					c0.1,0.1,0.3,0.1,0.4,0.1c0.2,0,0.5-0.1,0.7-0.2c0.2-0.1,0.4-0.2,0.6-0.1c0.1,0,0.2,0,0.2,0.1c0.2,0.2,0.1,0.4,0,0.6
					c-0.2,0.3-0.5,0.6-0.7,0.8c-0.1,0.1-0.2,0.1-0.2,0.2c-0.1,0.2,0.1,0.3,0.2,0.5c0.2,0.2,0.4,0.4,0.6,0.6c0.1,0.1,0.2,0.3,0.2,0.5
					c0,0.2-0.2,0.4-0.4,0.3c-0.6-0.1-1.1-0.5-1.7-0.7c0,0-0.1,0-0.1,0l-0.2,0.7c0,0.2-0.1,0.5-0.3,0.6c0,0-0.1,0-0.1,0
					c-0.2,0-0.3-0.2-0.4-0.4c-0.1-0.4-0.3-0.8-0.4-1.2C551.3,8.1,551,8,550.6,7.9"/>
			</g>
			<g>
				<path d="M550.7,42.3l-0.8-0.1c0.4-3.5-0.2-7.2-1.8-10.4l0.7-0.4C550.4,34.7,551.1,38.6,550.7,42.3z"/>
			</g>
			<g>
				<path d="M558.5,40.8l-0.8-0.1c0.1-0.8,0-1.6,0-2.4c-0.2-1.8-0.4-3.7-0.9-5.5c-0.4-1.1-0.9-2.1-1.6-2.9l0.6-0.5
					c0.7,0.9,1.3,2,1.7,3.2c0.6,1.8,0.8,3.8,1,5.7C558.6,39,558.6,39.9,558.5,40.8z"/>
			</g>
			<g>
				<path d="M565.5,38.9l-0.8,0.1c-0.1-1.5-0.3-2.9-0.5-4.4c-0.3-2.6-0.7-5.2-2.3-6.8l0.6-0.6c1.8,1.9,2.3,4.5,2.6,7.3
					C565.2,35.9,565.3,37.4,565.5,38.9z"/>
			</g>
			<g>
				<path d="M573.9,36.5l-0.8,0.2c-0.3-1.6-0.7-3.1-1.1-4.7c-0.6-2.4-1.2-4.7-2.5-6.7l0.7-0.5c1.4,2.1,2,4.5,2.7,6.9
					C573.2,33.4,573.6,34.9,573.9,36.5z"/>
			</g>
			<g>
				<path class="st5" d="M539.8,27.9c-2.3-1.4-4-4.3-5.1-6.6c-0.7-1.4,0.3-2.9,1.9-2.9c2.2,0,5.6-0.3,9.8-1.2
					c4.7-1,8.6-3.4,12.9-5.2c4.1-1.7,11.2-2.7,15.2,0.3c1.5,1.1,2.6,3.7,2.4,5.5c-0.4,3.5-3.6,5.5-6.5,7
					C562.6,28.7,548.3,33.1,539.8,27.9"/>
			</g>
		</g>
		<g class="st1">
			<path class="st4" d="M277.3-29.9c-13.1-2.9-25.5,0.5-27,15.5c-1.8,18.3,3.3,36.6,9.4,54c2.4,6.8,5.2,13.9,10.7,18.6
				c2.3,2,5.3,3.5,8.2,2.7c3.3-0.9,5.2-4.2,6.7-7.3c2.7-5.5,7.3-10.2,9.5-18.2c-0.8,2.8,6.8,10.5,8.6,12.4
				c5.5,5.7,16.1,8.2,20.1-0.6c3.8-8.5,3.1-19.1,2.5-28.1C325.2,7,323.7-5.5,319-16.8c-4.5-10.9-14.4-23.6-27.9-20.7
				c-3.5,0.7-5.2,3.4-7.1,6C281-27.4,282-28.8,277.3-29.9"/>
		</g>
		<g class="st1">
			<g>
				<path class="st6" d="M403.4,2.7c3.1-0.6,12.7,4.2,15.9,4.4c13.1,0.7,11.5-0.6,19.3-2.2c6.9-1.4,10.7,2.8,16.7,6.4
					c4.1,2.5,11.5,4.4,12.9,9c1.5,4.9-0.4,10.4-3.9,14.2c-4.9,5.2-12,7.2-18.6,8.9c-17.4,4.5-39.2,7.3-55.4-2.5
					c-7.4-4.5-17.1-11.7-15.7-21C375.7,12.2,397,3.9,403.4,2.7"/>
			</g>
			<g>
				<path d="M432.3,28.7c-5.2,0-10.5-0.2-15.9-0.4l-2.3-0.1c-11.5-0.5-27.2-1.1-38-10.3l0.4-0.5c9.9,8.4,22.9,9.5,37.6,10.1l2.3,0.1
					c17.8,0.7,34.7,1.4,50.9-5.7l0.3,0.6C456.2,27.5,444.4,28.7,432.3,28.7z"/>
			</g>
		</g>
		<g class="st1">
			<g>
				<path class="st3" d="M907.2,13.9c17.6,0.9,30.8,8.5,46,12.7c0.3,0.1,0.3,0.5,0,0.6l-9.8,3.3c-0.3,0.1-0.3,0.5,0,0.6
					c4,2,7.7,4.6,11,7.6c0.2,0.2,0.1,0.6-0.2,0.6c-3.2-0.1-6.3-0.5-9.4-1.1c-0.3-0.1-0.5,0.3-0.3,0.5c2,2.4,3.2,5.4,5.1,7.9
					c1.1,1.4-0.1,1.6-3-0.4c-6.3-4.5-21.9-11-29.5-13.2c-12.1-3.5-13.2-2-25.6-0.7c-0.3,0,0.3-5.2,0.4-5.5c1-5.3,1.1-7.2,2.3-8.8
					C896.7,14.3,903.2,13.6,907.2,13.9"/>
			</g>
			<g>
				<path class="st4" d="M894.6,35c-0.1-0.5-0.2-1.1-0.4-1.7c2.3,1.6,4.7,2.8,7.3,3.7c1.8,0.6,4.1,0.9,5.1-1c0.3-0.6,0.4-1.3,0.3-2
					c-0.3-1.8-1.4-3.1-2.3-4.4c-1.2-1.7-2.2-3.5-3.1-5.4c-0.5-1.2-1-2.7-0.3-3.8c0.4-0.5,0.9-0.9,1.5-1.2c2.4-1.4,4.5-3.1,6.5-5
					c0.6-0.6,1.2-1.3,0.8-2.4c-0.2-0.4-0.6-0.9-1-1.1c-4.2-2.7-9.6,0.6-14-1.4c-3.7-1.6-6.5-7.2-10.1-9.1c-0.5-0.3-1.1-0.4-1.7-0.4
					c-2.2,0.1-2.8,2.7-3.1,4.8c-0.4,3-0.4,6.3-2.9,8c-3,2.1-6,4.4-9.2,6.3c-1.3,0.8-2.8,2-2.3,3.7c0.1,0.4,0.3,0.8,0.6,1.1
					c1.5,1.6,3.8,1.5,5.9,1.3l5.9,0.3c0.3,0,0.5,0.2,0.5,0.5c0.2,5-2.3,10.2-1.8,15c0.2,1.8,1.9,3,3.5,2.3c1.3-0.6,2.4-1.6,3.4-2.7
					c1.6-1.9,2.7-4.1,4-6.2c0.2-0.3,0.4-0.7,0.7-1c0.1,0.7,0.3,1.4,0.5,2.3c1.4,6.9,3.3,13.7,4.9,20.5c1.8,7.8,3.6,15.6,5.5,23.3
					c0.1,0.4,0.2,0.8,0.6,0.9c0.3,0.1,0.6,0,0.9-0.1c1.3-0.6,2.6-1.4,3.8-2.2C901.1,63.5,897.9,49.3,894.6,35"/>
			</g>
		</g>
		<g class="st1">
			<g>
				<path class="st2" d="M1054.8,45.1c5,2.8,11.3,4.9,16.4,1c2.4-1.8,4.1-4.6,5.3-7.3c5.7-13.7,6-29,5.4-43.8
					c-0.3-6.2-1-9.4-4.8-14.4c-0.8-1.1-1.8-2-3.1-2.6c-5.5-2.4-10.6,5.7-14.3,8.5c-1.1,0.8-2.3,1.6-3.6,1.7c-1.5,0-2.9-1-3.8-2.2
					c-1.6-2-2.5-4.6-4.1-6.6c-3.4-4.4-9.9-6.4-14-1.8c-4.9,5.6-6.6,10.6-8.3,17.7c-2.2,9.5-3.9,19.5-3,29.3c0.8,8,2.4,19.7,12,21.6
					C1041.9,47.5,1048.1,41.4,1054.8,45.1"/>
			</g>
			<g>
				<path d="M1035.7-4.8c7.1,0.5,14.1,1.8,20.9,3c7.3,1.4,14.9,2.8,22.6,3.1c0,0,0.1,0,0.1,0c3.2,0.2,5.7,2.9,5.8,6.1
					c0.3,12.1-0.6,22.8-6.1,35.4c-1,2.3-2.9,5.5-5.9,7.7c-4.7,3.3-10.9,2.9-18.6-1.1c-4.1-2.1-7.9-1.1-12,0c-3.2,0.8-6.4,1.7-9.8,1
					c-11.4-2.1-12.9-15.9-13.7-22.5c-1.1-10.1,0.8-20.1,2.5-27.7c0.5-2.1,2.1-3.9,4.1-4.5l0,0c1.3-0.4,2.7-0.6,4.4-0.6
					C1031.9-5,1033.8-4.9,1035.7-4.8z M1077.4,2c-7.1-0.5-14.1-1.8-20.9-3c-8.6-1.6-17.5-3.2-26.5-3.2c-1.7,0-3,0.2-4.2,0.6l0,0
					c-1.8,0.6-3.2,2.1-3.7,4c-1.7,7.5-3.6,17.4-2.5,27.4c0.7,6.5,2.2,19.9,13.1,21.9c3.3,0.6,6.4-0.2,9.5-1c4-1.1,8.2-2.1,12.5,0.1
					c7.4,3.9,13.4,4.3,17.9,1.2c2.9-2,4.7-5.1,5.7-7.4c5.5-12.4,6.4-23,6.1-35.1c-0.1-2.9-2.4-5.3-5.3-5.4
					C1078.6,2.1,1078,2,1077.4,2z"/>
			</g>
		</g>
	</g>
</g>
<g id="Layer_2">
</g>
<g id="Layer_1">
	<g>
		<g>
			<path class="st3" d="M719.6,14.2c2.5-4.2,5.8-8.1,10.1-9.8c6.6-2.6,14.5-2.2,20,2.1c12.1,9.6,12,27.6,13.8,41.1
				c0.4,2.7-1.7,5.2-4.5,5.3c0,0-33.3-0.2-33.4-0.2c-3.6,0.2-8.7,0.9-12-1.1c-3.7-2.3-3.4-7.1-3.1-10.8c0.6-7.1,2.5-14,5.6-20.4
				C717.2,18.5,718.3,16.3,719.6,14.2"/>
		</g>
		<g>
			<path class="st3" d="M774,14.2c2.5-4.2,5.8-8.1,10.1-9.8c6.6-2.6,14.5-2.2,20,2.1c12.1,9.6,12,27.6,13.8,41.1
				c0.4,2.7-1.7,5.2-4.5,5.3c0,0-33.3-0.2-33.4-0.2c-3.6,0.2-8.7,0.9-12-1.1c-3.7-2.3-3.4-7.1-3.1-10.8c0.6-7.1,2.5-14,5.6-20.4
				C771.6,18.5,772.7,16.3,774,14.2"/>
		</g>
		<g>
			<path d="M751.3,29.7c-4.5,0-9-0.2-13.4-0.4c-8.1-0.4-16.6-0.7-24.8,0.2l-0.1-0.8c8.3-0.9,16.7-0.5,24.9-0.2
				c7.6,0.3,15.5,0.7,23.2,0l0.1,0.8C757.9,29.6,754.6,29.7,751.3,29.7z"/>
		</g>
		<g>
			<path d="M805.5,29.9c-4.5,0-9-0.2-13.4-0.4c-8.1-0.4-16.6-0.7-24.8,0.2l-0.1-0.8c8.3-0.9,16.7-0.5,24.9-0.2
				c7.6,0.3,15.5,0.7,23.2,0l0.1,0.8C812.1,29.8,808.8,29.9,805.5,29.9z"/>
		</g>
		<g>
			<path class="st3" d="M786.4,30.5l0,1.3c0,0,1,0,1.2,0c3-0.3,5.7,0.3,8.6-0.2c-0.1-1.5-0.2-3.1-0.4-4.6c-0.7,0-1.1,0-3.3,0
				c-2,0-4.1-0.1-5.9,0.1C786.6,27,786.3,28.9,786.4,30.5"/>
		</g>
		<g>
			<path d="M787.1,32.2c-0.3,0-0.7,0-0.8,0l-0.4,0l0-1.7c0-1.6,0.3-3.5,0.3-3.6l0-0.3l0.3,0c1.5-0.1,3.2-0.1,4.9-0.1l1,0
				c2.2,0,2.6,0,3.2,0l0.3,0l0,0.3c0.1,1,0.2,2,0.3,3.1c0,0.5,0.1,1.1,0.1,1.6l0,0.3l-0.3,0.1c-1.7,0.3-3.3,0.3-4.9,0.2
				c-1.2,0-2.5-0.1-3.7,0C787.5,32.2,787.3,32.2,787.1,32.2z M789.4,31.4c0.7,0,1.3,0,1.9,0c1.5,0.1,2.9,0.1,4.4-0.1
				c0-0.4-0.1-0.8-0.1-1.2c-0.1-0.9-0.1-1.8-0.2-2.7c-0.5,0-1.1,0-2.9,0l-1,0c-1.5,0-3.1,0-4.5,0c-0.1,0.6-0.3,1.9-0.2,3.1l0,0.9
				c0.3,0,0.7,0,0.8,0C788.2,31.4,788.8,31.4,789.4,31.4z"/>
		</g>
		<g>
			<path class="st3" d="M732.2,30.2v1.3c0,0,1,0,1.2,0c3-0.4,5.7,0.1,8.6-0.5c-0.2-1.5-0.3-3.1-0.5-4.6c-0.7,0-1.1,0.1-3.3,0.1
				c-2,0-4.1,0-5.9,0.2C732.4,26.7,732.1,28.6,732.2,30.2"/>
		</g>
		<g>
			<path d="M731.8,31.9v-1.7c-0.1-1.6,0.2-3.5,0.2-3.6l0-0.3l0.3,0c1.5-0.2,3.3-0.2,5-0.2l1,0c2.2,0,2.6-0.1,3.2-0.1l0.3,0l0.1,0.3
				c0.2,1,0.3,2,0.4,3c0.1,0.5,0.1,1.1,0.2,1.6l0,0.3l-0.3,0.1c-1.7,0.4-3.3,0.3-4.9,0.3c-1.2,0-2.5,0-3.7,0.1c-0.2,0-1.1,0-1.3,0
				L731.8,31.9z M732.7,27.1c-0.1,0.6-0.2,1.9-0.1,3.1l0,0.9c0.3,0,0.7,0,0.8,0c1.3-0.2,2.6-0.2,3.8-0.1c1.5,0,2.9,0,4.4-0.3
				c0-0.4-0.1-0.8-0.1-1.2c-0.1-0.9-0.2-1.8-0.3-2.7c-0.5,0-1.1,0-2.9,0.1l-1,0C735.8,26.9,734.2,26.9,732.7,27.1z"/>
		</g>
	</g>
</g>
<g id="Layer_3">
</g>
<g id="Layer_5">
</g>
<g id="Layer_6">
</g>
</svg>
